<?xml version="1.0" encoding="utf-8"?>
<!-- Generator: Adobe Illustrator 25.1.0, SVG Export Plug-In . SVG Version: 6.00 Build 0)  -->
<svg version="1.1" id="Слой_1" xmlns="http://www.w3.org/2000/svg" xmlns:xlink="http://www.w3.org/1999/xlink" x="0px" y="0px"
	 viewBox="0 0 193.6 269.8" style="enable-background:new 0 0 193.6 269.8;" xml:space="preserve">
<style type="text/css">
	.st0{fill:#ABBD00;}
	.st1{fill:#A7AEB0;}
	.st2{fill:#F4F5F5;}
	.st3{enable-background:new    ;}
	.st4{fill:url(#Ellipse_8562_1_);stroke:#ABBD00;stroke-width:2;}
</style>
<g id="Group_4009" transform="translate(-59.374 -17343.508)">
	<g id="Group_3910" transform="translate(18957.592 17360.336) rotate(90)">
		<path id="Path_13616" class="st0" d="M39.5,18807.2H27.6c-3.9,0-7.1-3.2-7.1-7.1c0-3.9,3.2-7.1,7.1-7.1h11.9
			c3.9,0,7.1,3.2,7.1,7.1C46.6,18804.1,43.4,18807.2,39.5,18807.2L39.5,18807.2z"/>
		<g id="Group_3821" transform="translate(-16.828 18704.592)">
			<path id="Path_13617" class="st0" d="M262.6,88.5h-27c-1.5,0-2.7-1.1-2.9-2.6c-5.5-52.6-52.5-90.8-105.2-85.4
				C90.3,4.4,58.6,29.7,46.7,65.3c-0.4,1.2-1.5,2-2.7,2H20.3c-3.9,0-7.1,3-7.3,6.8c-0.1,3.9,2.9,7.2,6.8,7.3c0.1,0,0.2,0,0.3,0h31.3
				c3.6,0,6.7-2.7,7.1-6.3C70,31.6,114.5,5.5,158,16.9c43.5,11.4,69.6,55.9,58.2,99.4c-11.4,43.5-55.9,69.6-99.4,58.2
				c-28.4-7.5-50.7-29.7-58.1-58.1c-0.2-3.7-3.3-6.7-7.1-6.7H28.2c-3.9,0-7.1,3-7.3,6.8c-0.1,3.9,2.9,7.2,6.8,7.3c0.1,0,0.2,0,0.3,0
				h15.9c1.2,0,2.3,0.8,2.7,2c16.8,50.2,71,77.3,121.2,60.6c28.6-9.5,51-32,60.6-60.6c0.4-1.2,1.5-2,2.7-2h4.2c3.9,0,7.1-3,7.3-6.8
				c0.1-3.9-2.9-7.2-6.8-7.3c-0.1,0-0.2,0-0.3,0l0,0c-1.6,0-2.9-1.3-2.9-2.9c0-0.1,0-0.2,0-0.3c0-0.4,0.1-0.9,0.1-1.3
				c0.1-1.5,1.4-2.6,2.9-2.6h27.1c3.9,0,7.1-3.2,7.1-7.1c0-0.1,0-0.2,0-0.3C269.6,91.5,266.4,88.5,262.6,88.5z"/>
			
				<ellipse id="Ellipse_7508" transform="matrix(2.535182e-06 1 -1 2.535182e-06 123.991 109.8087)" class="st1" cx="7.1" cy="116.9" rx="7.1" ry="7.1"/>
		</g>
		<g id="Group_3832" transform="translate(38.901 18718.348)">
			<path id="Path_13623" class="st2" d="M81.9,0C36.7,0,0,36.7,0,81.9s36.7,81.9,81.9,81.9s81.9-36.7,81.9-81.9
				c0-21.7-8.6-42.6-24-57.9C124.5,8.6,103.7-0.1,81.9,0z"/>
		</g>
		<g class="st3">
			<path d="M140.7,18851.9v1.1H136c-0.6,0-1,0.2-1.4,0.6s-0.5,0.9-0.5,1.5c0,0.9,0.3,1.5,0.9,1.9c0.4-0.3,0.7-0.8,0.8-1.6h0.4
				c0,0.3,0.1,0.5,0.3,0.7s0.4,0.3,0.7,0.3h3.6v1.1h-3.6c-0.5,0-0.9-0.2-1.1-0.6c-0.2,0.6-0.5,1-1,1.2c-1.1-0.6-1.7-1.6-1.7-3.1
				c0-0.9,0.2-1.7,0.7-2.3s1.1-0.9,1.9-0.9H140.7z"/>
			<path d="M133.9,18844.7c0.4,0.3,0.6,0.7,0.6,1.2c0,0.2-0.1,0.5-0.2,1s-0.2,0.8-0.2,1c0,0.6,0.2,1,0.7,1.3c0-0.3-0.1-0.6-0.1-0.9
				c0-1,0.2-1.8,0.6-2.3c0.4-0.5,1-0.8,1.7-0.8h2.6c0.3,0,0.6,0.1,0.8,0.4c0.2,0.2,0.4,0.5,0.4,0.8c0,0.3-0.1,0.6-0.4,0.8
				c-0.2,0.2-0.5,0.4-0.8,0.4s-0.6-0.1-0.8-0.4c-0.2-0.2-0.4-0.5-0.4-0.8v-0.1h-1.2c-0.7,0-1.1,0.2-1.3,0.5
				c-0.2,0.4-0.3,0.9-0.3,1.8c0,0.6,0.1,1.1,0.2,1.6c-0.7,0-1.3-0.3-1.7-0.7c-0.4-0.4-0.6-0.9-0.6-1.6c0-0.3,0.1-0.7,0.2-1.2
				c0.1-0.5,0.2-0.7,0.2-0.8c0-0.3-0.1-0.5-0.4-0.7L133.9,18844.7z M140.1,18846.3c0-0.2-0.1-0.3-0.2-0.4c-0.1-0.1-0.3-0.2-0.4-0.2
				s-0.3,0.1-0.4,0.2c-0.1,0.1-0.2,0.3-0.2,0.4c0,0.2,0.1,0.3,0.2,0.4c0.1,0.1,0.3,0.2,0.4,0.2s0.3-0.1,0.4-0.2
				C140.1,18846.6,140.1,18846.5,140.1,18846.3z"/>
			<path d="M139.2,18837.8c0.4,0,0.8,0.2,1.1,0.5c0.3,0.3,0.4,0.7,0.4,1.1v1.8c0,0.4-0.1,0.8-0.4,1.1c-0.3,0.3-0.6,0.5-1.1,0.5h-2.6
				c-0.3,0-0.6-0.1-0.8-0.4c-0.2-0.2-0.4-0.5-0.4-0.8c0-0.3,0.1-0.6,0.4-0.8c0.2-0.2,0.5-0.4,0.8-0.4s0.6,0.1,0.8,0.4
				c0.2,0.2,0.4,0.5,0.4,0.8v0.1h1.5c0.4,0,0.6-0.2,0.6-0.7v-1.2c0-0.5-0.2-0.7-0.6-0.7h-3.5c-0.5,0-0.9,0.2-1.3,0.6
				c-0.3,0.4-0.5,0.9-0.5,1.5c0,0.4,0.1,0.9,0.3,1.3c0.2,0.4,0.4,0.8,0.7,1l-0.5,0.6c-0.4-0.3-0.7-0.7-1-1.3s-0.4-1.1-0.4-1.6
				c0-0.9,0.2-1.6,0.7-2.2c0.5-0.6,1.1-0.9,1.8-0.9H139.2z M137.2,18841.6c0-0.2-0.1-0.3-0.2-0.4c-0.1-0.1-0.3-0.2-0.4-0.2
				s-0.3,0.1-0.4,0.2c-0.1,0.1-0.2,0.3-0.2,0.4c0,0.2,0.1,0.3,0.2,0.4c0.1,0.1,0.3,0.2,0.4,0.2s0.3-0.1,0.4-0.2
				C137.2,18841.9,137.2,18841.7,137.2,18841.6z"/>
			<path d="M140.7,18830.2v1.1H136c-0.6,0-1,0.2-1.4,0.6s-0.5,0.9-0.5,1.5c0,0.9,0.3,1.5,0.9,1.9c0.4-0.3,0.7-0.8,0.8-1.6h0.4
				c0,0.3,0.1,0.5,0.3,0.7s0.4,0.3,0.7,0.3h3.6v1.1h-3.6c-0.5,0-0.9-0.2-1.1-0.6c-0.2,0.6-0.5,1-1,1.2c-1.1-0.6-1.7-1.6-1.7-3.1
				c0-0.9,0.2-1.7,0.7-2.3s1.1-0.9,1.9-0.9H140.7z"/>
			<path d="M133.9,18822.9c0.4,0.3,0.6,0.7,0.6,1.2c0,0.2-0.1,0.5-0.2,1s-0.2,0.8-0.2,1c0,0.6,0.2,1,0.7,1.3c0-0.3-0.1-0.6-0.1-0.9
				c0-1,0.2-1.8,0.6-2.3c0.4-0.5,1-0.8,1.7-0.8h2.6c0.3,0,0.6,0.1,0.8,0.4c0.2,0.2,0.4,0.5,0.4,0.8c0,0.3-0.1,0.6-0.4,0.8
				c-0.2,0.2-0.5,0.4-0.8,0.4s-0.6-0.1-0.8-0.4c-0.2-0.2-0.4-0.5-0.4-0.8v-0.1h-1.2c-0.7,0-1.1,0.2-1.3,0.5
				c-0.2,0.4-0.3,0.9-0.3,1.8c0,0.6,0.1,1.1,0.2,1.6c-0.7,0-1.3-0.3-1.7-0.7c-0.4-0.4-0.6-0.9-0.6-1.6c0-0.3,0.1-0.7,0.2-1.2
				c0.1-0.5,0.2-0.7,0.2-0.8c0-0.3-0.1-0.5-0.4-0.7L133.9,18822.9z M140.1,18824.6c0-0.2-0.1-0.3-0.2-0.4c-0.1-0.1-0.3-0.2-0.4-0.2
				s-0.3,0.1-0.4,0.2c-0.1,0.1-0.2,0.3-0.2,0.4c0,0.2,0.1,0.3,0.2,0.4c0.1,0.1,0.3,0.2,0.4,0.2s0.3-0.1,0.4-0.2
				C140.1,18824.9,140.1,18824.8,140.1,18824.6z"/>
			<path d="M140.7,18817.5v1.1h-4.9c-1.1,0-1.7,0.5-1.7,1.5c0,0.7,0.3,1.2,1,1.7l-0.5,0.6c-0.9-0.7-1.3-1.4-1.3-2.3
				c0-0.8,0.2-1.4,0.7-1.9c0.4-0.5,1.1-0.7,1.8-0.7H140.7z"/>
			<path d="M139.2,18810.5c0.4,0,0.8,0.2,1.1,0.5c0.3,0.3,0.4,0.7,0.4,1.1v3.8h-2.3c-0.6,0-1-0.2-1.2-0.6c-0.2,0.4-0.7,0.6-1.2,0.6
				h-1.5c-0.3,0-0.6-0.1-0.8-0.4s-0.4-0.5-0.4-0.8s0.1-0.6,0.4-0.8s0.5-0.4,0.8-0.4s0.6,0.1,0.8,0.4s0.4,0.5,0.4,0.8v0.1h0.3
				c0.3,0,0.6-0.1,0.7-0.3c0.2-0.2,0.3-0.4,0.3-0.7h0.4c0,0.3,0.1,0.5,0.3,0.7c0.2,0.2,0.4,0.3,0.7,0.3h1.5v-2.3
				c0-0.5-0.2-0.7-0.6-0.7h-5.8v-1.1H139.2z M135.1,18814.7c0-0.2-0.1-0.3-0.2-0.4c-0.1-0.1-0.3-0.2-0.4-0.2c-0.2,0-0.3,0.1-0.4,0.2
				c-0.1,0.1-0.2,0.3-0.2,0.4s0.1,0.3,0.2,0.4c0.1,0.1,0.3,0.2,0.4,0.2c0.2,0,0.3-0.1,0.4-0.2
				C135.1,18815,135.1,18814.8,135.1,18814.7z"/>
			<path d="M140.7,18803.7v1.1h-0.2c-1.2,0.5-2.2,0.9-2.9,1.4c-0.7,0.4-1.1,0.8-1.1,1c0,0.2,0.2,0.3,0.5,0.3h1.4v-0.1
				c0-0.3,0.1-0.6,0.4-0.8c0.2-0.2,0.5-0.4,0.8-0.4s0.6,0.1,0.8,0.4c0.2,0.2,0.4,0.5,0.4,0.8s-0.1,0.6-0.4,0.8
				c-0.2,0.2-0.5,0.4-0.8,0.4h-2.6c-0.9,0-1.4-0.4-1.4-1.1c0-0.8,1.1-1.7,3.3-2.6h-3.1c-0.5,0-1,0.2-1.3,0.5
				c-0.3,0.3-0.4,0.8-0.4,1.3c0,0.8,0.3,1.5,1,2l-0.5,0.6c-0.9-0.7-1.3-1.5-1.3-2.6c0-0.8,0.2-1.5,0.7-2.1s1.1-0.8,1.8-0.8H140.7z
				 M140.1,18807.4c0-0.2-0.1-0.3-0.2-0.4c-0.1-0.1-0.3-0.2-0.4-0.2s-0.3,0.1-0.4,0.2c-0.1,0.1-0.2,0.3-0.2,0.4
				c0,0.2,0.1,0.3,0.2,0.4c0.1,0.1,0.3,0.2,0.4,0.2s0.3-0.1,0.4-0.2C140.1,18807.7,140.1,18807.6,140.1,18807.4z"/>
			<path d="M133.5,18797.2c0.8,0.1,1.5,0.5,2,1.1c0.5,0.6,0.7,1.4,0.7,2.3c0,0.6-0.1,1-0.4,1.4c-0.3,0.3-0.6,0.5-1,0.5
				c-0.3,0-0.6-0.1-0.8-0.4c-0.2-0.2-0.4-0.5-0.4-0.8s0.1-0.6,0.4-0.8c0.2-0.2,0.5-0.4,0.8-0.4c0.3,0,0.6,0.1,0.8,0.3
				c0-0.6-0.2-1.1-0.5-1.5c-0.4-0.4-0.8-0.7-1.5-0.7V18797.2z M138.1,18797.2c0.8,0.1,1.5,0.5,1.9,1.1s0.7,1.4,0.7,2.3
				c0,0.6-0.1,1-0.4,1.4c-0.3,0.3-0.6,0.5-1,0.5c-0.3,0-0.6-0.1-0.8-0.4s-0.4-0.5-0.4-0.8s0.1-0.6,0.4-0.8s0.5-0.4,0.8-0.4
				c0.3,0,0.6,0.1,0.8,0.3c0-0.6-0.2-1.1-0.5-1.5c-0.4-0.4-0.8-0.7-1.5-0.7V18797.2z M135.3,18801.3c0-0.2-0.1-0.3-0.2-0.4
				c-0.1-0.1-0.3-0.2-0.4-0.2c-0.2,0-0.3,0.1-0.4,0.2c-0.1,0.1-0.2,0.3-0.2,0.4s0.1,0.3,0.2,0.4c0.1,0.1,0.3,0.2,0.4,0.2
				c0.2,0,0.3-0.1,0.4-0.2C135.3,18801.6,135.3,18801.4,135.3,18801.3z M139.9,18801.3c0-0.2-0.1-0.3-0.2-0.4
				c-0.1-0.1-0.3-0.2-0.4-0.2s-0.3,0.1-0.4,0.2c-0.1,0.1-0.2,0.3-0.2,0.4s0.1,0.3,0.2,0.4c0.1,0.1,0.3,0.2,0.4,0.2s0.3-0.1,0.4-0.2
				C139.8,18801.6,139.9,18801.4,139.9,18801.3z"/>
			<path d="M138.3,18794.6L138.3,18794.6c0-0.4,0.1-0.7,0.4-0.9c0.2-0.2,0.5-0.4,0.8-0.4s0.6,0.1,0.8,0.4c0.2,0.2,0.4,0.5,0.4,0.9
				c0,0.3-0.1,0.6-0.4,0.8c-0.2,0.2-0.5,0.4-0.8,0.4h-6.1v-1.1H138.3z M140.1,18794.5c0-0.2-0.1-0.3-0.2-0.4
				c-0.1-0.1-0.3-0.2-0.4-0.2s-0.3,0.1-0.4,0.2c-0.1,0.1-0.2,0.3-0.2,0.4c0,0.2,0.1,0.3,0.2,0.4c0.1,0.1,0.3,0.2,0.4,0.2
				s0.3-0.1,0.4-0.2C140.1,18794.8,140.1,18794.7,140.1,18794.5z"/>
			<path d="M139.2,18786.1c0.4,0,0.8,0.2,1.1,0.5c0.3,0.3,0.4,0.7,0.4,1.1v1.8c0,0.4-0.1,0.8-0.4,1.1c-0.3,0.3-0.6,0.5-1.1,0.5h-2.6
				c-0.3,0-0.6-0.1-0.8-0.4s-0.4-0.5-0.4-0.8c0-0.3,0.1-0.6,0.4-0.8c0.2-0.2,0.5-0.4,0.8-0.4s0.6,0.1,0.8,0.4
				c0.2,0.2,0.4,0.5,0.4,0.8v0.1h1.5c0.4,0,0.6-0.2,0.6-0.7v-1.2c0-0.5-0.2-0.7-0.6-0.7h-3.5c-0.5,0-0.9,0.2-1.3,0.6
				s-0.5,0.9-0.5,1.5c0,0.4,0.1,0.9,0.3,1.3c0.2,0.4,0.4,0.8,0.7,1l-0.5,0.6c-0.4-0.3-0.7-0.7-1-1.3c-0.2-0.5-0.4-1.1-0.4-1.6
				c0-0.9,0.2-1.6,0.7-2.2c0.5-0.6,1.1-0.9,1.8-0.9H139.2z M137.2,18789.9c0-0.2-0.1-0.3-0.2-0.4c-0.1-0.1-0.3-0.2-0.4-0.2
				s-0.3,0.1-0.4,0.2c-0.1,0.1-0.2,0.3-0.2,0.4c0,0.2,0.1,0.3,0.2,0.4c0.1,0.1,0.3,0.2,0.4,0.2s0.3-0.1,0.4-0.2
				C137.2,18790.2,137.2,18790,137.2,18789.9z"/>
			<path d="M132.5,18786.1v5.5c-1.4-0.4-2.2-1.3-2.2-2.7c0-0.9,0.3-1.6,1-2.2h-1.4v-0.6H132.5z M131.9,18787
				c-0.7,0.3-1.1,0.9-1.1,1.8c0,0.9,0.4,1.5,1.1,1.8V18787z"/>
			<path d="M139.2,18779.1c0.4,0,0.8,0.2,1.1,0.5c0.3,0.3,0.4,0.7,0.4,1.1v3.8h-2.3c-0.6,0-1-0.2-1.2-0.6c-0.2,0.4-0.7,0.6-1.2,0.6
				h-1.5c-0.3,0-0.6-0.1-0.8-0.4s-0.4-0.5-0.4-0.8s0.1-0.6,0.4-0.8s0.5-0.4,0.8-0.4s0.6,0.1,0.8,0.4s0.4,0.5,0.4,0.8v0.1h0.3
				c0.3,0,0.6-0.1,0.7-0.3c0.2-0.2,0.3-0.4,0.3-0.7h0.4c0,0.3,0.1,0.5,0.3,0.7c0.2,0.2,0.4,0.3,0.7,0.3h1.5v-2.3
				c0-0.5-0.2-0.7-0.6-0.7h-5.8v-1.1H139.2z M135.1,18783.3c0-0.2-0.1-0.3-0.2-0.4c-0.1-0.1-0.3-0.2-0.4-0.2c-0.2,0-0.3,0.1-0.4,0.2
				c-0.1,0.1-0.2,0.3-0.2,0.4s0.1,0.3,0.2,0.4c0.1,0.1,0.3,0.2,0.4,0.2c0.2,0,0.3-0.1,0.4-0.2
				C135.1,18783.6,135.1,18783.4,135.1,18783.3z"/>
			<path d="M140.7,18771.2v1.1H136c-0.6,0-1,0.2-1.4,0.6c-0.3,0.4-0.5,0.9-0.5,1.6c0,0.7,0.2,1.3,0.6,1.7c0.4,0.4,0.9,0.6,1.4,0.6
				c0.6,0,1.1-0.2,1.8-0.6s1.1-0.6,1.3-0.8c-0.2-0.1-0.4-0.3-0.7-0.6s-0.5-0.4-0.6-0.5v0c0,0.3-0.1,0.6-0.4,0.9
				c-0.2,0.2-0.5,0.4-0.8,0.4s-0.6-0.1-0.8-0.4c-0.2-0.2-0.4-0.5-0.4-0.9c0-0.3,0.1-0.6,0.4-0.8c0.2-0.2,0.5-0.4,0.8-0.4
				c0.3,0,0.6,0.1,0.9,0.2c0.3,0.1,0.7,0.4,1.2,0.9c0.5,0.5,0.9,0.7,1.2,0.7h0.6v1.1h-0.6c-0.5,0-1.1,0.2-1.9,0.6s-1.5,0.7-2.1,0.7
				c-0.8,0-1.4-0.3-2-0.9c-0.5-0.6-0.8-1.3-0.8-2.3c0-1,0.2-1.8,0.7-2.4c0.5-0.6,1.1-0.9,1.9-0.9H140.7z M137.3,18774.7
				c0-0.2-0.1-0.3-0.2-0.4c-0.1-0.1-0.3-0.2-0.4-0.2c-0.2,0-0.3,0.1-0.4,0.2s-0.2,0.3-0.2,0.4c0,0.2,0.1,0.3,0.2,0.4
				c0.1,0.1,0.3,0.2,0.4,0.2c0.2,0,0.3-0.1,0.4-0.2C137.2,18775,137.3,18774.8,137.3,18774.7z"/>
			<path d="M139.2,18763.4c0.4,0,0.8,0.2,1.1,0.5c0.3,0.3,0.4,0.7,0.4,1.1v3.2h-0.8v-0.7h-3.1c-0.3,0-0.5-0.1-0.8-0.4
				c-0.3-0.2-0.6-0.4-0.9-0.4c-0.3,0-0.6,0.1-0.9,0.4c-0.2,0.3-0.3,0.6-0.3,0.9c0,0.2,0,0.4,0.1,0.6c0.2-0.6,0.6-0.9,1.2-0.9
				c0.3,0,0.6,0.1,0.8,0.4c0.2,0.2,0.4,0.5,0.4,0.8s-0.1,0.6-0.4,0.8c-0.2,0.2-0.5,0.4-0.8,0.4c-0.5,0-0.9-0.2-1.3-0.6
				c-0.4-0.4-0.6-0.9-0.6-1.5c0-0.7,0.2-1.3,0.5-1.7c0.3-0.4,0.8-0.6,1.3-0.6c0.3,0,0.7,0.1,1,0.3s0.5,0.3,0.7,0.3h3.1v-1.1
				c0-0.5-0.2-0.7-0.6-0.7h-5.8v-1.1H139.2z M135.8,18769c0-0.2-0.1-0.3-0.2-0.4c-0.1-0.1-0.3-0.2-0.4-0.2s-0.3,0.1-0.4,0.2
				c-0.1,0.1-0.2,0.3-0.2,0.4c0,0.2,0.1,0.3,0.2,0.4c0.1,0.1,0.3,0.2,0.4,0.2s0.3-0.1,0.4-0.2
				C135.7,18769.3,135.8,18769.1,135.8,18769z"/>
			<path d="M139.2,18756c0.4,0,0.8,0.2,1.1,0.5c0.3,0.3,0.4,0.7,0.4,1.1v1.8c0,0.4-0.1,0.8-0.4,1.1c-0.3,0.3-0.6,0.5-1.1,0.5h-2.6
				c-0.3,0-0.6-0.1-0.8-0.4c-0.2-0.2-0.4-0.5-0.4-0.8c0-0.3,0.1-0.6,0.4-0.8c0.2-0.2,0.5-0.4,0.8-0.4s0.6,0.1,0.8,0.4
				c0.2,0.2,0.4,0.5,0.4,0.8v0.1h1.5c0.4,0,0.6-0.2,0.6-0.7v-1.2c0-0.5-0.2-0.7-0.6-0.7h-3.5c-0.5,0-0.9,0.2-1.3,0.6
				c-0.3,0.4-0.5,0.9-0.5,1.5c0,0.4,0.1,0.9,0.3,1.3c0.2,0.4,0.4,0.8,0.7,1l-0.5,0.6c-0.4-0.3-0.7-0.7-1-1.3s-0.4-1.1-0.4-1.6
				c0-0.9,0.2-1.6,0.7-2.2c0.5-0.6,1.1-0.9,1.8-0.9H139.2z M137.2,18759.8c0-0.2-0.1-0.3-0.2-0.4c-0.1-0.1-0.3-0.2-0.4-0.2
				s-0.3,0.1-0.4,0.2c-0.1,0.1-0.2,0.3-0.2,0.4c0,0.2,0.1,0.3,0.2,0.4c0.1,0.1,0.3,0.2,0.4,0.2s0.3-0.1,0.4-0.2
				C137.2,18760.1,137.2,18760,137.2,18759.8z"/>
			<path d="M140.7,18750.1v1.1c-1.1,0.7-1.9,1.4-2.4,2c-0.5,0.6-0.8,1.3-0.8,2h-0.6c0-0.7,0.2-1.4,0.6-2c0.4-0.6,1.1-1.3,2.1-2h-3.9
				v0.1c0,0.3-0.1,0.6-0.4,0.8s-0.5,0.4-0.8,0.4s-0.6-0.1-0.8-0.4s-0.4-0.5-0.4-0.8c0-0.3,0.1-0.6,0.4-0.8c0.2-0.2,0.5-0.4,0.8-0.4
				H140.7z M135.1,18751.3c0-0.2-0.1-0.3-0.2-0.4s-0.3-0.2-0.4-0.2c-0.2,0-0.3,0.1-0.4,0.2c-0.1,0.1-0.2,0.3-0.2,0.4
				c0,0.2,0.1,0.3,0.2,0.4c0.1,0.1,0.3,0.2,0.4,0.2c0.2,0,0.3-0.1,0.4-0.2C135.1,18751.6,135.1,18751.5,135.1,18751.3z"/>
			<path d="M140.7,18742.2v1.1H136c-0.6,0-1,0.2-1.4,0.6c-0.3,0.4-0.5,0.9-0.5,1.6c0,0.7,0.2,1.3,0.6,1.7c0.4,0.4,0.9,0.6,1.4,0.6
				c0.6,0,1.2-0.2,1.7-0.5h-1.1c-0.3,0-0.6-0.1-0.8-0.4c-0.2-0.2-0.4-0.5-0.4-0.8c0-0.3,0.1-0.6,0.4-0.8c0.2-0.2,0.5-0.4,0.8-0.4
				s0.6,0.1,0.8,0.4c0.2,0.2,0.4,0.5,0.4,0.8v0.1h2.8v1.1h-0.6c-0.5,0-1.1,0.2-1.9,0.7c-0.8,0.4-1.5,0.6-2.1,0.6
				c-0.8,0-1.4-0.3-2-0.9s-0.8-1.3-0.8-2.3c0-1,0.2-1.8,0.7-2.4c0.5-0.6,1.1-0.9,1.9-0.9H140.7z M137.3,18746.2
				c0-0.2-0.1-0.3-0.2-0.4c-0.1-0.1-0.3-0.2-0.4-0.2c-0.2,0-0.3,0.1-0.4,0.2c-0.1,0.1-0.2,0.3-0.2,0.4c0,0.2,0.1,0.3,0.2,0.4
				c0.1,0.1,0.3,0.2,0.4,0.2c0.2,0,0.3-0.1,0.4-0.2C137.2,18746.6,137.3,18746.4,137.3,18746.2z"/>
			<path d="M143.7,18742.2v0.6H143c0,0.2-0.1,0.3-0.2,0.4c-0.1,0.1-0.2,0.2-0.4,0.2c-0.2,0-0.3-0.1-0.4-0.2
				c-0.1-0.1-0.2-0.2-0.2-0.4c0-0.2,0.1-0.4,0.2-0.5c0.1-0.1,0.3-0.2,0.5-0.2H143.7z M142.7,18742.9c0-0.2-0.1-0.3-0.3-0.3
				s-0.3,0.1-0.3,0.3s0.1,0.3,0.3,0.3S142.7,18743.1,142.7,18742.9z"/>
			<path d="M157.5,18834.5v1.1h-4.7c-0.6,0-1.1,0.1-1.4,0.4s-0.5,0.7-0.5,1.2c0,0.8,0.3,1.3,0.9,1.6c0.4-0.3,0.7-0.8,0.8-1.6h0.4
				c0,0.3,0.1,0.5,0.3,0.7c0.2,0.2,0.4,0.3,0.7,0.3h1.2v-0.1c0-0.3,0.1-0.6,0.4-0.9c0.2-0.2,0.5-0.4,0.8-0.4s0.6,0.1,0.8,0.4
				c0.2,0.2,0.4,0.5,0.4,0.9c0,0.3-0.1,0.6-0.4,0.8c-0.2,0.2-0.5,0.4-0.8,0.4h-2.4c-0.5,0-0.9-0.2-1.1-0.6c-0.2,0.6-0.5,1-1,1.2
				c-1.1-0.6-1.7-1.5-1.7-2.8c0-0.8,0.2-1.5,0.7-2s1.1-0.8,1.9-0.8h3.3c-0.9-0.5-1.4-1.1-1.6-1.9h-4.1v-1.1h4.1
				c0.1-0.4,0.4-0.8,0.7-1.1s0.7-0.4,1.1-0.4c0.4,0,0.7,0.1,1,0.3s0.4,0.5,0.4,0.9c0,0.9-0.5,1.4-1.4,1.4h-1.1
				c0.1,0.3,0.3,0.6,0.8,1C156.3,18834.1,156.9,18834.3,157.5,18834.5z M156.9,18838.2c0-0.2-0.1-0.3-0.2-0.4
				c-0.1-0.1-0.3-0.2-0.4-0.2s-0.3,0.1-0.4,0.2c-0.1,0.1-0.2,0.3-0.2,0.4c0,0.2,0.1,0.3,0.2,0.4c0.1,0.1,0.3,0.2,0.4,0.2
				s0.3-0.1,0.4-0.2C156.9,18838.5,156.9,18838.4,156.9,18838.2z M156.2,18830.7c-0.2,0-0.5,0.1-0.7,0.2c-0.2,0.2-0.4,0.4-0.5,0.6
				h1.3c0.4,0,0.6-0.1,0.6-0.4C156.9,18830.8,156.7,18830.7,156.2,18830.7z"/>
			<path d="M155.1,18825.9L155.1,18825.9c0-0.4,0.1-0.7,0.4-0.9s0.5-0.4,0.8-0.4s0.6,0.1,0.8,0.4s0.4,0.5,0.4,0.8s-0.1,0.6-0.4,0.8
				s-0.5,0.4-0.8,0.4h-9.6c-1,0-1.5,0.4-1.5,1.3c0,0.4,0.1,0.7,0.4,0.9c0,0,0-0.1,0-0.2c0-0.3,0.1-0.6,0.4-0.8
				c0.2-0.2,0.5-0.4,0.8-0.4c0.3,0,0.6,0.1,0.9,0.4c0.2,0.2,0.4,0.5,0.4,0.8c0,0.3-0.1,0.6-0.4,0.9c-0.3,0.2-0.6,0.4-1.1,0.4
				c-0.4,0-0.9-0.2-1.3-0.6c-0.4-0.4-0.6-0.9-0.6-1.6c0-0.7,0.2-1.2,0.6-1.6c0.4-0.4,0.9-0.6,1.5-0.6H155.1z M147.4,18829
				c0-0.2-0.1-0.3-0.2-0.4c-0.1-0.1-0.3-0.2-0.4-0.2c-0.2,0-0.3,0.1-0.4,0.2c-0.1,0.1-0.2,0.3-0.2,0.4c0,0.2,0.1,0.3,0.2,0.4
				c0.1,0.1,0.3,0.2,0.4,0.2c0.2,0,0.3-0.1,0.4-0.2C147.4,18829.3,147.4,18829.2,147.4,18829z M156.9,18825.8c0-0.2-0.1-0.3-0.2-0.4
				c-0.1-0.1-0.3-0.2-0.4-0.2s-0.3,0.1-0.4,0.2c-0.1,0.1-0.2,0.3-0.2,0.4s0.1,0.3,0.2,0.4c0.1,0.1,0.3,0.2,0.4,0.2s0.3-0.1,0.4-0.2
				C156.9,18826.1,156.9,18826,156.9,18825.8z"/>
			<path d="M154.7,18816.9c0.3-0.8,0.8-1.2,1.6-1.2c0.4,0,0.7,0.1,1,0.3s0.4,0.5,0.4,0.8c0,0.4-0.1,0.7-0.3,0.9
				c-0.2,0.2-0.6,0.3-1.1,0.3h-0.9c0.2,1.1,1,2.2,2.2,3v1.1h-5v0.1c0,0.3-0.1,0.6-0.4,0.8s-0.5,0.4-0.8,0.4s-0.6-0.1-0.8-0.4
				s-0.4-0.5-0.4-0.8s0.1-0.6,0.4-0.8s0.5-0.4,0.8-0.4h5.2c-1-0.8-1.6-1.8-1.9-3h-4.4v-1.1H154.7z M151.9,18822.2
				c0-0.2-0.1-0.3-0.2-0.4c-0.1-0.1-0.3-0.2-0.4-0.2c-0.2,0-0.3,0.1-0.4,0.2c-0.1,0.1-0.2,0.3-0.2,0.4s0.1,0.3,0.2,0.4
				c0.1,0.1,0.3,0.2,0.4,0.2c0.2,0,0.3-0.1,0.4-0.2C151.9,18822.5,151.9,18822.4,151.9,18822.2z M156.2,18816.2
				c-0.2,0-0.4,0.1-0.6,0.2c-0.2,0.1-0.3,0.3-0.4,0.5h1.2c0.2,0,0.3,0,0.4,0c0.1,0,0.1-0.1,0.1-0.2
				C156.9,18816.4,156.7,18816.2,156.2,18816.2z"/>
			<path d="M155.1,18813.2L155.1,18813.2c0-0.4,0.1-0.7,0.4-0.9c0.2-0.2,0.5-0.4,0.8-0.4s0.6,0.1,0.8,0.4c0.2,0.2,0.4,0.5,0.4,0.9
				c0,0.3-0.1,0.6-0.4,0.8c-0.2,0.2-0.5,0.4-0.8,0.4h-6.1v-1.1H155.1z M156.9,18813.1c0-0.2-0.1-0.3-0.2-0.4
				c-0.1-0.1-0.3-0.2-0.4-0.2s-0.3,0.1-0.4,0.2c-0.1,0.1-0.2,0.3-0.2,0.4c0,0.2,0.1,0.3,0.2,0.4c0.1,0.1,0.3,0.2,0.4,0.2
				s0.3-0.1,0.4-0.2C156.9,18813.4,156.9,18813.3,156.9,18813.1z M155.1,18809.2L155.1,18809.2c0-0.4,0.1-0.7,0.4-0.9
				c0.2-0.2,0.5-0.4,0.8-0.4s0.6,0.1,0.8,0.4c0.2,0.2,0.4,0.5,0.4,0.8s-0.1,0.6-0.4,0.8c-0.2,0.2-0.5,0.4-0.8,0.4h-6.1v-1.1H155.1z
				 M156.9,18809.2c0-0.2-0.1-0.3-0.2-0.4c-0.1-0.1-0.3-0.2-0.4-0.2s-0.3,0.1-0.4,0.2c-0.1,0.1-0.2,0.3-0.2,0.4
				c0,0.2,0.1,0.3,0.2,0.4c0.1,0.1,0.3,0.2,0.4,0.2s0.3-0.1,0.4-0.2C156.9,18809.5,156.9,18809.3,156.9,18809.2z"/>
			<path d="M156,18799.9c0.4,0,0.8,0.2,1.1,0.5c0.3,0.3,0.4,0.7,0.4,1.1v4.7h-0.8v-0.7h-4.2v0.1c0,0.3-0.1,0.6-0.4,0.8
				c-0.2,0.2-0.5,0.4-0.8,0.4s-0.6-0.1-0.8-0.4c-0.2-0.2-0.4-0.5-0.4-0.8s0.1-0.6,0.4-0.8c0.2-0.2,0.5-0.4,0.8-0.4h5.4v-2.6
				c0-0.5-0.2-0.7-0.6-0.7h-5.8v-1.1H156z M151.9,18805.6c0-0.2-0.1-0.3-0.2-0.4c-0.1-0.1-0.3-0.2-0.4-0.2c-0.2,0-0.3,0.1-0.4,0.2
				c-0.1,0.1-0.2,0.3-0.2,0.4c0,0.2,0.1,0.3,0.2,0.4c0.1,0.1,0.3,0.2,0.4,0.2c0.2,0,0.3-0.1,0.4-0.2
				C151.9,18805.9,151.9,18805.7,151.9,18805.6z"/>
			<path d="M156,18791.7c0.4,0,0.8,0.2,1.1,0.5c0.3,0.3,0.4,0.7,0.4,1.1v4.7h-0.8v-0.7h-4.2v0.1c0,0.3-0.1,0.6-0.4,0.8
				c-0.2,0.2-0.5,0.4-0.8,0.4s-0.6-0.1-0.8-0.4c-0.2-0.2-0.4-0.5-0.4-0.8s0.1-0.6,0.4-0.8c0.2-0.2,0.5-0.4,0.8-0.4h5.4v-2.6
				c0-0.5-0.2-0.7-0.6-0.7h-5.8v-1.1H156z M151.9,18797.4c0-0.2-0.1-0.3-0.2-0.4c-0.1-0.1-0.3-0.2-0.4-0.2c-0.2,0-0.3,0.1-0.4,0.2
				c-0.1,0.1-0.2,0.3-0.2,0.4c0,0.2,0.1,0.3,0.2,0.4c0.1,0.1,0.3,0.2,0.4,0.2c0.2,0,0.3-0.1,0.4-0.2
				C151.9,18797.7,151.9,18797.6,151.9,18797.4z"/>
			<path d="M157.5,18782.6v1.1c-0.5,0-1.3,0.3-2.5,1c-1.1,0.7-2.1,1-2.8,1.1c0.7,0.1,1.7,0.5,2.8,1.1c1.1,0.7,2,1,2.5,1v1.1h-5v0.1
				c0,0.3-0.1,0.6-0.4,0.8c-0.2,0.2-0.5,0.4-0.8,0.4s-0.6-0.1-0.8-0.4c-0.2-0.2-0.4-0.5-0.4-0.8s0.1-0.6,0.4-0.8
				c0.2-0.2,0.5-0.4,0.8-0.4h4c-0.3-0.1-0.7-0.4-1.3-0.7c-1.2-0.7-2.4-1-3.7-1v-0.8c1.3,0,2.6-0.3,3.7-1c0.6-0.4,1-0.6,1.3-0.7h-8.8
				v-1.1H157.5z M151.9,18789.2c0-0.2-0.1-0.3-0.2-0.4c-0.1-0.1-0.3-0.2-0.4-0.2c-0.2,0-0.3,0.1-0.4,0.2c-0.1,0.1-0.2,0.3-0.2,0.4
				c0,0.2,0.1,0.3,0.2,0.4c0.1,0.1,0.3,0.2,0.4,0.2c0.2,0,0.3-0.1,0.4-0.2C151.9,18789.5,151.9,18789.4,151.9,18789.2z"/>
			<path d="M156,18775.3c0.4,0,0.8,0.2,1.1,0.5c0.3,0.3,0.4,0.7,0.4,1.1v1.8c0,0.4-0.1,0.8-0.4,1.1c-0.3,0.3-0.6,0.5-1.1,0.5h-2.6
				c-0.3,0-0.6-0.1-0.8-0.4s-0.4-0.5-0.4-0.8c0-0.3,0.1-0.6,0.4-0.8c0.2-0.2,0.5-0.4,0.8-0.4s0.6,0.1,0.8,0.4
				c0.2,0.2,0.4,0.5,0.4,0.8v0.1h1.5c0.4,0,0.6-0.2,0.6-0.7v-1.2c0-0.5-0.2-0.7-0.6-0.7h-3.5c-0.5,0-0.9,0.2-1.3,0.6
				s-0.5,0.9-0.5,1.5c0,0.4,0.1,0.9,0.3,1.3c0.2,0.4,0.4,0.8,0.7,1l-0.5,0.6c-0.4-0.3-0.7-0.7-1-1.3c-0.2-0.5-0.4-1.1-0.4-1.6
				c0-0.9,0.2-1.6,0.7-2.2c0.5-0.6,1.1-0.9,1.8-0.9H156z M154,18779c0-0.2-0.1-0.3-0.2-0.4c-0.1-0.1-0.3-0.2-0.4-0.2
				s-0.3,0.1-0.4,0.2c-0.1,0.1-0.2,0.3-0.2,0.4c0,0.2,0.1,0.3,0.2,0.4c0.1,0.1,0.3,0.2,0.4,0.2s0.3-0.1,0.4-0.2
				C154,18779.3,154,18779.2,154,18779z"/>
			<path d="M150.7,18768c0.4,0.3,0.6,0.7,0.6,1.2c0,0.2-0.1,0.5-0.2,1s-0.2,0.8-0.2,1c0,0.6,0.2,1,0.7,1.3c0-0.3-0.1-0.6-0.1-0.9
				c0-1,0.2-1.8,0.6-2.3s1-0.8,1.7-0.8h2.6c0.3,0,0.6,0.1,0.8,0.4c0.2,0.2,0.4,0.5,0.4,0.8c0,0.3-0.1,0.6-0.4,0.9
				c-0.2,0.2-0.5,0.4-0.8,0.4s-0.6-0.1-0.8-0.4c-0.2-0.2-0.4-0.5-0.4-0.9v-0.1h-1.2c-0.7,0-1.1,0.2-1.3,0.5s-0.3,0.9-0.3,1.8
				c0,0.6,0.1,1.1,0.2,1.6c-0.7,0-1.3-0.3-1.7-0.7c-0.4-0.4-0.6-0.9-0.6-1.6c0-0.3,0.1-0.7,0.2-1.2c0.1-0.5,0.2-0.7,0.2-0.8
				c0-0.3-0.1-0.5-0.4-0.7L150.7,18768z M156.9,18769.7c0-0.2-0.1-0.3-0.2-0.4c-0.1-0.1-0.3-0.2-0.4-0.2s-0.3,0.1-0.4,0.2
				c-0.1,0.1-0.2,0.3-0.2,0.4c0,0.2,0.1,0.3,0.2,0.4c0.1,0.1,0.3,0.2,0.4,0.2s0.3-0.1,0.4-0.2
				C156.9,18770,156.9,18769.9,156.9,18769.7z"/>
			<path d="M146.2,18767.4c0.2,0,0.4,0.1,0.6,0.2c0.2,0.2,0.3,0.5,0.4,0.9s0.3,0.7,0.4,0.8c0-0.2,0.1-0.4,0.2-0.6s0.4-0.2,0.6-0.2
				c0.2,0,0.4,0.1,0.6,0.2c0.2,0.2,0.2,0.4,0.2,0.6c0,0.2-0.1,0.4-0.3,0.6c-0.2,0.2-0.4,0.3-0.7,0.3c-0.7,0-1.1-0.4-1.4-1.3
				c-0.1-0.4-0.2-0.7-0.3-0.8c-0.1-0.1-0.2-0.2-0.3-0.2V18767.4z M148.8,18769.3c0-0.1,0-0.2-0.1-0.3c-0.1-0.1-0.2-0.1-0.3-0.1
				s-0.2,0-0.3,0.1c-0.1,0.1-0.1,0.2-0.1,0.3c0,0.1,0,0.2,0.1,0.3s0.2,0.1,0.3,0.1s0.2,0,0.3-0.1
				C148.8,18769.5,148.8,18769.4,148.8,18769.3z"/>
			<path d="M157.5,18760.3v1.1c-1.5,0.8-2.4,1.9-2.5,3.3h1.2c0.9,0,1.4,0.5,1.4,1.4c0,0.4-0.1,0.7-0.4,0.9c-0.2,0.2-0.6,0.4-1,0.4
				c-0.4,0-0.8-0.1-1.2-0.4c-0.3-0.3-0.6-0.6-0.7-1.1h-1.9v0.1c0,0.3-0.1,0.6-0.4,0.8s-0.5,0.4-0.8,0.4s-0.6-0.1-0.8-0.4
				s-0.4-0.5-0.4-0.8s0.1-0.6,0.4-0.8s0.5-0.4,0.8-0.4h3.1c0.1-1.3,0.8-2.4,1.9-3.3h-6v-1.1H157.5z M156.3,18765.9H155
				c0.1,0.3,0.2,0.5,0.5,0.6c0.2,0.2,0.5,0.2,0.8,0.2c0.2,0,0.4,0,0.5-0.1c0.1-0.1,0.2-0.2,0.2-0.4
				C156.9,18766.1,156.7,18765.9,156.3,18765.9z M151.9,18766c0-0.2-0.1-0.3-0.2-0.4c-0.1-0.1-0.3-0.2-0.4-0.2
				c-0.2,0-0.3,0.1-0.4,0.2c-0.1,0.1-0.2,0.3-0.2,0.4s0.1,0.3,0.2,0.4c0.1,0.1,0.3,0.2,0.4,0.2c0.2,0,0.3-0.1,0.4-0.2
				C151.9,18766.3,151.9,18766.1,151.9,18766z"/>
		</g>
		<g id="operator-icon" transform="translate(75.472 18811.283) rotate(-90)">
			<g id="Group_143">
				<path id="Path_339" class="st0" d="M21.9,23.8c-0.1-3.9-4.1-5.1-7-5.9c-0.3-0.1-0.7-0.2-1-0.3V16c0.6-0.4,1.1-0.9,1.5-1.4h1.8
					c0.9,0,1.6-0.7,1.6-1.6v-1.9c0.1-0.3,0.2-0.5,0.2-0.8V9.7c0-0.3-0.1-0.5-0.2-0.8v-1c0.1-4.4-3.3-8-7.7-8.1s-8,3.3-8.1,7.7
					c0,0.2,0,0.3,0,0.5v1c0,0,0,0,0,0C2.9,9.1,2.9,9.4,2.9,9.7v0.6c0,1.1,0.9,2,2,2h0.5c0.3,1.5,1.2,2.8,2.6,3.7v1.6
					c-0.3,0.1-0.6,0.2-1,0.3c-2.9,0.8-6.9,2-7,5.9c0,0,0,0,0,0v4.4c0,0.3,0.3,0.6,0.6,0.6h1.7c0.3,0,0.6-0.3,0.6-0.6
					c0-0.3-0.3-0.6-0.6-0.6l0,0H1.1v-3.8c0-1.4,0.8-2.6,2-3.2c0.9-0.5,1.9-1,3-1.3l1.4,2.6c0.1,0.3,0.5,0.4,0.8,0.2c0,0,0,0,0,0
					l0.6-0.4l0.5,1.9l-0.9,3.9H7.3c-0.3,0-0.6,0.3-0.6,0.6c0,0.3,0.3,0.6,0.6,0.6h14.1c0.3,0,0.6-0.3,0.6-0.6L21.9,23.8
					C21.9,23.8,21.9,23.8,21.9,23.8z M14.6,18.9l0.1,0l-1,1.9l-1.8-1.2l1.5-1C13.8,18.7,14.2,18.8,14.6,18.9L14.6,18.9z M10.9,20.3
					l1.1,0.8l-0.5,2h-1.2l-0.5-2L10.9,20.3z M10.9,19l-1.9-1.3v-1.2c1.2,0.4,2.6,0.4,3.8,0v1.2L10.9,19z M15.5,8L15.5,8
					c-1.2-0.7-2.2-1.4-3.7-0.9l0,0c-0.3,0.1-0.6,0.2-0.9,0.4c-1.4,0.7-2.9,1-4.4,1V8c0-2.5,2-4.6,4.6-4.6C13.5,3.4,15.5,5.5,15.5,8
					C15.5,8,15.5,8,15.5,8z M17.7,13c0,0.2-0.2,0.5-0.5,0.5h-1.1c0.2-0.4,0.3-0.7,0.4-1.1H17c0.3,0,0.5,0,0.7-0.1L17.7,13L17.7,13z
					 M17.9,10.3c0,0.5-0.4,0.9-0.9,0.9h-0.3c0,0,0-2.4,0-2.4H17c0.5,0,0.9,0.4,0.9,0.9V10.3L17.9,10.3z M4.9,11.2
					c-0.5,0-0.9-0.4-0.9-0.9V9.7c0-0.5,0.4-0.9,0.9-0.9h0.3c0,0,0,2.4,0,2.4L4.9,11.2z M5.3,7.6H4.9c-0.3,0-0.5,0-0.7,0.1
					C4.2,4,7.3,1.1,11.1,1.1c3.7,0.1,6.6,3,6.7,6.7c-0.2-0.1-0.5-0.1-0.7-0.1h-0.4c-0.2-3.1-2.9-5.5-6-5.3C7.7,2.5,5.4,4.8,5.3,7.6
					L5.3,7.6z M6.4,11.7L6.4,11.7c0-0.2,0-0.4,0-0.5V9.6c1.7,0,3.3-0.4,4.8-1.1c0.3-0.1,0.6-0.2,0.9-0.3c1.1-0.3,1.7,0.1,2.8,0.8
					c0.2,0.1,0.4,0.3,0.6,0.4v1.8c0,0.8-0.2,1.6-0.6,2.3h-4c-0.3,0-0.6,0.3-0.6,0.6s0.3,0.6,0.6,0.6h3c-1.9,1.7-4.8,1.5-6.4-0.4
					C6.9,13.5,6.5,12.6,6.4,11.7L6.4,11.7z M8.1,20.9l-1-1.9l0.1,0c0.4-0.1,0.8-0.2,1.1-0.3l1.5,1L8.1,20.9z M9.6,27.6l0.8-3.3h1.1
					l0.8,3.3H9.6z M20.8,27.6h-7.3l-0.9-3.9l0.5-1.9l0.6,0.4c0.3,0.2,0.6,0.1,0.8-0.2c0,0,0,0,0,0l1.4-2.6c1,0.3,2,0.7,3,1.3
					c1.2,0.6,2,1.9,2,3.2V27.6L20.8,27.6z"/>
				<path id="Path_340" class="st0" d="M18.6,24.8h-2.8c-0.3,0-0.6,0.3-0.6,0.6c0,0.3,0.3,0.6,0.6,0.6h2.8c0.3,0,0.6-0.3,0.6-0.6
					C19.1,25,18.9,24.8,18.6,24.8z"/>
				<path id="Path_341" class="st0" d="M4.7,27.6c-0.3,0-0.6,0.3-0.6,0.6c0,0.3,0.3,0.6,0.6,0.6l0,0c0.3,0,0.6-0.3,0.6-0.6
					C5.3,27.8,5,27.6,4.7,27.6L4.7,27.6z"/>
			</g>
		</g>
	</g>
	<g id="Group_3922" transform="translate(60.788 17384.002)">
		
			<image style="overflow:visible;enable-background:new    ;" width="435" height="434" id="Rectangle_638" xlink:href="1C66D24C.png"  transform="matrix(0.1465 0 0 0.1465 5.7593 6.808)">
		</image>
		
			<linearGradient id="Ellipse_8562_1_" gradientUnits="userSpaceOnUse" x1="-448.3439" y1="1038.5355" x2="-447.636" y2="1037.8275" gradientTransform="matrix(37.6251 -37.6251 -37.6251 -37.6251 55955.0859 22243.6738)">
			<stop  offset="0" style="stop-color:#FFFFFF"/>
			<stop  offset="0.998" style="stop-color:#F5F6F7"/>
		</linearGradient>
		<circle id="Ellipse_8562" class="st4" cx="37.6" cy="37.6" r="26.6"/>
	</g>
	<path id="Path_14641" class="st0" d="M106.9,17433.6l0.7-4.8H95.1c0.4-1.2,1.8-2.7,5-5c4.8-3.4,6.5-5.2,6.5-9.1c0-3.9-2.3-8-9.1-8
		c-6.1,0-9,3.8-9.4,8.3h5.5c0.4-2.3,1.3-3.9,3.9-3.9c2.2,0,3.3,1.3,3.3,3.6c0,2.3-1.1,3.2-4.8,6c-5.7,4.2-7.8,7.9-7.8,12.5v0.4
		H106.9z"/>
</g>
</svg>
