<svg xmlns="http://www.w3.org/2000/svg" width="42.763" height="42.763" viewBox="0 0 42.763 42.763">
  <g id="coffee-icon" transform="translate(0)">
    <path id="Контур_14508" data-name="Контур 14508" d="M217.105,84.989a2.141,2.141,0,0,1-2.138,2.138,4.281,4.281,0,0,0-4.276,4.276v.713a2.141,2.141,0,0,1-2.138,2.138,3.568,3.568,0,0,0-3.564,3.564v.713h-.713a.713.713,0,0,0-.713.713V107.8a6.4,6.4,0,0,0,2.389,4.989h-5.24a.713.713,0,0,0-.713.713,3.568,3.568,0,0,0,3.564,3.564h17.105a3.568,3.568,0,0,0,3.564-3.564.713.713,0,0,0-.713-.713h-5.24a6.439,6.439,0,0,0,2.021-2.851h.368a5.7,5.7,0,0,0,0-11.4h-1.425v-.713a4.281,4.281,0,0,1,4.276-4.276h2.851V92.116H223.52a5.708,5.708,0,0,0-5.7,5.7v.713h-11.4v-.713a2.141,2.141,0,0,1,2.138-2.138,3.568,3.568,0,0,0,3.564-3.564V91.4a2.854,2.854,0,0,1,2.851-2.851,3.568,3.568,0,0,0,3.564-3.564,3.568,3.568,0,0,1,3.564-3.564h4.276V80h-4.276A5,5,0,0,0,217.105,84.989Zm5.58,29.221a2.142,2.142,0,0,1-2.016,1.425H203.564a2.142,2.142,0,0,1-2.016-1.425Zm-2.016-11.4a1.425,1.425,0,0,1,0,2.851Zm4.276,1.425a4.281,4.281,0,0,1-4.276,4.276v-1.425a2.851,2.851,0,0,0,0-5.7V99.956A4.281,4.281,0,0,1,224.945,104.232Zm-5.7-4.276v7.84a5,5,0,0,1-4.989,4.989h-4.276a5,5,0,0,1-4.989-4.989v-7.84Z" transform="translate(-183.607 -74.298)"/>
    <path id="Контур_14509" data-name="Контур 14509" d="M355.92,153.345a3.924,3.924,0,0,0-3.92,3.92v1.782h1.425v-1.782a2.5,2.5,0,0,1,2.495-2.495,3.924,3.924,0,0,0,3.92-3.92V148h-1.425v2.851a2.5,2.5,0,0,1-2.495,2.495Z" transform="translate(-322.066 -136.24)"/>
    <path id="Контур_14510" data-name="Контур 14510" d="M48.513,25.668A17.107,17.107,0,1,0,33.105,50.21c.5,0,1-.021,1.487-.064l-.122-1.42c-.451.039-.91.059-1.364.059a15.68,15.68,0,1,1,14.125-22.5Z" transform="translate(-16 -16)"/>
    <path id="Контур_14511" data-name="Контур 14511" d="M200,159.123v9.265h1.425v-8.97l4.068-4.068-1.008-1.008-4.276,4.276a.713.713,0,0,0-.209.5Z" transform="translate(-183.607 -142.018)"/>
    <path id="Контур_14512" data-name="Контур 14512" d="M72.484,57.164l1.852-1.071a.713.713,0,0,0,.26-.974A14.255,14.255,0,1,0,62.254,76.508a.713.713,0,0,0,.713-.713V73.657H61.542v1.406a12.847,12.847,0,0,1-12.1-12.094h1.405V61.544H49.445a12.736,12.736,0,0,1,1.36-5.073l1.216.7.712-1.235-1.213-.7a12.932,12.932,0,0,1,3.711-3.714l.7,1.213,1.234-.713-.7-1.215a12.736,12.736,0,0,1,5.072-1.363v1.405h1.425v-1.4a12.822,12.822,0,0,1,5.071,1.362l-.7,1.211,1.235.712.7-1.211a12.853,12.853,0,0,1,3.721,3.705l-1.217.7Z" transform="translate(-45.149 -45.149)"/>
    <path id="Контур_14513" data-name="Контур 14513" d="M104,200h7.127v1.425H104Z" transform="translate(-96.16 -183.608)"/>
  </g>
</svg>
