<svg xmlns="http://www.w3.org/2000/svg" width="31.765" height="47.647" viewBox="0 0 31.765 47.647">
  <g id="light-icon" transform="translate(0)">
    <g id="_047---Broken-Light-Bulb" data-name="047---Broken-Light-Bulb" transform="translate(0 0)">
      <path id="Shape" d="M6.253,10.063,5.679,13.5H1.588A1.588,1.588,0,0,0,0,15.088v.794A15.865,15.865,0,0,0,5.406,27.8,10.053,10.053,0,0,1,8.735,35.39v1.139A1.583,1.583,0,0,0,9.529,37.9v1.809a.794.794,0,1,0,0,1.588v1.588a.794.794,0,1,0,0,1.588v.794a2.382,2.382,0,0,0,2.382,2.382h7.941a2.382,2.382,0,0,0,2.382-2.382V44.47a.794.794,0,1,0,0-1.588V41.294a.794.794,0,1,0,0-1.588V37.9a1.583,1.583,0,0,0,.794-1.367V35.391A10.054,10.054,0,0,1,26.36,27.8,15.873,15.873,0,0,0,16.29,0a1.633,1.633,0,0,0-1.264.576L11.545,4.754a1.579,1.579,0,0,0-.337,1.329l.53,2.652H7.82a1.588,1.588,0,0,0-1.567,1.328Zm14.394,35.2a.794.794,0,0,1-.794.794H11.912a.794.794,0,0,1-.794-.794V44.47h9.529Zm0-2.382H11.118V41.294h9.529Zm-9.529-3.176V38.117h9.529v1.588Zm3.176-11.118H17.47v7.941H14.294ZM12.706,10.323h3.176a.794.794,0,0,0,.661-.353L17.9,7.941h2.752a.794.794,0,0,0,0-1.588H17.47a.794.794,0,0,0-.661.353L15.457,8.735h-2.1l-.592-2.964,3.481-4.178-.611-.508.615.5A14.284,14.284,0,0,1,25.311,26.6a11.643,11.643,0,0,0-3.871,8.788v1.138H19.059V28.588a1.582,1.582,0,0,0-.772-1.355c.11-1.752.737-2.9,1.921-3.494a.794.794,0,1,0-.71-1.421A5.254,5.254,0,0,0,16.713,27H15.052a5.252,5.252,0,0,0-2.785-4.681.794.794,0,1,0-.71,1.421c1.184.592,1.811,1.741,1.921,3.494a1.582,1.582,0,0,0-.772,1.351v7.941H10.323V35.39A11.641,11.641,0,0,0,6.453,26.6,14.277,14.277,0,0,1,1.588,15.882v-.794h7.45l1.368,2.737a.794.794,0,0,0,.711.439h3.971a.794.794,0,1,0,0-1.588h-3.48l-1.364-2.737a.794.794,0,0,0-.715-.439H7.29l.53-3.176Z" transform="translate(0 0)"/>
    </g>
  </g>
</svg>
