<?xml version="1.0" encoding="utf-8"?>
<!-- Generator: Adobe Illustrator 25.1.0, SVG Export Plug-In . SVG Version: 6.00 Build 0)  -->
<svg version="1.1" id="Слой_1" xmlns="http://www.w3.org/2000/svg" xmlns:xlink="http://www.w3.org/1999/xlink" x="0px" y="0px"
	 viewBox="0 0 333.9 256.6" style="enable-background:new 0 0 333.9 256.6;" xml:space="preserve">
<style type="text/css">
	.st0{fill:#0C3651;}
	.st1{fill:#F4F5F5;}
	.st2{fill:url(#Ellipse_8562_1_);stroke:#0C3651;stroke-width:2;}
	.st3{enable-background:new    ;}
</style>
<g id="step-3" transform="translate(-953.394 -13957.586)">
	<g id="Group_3887" transform="translate(953.395 13965.237)">
		<path id="Path_13617" class="st0" d="M324.4,115.1h-35.1c-1.9,0-3.5-1.5-3.7-3.4c-7.1-68.4-68.3-118.1-136.7-111
			c-48.5,5-89.7,38-105.2,84.2c-0.5,1.5-1.9,2.5-3.5,2.5H9.4c-5,0-9.2,3.9-9.4,8.9c-0.2,5.1,3.8,9.4,8.9,9.5c0.1,0,0.2,0,0.3,0H50
			c4.7,0,8.7-3.6,9.2-8.2C74,41.1,131.9,7.2,188.5,22c56.6,14.8,90.4,72.7,75.6,129.3c-14.8,56.6-72.7,90.4-129.3,75.6
			c-37-9.7-65.9-38.6-75.6-75.5c-0.3-4.9-4.3-8.6-9.2-8.6H19.6c-5,0-9.2,3.9-9.4,8.9c-0.2,5.1,3.8,9.4,8.9,9.6c0.1,0,0.2,0,0.3,0
			h20.7c1.6,0,3,1,3.5,2.6c21.8,65.3,92.4,100.5,157.6,78.7c37.2-12.4,66.3-41.6,78.7-78.7c0.5-1.5,1.9-2.6,3.5-2.6h5.5
			c5,0,9.2-3.9,9.4-8.9c0.2-5.1-3.8-9.4-8.9-9.6c-0.1,0-0.2,0-0.3,0l0,0c-2.1,0-3.7-1.7-3.7-3.7c0-0.1,0-0.3,0-0.4
			c0.1-0.6,0.1-1.1,0.2-1.7c0.2-1.9,1.8-3.4,3.7-3.4h35.2c5.1,0,9.2-4.1,9.2-9.2c0-0.1,0-0.2,0-0.3
			C333.6,119,329.4,115.1,324.4,115.1z"/>
	</g>
	<g id="Group_3888" transform="translate(1008.873 13983.123)">
		<path id="Path_13623" class="st1" d="M106.5,0C47.7,0,0,47.7,0,106.5S47.7,213,106.5,213c58.8,0,106.5-47.7,106.5-106.5
			c0-28.2-11.2-55.3-31.2-75.3C161.9,11.2,134.8-0.1,106.5,0z"/>
	</g>
	<g id="packaging-icon" transform="translate(1097.732 14029.094)">
		<g id="Group_158" transform="translate(0)">
			<g id="Group_157" transform="translate(0)">
				<path id="Path_348" class="st0" d="M36.3,18.9l-5.2-3l5.2-3c0.3-0.2,0.4-0.5,0.2-0.8c-0.1-0.1-0.1-0.2-0.2-0.2L24.7,5.1
					c-0.2-0.1-0.4-0.1-0.6,0l-1.2,0.7c-0.3,0.2-0.4,0.5-0.3,0.8c0.2,0.3,0.5,0.4,0.8,0.3l0,0l0.9-0.5l10.4,6l-4.9,2.8l-7.4-4.3
					l0.5-0.8c0.2-0.3,0.1-0.7-0.1-0.8c-0.1-0.1-0.2-0.1-0.4-0.1h-1.8c0-5.1-4.1-9.1-9.2-9.2H5.5C5.2,0,4.9,0.3,4.9,0.6
					c0,0.3,0.3,0.6,0.6,0.6h6.1c4.4,0,7.9,3.6,7.9,7.9v0.6c0,0.3,0.3,0.6,0.6,0.6l0,0h1.3l-3.1,4.4l-3.1-4.4h1.3
					c0.3,0,0.6-0.3,0.6-0.6l0,0V8.5c0-2-1.6-3.7-3.7-3.7h-3.1c-0.3,0-0.6,0.3-0.6,0.6s0.3,0.6,0.6,0.6l0,0h3.1
					c1.3,0,2.4,1.1,2.4,2.4v0.6H14c-0.3,0-0.6,0.3-0.6,0.6c0,0.1,0,0.2,0.1,0.4l0.5,0.8l-7.4,4.3l-4.9-2.8l7.7-4.5
					C9.9,7.7,10,7.3,9.8,7C9.7,6.7,9.3,6.6,9,6.8l0,0l-8.7,5C0,12-0.1,12.3,0.1,12.6c0.1,0.1,0.1,0.2,0.2,0.2l5.2,3l-5.2,3
					C0,19-0.1,19.4,0.1,19.7c0.1,0.1,0.1,0.2,0.2,0.2l5.8,3.4v6c0,0.2,0.1,0.4,0.3,0.5L18,36.5c0,0,0,0,0,0s0,0,0.1,0
					c0.1,0.1,0.3,0.1,0.4,0l0.1,0c0,0,0,0,0,0l11.6-6.7c0.2-0.1,0.3-0.3,0.3-0.5v-6l5.8-3.4c0.3-0.2,0.4-0.5,0.2-0.8
					C36.5,19,36.4,18.9,36.3,18.9z M1.8,19.4l4.9-2.8l10.4,6l-4.9,2.8L1.8,19.4z M17.7,34.9l-10.4-6v-5l4.6,2.6
					c0.2,0.1,0.4,0.1,0.6,0l5.2-3L17.7,34.9z M18.3,21.9l-10.4-6l6.9-4l3,4.3c0.2,0.3,0.6,0.3,0.8,0.2c0.1,0,0.1-0.1,0.2-0.2l3-4.3
					l6.9,4L18.3,21.9z M29.3,28.9l-10.4,6V23.6l5.2,3c0.2,0.1,0.4,0.1,0.6,0l4.6-2.6L29.3,28.9z M24.4,25.4l-4.9-2.8l10.4-6l4.9,2.8
					L24.4,25.4z"/>
			</g>
		</g>
		<g id="Group_160" transform="translate(6.1 4.88)">
			<g id="Group_159">
				<path id="Path_349" class="st0" d="M1.8,0H0.6C0.3,0,0,0.3,0,0.6s0.3,0.6,0.6,0.6h1.2c0.3,0,0.6-0.3,0.6-0.6S2.2,0,1.8,0L1.8,0z
					"/>
			</g>
		</g>
		<g id="Group_162" transform="translate(1.22)">
			<g id="Group_161">
				<path id="Path_350" class="st0" d="M1.8,0H0.6C0.3,0,0,0.3,0,0.6s0.3,0.6,0.6,0.6c0,0,0,0,0,0h1.2c0.3,0,0.6-0.3,0.6-0.6
					C2.4,0.3,2.2,0,1.8,0L1.8,0z"/>
			</g>
		</g>
		<g id="Group_164" transform="translate(3.66 2.44)">
			<g id="Group_163">
				<path id="Path_351" class="st0" d="M5.5,0H0.6C0.3,0,0,0.3,0,0.6s0.3,0.6,0.6,0.6h4.9c0.3,0,0.6-0.3,0.6-0.6S5.8,0,5.5,0L5.5,0z
					"/>
			</g>
		</g>
		<g id="Group_166" transform="translate(26.841 26.232)">
			<g id="Group_165">
				<path id="Path_352" class="st0" d="M0.6,0C0.3,0,0,0.3,0,0.6v1.2c0,0.3,0.3,0.6,0.6,0.6c0.3,0,0.6-0.3,0.6-0.6V0.6
					C1.2,0.3,0.9,0,0.6,0L0.6,0z"/>
			</g>
		</g>
		<g id="Group_168" transform="translate(24.401 27.452)">
			<g id="Group_167">
				<path id="Path_353" class="st0" d="M0.6,0C0.3,0,0,0.3,0,0.6v1.2c0,0.3,0.3,0.6,0.6,0.6c0.3,0,0.6-0.3,0.6-0.6V0.6
					C1.2,0.3,0.9,0,0.6,0L0.6,0z"/>
			</g>
		</g>
	</g>
	<g id="Group_3918" transform="translate(993.616 13959)">
		
			<image style="overflow:visible;enable-background:new    ;" width="435" height="434" id="Rectangle_638" xlink:href="319C5675.png"  transform="matrix(0.1746 0 0 0.1746 6.8632 8.112)">
		</image>
		
			<linearGradient id="Ellipse_8562_1_" gradientUnits="userSpaceOnUse" x1="-417.1941" y1="1074.0244" x2="-416.4861" y2="1073.3164" gradientTransform="matrix(44.8376 -44.8376 -44.8376 -44.8376 66875.8516 29495.5605)">
			<stop  offset="0" style="stop-color:#FFFFFF"/>
			<stop  offset="0.998" style="stop-color:#F5F6F7"/>
		</linearGradient>
		<circle id="Ellipse_8562" class="st2" cx="44.8" cy="44.8" r="31.7"/>
	</g>
	<path id="Path_14635" class="st0" d="M1033.4,13995.9c0.3-1.3,0.9-2.8,3.6-2.8c2.3,0,3.4,1.2,3.4,3c0,2.2-1.1,3.1-3.7,3.1h-2.1v4.4
		h2.4c3,0,4.3,1.5,4.3,3.9c0.2,2-1.3,3.8-3.3,4c-0.2,0-0.4,0-0.7,0c-2.1,0.2-4-1.2-4.3-3.3h-5.6c0.2,3.5,2.6,7.7,9.7,7.7
		c7.6,0,9.8-4.5,9.8-8.3c0.2-2.8-1.6-5.4-4.3-6.3v-0.1c2.1-0.9,3.4-3.1,3.3-5.4c0-3.7-2.7-7.2-8.8-7.2c-6.6,0-8.9,4-9.2,7.2H1033.4z
		"/>
</g>
<g class="st3">
	<path d="M109.3,152.6L109.3,152.6c0.4,0,0.7,0.1,0.9,0.4s0.4,0.5,0.4,0.8s-0.1,0.6-0.4,0.8s-0.5,0.4-0.8,0.4s-0.6-0.1-0.8-0.4
		s-0.4-0.5-0.4-0.8v-7.9c0-0.6-0.1-1.1-0.4-1.4s-0.6-0.4-1.1-0.4c-0.4,0-0.8,0.1-1.2,0.2c0.1-0.7,0.3-1.2,0.7-1.6s0.9-0.6,1.5-0.6
		c0.3,0,0.7,0.1,1.2,0.2c0.5,0.1,0.7,0.2,0.8,0.2c0.3,0,0.5-0.1,0.7-0.4l0.6,0.6c-0.3,0.4-0.7,0.6-1.2,0.6c-0.2,0-0.5-0.1-1-0.2
		s-0.8-0.2-1-0.2c-0.6,0-1,0.2-1.3,0.7c0.3,0,0.5-0.1,0.7-0.1c0.7,0,1.3,0.2,1.7,0.6c0.4,0.4,0.6,0.9,0.6,1.7V152.6z M109.4,154.4
		c0.2,0,0.3-0.1,0.4-0.2c0.1-0.1,0.2-0.3,0.2-0.4s-0.1-0.3-0.2-0.4c-0.1-0.1-0.3-0.2-0.4-0.2s-0.3,0.1-0.4,0.2
		c-0.1,0.1-0.2,0.3-0.2,0.4s0.1,0.3,0.2,0.4C109.1,154.3,109.2,154.4,109.4,154.4z"/>
	<path d="M118.6,153.5c0,0.4-0.2,0.8-0.5,1.1c-0.3,0.3-0.7,0.4-1.1,0.4h-4.7v-0.8h0.7v-4.2H113c-0.3,0-0.6-0.1-0.8-0.4
		s-0.4-0.5-0.4-0.8s0.1-0.6,0.4-0.8s0.5-0.4,0.8-0.4s0.6,0.1,0.8,0.4s0.4,0.5,0.4,0.8v5.4h2.6c0.5,0,0.7-0.2,0.7-0.6v-9.6h1.1V153.5
		z M113,149.3c0.2,0,0.3-0.1,0.4-0.2s0.2-0.3,0.2-0.4c0-0.2-0.1-0.3-0.2-0.4c-0.1-0.1-0.3-0.2-0.4-0.2s-0.3,0.1-0.4,0.2
		c-0.1,0.1-0.2,0.3-0.2,0.4c0,0.2,0.1,0.3,0.2,0.4S112.8,149.3,113,149.3z"/>
	<path d="M125.9,148.1c-0.3,0.4-0.7,0.6-1.2,0.6c-0.2,0-0.5-0.1-1-0.2s-0.8-0.2-1-0.2c-0.6,0-1,0.2-1.3,0.7c0.3,0,0.6-0.1,0.9-0.1
		c1,0,1.8,0.2,2.3,0.6s0.8,1,0.8,1.7v2.6c0,0.3-0.1,0.6-0.4,0.8s-0.5,0.4-0.8,0.4c-0.3,0-0.6-0.1-0.9-0.4s-0.4-0.5-0.4-0.8
		s0.1-0.6,0.4-0.8s0.5-0.4,0.9-0.4h0.1v-1.2c0-0.7-0.2-1.1-0.5-1.3s-0.9-0.3-1.8-0.3c-0.6,0-1.1,0.1-1.6,0.2c0-0.7,0.3-1.3,0.7-1.7
		c0.4-0.4,0.9-0.6,1.6-0.6c0.3,0,0.7,0.1,1.2,0.2c0.5,0.1,0.7,0.2,0.8,0.2c0.3,0,0.5-0.1,0.7-0.4L125.9,148.1z M124.2,154.4
		c0.2,0,0.3-0.1,0.4-0.2c0.1-0.1,0.2-0.3,0.2-0.4s-0.1-0.3-0.2-0.4c-0.1-0.1-0.3-0.2-0.4-0.2c-0.2,0-0.3,0.1-0.4,0.2
		c-0.1,0.1-0.2,0.3-0.2,0.4s0.1,0.3,0.2,0.4C123.9,154.3,124,154.4,124.2,154.4z"/>
	<path d="M133.3,155h-1.1v-4.7c0-0.6-0.2-1-0.6-1.4c-0.4-0.3-0.9-0.5-1.6-0.5c-0.7,0-1.3,0.2-1.7,0.6c-0.4,0.4-0.6,0.9-0.6,1.4
		c0,0.6,0.2,1.1,0.6,1.8s0.6,1.1,0.8,1.3c0.1-0.2,0.3-0.4,0.6-0.7s0.4-0.5,0.5-0.6h0c-0.3,0-0.6-0.1-0.9-0.4s-0.4-0.5-0.4-0.8
		s0.1-0.6,0.4-0.8s0.5-0.4,0.9-0.4c0.3,0,0.6,0.1,0.8,0.4s0.4,0.5,0.4,0.8c0,0.3-0.1,0.6-0.2,0.9c-0.1,0.3-0.4,0.7-0.9,1.2
		s-0.7,0.9-0.7,1.2v0.6H128v-0.6c0-0.5-0.2-1.1-0.6-1.9s-0.6-1.5-0.6-2.1c0-0.8,0.3-1.4,0.9-2s1.3-0.8,2.3-0.8c1,0,1.8,0.2,2.4,0.7
		c0.6,0.5,0.9,1.1,0.9,1.9V155z M129.8,151.5c0.2,0,0.3-0.1,0.4-0.2c0.1-0.1,0.2-0.3,0.2-0.4c0-0.2-0.1-0.3-0.2-0.4
		s-0.3-0.2-0.4-0.2c-0.2,0-0.3,0.1-0.4,0.2s-0.2,0.3-0.2,0.4c0,0.2,0.1,0.3,0.2,0.4C129.5,151.5,129.7,151.5,129.8,151.5z"/>
	<path d="M141.1,155H140v-4.5c0-1.1-0.2-1.7-0.7-2l-1.5,0.8l-1.5-0.8c-0.6,0.4-0.9,1.1-0.9,1.9c0,0.5,0.2,1.1,0.5,1.6
		c0.4,0.7,0.7,1.2,0.8,1.5c0.1-0.2,0.3-0.4,0.6-0.7s0.4-0.5,0.5-0.6h0c-0.3,0-0.6-0.1-0.9-0.4s-0.4-0.5-0.4-0.8s0.1-0.6,0.4-0.8
		s0.5-0.4,0.9-0.4c0.3,0,0.6,0.1,0.8,0.4s0.4,0.5,0.4,0.8c0,0.3-0.1,0.6-0.2,0.9c-0.1,0.3-0.4,0.7-0.9,1.2s-0.7,0.9-0.7,1.2v0.6
		h-1.1v-0.6c0-0.5-0.2-1.1-0.6-1.9s-0.6-1.5-0.6-2.1c0-1.2,0.6-2.1,1.7-2.8l1.5,0.8l1.5-0.8c1.3,0.5,1.9,1.4,1.9,2.9V155z
		 M137.7,151.5c0.2,0,0.3-0.1,0.4-0.2c0.1-0.1,0.2-0.3,0.2-0.4c0-0.2-0.1-0.3-0.2-0.4s-0.3-0.2-0.4-0.2c-0.2,0-0.3,0.1-0.4,0.2
		s-0.2,0.3-0.2,0.4c0,0.2,0.1,0.3,0.2,0.4C137.4,151.5,137.5,151.5,137.7,151.5z"/>
	<path d="M148.4,148.1c-0.3,0.4-0.7,0.6-1.2,0.6c-0.2,0-0.5-0.1-1-0.2s-0.8-0.2-1-0.2c-0.6,0-1,0.2-1.3,0.7c0.3,0,0.6-0.1,0.9-0.1
		c1,0,1.8,0.2,2.3,0.6s0.8,1,0.8,1.7v2.6c0,0.3-0.1,0.6-0.4,0.8s-0.5,0.4-0.8,0.4c-0.3,0-0.6-0.1-0.9-0.4s-0.4-0.5-0.4-0.8
		s0.1-0.6,0.4-0.8s0.5-0.4,0.9-0.4h0.1v-1.2c0-0.7-0.2-1.1-0.5-1.3s-0.9-0.3-1.8-0.3c-0.6,0-1.1,0.1-1.6,0.2c0-0.7,0.3-1.3,0.7-1.7
		c0.4-0.4,0.9-0.6,1.6-0.6c0.3,0,0.7,0.1,1.2,0.2c0.5,0.1,0.7,0.2,0.8,0.2c0.3,0,0.5-0.1,0.7-0.4L148.4,148.1z M146.7,154.4
		c0.2,0,0.3-0.1,0.4-0.2c0.1-0.1,0.2-0.3,0.2-0.4s-0.1-0.3-0.2-0.4c-0.1-0.1-0.3-0.2-0.4-0.2c-0.2,0-0.3,0.1-0.4,0.2
		c-0.1,0.1-0.2,0.3-0.2,0.4s0.1,0.3,0.2,0.4C146.4,154.3,146.5,154.4,146.7,154.4z"/>
	<path d="M154.7,153.8c0,0.3-0.1,0.6-0.4,0.8s-0.5,0.4-0.8,0.4c-0.3,0-0.6-0.1-0.9-0.4s-0.4-0.5-0.4-0.8s0.1-0.6,0.4-0.8
		s0.5-0.4,0.9-0.4h0.1V150c0-0.5-0.2-1-0.5-1.3s-0.8-0.4-1.3-0.4c-0.8,0-1.5,0.3-2,1l-0.6-0.5c0.7-0.9,1.5-1.3,2.6-1.3
		c0.8,0,1.5,0.2,2.1,0.7s0.8,1.1,0.8,1.8V153.8z M153.5,154.4c0.2,0,0.3-0.1,0.4-0.2c0.1-0.1,0.2-0.3,0.2-0.4s-0.1-0.3-0.2-0.4
		c-0.1-0.1-0.3-0.2-0.4-0.2c-0.2,0-0.3,0.1-0.4,0.2c-0.1,0.1-0.2,0.3-0.2,0.4s0.1,0.3,0.2,0.4C153.2,154.3,153.3,154.4,153.5,154.4z
		"/>
	<path d="M161.5,153.7c0,0.4-0.2,0.7-0.5,0.9s-0.7,0.4-1.2,0.4c-0.5,0-0.9-0.1-1.2-0.4s-0.5-0.6-0.5-0.9v-1.4H158
		c-0.3,0-0.6-0.1-0.8-0.4s-0.4-0.5-0.4-0.8s0.1-0.6,0.4-0.8s0.5-0.4,0.8-0.4s0.6,0.1,0.8,0.4s0.4,0.5,0.4,0.8v2.6
		c0,0.1,0.1,0.3,0.2,0.4c0.1,0.1,0.2,0.2,0.4,0.2s0.3-0.1,0.4-0.2c0.1-0.1,0.2-0.2,0.2-0.4V150c0-0.5-0.2-1-0.5-1.3
		s-0.8-0.4-1.3-0.4c-0.8,0-1.5,0.3-2,1l-0.6-0.5c0.7-0.9,1.5-1.3,2.6-1.3c0.8,0,1.5,0.2,2.1,0.7s0.8,1.1,0.8,1.8V153.7z M158,151.7
		c0.2,0,0.3-0.1,0.4-0.2s0.2-0.3,0.2-0.4c0-0.2-0.1-0.3-0.2-0.4c-0.1-0.1-0.3-0.2-0.4-0.2s-0.3,0.1-0.4,0.2
		c-0.1,0.1-0.2,0.3-0.2,0.4c0,0.2,0.1,0.3,0.2,0.4S157.9,151.7,158,151.7z"/>
	<path d="M168.8,155h-1.1v-0.3c-0.3-0.6-0.7-1.4-1.4-2.4c-0.7-1-1.2-1.5-1.4-1.5c-0.2,0-0.3,0.2-0.3,0.5v1.4h0.1
		c0.3,0,0.6,0.1,0.8,0.4s0.4,0.5,0.4,0.8s-0.1,0.6-0.4,0.8s-0.5,0.4-0.8,0.4s-0.6-0.1-0.8-0.4s-0.4-0.5-0.4-0.8v-2.6
		c0-0.9,0.4-1.4,1.1-1.4c0.3,0,0.6,0.1,0.9,0.3s0.7,0.8,1.3,1.6c0.6,0.8,0.9,1.3,1,1.5V150c0-0.3-0.1-0.5-0.2-0.8
		c-0.5,0.2-1,0.3-1.5,0.3v-0.3c0.4-0.1,0.7-0.2,1.1-0.5c-0.4-0.3-0.9-0.5-1.5-0.5c-0.4,0-0.9,0.1-1.3,0.3c-0.4,0.2-0.8,0.4-1,0.7
		l-0.6-0.5c0.3-0.4,0.7-0.7,1.3-1s1.1-0.4,1.6-0.4c0.8,0,1.5,0.2,2.1,0.6c0.3-0.3,0.5-0.6,0.6-0.9l0.8,0.5c-0.2,0.4-0.5,0.7-0.8,0.9
		c0.3,0.4,0.4,0.8,0.4,1.3V155z M164.6,154.4c0.2,0,0.3-0.1,0.4-0.2c0.1-0.1,0.2-0.3,0.2-0.4s-0.1-0.3-0.2-0.4
		c-0.1-0.1-0.3-0.2-0.4-0.2s-0.3,0.1-0.4,0.2c-0.1,0.1-0.2,0.3-0.2,0.4s0.1,0.3,0.2,0.4C164.2,154.3,164.4,154.4,164.6,154.4z"/>
	<path d="M176.1,153.5c0,0.4-0.2,0.8-0.5,1.1c-0.3,0.3-0.7,0.4-1.1,0.4h-1.8c-0.4,0-0.8-0.1-1.1-0.4c-0.3-0.3-0.5-0.6-0.5-1.1v-2.6
		c0-0.3,0.1-0.6,0.4-0.8c0.2-0.2,0.5-0.4,0.8-0.4c0.3,0,0.6,0.1,0.8,0.4s0.4,0.5,0.4,0.8s-0.1,0.6-0.4,0.8s-0.5,0.4-0.8,0.4h-0.1
		v1.5c0,0.4,0.2,0.6,0.7,0.6h1.2c0.5,0,0.7-0.2,0.7-0.6V150c0-0.5-0.2-0.9-0.6-1.3c-0.4-0.3-0.9-0.5-1.5-0.5c-0.4,0-0.9,0.1-1.3,0.3
		c-0.4,0.2-0.8,0.4-1,0.7l-0.6-0.5c0.3-0.4,0.7-0.7,1.3-1c0.5-0.2,1.1-0.4,1.6-0.4c0.9,0,1.6,0.2,2.2,0.7c0.6,0.5,0.9,1.1,0.9,1.8
		V153.5z M172.4,151.5c0.2,0,0.3-0.1,0.4-0.2c0.1-0.1,0.2-0.3,0.2-0.4s-0.1-0.3-0.2-0.4c-0.1-0.1-0.3-0.2-0.4-0.2
		c-0.2,0-0.3,0.1-0.4,0.2c-0.1,0.1-0.2,0.3-0.2,0.4s0.1,0.3,0.2,0.4C172.1,151.4,172.2,151.5,172.4,151.5z"/>
	<path d="M184.3,153.5c0,0.4-0.2,0.8-0.5,1.1c-0.3,0.3-0.7,0.4-1.1,0.4H178v-0.8h0.7v-4.2h-0.1c-0.3,0-0.6-0.1-0.8-0.4
		c-0.2-0.2-0.4-0.5-0.4-0.8s0.1-0.6,0.4-0.8c0.2-0.2,0.5-0.4,0.8-0.4s0.6,0.1,0.8,0.4c0.2,0.2,0.4,0.5,0.4,0.8v5.4h2.6
		c0.5,0,0.7-0.2,0.7-0.6v-5.8h1.1V153.5z M178.6,149.3c0.2,0,0.3-0.1,0.4-0.2s0.2-0.3,0.2-0.4c0-0.2-0.1-0.3-0.2-0.4
		c-0.1-0.1-0.3-0.2-0.4-0.2c-0.2,0-0.3,0.1-0.4,0.2c-0.1,0.1-0.2,0.3-0.2,0.4c0,0.2,0.1,0.3,0.2,0.4S178.5,149.3,178.6,149.3z"/>
	<path d="M189.1,152.6L189.1,152.6c0.4,0,0.7,0.1,0.9,0.4c0.2,0.2,0.4,0.5,0.4,0.8s-0.1,0.6-0.4,0.8c-0.2,0.2-0.5,0.4-0.8,0.4
		s-0.6-0.1-0.8-0.4c-0.2-0.2-0.4-0.5-0.4-0.8v-9.6c0-1-0.4-1.5-1.3-1.5c-0.4,0-0.7,0.1-0.9,0.4c0,0,0.1,0,0.2,0
		c0.3,0,0.6,0.1,0.8,0.4c0.2,0.2,0.4,0.5,0.4,0.8c0,0.3-0.1,0.6-0.4,0.9c-0.2,0.2-0.5,0.4-0.8,0.4c-0.4,0-0.6-0.1-0.9-0.4
		c-0.2-0.3-0.4-0.6-0.4-1.1c0-0.4,0.2-0.9,0.6-1.3c0.4-0.4,0.9-0.6,1.6-0.6c0.7,0,1.2,0.2,1.6,0.6c0.4,0.4,0.6,0.9,0.6,1.5V152.6z
		 M185.9,144.9c0.2,0,0.3-0.1,0.4-0.2c0.1-0.1,0.2-0.3,0.2-0.4c0-0.2-0.1-0.3-0.2-0.4s-0.3-0.2-0.4-0.2c-0.2,0-0.3,0.1-0.4,0.2
		s-0.2,0.3-0.2,0.4c0,0.2,0.1,0.3,0.2,0.4C185.6,144.8,185.8,144.9,185.9,144.9z M189.1,154.4c0.2,0,0.3-0.1,0.4-0.2
		c0.1-0.1,0.2-0.3,0.2-0.4s-0.1-0.3-0.2-0.4c-0.1-0.1-0.3-0.2-0.4-0.2c-0.2,0-0.3,0.1-0.4,0.2c-0.1,0.1-0.2,0.3-0.2,0.4
		s0.1,0.3,0.2,0.4C188.8,154.3,188.9,154.4,189.1,154.4z"/>
	<path d="M198.7,155h-1.1v-4c0-0.3,0-0.6-0.1-0.6c-1.3,1-2.2,1.9-2.7,2.6c-0.5,0.7-0.8,1.4-0.8,2.1h-1.1v-5h-0.1
		c-0.3,0-0.6-0.1-0.8-0.4c-0.2-0.2-0.4-0.5-0.4-0.8s0.1-0.6,0.4-0.8c0.2-0.2,0.5-0.4,0.8-0.4s0.6,0.1,0.8,0.4
		c0.2,0.2,0.4,0.5,0.4,0.8v4.2c0.3-0.8,1.4-1.8,3.1-3.1c-0.5-0.3-0.8-0.7-0.8-1.1c0-0.3,0.1-0.6,0.4-0.8c0.2-0.2,0.5-0.4,0.8-0.4
		s0.6,0.1,0.8,0.4c0.2,0.2,0.4,0.5,0.4,0.8c0,0.4-0.2,0.8-0.5,1.1c0.4,0.2,0.6,0.6,0.6,1.1V155z M192.7,149.3c0.2,0,0.3-0.1,0.4-0.2
		s0.2-0.3,0.2-0.4c0-0.2-0.1-0.3-0.2-0.4c-0.1-0.1-0.3-0.2-0.4-0.2c-0.2,0-0.3,0.1-0.4,0.2c-0.1,0.1-0.2,0.3-0.2,0.4
		c0,0.2,0.1,0.3,0.2,0.4S192.5,149.3,192.7,149.3z M197.5,149.5c0.3-0.2,0.5-0.5,0.5-0.8c0-0.2-0.1-0.3-0.2-0.4
		c-0.1-0.1-0.3-0.2-0.4-0.2c-0.2,0-0.3,0.1-0.4,0.2c-0.1,0.1-0.2,0.3-0.2,0.4C196.8,149,197,149.3,197.5,149.5z"/>
	<path d="M199.4,144.1c0,0.8-0.3,1.4-0.9,1.9s-1.3,0.7-2.3,0.7c-0.3,0-0.6,0-0.9-0.1v-0.4c0.4,0,0.8-0.1,1-0.4
		c-0.2,0-0.4-0.1-0.6-0.3c-0.2-0.2-0.3-0.4-0.3-0.6s0.1-0.4,0.3-0.6c0.2-0.2,0.4-0.3,0.6-0.3c0.2,0,0.4,0.1,0.6,0.3
		c0.2,0.2,0.3,0.4,0.3,0.6c0,0.5-0.2,0.9-0.7,1.2c0.6,0,1.2-0.2,1.6-0.6c0.5-0.4,0.7-0.9,0.7-1.5H199.4z M196.3,145.4
		c0.1,0,0.2,0,0.3-0.1c0.1-0.1,0.1-0.2,0.1-0.3c0-0.1,0-0.2-0.1-0.3c-0.1-0.1-0.2-0.1-0.3-0.1c-0.1,0-0.2,0-0.3,0.1
		c-0.1,0.1-0.1,0.2-0.1,0.3c0,0.1,0,0.2,0.1,0.3C196.1,145.3,196.2,145.4,196.3,145.4z"/>
	<path d="M201.5,152.6L201.5,152.6c0.4,0,0.7,0.1,0.9,0.4s0.4,0.5,0.4,0.8s-0.1,0.6-0.4,0.8s-0.5,0.4-0.9,0.4
		c-0.3,0-0.6-0.1-0.8-0.4s-0.4-0.5-0.4-0.8v-6.1h1.1V152.6z M201.6,154.4c0.2,0,0.3-0.1,0.4-0.2c0.1-0.1,0.2-0.3,0.2-0.4
		s-0.1-0.3-0.2-0.4c-0.1-0.1-0.3-0.2-0.4-0.2c-0.2,0-0.3,0.1-0.4,0.2c-0.1,0.1-0.2,0.3-0.2,0.4s0.1,0.3,0.2,0.4
		C201.3,154.3,201.4,154.4,201.6,154.4z M205.5,152.6L205.5,152.6c0.4,0,0.7,0.1,0.9,0.4c0.2,0.2,0.4,0.5,0.4,0.8s-0.1,0.6-0.4,0.8
		c-0.2,0.2-0.5,0.4-0.8,0.4s-0.6-0.1-0.8-0.4c-0.2-0.2-0.4-0.5-0.4-0.8v-6.1h1.1V152.6z M205.6,154.4c0.2,0,0.3-0.1,0.4-0.2
		c0.1-0.1,0.2-0.3,0.2-0.4s-0.1-0.3-0.2-0.4c-0.1-0.1-0.3-0.2-0.4-0.2c-0.2,0-0.3,0.1-0.4,0.2c-0.1,0.1-0.2,0.3-0.2,0.4
		s0.1,0.3,0.2,0.4C205.3,154.3,205.4,154.4,205.6,154.4z"/>
	<path d="M214.5,152.1c0.8,0.3,1.2,0.8,1.2,1.6c0,0.4-0.1,0.7-0.3,1c-0.2,0.2-0.5,0.4-0.8,0.4c-0.4,0-0.7-0.1-0.9-0.3
		s-0.3-0.6-0.3-1.1v-0.9c-1.1,0.2-2.2,1-3,2.2h-1.1v-5h-0.1c-0.3,0-0.6-0.1-0.8-0.4c-0.2-0.2-0.4-0.5-0.4-0.8s0.1-0.6,0.4-0.8
		c0.2-0.2,0.5-0.4,0.8-0.4s0.6,0.1,0.8,0.4c0.2,0.2,0.4,0.5,0.4,0.8v5.2c0.8-1,1.8-1.6,3-1.9v-4.4h1.1V152.1z M209.2,149.3
		c0.2,0,0.3-0.1,0.4-0.2s0.2-0.3,0.2-0.4c0-0.2-0.1-0.3-0.2-0.4c-0.1-0.1-0.3-0.2-0.4-0.2c-0.2,0-0.3,0.1-0.4,0.2
		c-0.1,0.1-0.2,0.3-0.2,0.4c0,0.2,0.1,0.3,0.2,0.4S209,149.3,209.2,149.3z M215.2,153.6c0-0.2-0.1-0.4-0.2-0.6
		c-0.1-0.2-0.3-0.3-0.5-0.4v1.2c0,0.2,0,0.3,0,0.4c0,0.1,0.1,0.1,0.2,0.1C215,154.4,215.2,154.1,215.2,153.6z"/>
	<path d="M215.1,146.7h-0.6v-2.3h0.6V146.7z"/>
	<path d="M220.1,152.6L220.1,152.6c0.4,0,0.7,0.1,0.9,0.4c0.2,0.2,0.4,0.5,0.4,0.8s-0.1,0.6-0.4,0.8c-0.2,0.2-0.5,0.4-0.8,0.4
		s-0.6-0.1-0.8-0.4c-0.2-0.2-0.4-0.5-0.4-0.8v-9.6c0-1-0.4-1.5-1.3-1.5c-0.4,0-0.7,0.1-0.9,0.4c0,0,0.1,0,0.2,0
		c0.3,0,0.6,0.1,0.8,0.4c0.2,0.2,0.4,0.5,0.4,0.8c0,0.3-0.1,0.6-0.4,0.9c-0.2,0.2-0.5,0.4-0.8,0.4c-0.4,0-0.6-0.1-0.9-0.4
		c-0.2-0.3-0.4-0.6-0.4-1.1c0-0.4,0.2-0.9,0.6-1.3c0.4-0.4,0.9-0.6,1.6-0.6c0.7,0,1.2,0.2,1.6,0.6c0.4,0.4,0.6,0.9,0.6,1.5V152.6z
		 M217,144.9c0.2,0,0.3-0.1,0.4-0.2c0.1-0.1,0.2-0.3,0.2-0.4c0-0.2-0.1-0.3-0.2-0.4s-0.3-0.2-0.4-0.2c-0.2,0-0.3,0.1-0.4,0.2
		s-0.2,0.3-0.2,0.4c0,0.2,0.1,0.3,0.2,0.4C216.7,144.8,216.8,144.9,217,144.9z M220.1,154.4c0.2,0,0.3-0.1,0.4-0.2
		c0.1-0.1,0.2-0.3,0.2-0.4s-0.1-0.3-0.2-0.4c-0.1-0.1-0.3-0.2-0.4-0.2c-0.2,0-0.3,0.1-0.4,0.2c-0.1,0.1-0.2,0.3-0.2,0.4
		s0.1,0.3,0.2,0.4C219.8,154.3,220,154.4,220.1,154.4z"/>
	<path d="M228,153.7c0,0.4-0.2,0.7-0.5,0.9c-0.3,0.3-0.7,0.4-1.2,0.4c-0.5,0-0.9-0.1-1.2-0.4c-0.3-0.3-0.5-0.6-0.5-0.9v-1.4h-0.1
		c-0.3,0-0.6-0.1-0.8-0.4c-0.2-0.2-0.4-0.5-0.4-0.8s0.1-0.6,0.4-0.8c0.2-0.2,0.5-0.4,0.8-0.4s0.6,0.1,0.8,0.4
		c0.2,0.2,0.4,0.5,0.4,0.8v2.6c0,0.1,0.1,0.3,0.2,0.4c0.1,0.1,0.2,0.2,0.4,0.2c0.1,0,0.3-0.1,0.4-0.2c0.1-0.1,0.2-0.2,0.2-0.4V150
		c0-0.5-0.2-1-0.5-1.3s-0.8-0.4-1.3-0.4c-0.8,0-1.5,0.3-2,1l-0.6-0.5c0.7-0.9,1.5-1.3,2.6-1.3c0.8,0,1.5,0.2,2.1,0.7
		s0.8,1.1,0.8,1.8V153.7z M224.6,151.7c0.2,0,0.3-0.1,0.4-0.2s0.2-0.3,0.2-0.4c0-0.2-0.1-0.3-0.2-0.4c-0.1-0.1-0.3-0.2-0.4-0.2
		c-0.2,0-0.3,0.1-0.4,0.2c-0.1,0.1-0.2,0.3-0.2,0.4c0,0.2,0.1,0.3,0.2,0.4S224.4,151.7,224.6,151.7z"/>
	<path d="M108,170.6c0,0.3-0.1,0.6-0.4,0.8s-0.5,0.4-0.8,0.4c-0.3,0-0.6-0.1-0.9-0.4s-0.4-0.5-0.4-0.8s0.1-0.6,0.4-0.8
		s0.5-0.4,0.9-0.4h0.1v-2.5c0-0.5-0.2-1-0.5-1.3s-0.8-0.4-1.3-0.4c-0.8,0-1.5,0.3-2,1l-0.6-0.5c0.7-0.9,1.5-1.3,2.6-1.3
		c0.8,0,1.5,0.2,2.1,0.7s0.8,1.1,0.8,1.8V170.6z M106.8,171.2c0.2,0,0.3-0.1,0.4-0.2c0.1-0.1,0.2-0.3,0.2-0.4s-0.1-0.3-0.2-0.4
		c-0.1-0.1-0.3-0.2-0.4-0.2c-0.2,0-0.3,0.1-0.4,0.2c-0.1,0.1-0.2,0.3-0.2,0.4s0.1,0.3,0.2,0.4C106.4,171.1,106.6,171.2,106.8,171.2z
		"/>
	<path d="M107.7,163.5h-0.6v-2.3h0.6V163.5z"/>
	<path d="M113.8,171.8h-1.1v-4.9c0-1.1-0.5-1.7-1.5-1.7c-0.7,0-1.2,0.3-1.7,1l-0.6-0.5c0.7-0.9,1.4-1.3,2.3-1.3
		c0.8,0,1.4,0.2,1.9,0.7s0.7,1.1,0.7,1.8V171.8z"/>
	<path d="M121.7,170.3c0,0.4-0.2,0.8-0.5,1.1c-0.3,0.3-0.7,0.4-1.1,0.4h-3.2V171h0.7v-3.1c0-0.3,0.1-0.5,0.4-0.8
		c0.2-0.3,0.4-0.6,0.4-0.9c0-0.3-0.1-0.6-0.4-0.9s-0.6-0.3-0.9-0.3c-0.2,0-0.4,0-0.6,0.1c0.6,0.2,0.9,0.6,0.9,1.2
		c0,0.3-0.1,0.6-0.4,0.8s-0.5,0.4-0.8,0.4s-0.6-0.1-0.8-0.4s-0.4-0.5-0.4-0.8c0-0.5,0.2-0.9,0.6-1.3s0.9-0.6,1.5-0.6
		c0.7,0,1.3,0.2,1.7,0.5s0.6,0.8,0.6,1.3c0,0.3-0.1,0.7-0.3,1s-0.3,0.5-0.3,0.7v3.1h1.1c0.5,0,0.7-0.2,0.7-0.6v-5.8h1.1V170.3z
		 M116.1,166.8c0.2,0,0.3-0.1,0.4-0.2c0.1-0.1,0.2-0.3,0.2-0.4s-0.1-0.3-0.2-0.4c-0.1-0.1-0.3-0.2-0.4-0.2s-0.3,0.1-0.4,0.2
		c-0.1,0.1-0.2,0.3-0.2,0.4s0.1,0.3,0.2,0.4C115.8,166.8,115.9,166.8,116.1,166.8z"/>
	<path d="M122.5,160.9c0,0.8-0.3,1.4-0.9,1.9s-1.3,0.7-2.3,0.7c-0.3,0-0.6,0-0.9-0.1V163c0.4,0,0.8-0.1,1-0.4
		c-0.2,0-0.4-0.1-0.6-0.3c-0.2-0.2-0.3-0.4-0.3-0.6s0.1-0.4,0.3-0.6c0.2-0.2,0.4-0.3,0.6-0.3s0.4,0.1,0.6,0.3
		c0.2,0.2,0.3,0.4,0.3,0.6c0,0.5-0.2,0.9-0.7,1.2c0.6,0,1.2-0.2,1.6-0.6s0.7-0.9,0.7-1.5H122.5z M119.3,162.2c0.1,0,0.2,0,0.3-0.1
		s0.1-0.2,0.1-0.3c0-0.1,0-0.2-0.1-0.3s-0.2-0.1-0.3-0.1c-0.1,0-0.2,0-0.3,0.1s-0.1,0.2-0.1,0.3c0,0.1,0,0.2,0.1,0.3
		S119.2,162.2,119.3,162.2z"/>
	<path d="M129,170.3c0,0.4-0.2,0.8-0.5,1.1c-0.3,0.3-0.7,0.4-1.1,0.4h-1.8c-0.4,0-0.8-0.1-1.1-0.4c-0.3-0.3-0.5-0.6-0.5-1.1v-2.6
		c0-0.3,0.1-0.6,0.4-0.8s0.5-0.4,0.8-0.4c0.3,0,0.6,0.1,0.8,0.4s0.4,0.5,0.4,0.8s-0.1,0.6-0.4,0.8s-0.5,0.4-0.8,0.4h-0.1v1.5
		c0,0.4,0.2,0.6,0.7,0.6h1.2c0.5,0,0.7-0.2,0.7-0.6v-3.5c0-0.5-0.2-0.9-0.6-1.3s-0.9-0.5-1.5-0.5c-0.4,0-0.9,0.1-1.3,0.3
		c-0.4,0.2-0.8,0.4-1,0.7l-0.6-0.5c0.3-0.4,0.7-0.7,1.3-1s1.1-0.4,1.6-0.4c0.9,0,1.6,0.2,2.2,0.7c0.6,0.5,0.9,1.1,0.9,1.8V170.3z
		 M125.3,168.3c0.2,0,0.3-0.1,0.4-0.2c0.1-0.1,0.2-0.3,0.2-0.4s-0.1-0.3-0.2-0.4c-0.1-0.1-0.3-0.2-0.4-0.2c-0.2,0-0.3,0.1-0.4,0.2
		c-0.1,0.1-0.2,0.3-0.2,0.4s0.1,0.3,0.2,0.4C125,168.2,125.1,168.3,125.3,168.3z"/>
	<path d="M137.2,171.8h-1.1c-0.8-1.5-1.9-2.4-3.3-2.5v1.2c0,0.9-0.5,1.4-1.4,1.4c-0.4,0-0.7-0.1-0.9-0.4s-0.4-0.6-0.4-1
		c0-0.4,0.1-0.8,0.4-1.2c0.3-0.3,0.6-0.6,1.1-0.7v-1.9h-0.1c-0.3,0-0.6-0.1-0.8-0.4s-0.4-0.5-0.4-0.8s0.1-0.6,0.4-0.8
		s0.5-0.4,0.8-0.4s0.6,0.1,0.8,0.4s0.4,0.5,0.4,0.8v3.1c1.3,0.1,2.4,0.8,3.3,1.9v-6h1.1V171.8z M131.6,170.5v-1.3
		c-0.3,0.1-0.5,0.2-0.6,0.5s-0.2,0.5-0.2,0.8c0,0.2,0,0.4,0.1,0.5c0.1,0.1,0.2,0.2,0.4,0.2C131.5,171.2,131.6,171,131.6,170.5z
		 M131.5,166.1c0.2,0,0.3-0.1,0.4-0.2s0.2-0.3,0.2-0.4c0-0.2-0.1-0.3-0.2-0.4c-0.1-0.1-0.3-0.2-0.4-0.2s-0.3,0.1-0.4,0.2
		c-0.1,0.1-0.2,0.3-0.2,0.4c0,0.2,0.1,0.3,0.2,0.4S131.4,166.1,131.5,166.1z"/>
	<path d="M137.2,173.8c0,0.6-0.3,0.9-1,0.9H135V174c-0.2,0-0.3-0.1-0.4-0.2c-0.1-0.1-0.2-0.2-0.2-0.4c0-0.2,0.1-0.3,0.2-0.4
		s0.2-0.2,0.4-0.2c0.2,0,0.4,0.1,0.5,0.2s0.2,0.3,0.2,0.5v0.7h0.5c0.3,0,0.4-0.2,0.4-0.5v-0.9h0.6V173.8z M135,173.7
		c0.2,0,0.3-0.1,0.3-0.3s-0.1-0.3-0.3-0.3s-0.3,0.1-0.3,0.3S134.8,173.7,135,173.7z"/>
	<path d="M144,171.8h-1.1v-0.2c-0.5-1.2-0.9-2.2-1.4-2.9c-0.4-0.7-0.8-1.1-1-1.1c-0.2,0-0.3,0.2-0.3,0.5v1.4h0.1
		c0.3,0,0.6,0.1,0.8,0.4s0.4,0.5,0.4,0.8s-0.1,0.6-0.4,0.8s-0.5,0.4-0.8,0.4s-0.6-0.1-0.8-0.4s-0.4-0.5-0.4-0.8V168
		c0-0.9,0.4-1.4,1.1-1.4c0.8,0,1.7,1.1,2.6,3.3v-3.1c0-0.5-0.2-1-0.5-1.3s-0.8-0.4-1.3-0.4c-0.8,0-1.5,0.3-2,1l-0.6-0.5
		c0.7-0.9,1.5-1.3,2.6-1.3c0.8,0,1.5,0.2,2.1,0.7s0.8,1.1,0.8,1.8V171.8z M140.3,171.2c0.2,0,0.3-0.1,0.4-0.2
		c0.1-0.1,0.2-0.3,0.2-0.4s-0.1-0.3-0.2-0.4c-0.1-0.1-0.3-0.2-0.4-0.2s-0.3,0.1-0.4,0.2c-0.1,0.1-0.2,0.3-0.2,0.4s0.1,0.3,0.2,0.4
		C140,171.1,140.1,171.2,140.3,171.2z"/>
	<path d="M152,171.8h-1.1v-6.1c0-0.3-0.1-0.4-0.3-0.4c-0.1,0-0.2,0.1-0.3,0.2s-0.3,0.4-0.5,0.7s-0.4,0.8-0.6,1.3
		c-0.2,0.5-0.5,1.3-0.9,2.3c-0.4,1-0.6,1.6-0.6,1.8v0.2h-1.1v-5h-0.1c-0.3,0-0.6-0.1-0.8-0.4s-0.4-0.5-0.4-0.8s0.1-0.6,0.4-0.8
		s0.5-0.4,0.8-0.4s0.6,0.1,0.8,0.4s0.4,0.5,0.4,0.8v3.6c0.5-1.4,1-2.5,1.6-3.4c0.5-0.9,1.1-1.4,1.7-1.4c0.7,0,1.1,0.5,1.1,1.4V171.8
		z M146.5,166.1c0.2,0,0.3-0.1,0.4-0.2s0.2-0.3,0.2-0.4c0-0.2-0.1-0.3-0.2-0.4c-0.1-0.1-0.3-0.2-0.4-0.2s-0.3,0.1-0.4,0.2
		c-0.1,0.1-0.2,0.3-0.2,0.4c0,0.2,0.1,0.3,0.2,0.4S146.3,166.1,146.5,166.1z"/>
	<path d="M152,163.5h-5.5c0.4-1.4,1.3-2.2,2.7-2.2c0.9,0,1.6,0.3,2.2,1v-1.4h0.6V163.5z M151.1,162.9c-0.3-0.7-0.9-1.1-1.8-1.1
		s-1.5,0.4-1.8,1.1H151.1z"/>
	<path d="M151.8,163.5h-0.6v-2.3h0.6V163.5z"/>
	<path d="M159.9,171.8h-1.1V167c0-0.6-0.2-1-0.6-1.4c-0.4-0.3-0.9-0.5-1.6-0.5c-0.7,0-1.3,0.2-1.7,0.6c-0.4,0.4-0.6,0.9-0.6,1.4
		c0,0.6,0.2,1.2,0.5,1.7v-1.1c0-0.3,0.1-0.6,0.4-0.8s0.5-0.4,0.9-0.4c0.3,0,0.6,0.1,0.8,0.4s0.4,0.5,0.4,0.8s-0.1,0.6-0.4,0.8
		s-0.5,0.4-0.8,0.4h-0.1v2.8h-1.1v-0.6c0-0.5-0.2-1.1-0.6-1.9s-0.6-1.5-0.6-2.1c0-0.8,0.3-1.4,0.9-2s1.3-0.8,2.3-0.8
		c1,0,1.8,0.2,2.4,0.7c0.6,0.5,0.9,1.1,0.9,1.9V171.8z M155.9,168.3c0.2,0,0.3-0.1,0.4-0.2c0.1-0.1,0.2-0.3,0.2-0.4
		c0-0.2-0.1-0.3-0.2-0.4s-0.3-0.2-0.4-0.2c-0.2,0-0.3,0.1-0.4,0.2s-0.2,0.3-0.2,0.4c0,0.2,0.1,0.3,0.2,0.4
		C155.6,168.3,155.7,168.3,155.9,168.3z"/>
	<path d="M159.9,174.7h-0.6V174c-0.2,0-0.3-0.1-0.4-0.2c-0.1-0.1-0.2-0.2-0.2-0.4c0-0.2,0.1-0.3,0.2-0.4s0.2-0.2,0.4-0.2
		c0.2,0,0.4,0.1,0.5,0.2s0.2,0.3,0.2,0.5V174.7z M159.3,173.7c0.2,0,0.3-0.1,0.3-0.3s-0.1-0.3-0.3-0.3s-0.3,0.1-0.3,0.3
		S159.1,173.7,159.3,173.7z"/>
	<path d="M166.8,171.8h-1.1V167c0-0.6-0.1-1.1-0.4-1.4s-0.7-0.5-1.2-0.5c-0.8,0-1.3,0.3-1.6,0.9c0.3,0.4,0.8,0.7,1.6,0.8v0.4
		c-0.3,0-0.5,0.1-0.7,0.3s-0.3,0.4-0.3,0.7v1.2h0.1c0.3,0,0.6,0.1,0.9,0.4s0.4,0.5,0.4,0.8s-0.1,0.6-0.4,0.8s-0.5,0.4-0.9,0.4
		c-0.3,0-0.6-0.1-0.8-0.4s-0.4-0.5-0.4-0.8v-2.4c0-0.5,0.2-0.9,0.6-1.1c-0.6-0.2-1-0.5-1.2-1c0.6-1.1,1.5-1.7,2.8-1.7
		c0.8,0,1.5,0.2,2,0.7s0.8,1.1,0.8,1.9v3.3c0.5-0.9,1.1-1.4,1.9-1.6v-4.1h1.1v4.1c0.4,0.1,0.8,0.4,1.1,0.7c0.3,0.4,0.4,0.7,0.4,1.1
		c0,0.4-0.1,0.7-0.3,1s-0.5,0.4-0.9,0.4c-0.9,0-1.4-0.5-1.4-1.4v-1.1c-0.3,0.1-0.6,0.3-1,0.8C167.3,170.6,167,171.1,166.8,171.8z
		 M163.1,171.2c0.2,0,0.3-0.1,0.4-0.2c0.1-0.1,0.2-0.3,0.2-0.4s-0.1-0.3-0.2-0.4c-0.1-0.1-0.3-0.2-0.4-0.2c-0.2,0-0.3,0.1-0.4,0.2
		c-0.1,0.1-0.2,0.3-0.2,0.4s0.1,0.3,0.2,0.4C162.8,171.1,163,171.2,163.1,171.2z M170.7,170.4c0-0.2-0.1-0.5-0.2-0.7
		c-0.2-0.2-0.4-0.4-0.6-0.5v1.3c0,0.4,0.1,0.6,0.4,0.6C170.5,171.2,170.7,170.9,170.7,170.4z"/>
	<path d="M178.9,170.3c0,0.4-0.2,0.8-0.5,1.1c-0.3,0.3-0.7,0.4-1.1,0.4h-4.7V171h0.7v-4.2h-0.1c-0.3,0-0.6-0.1-0.8-0.4
		c-0.2-0.2-0.4-0.5-0.4-0.8s0.1-0.6,0.4-0.8c0.2-0.2,0.5-0.4,0.8-0.4s0.6,0.1,0.8,0.4c0.2,0.2,0.4,0.5,0.4,0.8v5.4h2.6
		c0.5,0,0.7-0.2,0.7-0.6v-9.6h1.1V170.3z M173.3,166.1c0.2,0,0.3-0.1,0.4-0.2s0.2-0.3,0.2-0.4c0-0.2-0.1-0.3-0.2-0.4
		c-0.1-0.1-0.3-0.2-0.4-0.2c-0.2,0-0.3,0.1-0.4,0.2c-0.1,0.1-0.2,0.3-0.2,0.4c0,0.2,0.1,0.3,0.2,0.4S173.1,166.1,173.3,166.1z"/>
	<path d="M179.7,160.9c0,0.8-0.3,1.4-0.9,1.9s-1.3,0.7-2.3,0.7c-0.3,0-0.6,0-0.9-0.1V163c0.4,0,0.8-0.1,1-0.4
		c-0.2,0-0.4-0.1-0.6-0.3c-0.2-0.2-0.3-0.4-0.3-0.6s0.1-0.4,0.3-0.6c0.2-0.2,0.4-0.3,0.6-0.3c0.2,0,0.4,0.1,0.6,0.3
		c0.2,0.2,0.3,0.4,0.3,0.6c0,0.5-0.2,0.9-0.7,1.2c0.6,0,1.2-0.2,1.6-0.6c0.5-0.4,0.7-0.9,0.7-1.5H179.7z M176.6,162.2
		c0.1,0,0.2,0,0.3-0.1c0.1-0.1,0.1-0.2,0.1-0.3c0-0.1,0-0.2-0.1-0.3c-0.1-0.1-0.2-0.1-0.3-0.1c-0.1,0-0.2,0-0.3,0.1
		c-0.1,0.1-0.1,0.2-0.1,0.3c0,0.1,0,0.2,0.1,0.3C176.4,162.1,176.5,162.2,176.6,162.2z"/>
	<path d="M186.3,170.3c0,0.4-0.2,0.8-0.5,1.1c-0.3,0.3-0.7,0.4-1.1,0.4h-1.8c-0.4,0-0.8-0.1-1.1-0.4c-0.3-0.3-0.5-0.6-0.5-1.1v-2.6
		c0-0.3,0.1-0.6,0.4-0.8c0.2-0.2,0.5-0.4,0.8-0.4c0.3,0,0.6,0.1,0.8,0.4s0.4,0.5,0.4,0.8s-0.1,0.6-0.4,0.8s-0.5,0.4-0.8,0.4h-0.1
		v1.5c0,0.4,0.2,0.6,0.7,0.6h1.2c0.5,0,0.7-0.2,0.7-0.6v-3.5c0-0.5-0.2-0.9-0.6-1.3c-0.4-0.3-0.9-0.5-1.5-0.5
		c-0.4,0-0.9,0.1-1.3,0.3c-0.4,0.2-0.8,0.4-1,0.7l-0.6-0.5c0.3-0.4,0.7-0.7,1.3-1c0.5-0.2,1.1-0.4,1.6-0.4c0.9,0,1.6,0.2,2.2,0.7
		c0.6,0.5,0.9,1.1,0.9,1.8V170.3z M182.5,168.3c0.2,0,0.3-0.1,0.4-0.2c0.1-0.1,0.2-0.3,0.2-0.4s-0.1-0.3-0.2-0.4
		c-0.1-0.1-0.3-0.2-0.4-0.2c-0.2,0-0.3,0.1-0.4,0.2c-0.1,0.1-0.2,0.3-0.2,0.4s0.1,0.3,0.2,0.4C182.2,168.2,182.3,168.3,182.5,168.3z
		"/>
	<path d="M194.1,168.9c0.8,0.3,1.2,0.8,1.2,1.6c0,0.4-0.1,0.7-0.3,1c-0.2,0.2-0.5,0.4-0.8,0.4c-0.4,0-0.7-0.1-0.9-0.3
		s-0.3-0.6-0.3-1.1v-0.9c-1.1,0.2-2.2,1-3,2.2h-1.1v-5h-0.1c-0.3,0-0.6-0.1-0.8-0.4c-0.2-0.2-0.4-0.5-0.4-0.8s0.1-0.6,0.4-0.8
		c0.2-0.2,0.5-0.4,0.8-0.4s0.6,0.1,0.8,0.4c0.2,0.2,0.4,0.5,0.4,0.8v5.2c0.8-1,1.8-1.6,3-1.9v-4.4h1.1V168.9z M188.8,166.1
		c0.2,0,0.3-0.1,0.4-0.2s0.2-0.3,0.2-0.4c0-0.2-0.1-0.3-0.2-0.4c-0.1-0.1-0.3-0.2-0.4-0.2c-0.2,0-0.3,0.1-0.4,0.2
		c-0.1,0.1-0.2,0.3-0.2,0.4c0,0.2,0.1,0.3,0.2,0.4S188.6,166.1,188.8,166.1z M194.8,170.4c0-0.2-0.1-0.4-0.2-0.6
		c-0.1-0.2-0.3-0.3-0.5-0.4v1.2c0,0.2,0,0.3,0,0.4c0,0.1,0.1,0.1,0.2,0.1C194.6,171.2,194.8,170.9,194.8,170.4z"/>
	<path d="M202.6,171.8h-1.1V167c0-0.6-0.2-1-0.6-1.4s-0.9-0.5-1.5-0.5c-0.9,0-1.5,0.3-1.9,0.9c0.3,0.4,0.8,0.7,1.6,0.8v0.4
		c-0.3,0-0.5,0.1-0.7,0.3c-0.2,0.2-0.3,0.4-0.3,0.7v1.2h0.1c0.3,0,0.6,0.1,0.9,0.4s0.4,0.5,0.4,0.8s-0.1,0.6-0.4,0.8
		s-0.5,0.4-0.9,0.4c-0.3,0-0.6-0.1-0.8-0.4s-0.4-0.5-0.4-0.8v-2.4c0-0.5,0.2-0.9,0.6-1.1c-0.6-0.2-1-0.5-1.2-1
		c0.6-1.1,1.6-1.7,3.1-1.7c0.9,0,1.7,0.2,2.3,0.7c0.6,0.5,0.9,1.1,0.9,1.9V171.8z M198.2,171.2c0.2,0,0.3-0.1,0.4-0.2
		c0.1-0.1,0.2-0.3,0.2-0.4s-0.1-0.3-0.2-0.4c-0.1-0.1-0.3-0.2-0.4-0.2c-0.2,0-0.3,0.1-0.4,0.2c-0.1,0.1-0.2,0.3-0.2,0.4
		s0.1,0.3,0.2,0.4C197.9,171.1,198,171.2,198.2,171.2z"/>
	<path d="M202.6,173.8c0,0.6-0.3,0.9-1,0.9h-1.1V174c-0.2,0-0.3-0.1-0.4-0.2c-0.1-0.1-0.2-0.2-0.2-0.4c0-0.2,0.1-0.3,0.2-0.4
		s0.2-0.2,0.4-0.2c0.2,0,0.4,0.1,0.5,0.2s0.2,0.3,0.2,0.5v0.7h0.5c0.3,0,0.4-0.2,0.4-0.5v-0.9h0.6V173.8z M200.4,173.7
		c0.2,0,0.3-0.1,0.3-0.3s-0.1-0.3-0.3-0.3c-0.2,0-0.3,0.1-0.3,0.3S200.2,173.7,200.4,173.7z"/>
	<path d="M210.3,171.8h-1.1V167c0-0.6-0.2-1-0.6-1.4s-0.9-0.5-1.5-0.5c-0.9,0-1.5,0.3-1.9,0.9c0.3,0.4,0.8,0.7,1.6,0.8v0.4
		c-0.3,0-0.5,0.1-0.7,0.3c-0.2,0.2-0.3,0.4-0.3,0.7v3.6h-1.1v-3.6c0-0.5,0.2-0.9,0.6-1.1c-0.6-0.2-1-0.5-1.2-1
		c0.6-1.1,1.6-1.7,3.1-1.7c0.9,0,1.7,0.2,2.3,0.7c0.6,0.5,0.9,1.1,0.9,1.9V171.8z"/>
	<path d="M218.1,171.8H217v-4.5c0-1.1-0.2-1.7-0.7-2l-1.5,0.8l-1.5-0.8c-0.6,0.4-0.9,1.1-0.9,1.9c0,0.5,0.2,1.1,0.5,1.6
		c0.4,0.7,0.7,1.2,0.8,1.5c0.1-0.2,0.3-0.4,0.6-0.7s0.4-0.5,0.5-0.6h0c-0.3,0-0.6-0.1-0.9-0.4s-0.4-0.5-0.4-0.8s0.1-0.6,0.4-0.8
		s0.5-0.4,0.9-0.4c0.3,0,0.6,0.1,0.8,0.4s0.4,0.5,0.4,0.8c0,0.3-0.1,0.6-0.2,0.9c-0.1,0.3-0.4,0.7-0.9,1.2c-0.5,0.5-0.7,0.9-0.7,1.2
		v0.6h-1.1v-0.6c0-0.5-0.2-1.1-0.6-1.9c-0.4-0.8-0.6-1.5-0.6-2.1c0-1.2,0.6-2.1,1.7-2.8l1.5,0.8l1.5-0.8c1.3,0.5,1.9,1.4,1.9,2.9
		V171.8z M214.7,168.3c0.2,0,0.3-0.1,0.4-0.2c0.1-0.1,0.2-0.3,0.2-0.4c0-0.2-0.1-0.3-0.2-0.4c-0.1-0.1-0.3-0.2-0.4-0.2
		c-0.2,0-0.3,0.1-0.4,0.2s-0.2,0.3-0.2,0.4c0,0.2,0.1,0.3,0.2,0.4C214.4,168.3,214.5,168.3,214.7,168.3z"/>
	<path d="M218.9,160.9c0,0.8-0.3,1.4-0.9,1.9s-1.3,0.7-2.3,0.7c-0.3,0-0.6,0-0.9-0.1V163c0.4,0,0.8-0.1,1-0.4
		c-0.2,0-0.4-0.1-0.6-0.3c-0.2-0.2-0.3-0.4-0.3-0.6s0.1-0.4,0.3-0.6c0.2-0.2,0.4-0.3,0.6-0.3c0.2,0,0.4,0.1,0.6,0.3
		c0.2,0.2,0.3,0.4,0.3,0.6c0,0.5-0.2,0.9-0.7,1.2c0.6,0,1.2-0.2,1.6-0.6c0.5-0.4,0.7-0.9,0.7-1.5H218.9z M215.8,162.2
		c0.1,0,0.2,0,0.3-0.1c0.1-0.1,0.1-0.2,0.1-0.3c0-0.1,0-0.2-0.1-0.3c-0.1-0.1-0.2-0.1-0.3-0.1c-0.1,0-0.2,0-0.3,0.1
		c-0.1,0.1-0.1,0.2-0.1,0.3c0,0.1,0,0.2,0.1,0.3C215.5,162.1,215.6,162.2,215.8,162.2z"/>
	<path d="M225.5,170.3c0,0.4-0.2,0.8-0.5,1.1c-0.3,0.3-0.7,0.4-1.1,0.4h-1.8c-0.4,0-0.8-0.1-1.1-0.4c-0.3-0.3-0.5-0.6-0.5-1.1v-2.6
		c0-0.3,0.1-0.6,0.4-0.8c0.2-0.2,0.5-0.4,0.8-0.4c0.3,0,0.6,0.1,0.8,0.4s0.4,0.5,0.4,0.8s-0.1,0.6-0.4,0.8s-0.5,0.4-0.8,0.4h-0.1
		v1.5c0,0.4,0.2,0.6,0.7,0.6h1.2c0.5,0,0.7-0.2,0.7-0.6v-3.5c0-0.5-0.2-0.9-0.6-1.3c-0.4-0.3-0.9-0.5-1.5-0.5
		c-0.4,0-0.9,0.1-1.3,0.3c-0.4,0.2-0.8,0.4-1,0.7l-0.6-0.5c0.3-0.4,0.7-0.7,1.3-1c0.5-0.2,1.1-0.4,1.6-0.4c0.9,0,1.6,0.2,2.2,0.7
		c0.6,0.5,0.9,1.1,0.9,1.8V170.3z M221.7,168.3c0.2,0,0.3-0.1,0.4-0.2c0.1-0.1,0.2-0.3,0.2-0.4s-0.1-0.3-0.2-0.4
		c-0.1-0.1-0.3-0.2-0.4-0.2c-0.2,0-0.3,0.1-0.4,0.2c-0.1,0.1-0.2,0.3-0.2,0.4s0.1,0.3,0.2,0.4C221.4,168.2,221.5,168.3,221.7,168.3z
		"/>
	<path d="M231.4,171.8h-1.1c-0.7-1.1-1.4-1.9-2-2.4c-0.6-0.5-1.3-0.8-2-0.8V168c0.7,0,1.4,0.2,2,0.6c0.6,0.4,1.3,1.1,2,2.1v-3.9
		h-0.1c-0.3,0-0.6-0.1-0.8-0.4c-0.2-0.2-0.4-0.5-0.4-0.8s0.1-0.6,0.4-0.8c0.2-0.2,0.5-0.4,0.8-0.4c0.3,0,0.6,0.1,0.8,0.4
		s0.4,0.5,0.4,0.8V171.8z M230.2,166.1c0.2,0,0.3-0.1,0.4-0.2c0.1-0.1,0.2-0.3,0.2-0.4c0-0.2-0.1-0.3-0.2-0.4
		c-0.1-0.1-0.3-0.2-0.4-0.2c-0.2,0-0.3,0.1-0.4,0.2c-0.1,0.1-0.2,0.3-0.2,0.4c0,0.2,0.1,0.3,0.2,0.4S230,166.1,230.2,166.1z"/>
</g>
</svg>
