<?xml version="1.0" encoding="utf-8"?>
<!-- Generator: Adobe Illustrator 25.2.3, SVG Export Plug-In . SVG Version: 6.00 Build 0)  -->
<svg version="1.1" id="Warstwa_1" xmlns="http://www.w3.org/2000/svg" xmlns:xlink="http://www.w3.org/1999/xlink" x="0px" y="0px"
	 viewBox="0 0 378.4 41.9" style="enable-background:new 0 0 378.4 41.9;" xml:space="preserve">
<style type="text/css">
	.st0{fill:none;stroke:#000000;}
</style>
<g>
	<path class="st0" d="M13.6,33.1L4.2,3.9h7.2L15,16.2c1,3.5,1.9,6.8,2.6,10.4h0.1c0.7-3.5,1.6-7,2.6-10.3l3.7-12.5h7l-9.8,29.1H13.6
		z"/>
	<path class="st0" d="M40.8,3.9v29.1h-6.6V3.9H40.8z"/>
	<path class="st0" d="M46.7,26.3c1.8,0.9,4.5,1.8,7.3,1.8c3,0,4.6-1.3,4.6-3.2c0-1.8-1.4-2.9-4.9-4.1c-4.8-1.7-8-4.4-8-8.6
		c0-5,4.2-8.8,11-8.8c3.3,0,5.7,0.7,7.4,1.5l-1.5,5.3c-1.2-0.6-3.2-1.4-6.1-1.4c-2.9,0-4.2,1.3-4.2,2.8c0,1.9,1.6,2.7,5.4,4.1
		c5.1,1.9,7.6,4.6,7.6,8.7c0,4.9-3.8,9.1-11.8,9.1c-3.3,0-6.6-0.9-8.3-1.8L46.7,26.3z"/>
	<path class="st0" d="M76.4,3.9v16.8c0,5,1.9,7.6,5.3,7.6c3.5,0,5.4-2.4,5.4-7.6V3.9h6.6v16.3c0,9-4.5,13.3-12.2,13.3
		c-7.4,0-11.7-4.1-11.7-13.4V3.9H76.4z"/>
	<path class="st0" d="M99.4,3.9h6.6v23.6h11.6v5.5H99.4V3.9z"/>
	<path class="st0" d="M128.5,25.6l-2.1,7.5h-6.8l8.9-29.1h8.6l9,29.1h-7.1l-2.2-7.5H128.5z M135.9,20.7l-1.8-6.2
		c-0.5-1.7-1-3.9-1.5-5.6h-0.1c-0.4,1.7-0.9,3.9-1.3,5.6l-1.7,6.2H135.9z"/>
	<path class="st0" d="M150.1,33.1V3.9h7.7l6.1,10.7c1.7,3.1,3.5,6.7,4.8,10h0.1c-0.4-3.8-0.6-7.8-0.6-12.2V3.9h6.1v29.1h-6.9
		l-6.2-11.2c-1.7-3.1-3.6-6.9-5.1-10.3l-0.1,0c0.2,3.8,0.3,8,0.3,12.7v8.8H150.1z"/>
	<path class="st0" d="M210.1,32.2c-1.2,0.6-3.9,1.3-7.5,1.3c-10.1,0-15.3-6.3-15.3-14.6c0-9.9,7.1-15.5,15.9-15.5
		c3.4,0,6,0.7,7.2,1.3l-1.3,5.2c-1.3-0.6-3.2-1.1-5.5-1.1c-5.2,0-9.3,3.2-9.3,9.6c0,5.8,3.5,9.5,9.3,9.5c2,0,4.2-0.4,5.5-1
		L210.1,32.2z"/>
	<path class="st0" d="M239.8,18.2c0,9.6-5.8,15.4-14.3,15.4c-8.6,0-13.7-6.5-13.7-14.8c0-8.7,5.6-15.3,14.2-15.3
		C234.9,3.4,239.8,10.2,239.8,18.2z M218.7,18.6c0,5.7,2.7,9.7,7.1,9.7c4.5,0,7-4.2,7-9.9c0-5.2-2.5-9.7-7-9.7
		C221.3,8.7,218.7,12.9,218.7,18.6z"/>
	<path class="st0" d="M268.7,21.9c-0.1-3.5-0.3-7.7-0.3-12h-0.1c-0.9,3.7-2.1,7.9-3.2,11.3l-3.5,11.4h-5.1l-3.1-11.2
		c-1-3.5-1.9-7.6-2.6-11.4h-0.1c-0.2,3.9-0.3,8.4-0.5,12.1l-0.5,11.1h-6.1l1.9-29.1h8.8l2.9,9.7c0.9,3.3,1.8,7,2.5,10.4h0.1
		c0.8-3.4,1.8-7.2,2.8-10.5l3.1-9.7h8.6l1.6,29.1h-6.4L268.7,21.9z"/>
	<path class="st0" d="M280.7,4.3c2-0.3,4.9-0.6,8.9-0.6c4.1,0,7,0.8,8.9,2.3c1.9,1.5,3.1,3.9,3.1,6.7c0,2.9-1,5.3-2.7,6.9
		c-2.2,2.1-5.6,3.1-9.5,3.1c-0.9,0-1.6,0-2.2-0.1v10.4h-6.5V4.3z M287.2,17.5c0.6,0.1,1.3,0.2,2.2,0.2c3.5,0,5.7-1.8,5.7-4.8
		c0-2.7-1.9-4.3-5.1-4.3c-1.3,0-2.2,0.1-2.7,0.3V17.5z"/>
	<path class="st0" d="M305.8,3.9h6.6v23.6H324v5.5h-18.2V3.9z"/>
	<path class="st0" d="M345.2,20.7h-10.7v6.9h12v5.4h-18.6V3.9h18v5.4h-11.4v6.1h10.7V20.7z"/>
	<path class="st0" d="M366.3,33.1l-2.6-5.3c-1.1-2-1.8-3.5-2.6-5.2H361c-0.6,1.7-1.3,3.2-2.2,5.2l-2.4,5.3h-7.5l8.4-14.7l-8.1-14.4
		h7.6l2.6,5.3c0.9,1.8,1.5,3.2,2.2,4.8h0.1c0.7-1.9,1.3-3.2,2-4.8l2.5-5.3h7.5l-8.2,14.2l8.6,14.9H366.3z"/>
</g>
</svg>
