<svg xmlns="http://www.w3.org/2000/svg" width="120.683" height="90.396" viewBox="0 0 120.683 90.396">
  <g id="back-arrow" transform="translate(-0.007)">
    <g id="Group_3921" data-name="Group 3921" transform="translate(0.007 0)">
      <path id="Path_14574" data-name="Path 14574" d="M47.415,70.939v16.23c0,1.783-1.931,3.228-4.312,3.228a5.056,5.056,0,0,1-3.2-1.068L1.11,57.044a2.647,2.647,0,0,1-.134-4.2L39.769,17.334a5.353,5.353,0,0,1,6.065-.455,3,3,0,0,1,1.581,2.492V35.458c34.051-.83,55.3-11.732,64.878-33.253A4.393,4.393,0,0,1,116.38,0a5.548,5.548,0,0,1,.694.042c2.085.255,3.616,1.6,3.616,3.187C120.69,41.247,90.135,69.177,47.415,70.939Z" transform="translate(-0.007 0)" fill="#0c3651"/>
    </g>
  </g>
</svg>
