<?xml version="1.0" encoding="utf-8"?>
<!-- Generator: Adobe Illustrator 25.1.0, SVG Export Plug-In . SVG Version: 6.00 Build 0)  -->
<svg version="1.1" id="Слой_1" xmlns="http://www.w3.org/2000/svg" xmlns:xlink="http://www.w3.org/1999/xlink" x="0px" y="0px"
	 viewBox="0 0 333.9 256.5" style="enable-background:new 0 0 333.9 256.5;" xml:space="preserve">
<style type="text/css">
	.st0{fill:#ABBD00;}
	.st1{fill:#F4F5F5;}
	.st2{fill:url(#Ellipse_8562_1_);stroke:#ABBD00;stroke-width:2;}
	.st3{enable-background:new    ;}
</style>
<g id="step-2" transform="translate(-647.713 -13957.586)">
	<path id="Path_13616" class="st0" d="M704,14098.5h-15.5c-5.1,0-9.2-4.1-9.2-9.2c0-5.1,4.1-9.2,9.2-9.2H704c5.1,0,9.2,4.1,9.2,9.2
		C713.2,14094.4,709.1,14098.5,704,14098.5z"/>
	<g id="Group_3821" transform="translate(630.728 13965.053)">
		<path id="Path_13617" class="st0" d="M341.4,115.1h-35.1c-1.9,0-3.5-1.5-3.7-3.4c-7.1-68.4-68.3-118.1-136.7-111
			c-48.5,5-89.7,38-105.2,84.2c-0.5,1.5-1.9,2.5-3.5,2.5H26.4c-5,0-9.2,3.9-9.4,8.9c-0.2,5.1,3.8,9.4,8.9,9.5c0.1,0,0.2,0,0.3,0H67
			c4.7,0,8.7-3.6,9.2-8.2C91,41.1,148.9,7.2,205.4,22c56.6,14.8,90.4,72.7,75.6,129.3c-14.8,56.6-72.7,90.4-129.3,75.6
			c-37-9.7-65.9-38.6-75.6-75.5c-0.3-4.9-4.3-8.6-9.2-8.6H36.6c-5,0-9.2,3.9-9.4,8.9c-0.2,5.1,3.8,9.4,8.9,9.6c0.1,0,0.2,0,0.3,0H57
			c1.6,0,3,1,3.5,2.6c21.8,65.3,92.4,100.5,157.6,78.7c37.2-12.4,66.3-41.6,78.7-78.7c0.5-1.5,1.9-2.6,3.5-2.6h5.5
			c5,0,9.2-3.9,9.4-8.9c0.2-5.1-3.8-9.4-8.9-9.6c-0.1,0-0.2,0-0.3,0l0,0c-2.1,0-3.7-1.7-3.7-3.7c0-0.1,0-0.3,0-0.4
			c0.1-0.6,0.1-1.1,0.2-1.7c0.2-1.9,1.8-3.4,3.7-3.4h35.2c5.1,0,9.2-4.1,9.2-9.2c0-0.1,0-0.2,0-0.3
			C350.6,119,346.4,115.1,341.4,115.1z"/>
	</g>
	<g id="Group_3832" transform="translate(703.191 13982.938)">
		<path id="Path_13623" class="st1" d="M106.5,0C47.7,0,0,47.7,0,106.5S47.7,213,106.5,213c58.8,0,106.5-47.7,106.5-106.5
			c0-28.2-11.2-55.3-31.2-75.3C161.9,11.2,134.8-0.1,106.5,0z"/>
	</g>
	<g id="operator-icon" transform="translate(795.78 14027.792)">
		<g id="Group_143" transform="translate(0)">
			<path id="Path_339" class="st0" d="M28.5,30.9c-0.1-5.1-5.3-6.6-9.1-7.7c-0.4-0.1-0.9-0.2-1.3-0.4v-2.1c0.8-0.5,1.5-1.1,2-1.8
				h2.3c1.1,0,2-0.9,2-2v-2.5c0.1-0.3,0.2-0.7,0.2-1v-0.8c0-0.4-0.1-0.7-0.2-1v-1.3C24.6,4.6,20,0,14.3-0.1C8.7-0.2,4,4.4,4,10.1
				c0,0.1,0,0.1,0,0.2v1.2c0,0,0,0,0,0c-0.1,0.3-0.2,0.7-0.2,1v0.8c0,1.5,1.2,2.6,2.6,2.6H7c0.4,2,1.6,3.7,3.3,4.8v2.1
				c-0.4,0.1-0.8,0.2-1.3,0.4c-3.8,1.1-9,2.6-9.1,7.7c0,0,0,0,0,0v5.7c0,0.4,0.3,0.7,0.7,0.7l0,0h2.2c0.4,0,0.7-0.3,0.7-0.7
				s-0.3-0.7-0.7-0.7l0,0H1.5v-5c0-1.8,1-3.4,2.6-4.2c1.2-0.7,2.5-1.3,3.9-1.6l1.8,3.4c0.2,0.4,0.6,0.5,1,0.3c0,0,0,0,0.1,0l0.8-0.5
				l0.7,2.5L11,35.9H9.4c-0.4,0-0.7,0.3-0.7,0.7s0.3,0.7,0.7,0.7h18.3c0.4,0,0.7-0.3,0.7-0.7L28.5,30.9
				C28.5,30.9,28.5,30.9,28.5,30.9z M19,24.6l0.1,0l-1.3,2.5l-2.4-1.6l2-1.3C18,24.3,18.5,24.5,19,24.6L19,24.6z M14.2,26.4l1.5,1
				L15,30h-1.5l-0.7-2.6L14.2,26.4z M14.2,24.7L11.8,23v-1.5c1.6,0.6,3.3,0.6,4.9,0V23L14.2,24.7z M20.2,10.4L20.2,10.4
				c-1.5-1-2.8-1.8-4.8-1.2l-0.1,0c-0.4,0.2-0.8,0.3-1.2,0.5c-2.3,0.9-3.6,1.4-5.8,1.3v-0.6c0-3.3,2.7-5.9,5.9-5.9
				S20.2,7.1,20.2,10.4L20.2,10.4L20.2,10.4z M23,16.9c0,0.3-0.3,0.6-0.6,0.6H21c0.2-0.5,0.4-1,0.5-1.5h0.6c0.3,0,0.7-0.1,1-0.2
				L23,16.9L23,16.9z M23.3,13.4c0,0.7-0.5,1.2-1.2,1.2h-0.4c0,0,0-3.1,0-3.1h0.4c0.7,0,1.2,0.5,1.2,1.2V13.4z M6.4,14.5
				c-0.7,0-1.2-0.5-1.2-1.2v-0.8c0-0.7,0.5-1.2,1.2-1.2l0,0h0.4c0,0,0,3.1,0,3.1L6.4,14.5z M6.9,9.9H6.4c-0.3,0-0.7,0.1-1,0.2
				c0.1-4.9,4.1-8.7,8.9-8.7c4.8,0.1,8.6,3.9,8.7,8.7c-0.3-0.1-0.6-0.2-1-0.2h-0.5c-0.2-4.1-3.8-7.2-7.8-6.9
				C10.1,3.2,7.1,6.2,6.9,9.9L6.9,9.9z M8.3,15.2L8.3,15.2c0-0.2,0-0.5,0-0.7v-2.1c2.2,0,4.3-0.5,6.3-1.4c0.4-0.1,0.7-0.3,1.2-0.4
				c1.4-0.4,2.2,0.1,3.6,1c0.2,0.2,0.5,0.3,0.8,0.5v2.4c0,1-0.3,2.1-0.8,3h-5.1c-0.4,0-0.7,0.3-0.7,0.7s0.3,0.7,0.7,0.7h3.9
				c-2.4,2.2-6.2,2-8.4-0.5C9,17.5,8.5,16.4,8.3,15.2L8.3,15.2z M10.6,27.1l-1.3-2.5l0.1,0c0.5-0.1,1-0.3,1.5-0.4l2,1.3L10.6,27.1z
				 M12.5,35.9l1-4.4H15l1,4.4H12.5z M27,35.9h-9.6l-1.2-5.1l0.7-2.5l0.8,0.5c0.3,0.2,0.8,0.1,1-0.2c0,0,0,0,0-0.1l1.8-3.4
				c1.4,0.4,2.7,0.9,3.9,1.6c1.6,0.8,2.5,2.4,2.6,4.2L27,35.9L27,35.9z"/>
			<path id="Path_340" class="st0" d="M24.1,32.2h-3.7c-0.4,0-0.7,0.3-0.8,0.7c0,0.4,0.3,0.7,0.7,0.8c0,0,0,0,0.1,0h3.7
				c0.4,0,0.7-0.3,0.8-0.7C24.9,32.6,24.6,32.2,24.1,32.2C24.2,32.2,24.2,32.2,24.1,32.2z"/>
			<path id="Path_341" class="st0" d="M6.2,35.9c-0.4,0-0.7,0.3-0.7,0.7s0.3,0.7,0.7,0.7l0,0c0.4,0,0.7-0.3,0.7-0.7
				S6.6,35.9,6.2,35.9L6.2,35.9z"/>
		</g>
	</g>
	<g id="Group_3917" transform="translate(689.022 13959)">
		
			<image style="overflow:visible;enable-background:new    ;" width="435" height="434" id="Rectangle_638" xlink:href="3C65D0A3.png"  transform="matrix(0.1746 0 0 0.1746 6.8642 8.112)">
		</image>
		
			<linearGradient id="Ellipse_8562_1_" gradientUnits="userSpaceOnUse" x1="-418.281" y1="1074.0244" x2="-417.573" y2="1073.3164" gradientTransform="matrix(44.8376 -44.8376 -44.8376 -44.8376 66924.5859 29446.8262)">
			<stop  offset="0" style="stop-color:#FFFFFF"/>
			<stop  offset="0.998" style="stop-color:#F5F6F7"/>
		</linearGradient>
		<circle id="Ellipse_8562" class="st2" cx="44.8" cy="44.8" r="31.7"/>
	</g>
	<path id="Path_14633" class="st0" d="M743,14015.1l0.7-4.8h-12.5c0.4-1.2,1.8-2.7,5-5c4.8-3.4,6.5-5.2,6.5-9.1c0-3.9-2.3-8-9.1-8
		c-6.1,0-9,3.8-9.4,8.3h5.5c0.4-2.3,1.3-3.9,3.9-3.9c2.2,0,3.3,1.3,3.3,3.6c0,2.3-1.1,3.2-4.8,6c-5.7,4.2-7.8,7.9-7.8,12.5v0.4H743z
		"/>
</g>
<g class="st3">
	<path d="M115.2,153.5h-1.1v-4.7c0-0.6-0.2-1-0.6-1.4s-0.9-0.5-1.5-0.5c-0.9,0-1.5,0.3-1.9,0.9c0.3,0.4,0.8,0.7,1.6,0.8v0.4
		c-0.3,0-0.5,0.1-0.7,0.3c-0.2,0.2-0.3,0.4-0.3,0.7v3.6h-1.1v-3.6c0-0.5,0.2-0.9,0.6-1.1c-0.6-0.2-1-0.5-1.2-1
		c0.6-1.1,1.6-1.7,3.1-1.7c0.9,0,1.7,0.2,2.3,0.7c0.6,0.5,0.9,1.1,0.9,1.9V153.5z"/>
	<path d="M122.5,146.7c-0.3,0.4-0.7,0.6-1.2,0.6c-0.2,0-0.5-0.1-1-0.2s-0.8-0.2-1-0.2c-0.6,0-1,0.2-1.3,0.7c0.3,0,0.6-0.1,0.9-0.1
		c1,0,1.8,0.2,2.3,0.6c0.5,0.4,0.8,1,0.8,1.7v2.6c0,0.3-0.1,0.6-0.4,0.8s-0.5,0.4-0.8,0.4c-0.3,0-0.6-0.1-0.9-0.4s-0.4-0.5-0.4-0.8
		s0.1-0.6,0.4-0.8s0.5-0.4,0.9-0.4h0.1v-1.2c0-0.7-0.2-1.1-0.5-1.3c-0.4-0.2-0.9-0.3-1.8-0.3c-0.6,0-1.1,0.1-1.6,0.2
		c0-0.7,0.3-1.3,0.7-1.7c0.4-0.4,0.9-0.6,1.6-0.6c0.3,0,0.7,0.1,1.2,0.2c0.5,0.1,0.7,0.2,0.8,0.2c0.3,0,0.5-0.1,0.7-0.4L122.5,146.7
		z M120.8,153c0.2,0,0.3-0.1,0.4-0.2c0.1-0.1,0.2-0.3,0.2-0.4s-0.1-0.3-0.2-0.4c-0.1-0.1-0.3-0.2-0.4-0.2c-0.2,0-0.3,0.1-0.4,0.2
		c-0.1,0.1-0.2,0.3-0.2,0.4s0.1,0.3,0.2,0.4C120.5,152.9,120.6,153,120.8,153z"/>
	<path d="M129.3,152c0,0.4-0.2,0.8-0.5,1.1c-0.3,0.3-0.7,0.4-1.1,0.4H126c-0.4,0-0.8-0.1-1.1-0.4c-0.3-0.3-0.5-0.6-0.5-1.1v-2.6
		c0-0.3,0.1-0.6,0.4-0.8c0.2-0.2,0.5-0.4,0.8-0.4c0.3,0,0.6,0.1,0.8,0.4s0.4,0.5,0.4,0.8s-0.1,0.6-0.4,0.8s-0.5,0.4-0.8,0.4h-0.1
		v1.5c0,0.4,0.2,0.6,0.7,0.6h1.2c0.5,0,0.7-0.2,0.7-0.6v-3.5c0-0.5-0.2-0.9-0.6-1.3c-0.4-0.3-0.9-0.5-1.5-0.5
		c-0.4,0-0.9,0.1-1.3,0.3c-0.4,0.2-0.8,0.4-1,0.7l-0.6-0.5c0.3-0.4,0.7-0.7,1.3-1c0.5-0.2,1.1-0.4,1.6-0.4c0.9,0,1.6,0.2,2.2,0.7
		c0.6,0.5,0.9,1.1,0.9,1.8V152z M125.6,150.1c0.2,0,0.3-0.1,0.4-0.2c0.1-0.1,0.2-0.3,0.2-0.4s-0.1-0.3-0.2-0.4
		c-0.1-0.1-0.3-0.2-0.4-0.2c-0.2,0-0.3,0.1-0.4,0.2c-0.1,0.1-0.2,0.3-0.2,0.4s0.1,0.3,0.2,0.4C125.3,150,125.4,150.1,125.6,150.1z"
		/>
	<path d="M137,153.5h-1.1v-4.7c0-0.6-0.2-1-0.6-1.4s-0.9-0.5-1.5-0.5c-0.9,0-1.5,0.3-1.9,0.9c0.3,0.4,0.8,0.7,1.6,0.8v0.4
		c-0.3,0-0.5,0.1-0.7,0.3c-0.2,0.2-0.3,0.4-0.3,0.7v3.6h-1.1v-3.6c0-0.5,0.2-0.9,0.6-1.1c-0.6-0.2-1-0.5-1.2-1
		c0.6-1.1,1.6-1.7,3.1-1.7c0.9,0,1.7,0.2,2.3,0.7c0.6,0.5,0.9,1.1,0.9,1.9V153.5z"/>
	<path d="M144.2,146.7c-0.3,0.4-0.7,0.6-1.2,0.6c-0.2,0-0.5-0.1-1-0.2s-0.8-0.2-1-0.2c-0.6,0-1,0.2-1.3,0.7c0.3,0,0.6-0.1,0.9-0.1
		c1,0,1.8,0.2,2.3,0.6c0.5,0.4,0.8,1,0.8,1.7v2.6c0,0.3-0.1,0.6-0.4,0.8s-0.5,0.4-0.8,0.4c-0.3,0-0.6-0.1-0.9-0.4s-0.4-0.5-0.4-0.8
		s0.1-0.6,0.4-0.8s0.5-0.4,0.9-0.4h0.1v-1.2c0-0.7-0.2-1.1-0.5-1.3c-0.4-0.2-0.9-0.3-1.8-0.3c-0.6,0-1.1,0.1-1.6,0.2
		c0-0.7,0.3-1.3,0.7-1.7c0.4-0.4,0.9-0.6,1.6-0.6c0.3,0,0.7,0.1,1.2,0.2c0.5,0.1,0.7,0.2,0.8,0.2c0.3,0,0.5-0.1,0.7-0.4L144.2,146.7
		z M142.5,153c0.2,0,0.3-0.1,0.4-0.2c0.1-0.1,0.2-0.3,0.2-0.4s-0.1-0.3-0.2-0.4c-0.1-0.1-0.3-0.2-0.4-0.2c-0.2,0-0.3,0.1-0.4,0.2
		c-0.1,0.1-0.2,0.3-0.2,0.4s0.1,0.3,0.2,0.4C142.2,152.9,142.4,153,142.5,153z"/>
	<path d="M149.6,153.5h-1.1v-4.9c0-1.1-0.5-1.7-1.5-1.7c-0.7,0-1.2,0.3-1.7,1l-0.6-0.5c0.7-0.9,1.4-1.3,2.3-1.3
		c0.8,0,1.4,0.2,1.9,0.7c0.5,0.4,0.7,1.1,0.7,1.8V153.5z"/>
	<path d="M156.6,152c0,0.4-0.2,0.8-0.5,1.1c-0.3,0.3-0.7,0.4-1.1,0.4h-3.8v-2.3c0-0.6,0.2-1,0.6-1.2c-0.4-0.2-0.6-0.7-0.6-1.2v-1.5
		c0-0.3,0.1-0.6,0.4-0.8c0.2-0.2,0.5-0.4,0.8-0.4s0.6,0.1,0.8,0.4c0.2,0.2,0.4,0.5,0.4,0.8s-0.1,0.6-0.4,0.8
		c-0.2,0.2-0.5,0.4-0.8,0.4h-0.1v0.3c0,0.3,0.1,0.6,0.3,0.7c0.2,0.2,0.4,0.3,0.7,0.3v0.4c-0.3,0-0.5,0.1-0.7,0.3
		c-0.2,0.2-0.3,0.4-0.3,0.7v1.5h2.3c0.5,0,0.7-0.2,0.7-0.6v-5.8h1.1V152z M152.5,147.9c0.2,0,0.3-0.1,0.4-0.2s0.2-0.3,0.2-0.4
		c0-0.2-0.1-0.3-0.2-0.4c-0.1-0.1-0.3-0.2-0.4-0.2c-0.2,0-0.3,0.1-0.4,0.2c-0.1,0.1-0.2,0.3-0.2,0.4c0,0.2,0.1,0.3,0.2,0.4
		S152.3,147.9,152.5,147.9z"/>
	<path d="M163.4,153.5h-1.1v-0.2c-0.5-1.2-0.9-2.2-1.4-2.9c-0.4-0.7-0.8-1.1-1-1.1c-0.2,0-0.3,0.2-0.3,0.5v1.4h0.1
		c0.3,0,0.6,0.1,0.8,0.4c0.2,0.2,0.4,0.5,0.4,0.8s-0.1,0.6-0.4,0.8c-0.2,0.2-0.5,0.4-0.8,0.4s-0.6-0.1-0.8-0.4
		c-0.2-0.2-0.4-0.5-0.4-0.8v-2.6c0-0.9,0.4-1.4,1.1-1.4c0.8,0,1.7,1.1,2.6,3.3v-3.1c0-0.5-0.2-1-0.5-1.3s-0.8-0.4-1.3-0.4
		c-0.8,0-1.5,0.3-2,1l-0.6-0.5c0.7-0.9,1.5-1.3,2.6-1.3c0.8,0,1.5,0.2,2.1,0.7s0.8,1.1,0.8,1.8V153.5z M159.7,153
		c0.2,0,0.3-0.1,0.4-0.2c0.1-0.1,0.2-0.3,0.2-0.4s-0.1-0.3-0.2-0.4c-0.1-0.1-0.3-0.2-0.4-0.2c-0.2,0-0.3,0.1-0.4,0.2
		c-0.1,0.1-0.2,0.3-0.2,0.4s0.1,0.3,0.2,0.4C159.4,152.9,159.5,153,159.7,153z"/>
	<path d="M169.9,146.3c-0.1,0.8-0.5,1.5-1.1,2c-0.6,0.5-1.4,0.7-2.3,0.7c-0.6,0-1-0.1-1.4-0.4c-0.3-0.3-0.5-0.6-0.5-1
		c0-0.3,0.1-0.6,0.4-0.8c0.2-0.2,0.5-0.4,0.8-0.4s0.6,0.1,0.8,0.4c0.2,0.2,0.4,0.5,0.4,0.8c0,0.3-0.1,0.6-0.3,0.8
		c0.6,0,1.1-0.2,1.5-0.5c0.4-0.4,0.7-0.8,0.7-1.5H169.9z M169.9,150.9c-0.1,0.8-0.5,1.5-1.1,1.9c-0.6,0.5-1.4,0.7-2.3,0.7
		c-0.6,0-1-0.1-1.4-0.4c-0.3-0.3-0.5-0.6-0.5-1c0-0.3,0.1-0.6,0.4-0.8c0.2-0.2,0.5-0.4,0.8-0.4s0.6,0.1,0.8,0.4
		c0.2,0.2,0.4,0.5,0.4,0.8c0,0.3-0.1,0.6-0.3,0.8c0.6,0,1.1-0.2,1.5-0.5c0.4-0.4,0.7-0.8,0.7-1.5H169.9z M165.9,148.1
		c0.2,0,0.3-0.1,0.4-0.2s0.2-0.3,0.2-0.4c0-0.2-0.1-0.3-0.2-0.4s-0.3-0.2-0.4-0.2c-0.2,0-0.3,0.1-0.4,0.2s-0.2,0.3-0.2,0.4
		c0,0.2,0.1,0.3,0.2,0.4S165.7,148.1,165.9,148.1z M165.9,152.7c0.2,0,0.3-0.1,0.4-0.2c0.1-0.1,0.2-0.3,0.2-0.4s-0.1-0.3-0.2-0.4
		c-0.1-0.1-0.3-0.2-0.4-0.2c-0.2,0-0.3,0.1-0.4,0.2c-0.1,0.1-0.2,0.3-0.2,0.4s0.1,0.3,0.2,0.4C165.6,152.6,165.7,152.7,165.9,152.7z
		"/>
	<path d="M172.6,151.2L172.6,151.2c0.4,0,0.7,0.1,0.9,0.4s0.4,0.5,0.4,0.8s-0.1,0.6-0.4,0.8s-0.5,0.4-0.9,0.4
		c-0.3,0-0.6-0.1-0.8-0.4s-0.4-0.5-0.4-0.8v-6.1h1.1V151.2z M172.6,153c0.2,0,0.3-0.1,0.4-0.2c0.1-0.1,0.2-0.3,0.2-0.4
		s-0.1-0.3-0.2-0.4c-0.1-0.1-0.3-0.2-0.4-0.2c-0.2,0-0.3,0.1-0.4,0.2c-0.1,0.1-0.2,0.3-0.2,0.4s0.1,0.3,0.2,0.4
		C172.3,152.9,172.4,153,172.6,153z"/>
	<path d="M181,152c0,0.4-0.2,0.8-0.5,1.1c-0.3,0.3-0.7,0.4-1.1,0.4h-1.8c-0.4,0-0.8-0.1-1.1-0.4c-0.3-0.3-0.5-0.6-0.5-1.1v-2.6
		c0-0.3,0.1-0.6,0.4-0.8c0.2-0.2,0.5-0.4,0.8-0.4c0.3,0,0.6,0.1,0.8,0.4s0.4,0.5,0.4,0.8s-0.1,0.6-0.4,0.8s-0.5,0.4-0.8,0.4h-0.1
		v1.5c0,0.4,0.2,0.6,0.7,0.6h1.2c0.5,0,0.7-0.2,0.7-0.6v-3.5c0-0.5-0.2-0.9-0.6-1.3c-0.4-0.3-0.9-0.5-1.5-0.5
		c-0.4,0-0.9,0.1-1.3,0.3c-0.4,0.2-0.8,0.4-1,0.7l-0.6-0.5c0.3-0.4,0.7-0.7,1.3-1c0.5-0.2,1.1-0.4,1.6-0.4c0.9,0,1.6,0.2,2.2,0.7
		c0.6,0.5,0.9,1.1,0.9,1.8V152z M177.3,150.1c0.2,0,0.3-0.1,0.4-0.2c0.1-0.1,0.2-0.3,0.2-0.4s-0.1-0.3-0.2-0.4
		c-0.1-0.1-0.3-0.2-0.4-0.2c-0.2,0-0.3,0.1-0.4,0.2c-0.1,0.1-0.2,0.3-0.2,0.4s0.1,0.3,0.2,0.4C177,150,177.1,150.1,177.3,150.1z"/>
	<path d="M181,145.3h-5.5c0.4-1.4,1.3-2.2,2.7-2.2c0.9,0,1.6,0.3,2.2,1v-1.4h0.6V145.3z M180.1,144.7c-0.3-0.7-0.9-1.1-1.8-1.1
		c-0.9,0-1.5,0.4-1.8,1.1H180.1z"/>
	<path d="M188,152c0,0.4-0.2,0.8-0.5,1.1c-0.3,0.3-0.7,0.4-1.1,0.4h-3.8v-2.3c0-0.6,0.2-1,0.6-1.2c-0.4-0.2-0.6-0.7-0.6-1.2v-1.5
		c0-0.3,0.1-0.6,0.4-0.8c0.2-0.2,0.5-0.4,0.8-0.4s0.6,0.1,0.8,0.4c0.2,0.2,0.4,0.5,0.4,0.8s-0.1,0.6-0.4,0.8
		c-0.2,0.2-0.5,0.4-0.8,0.4h-0.1v0.3c0,0.3,0.1,0.6,0.3,0.7c0.2,0.2,0.4,0.3,0.7,0.3v0.4c-0.3,0-0.5,0.1-0.7,0.3
		c-0.2,0.2-0.3,0.4-0.3,0.7v1.5h2.3c0.5,0,0.7-0.2,0.7-0.6v-5.8h1.1V152z M183.9,147.9c0.2,0,0.3-0.1,0.4-0.2s0.2-0.3,0.2-0.4
		c0-0.2-0.1-0.3-0.2-0.4c-0.1-0.1-0.3-0.2-0.4-0.2c-0.2,0-0.3,0.1-0.4,0.2c-0.1,0.1-0.2,0.3-0.2,0.4c0,0.2,0.1,0.3,0.2,0.4
		S183.7,147.9,183.9,147.9z"/>
	<path d="M195.9,153.5h-1.1v-4.7c0-0.6-0.2-1-0.6-1.4c-0.4-0.3-0.9-0.5-1.6-0.5c-0.7,0-1.3,0.2-1.7,0.6c-0.4,0.4-0.6,0.9-0.6,1.4
		c0,0.6,0.2,1.1,0.6,1.8s0.6,1.1,0.8,1.3c0.1-0.2,0.3-0.4,0.6-0.7s0.4-0.5,0.5-0.6h0c-0.3,0-0.6-0.1-0.9-0.4s-0.4-0.5-0.4-0.8
		s0.1-0.6,0.4-0.8s0.5-0.4,0.9-0.4c0.3,0,0.6,0.1,0.8,0.4s0.4,0.5,0.4,0.8c0,0.3-0.1,0.6-0.2,0.9c-0.1,0.3-0.4,0.7-0.9,1.2
		c-0.5,0.5-0.7,0.9-0.7,1.2v0.6h-1.1v-0.6c0-0.5-0.2-1.1-0.6-1.9c-0.4-0.8-0.6-1.5-0.6-2.1c0-0.8,0.3-1.4,0.9-2
		c0.6-0.5,1.3-0.8,2.3-0.8c1,0,1.8,0.2,2.4,0.7c0.6,0.5,0.9,1.1,0.9,1.9V153.5z M192.5,150.1c0.2,0,0.3-0.1,0.4-0.2
		c0.1-0.1,0.2-0.3,0.2-0.4c0-0.2-0.1-0.3-0.2-0.4c-0.1-0.1-0.3-0.2-0.4-0.2c-0.2,0-0.3,0.1-0.4,0.2s-0.2,0.3-0.2,0.4
		c0,0.2,0.1,0.3,0.2,0.4C192.1,150.1,192.3,150.1,192.5,150.1z"/>
	<path d="M203.8,152c0,0.4-0.2,0.8-0.5,1.1c-0.3,0.3-0.7,0.4-1.1,0.4H199v-0.8h0.7v-3.1c0-0.3,0.1-0.5,0.4-0.8
		c0.2-0.3,0.4-0.6,0.4-0.9c0-0.3-0.1-0.6-0.4-0.9c-0.3-0.2-0.6-0.3-0.9-0.3c-0.2,0-0.4,0-0.6,0.1c0.6,0.2,0.9,0.6,0.9,1.2
		c0,0.3-0.1,0.6-0.4,0.8c-0.2,0.2-0.5,0.4-0.8,0.4s-0.6-0.1-0.8-0.4c-0.2-0.2-0.4-0.5-0.4-0.8c0-0.5,0.2-0.9,0.6-1.3
		c0.4-0.4,0.9-0.6,1.5-0.6c0.7,0,1.3,0.2,1.7,0.5c0.4,0.3,0.6,0.8,0.6,1.3c0,0.3-0.1,0.7-0.3,1c-0.2,0.3-0.3,0.5-0.3,0.7v3.1h1.1
		c0.5,0,0.7-0.2,0.7-0.6v-5.8h1.1V152z M198.2,148.6c0.2,0,0.3-0.1,0.4-0.2c0.1-0.1,0.2-0.3,0.2-0.4s-0.1-0.3-0.2-0.4
		c-0.1-0.1-0.3-0.2-0.4-0.2c-0.2,0-0.3,0.1-0.4,0.2c-0.1,0.1-0.2,0.3-0.2,0.4s0.1,0.3,0.2,0.4C197.9,148.5,198,148.6,198.2,148.6z"
		/>
	<path d="M211.1,152c0,0.4-0.2,0.8-0.5,1.1c-0.3,0.3-0.7,0.4-1.1,0.4h-1.8c-0.4,0-0.8-0.1-1.1-0.4c-0.3-0.3-0.5-0.6-0.5-1.1v-2.6
		c0-0.3,0.1-0.6,0.4-0.8c0.2-0.2,0.5-0.4,0.8-0.4c0.3,0,0.6,0.1,0.8,0.4s0.4,0.5,0.4,0.8s-0.1,0.6-0.4,0.8s-0.5,0.4-0.8,0.4h-0.1
		v1.5c0,0.4,0.2,0.6,0.7,0.6h1.2c0.5,0,0.7-0.2,0.7-0.6v-3.5c0-0.5-0.2-0.9-0.6-1.3c-0.4-0.3-0.9-0.5-1.5-0.5
		c-0.4,0-0.9,0.1-1.3,0.3c-0.4,0.2-0.8,0.4-1,0.7l-0.6-0.5c0.3-0.4,0.7-0.7,1.3-1c0.5-0.2,1.1-0.4,1.6-0.4c0.9,0,1.6,0.2,2.2,0.7
		c0.6,0.5,0.9,1.1,0.9,1.8V152z M207.3,150.1c0.2,0,0.3-0.1,0.4-0.2c0.1-0.1,0.2-0.3,0.2-0.4s-0.1-0.3-0.2-0.4
		c-0.1-0.1-0.3-0.2-0.4-0.2c-0.2,0-0.3,0.1-0.4,0.2c-0.1,0.1-0.2,0.3-0.2,0.4s0.1,0.3,0.2,0.4C207,150,207.2,150.1,207.3,150.1z"/>
	<path d="M217,153.5h-1.1c-0.7-1.1-1.4-1.9-2-2.4c-0.6-0.5-1.3-0.8-2-0.8v-0.6c0.7,0,1.4,0.2,2,0.6c0.6,0.4,1.3,1.1,2,2.1v-3.9h-0.1
		c-0.3,0-0.6-0.1-0.8-0.4c-0.2-0.2-0.4-0.5-0.4-0.8s0.1-0.6,0.4-0.8c0.2-0.2,0.5-0.4,0.8-0.4c0.3,0,0.6,0.1,0.8,0.4s0.4,0.5,0.4,0.8
		V153.5z M215.8,147.9c0.2,0,0.3-0.1,0.4-0.2c0.1-0.1,0.2-0.3,0.2-0.4c0-0.2-0.1-0.3-0.2-0.4c-0.1-0.1-0.3-0.2-0.4-0.2
		c-0.2,0-0.3,0.1-0.4,0.2c-0.1,0.1-0.2,0.3-0.2,0.4c0,0.2,0.1,0.3,0.2,0.4S215.7,147.9,215.8,147.9z"/>
	<path d="M224.9,153.5h-1.1v-4.7c0-0.6-0.2-1-0.6-1.4c-0.4-0.3-0.9-0.5-1.6-0.5c-0.7,0-1.3,0.2-1.7,0.6c-0.4,0.4-0.6,0.9-0.6,1.4
		c0,0.6,0.2,1.2,0.5,1.7v-1.1c0-0.3,0.1-0.6,0.4-0.8s0.5-0.4,0.9-0.4c0.3,0,0.6,0.1,0.8,0.4s0.4,0.5,0.4,0.8s-0.1,0.6-0.4,0.8
		s-0.5,0.4-0.8,0.4h-0.1v2.8h-1.1v-0.6c0-0.5-0.2-1.1-0.6-1.9c-0.4-0.8-0.6-1.5-0.6-2.1c0-0.8,0.3-1.4,0.9-2
		c0.6-0.5,1.3-0.8,2.3-0.8c1,0,1.8,0.2,2.4,0.7c0.6,0.5,0.9,1.1,0.9,1.9V153.5z M220.9,150.1c0.2,0,0.3-0.1,0.4-0.2
		c0.1-0.1,0.2-0.3,0.2-0.4c0-0.2-0.1-0.3-0.2-0.4c-0.1-0.1-0.3-0.2-0.4-0.2c-0.2,0-0.3,0.1-0.4,0.2s-0.2,0.3-0.2,0.4
		c0,0.2,0.1,0.3,0.2,0.4C220.6,150.1,220.7,150.1,220.9,150.1z"/>
	<path d="M224.9,156.5h-0.6v-0.7c-0.2,0-0.3-0.1-0.4-0.2c-0.1-0.1-0.2-0.2-0.2-0.4c0-0.2,0.1-0.3,0.2-0.4c0.1-0.1,0.2-0.2,0.4-0.2
		c0.2,0,0.4,0.1,0.5,0.2s0.2,0.3,0.2,0.5V156.5z M224.3,155.5c0.2,0,0.3-0.1,0.3-0.3s-0.1-0.3-0.3-0.3c-0.2,0-0.3,0.1-0.3,0.3
		S224.1,155.5,224.3,155.5z"/>
	<path d="M132.6,170.3h-1.1v-4.7c0-0.6-0.1-1.1-0.4-1.4c-0.3-0.3-0.7-0.5-1.2-0.5c-0.8,0-1.3,0.3-1.6,0.9c0.3,0.4,0.8,0.7,1.6,0.8
		v0.4c-0.3,0-0.5,0.1-0.7,0.3c-0.2,0.2-0.3,0.4-0.3,0.7v1.2h0.1c0.3,0,0.6,0.1,0.9,0.4s0.4,0.5,0.4,0.8s-0.1,0.6-0.4,0.8
		s-0.5,0.4-0.9,0.4c-0.3,0-0.6-0.1-0.8-0.4s-0.4-0.5-0.4-0.8v-2.4c0-0.5,0.2-0.9,0.6-1.1c-0.6-0.2-1-0.5-1.2-1
		c0.6-1.1,1.5-1.7,2.8-1.7c0.8,0,1.5,0.2,2,0.7c0.5,0.5,0.8,1.1,0.8,1.9v3.3c0.5-0.9,1.1-1.4,1.9-1.6v-4.1h1.1v4.1
		c0.4,0.1,0.8,0.4,1.1,0.7c0.3,0.4,0.4,0.7,0.4,1.1c0,0.4-0.1,0.7-0.3,1s-0.5,0.4-0.9,0.4c-0.9,0-1.4-0.5-1.4-1.4v-1.1
		c-0.3,0.1-0.6,0.3-1,0.8C133.1,169.1,132.8,169.7,132.6,170.3z M128.9,169.8c0.2,0,0.3-0.1,0.4-0.2c0.1-0.1,0.2-0.3,0.2-0.4
		s-0.1-0.3-0.2-0.4c-0.1-0.1-0.3-0.2-0.4-0.2c-0.2,0-0.3,0.1-0.4,0.2c-0.1,0.1-0.2,0.3-0.2,0.4s0.1,0.3,0.2,0.4
		C128.6,169.7,128.7,169.8,128.9,169.8z M136.5,169c0-0.2-0.1-0.5-0.2-0.7c-0.2-0.2-0.4-0.4-0.6-0.5v1.3c0,0.4,0.1,0.6,0.4,0.6
		C136.3,169.8,136.5,169.5,136.5,169z"/>
	<path d="M141.3,168L141.3,168c0.4,0,0.7,0.1,0.9,0.4c0.2,0.2,0.4,0.5,0.4,0.8s-0.1,0.6-0.4,0.8c-0.2,0.2-0.5,0.4-0.8,0.4
		s-0.6-0.1-0.8-0.4c-0.2-0.2-0.4-0.5-0.4-0.8v-9.6c0-1-0.4-1.5-1.3-1.5c-0.4,0-0.7,0.1-0.9,0.4c0,0,0.1,0,0.2,0
		c0.3,0,0.6,0.1,0.8,0.4c0.2,0.2,0.4,0.5,0.4,0.8c0,0.3-0.1,0.6-0.4,0.9c-0.2,0.2-0.5,0.4-0.8,0.4c-0.4,0-0.6-0.1-0.9-0.4
		c-0.2-0.3-0.4-0.6-0.4-1.1c0-0.4,0.2-0.9,0.6-1.3c0.4-0.4,0.9-0.6,1.6-0.6c0.7,0,1.2,0.2,1.6,0.6c0.4,0.4,0.6,0.9,0.6,1.5V168z
		 M138.1,160.2c0.2,0,0.3-0.1,0.4-0.2c0.1-0.1,0.2-0.3,0.2-0.4c0-0.2-0.1-0.3-0.2-0.4s-0.3-0.2-0.4-0.2c-0.2,0-0.3,0.1-0.4,0.2
		s-0.2,0.3-0.2,0.4c0,0.2,0.1,0.3,0.2,0.4C137.8,160.2,138,160.2,138.1,160.2z M141.3,169.8c0.2,0,0.3-0.1,0.4-0.2
		c0.1-0.1,0.2-0.3,0.2-0.4s-0.1-0.3-0.2-0.4c-0.1-0.1-0.3-0.2-0.4-0.2c-0.2,0-0.3,0.1-0.4,0.2c-0.1,0.1-0.2,0.3-0.2,0.4
		s0.1,0.3,0.2,0.4C141,169.7,141.2,169.8,141.3,169.8z"/>
	<path d="M150.3,167.5c0.8,0.3,1.2,0.8,1.2,1.6c0,0.4-0.1,0.7-0.3,1c-0.2,0.2-0.5,0.4-0.8,0.4c-0.4,0-0.7-0.1-0.9-0.3
		s-0.3-0.6-0.3-1.1v-0.9c-1.1,0.2-2.2,1-3,2.2H145v-5h-0.1c-0.3,0-0.6-0.1-0.8-0.4c-0.2-0.2-0.4-0.5-0.4-0.8s0.1-0.6,0.4-0.8
		c0.2-0.2,0.5-0.4,0.8-0.4s0.6,0.1,0.8,0.4c0.2,0.2,0.4,0.5,0.4,0.8v5.2c0.8-1,1.8-1.6,3-1.9v-4.4h1.1V167.5z M144.9,164.7
		c0.2,0,0.3-0.1,0.4-0.2s0.2-0.3,0.2-0.4c0-0.2-0.1-0.3-0.2-0.4c-0.1-0.1-0.3-0.2-0.4-0.2c-0.2,0-0.3,0.1-0.4,0.2
		c-0.1,0.1-0.2,0.3-0.2,0.4c0,0.2,0.1,0.3,0.2,0.4S144.7,164.7,144.9,164.7z M150.9,169c0-0.2-0.1-0.4-0.2-0.6
		c-0.1-0.2-0.3-0.3-0.5-0.4v1.2c0,0.2,0,0.3,0,0.4c0,0.1,0.1,0.1,0.2,0.1C150.8,169.8,150.9,169.5,150.9,169z"/>
	<path d="M153.9,168L153.9,168c0.4,0,0.7,0.1,0.9,0.4s0.4,0.5,0.4,0.8s-0.1,0.6-0.4,0.8s-0.5,0.4-0.9,0.4c-0.3,0-0.6-0.1-0.8-0.4
		s-0.4-0.5-0.4-0.8v-6.1h1.1V168z M154,169.8c0.2,0,0.3-0.1,0.4-0.2c0.1-0.1,0.2-0.3,0.2-0.4s-0.1-0.3-0.2-0.4
		c-0.1-0.1-0.3-0.2-0.4-0.2c-0.2,0-0.3,0.1-0.4,0.2c-0.1,0.1-0.2,0.3-0.2,0.4s0.1,0.3,0.2,0.4C153.7,169.7,153.8,169.8,154,169.8z
		 M157.9,168L157.9,168c0.4,0,0.7,0.1,0.9,0.4c0.2,0.2,0.4,0.5,0.4,0.8s-0.1,0.6-0.4,0.8c-0.2,0.2-0.5,0.4-0.8,0.4s-0.6-0.1-0.8-0.4
		c-0.2-0.2-0.4-0.5-0.4-0.8v-6.1h1.1V168z M158,169.8c0.2,0,0.3-0.1,0.4-0.2c0.1-0.1,0.2-0.3,0.2-0.4s-0.1-0.3-0.2-0.4
		c-0.1-0.1-0.3-0.2-0.4-0.2c-0.2,0-0.3,0.1-0.4,0.2c-0.1,0.1-0.2,0.3-0.2,0.4s0.1,0.3,0.2,0.4C157.7,169.7,157.8,169.8,158,169.8z"
		/>
	<path d="M167.2,168.8c0,0.4-0.2,0.8-0.5,1.1c-0.3,0.3-0.7,0.4-1.1,0.4H161v-0.8h0.7v-4.2h-0.1c-0.3,0-0.6-0.1-0.8-0.4
		c-0.2-0.2-0.4-0.5-0.4-0.8s0.1-0.6,0.4-0.8c0.2-0.2,0.5-0.4,0.8-0.4s0.6,0.1,0.8,0.4c0.2,0.2,0.4,0.5,0.4,0.8v5.4h2.6
		c0.5,0,0.7-0.2,0.7-0.6v-5.8h1.1V168.8z M161.6,164.7c0.2,0,0.3-0.1,0.4-0.2s0.2-0.3,0.2-0.4c0-0.2-0.1-0.3-0.2-0.4
		c-0.1-0.1-0.3-0.2-0.4-0.2c-0.2,0-0.3,0.1-0.4,0.2c-0.1,0.1-0.2,0.3-0.2,0.4c0,0.2,0.1,0.3,0.2,0.4S161.4,164.7,161.6,164.7z"/>
	<path d="M175.4,168.8c0,0.4-0.2,0.8-0.5,1.1c-0.3,0.3-0.7,0.4-1.1,0.4h-4.7v-0.8h0.7v-4.2h-0.1c-0.3,0-0.6-0.1-0.8-0.4
		c-0.2-0.2-0.4-0.5-0.4-0.8s0.1-0.6,0.4-0.8c0.2-0.2,0.5-0.4,0.8-0.4s0.6,0.1,0.8,0.4c0.2,0.2,0.4,0.5,0.4,0.8v5.4h2.6
		c0.5,0,0.7-0.2,0.7-0.6v-5.8h1.1V168.8z M169.7,164.7c0.2,0,0.3-0.1,0.4-0.2s0.2-0.3,0.2-0.4c0-0.2-0.1-0.3-0.2-0.4
		c-0.1-0.1-0.3-0.2-0.4-0.2c-0.2,0-0.3,0.1-0.4,0.2c-0.1,0.1-0.2,0.3-0.2,0.4c0,0.2,0.1,0.3,0.2,0.4S169.6,164.7,169.7,164.7z"/>
	<path d="M184.5,170.3h-1.1c0-0.5-0.3-1.3-1-2.5c-0.7-1.1-1-2.1-1.1-2.8c-0.1,0.7-0.5,1.7-1.1,2.8c-0.7,1.1-1,2-1,2.5H178v-5h-0.1
		c-0.3,0-0.6-0.1-0.8-0.4c-0.2-0.2-0.4-0.5-0.4-0.8s0.1-0.6,0.4-0.8c0.2-0.2,0.5-0.4,0.8-0.4s0.6,0.1,0.8,0.4
		c0.2,0.2,0.4,0.5,0.4,0.8v4c0.1-0.3,0.4-0.7,0.7-1.3c0.7-1.2,1-2.4,1-3.7h0.8c0,1.3,0.3,2.6,1,3.7c0.4,0.6,0.6,1,0.7,1.3v-8.8h1.1
		V170.3z M177.9,164.7c0.2,0,0.3-0.1,0.4-0.2s0.2-0.3,0.2-0.4c0-0.2-0.1-0.3-0.2-0.4c-0.1-0.1-0.3-0.2-0.4-0.2
		c-0.2,0-0.3,0.1-0.4,0.2c-0.1,0.1-0.2,0.3-0.2,0.4c0,0.2,0.1,0.3,0.2,0.4S177.7,164.7,177.9,164.7z"/>
	<path d="M191.9,168.8c0,0.4-0.2,0.8-0.5,1.1c-0.3,0.3-0.7,0.4-1.1,0.4h-1.8c-0.4,0-0.8-0.1-1.1-0.4c-0.3-0.3-0.5-0.6-0.5-1.1v-2.6
		c0-0.3,0.1-0.6,0.4-0.8c0.2-0.2,0.5-0.4,0.8-0.4c0.3,0,0.6,0.1,0.8,0.4s0.4,0.5,0.4,0.8s-0.1,0.6-0.4,0.8s-0.5,0.4-0.8,0.4H188v1.5
		c0,0.4,0.2,0.6,0.7,0.6h1.2c0.5,0,0.7-0.2,0.7-0.6v-3.5c0-0.5-0.2-0.9-0.6-1.3c-0.4-0.3-0.9-0.5-1.5-0.5c-0.4,0-0.9,0.1-1.3,0.3
		c-0.4,0.2-0.8,0.4-1,0.7l-0.6-0.5c0.3-0.4,0.7-0.7,1.3-1c0.5-0.2,1.1-0.4,1.6-0.4c0.9,0,1.6,0.2,2.2,0.7c0.6,0.5,0.9,1.1,0.9,1.8
		V168.8z M188.1,166.9c0.2,0,0.3-0.1,0.4-0.2c0.1-0.1,0.2-0.3,0.2-0.4s-0.1-0.3-0.2-0.4c-0.1-0.1-0.3-0.2-0.4-0.2
		c-0.2,0-0.3,0.1-0.4,0.2c-0.1,0.1-0.2,0.3-0.2,0.4s0.1,0.3,0.2,0.4C187.8,166.8,187.9,166.9,188.1,166.9z"/>
	<path d="M199.1,163.5c-0.3,0.4-0.7,0.6-1.2,0.6c-0.2,0-0.5-0.1-1-0.2s-0.8-0.2-1-0.2c-0.6,0-1,0.2-1.3,0.7c0.3,0,0.6-0.1,0.9-0.1
		c1,0,1.8,0.2,2.3,0.6c0.5,0.4,0.8,1,0.8,1.7v2.6c0,0.3-0.1,0.6-0.4,0.8s-0.5,0.4-0.8,0.4c-0.3,0-0.6-0.1-0.9-0.4s-0.4-0.5-0.4-0.8
		s0.1-0.6,0.4-0.8s0.5-0.4,0.9-0.4h0.1v-1.2c0-0.7-0.2-1.1-0.5-1.3c-0.4-0.2-0.9-0.3-1.8-0.3c-0.6,0-1.1,0.1-1.6,0.2
		c0-0.7,0.3-1.3,0.7-1.7c0.4-0.4,0.9-0.6,1.6-0.6c0.3,0,0.7,0.1,1.2,0.2c0.5,0.1,0.7,0.2,0.8,0.2c0.3,0,0.5-0.1,0.7-0.4L199.1,163.5
		z M197.4,169.8c0.2,0,0.3-0.1,0.4-0.2c0.1-0.1,0.2-0.3,0.2-0.4s-0.1-0.3-0.2-0.4c-0.1-0.1-0.3-0.2-0.4-0.2c-0.2,0-0.3,0.1-0.4,0.2
		c-0.1,0.1-0.2,0.3-0.2,0.4s0.1,0.3,0.2,0.4C197.1,169.7,197.3,169.8,197.4,169.8z"/>
	<path d="M199.8,159c0,0.2-0.1,0.4-0.2,0.6c-0.2,0.2-0.5,0.3-0.9,0.4c-0.4,0.1-0.7,0.3-0.8,0.4c0.2,0,0.4,0.1,0.6,0.2
		s0.2,0.4,0.2,0.6c0,0.2-0.1,0.4-0.2,0.6c-0.2,0.2-0.4,0.2-0.6,0.2c-0.2,0-0.4-0.1-0.6-0.3c-0.2-0.2-0.3-0.4-0.3-0.7
		c0-0.7,0.4-1.1,1.3-1.4c0.4-0.1,0.7-0.2,0.8-0.3c0.1-0.1,0.2-0.2,0.2-0.3H199.8z M197.8,161.6c0.1,0,0.2,0,0.3-0.1
		c0.1-0.1,0.1-0.2,0.1-0.3s0-0.2-0.1-0.3c-0.1-0.1-0.2-0.1-0.3-0.1c-0.1,0-0.2,0-0.3,0.1s-0.1,0.2-0.1,0.3s0,0.2,0.1,0.3
		C197.6,161.6,197.7,161.6,197.8,161.6z"/>
	<path d="M206.8,170.3h-1.1c-0.8-1.5-1.9-2.4-3.3-2.5v1.2c0,0.9-0.5,1.4-1.4,1.4c-0.4,0-0.7-0.1-0.9-0.4c-0.2-0.2-0.4-0.6-0.4-1
		c0-0.4,0.1-0.8,0.4-1.2c0.3-0.3,0.6-0.6,1.1-0.7v-1.9h-0.1c-0.3,0-0.6-0.1-0.8-0.4c-0.2-0.2-0.4-0.5-0.4-0.8s0.1-0.6,0.4-0.8
		c0.2-0.2,0.5-0.4,0.8-0.4s0.6,0.1,0.8,0.4c0.2,0.2,0.4,0.5,0.4,0.8v3.1c1.3,0.1,2.4,0.8,3.3,1.9v-6h1.1V170.3z M201.2,169.1v-1.3
		c-0.3,0.1-0.5,0.2-0.6,0.5c-0.2,0.2-0.2,0.5-0.2,0.8c0,0.2,0,0.4,0.1,0.5c0.1,0.1,0.2,0.2,0.4,0.2
		C201.1,169.8,201.2,169.5,201.2,169.1z M201.1,164.7c0.2,0,0.3-0.1,0.4-0.2s0.2-0.3,0.2-0.4c0-0.2-0.1-0.3-0.2-0.4
		c-0.1-0.1-0.3-0.2-0.4-0.2c-0.2,0-0.3,0.1-0.4,0.2c-0.1,0.1-0.2,0.3-0.2,0.4c0,0.2,0.1,0.3,0.2,0.4S201,164.7,201.1,164.7z"/>
</g>
</svg>
