<?xml version="1.0" encoding="utf-8"?>
<!-- Generator: Adobe Illustrator 25.1.0, SVG Export Plug-In . SVG Version: 6.00 Build 0)  -->
<svg version="1.1" id="Слой_1" xmlns="http://www.w3.org/2000/svg" xmlns:xlink="http://www.w3.org/1999/xlink" x="0px" y="0px"
	 viewBox="0 0 303.3 256.6" style="enable-background:new 0 0 303.3 256.6;" xml:space="preserve">
<style type="text/css">
	.st0{fill:#4A5101;}
	.st1{fill:#343901;}
	.st2{fill:#F4F5F5;}
	.st3{fill:url(#Ellipse_8562_1_);stroke:#4A5101;stroke-width:2;}
	.st4{enable-background:new    ;}
</style>
<g id="step-4" transform="translate(-1246.721 -13957.586)">
	<path id="Path_14560" class="st0" d="M1317.8,14099h-15.5c-5.1,0-9.2-4.1-9.2-9.2c0-5.1,4.1-9.2,9.2-9.2h15.5
		c5.1,0,9.2,4.1,9.2,9.2C1327,14094.8,1322.9,14099,1317.8,14099z"/>
	<g id="Group_3842" transform="translate(1246.721 13965.236)">
		<path id="Path_13930" class="st0" d="M266.8,36.5c-48.7-48.6-127.6-48.6-176.2,0.1C76.9,50.4,66.5,67.2,60.4,85.7
			c-0.3,1.1-1.3,1.8-2.4,1.8H36.6c-5,0-9.2,3.9-9.4,8.9c-0.2,5.1,3.8,9.4,8.9,9.6c0.1,0,0.2,0,0.3,0H67c4.7,0,8.7-3.6,9.2-8.2
			C91,41.1,148.9,7.2,205.4,22c56.6,14.8,90.4,72.7,75.6,129.3c-14.8,56.6-72.7,90.4-129.3,75.6c-37-9.7-65.9-38.6-75.6-75.5
			c-0.3-4.9-4.3-8.6-9.2-8.6H26.4c-5,0-9.2,3.9-9.4,8.9c-0.2,5.1,3.8,9.4,8.9,9.5c0.1,0,0.2,0,0.3,0h31.7c1.1,0,2.1,0.7,2.4,1.8
			c21.3,65.4,91.5,101.2,156.9,79.9c65.4-21.3,101.2-91.5,79.9-156.9C291.1,67.3,280.7,50.4,266.8,36.5L266.8,36.5z"/>
		<ellipse id="Ellipse_8274" class="st1" cx="9.2" cy="96.7" rx="9.2" ry="9.2"/>
	</g>
	<g id="Group_3846" transform="translate(1319.186 13983.122)">
		<path id="Path_13932" class="st2" d="M106.5,0C47.7,0,0,47.7,0,106.5S47.7,213,106.5,213c58.8,0,106.5-47.7,106.5-106.5
			c0-28.2-11.2-55.3-31.2-75.3C161.9,11.2,134.8-0.1,106.5,0z"/>
	</g>
	<g id="payment-method-icon" transform="translate(1405.129 14029.526)">
		<g id="Group_150" transform="translate(10.846 27.256)">
			<g id="Group_149">
				<path id="Path_344" class="st0" d="M1.4,0.6c0,0,0-0.1,0-0.1c0,0,0-0.1-0.1-0.1C1.2,0.2,1.2,0.2,1.1,0.1c0,0-0.1,0-0.1-0.1
					c0,0-0.1,0-0.1,0C0.8,0,0.7,0,0.6,0c0,0-0.1,0-0.1,0c0,0-0.1,0-0.1,0.1C0.2,0.2,0.1,0.3,0.1,0.4c0,0,0,0.1,0,0.1
					c0,0.1,0,0.2,0,0.3c0,0,0,0.1,0,0.1c0,0,0,0.1,0.1,0.1c0.1,0.1,0.1,0.1,0.2,0.2c0,0,0.1,0,0.1,0.1c0,0,0.1,0,0.1,0
					c0.1,0,0.2,0,0.3,0c0,0,0.1,0,0.1,0c0,0,0.1,0,0.1-0.1c0.1-0.1,0.1-0.1,0.2-0.2c0,0,0-0.1,0.1-0.1c0,0,0-0.1,0-0.1
					C1.4,0.8,1.4,0.7,1.4,0.6L1.4,0.6z"/>
			</g>
		</g>
		<g id="Group_152" transform="translate(0 22.006)">
			<g id="Group_151">
				<path id="Path_345" class="st0" d="M32.7,6L32.7,6c-0.7-1.5-2.2-2.1-4-1.5l-4.9,1.4c-0.3-0.9-1.1-1.7-2-2l0,0l-5.4-1.8
					c-1.1-1.4-2.8-2.1-4.5-2.1C9.9,0.1,8.2,1.1,7.3,2.7H0.7C0.3,2.7,0,3,0,3.4v9C0,12.7,0.3,13,0.7,13h4.2c0.4,0,0.7-0.3,0.7-0.7
					v-0.6h2c0.4,0,0.7-0.3,0.7-0.7v-0.2c0.9,0.1,1.8,0.4,2.6,0.9c1.4,0.8,2.8,1.5,4.3,2.2l0,0c0.7,0.3,1.5,0.4,2.3,0.4
					c0.8,0,1.6-0.2,2.4-0.5l10.9-3.9l0.1,0C32.4,9.3,33.2,7.6,32.7,6z M4.2,11.6H1.4V4.1h2.8L4.2,11.6z M6.9,10.3H5.6V4.1h1.3V10.3z
					 M30.3,8.6l-10.9,3.9l0,0l0,0c-1.1,0.5-2.4,0.5-3.5,0.1c-1.4-0.6-2.8-1.3-4.1-2.1c-1-0.7-2.1-1.1-3.3-1.1V3.7
					c0.7-1.3,2-2.1,3.4-2.2c1.4-0.1,2.7,0.5,3.5,1.6c0.1,0.1,0.2,0.2,0.4,0.3l5.6,1.9c0.8,0.2,1.3,1,1.2,1.9c-0.2,0.7-1,1.2-1.7,1
					l-6.4-2c-0.4-0.1-0.8,0.1-0.9,0.5c-0.1,0.4,0.1,0.8,0.5,0.9l0,0l6.4,2l0,0c0.7,0.2,1.5,0.1,2.1-0.2c0.7-0.4,1.1-1,1.3-1.7
					c0-0.1,0-0.1,0-0.2l5.3-1.5c0.8-0.3,1.8-0.4,2.2,0.7C31.8,7.8,30.6,8.5,30.3,8.6z"/>
			</g>
		</g>
		<g id="Group_154" transform="translate(24.09 8.768)">
			<g id="Group_153">
				<path id="Path_346" class="st0" d="M1.4,0.6c0,0,0-0.1,0-0.1c0,0,0-0.1-0.1-0.1C1.2,0.2,1.2,0.2,1.1,0.1c0,0-0.1,0-0.1-0.1
					c0,0-0.1,0-0.1,0C0.8,0,0.7,0,0.6,0c0,0-0.1,0-0.1,0c0,0-0.1,0-0.1,0.1C0.2,0.2,0.2,0.2,0.1,0.3c0,0,0,0.1-0.1,0.1
					c0,0,0,0.1,0,0.1c0,0.1,0,0.2,0,0.3c0,0,0,0.1,0,0.1c0,0,0,0.1,0.1,0.1c0.1,0.1,0.1,0.1,0.2,0.2c0,0,0.1,0,0.1,0.1
					c0,0,0.1,0,0.1,0c0,0,0.1,0,0.1,0c0,0,0.1,0,0.1,0c0,0,0.1,0,0.1,0c0,0,0.1,0,0.1-0.1c0.1-0.1,0.1-0.1,0.2-0.2
					c0,0,0-0.1,0.1-0.1c0,0,0-0.1,0-0.1C1.4,0.8,1.4,0.7,1.4,0.6L1.4,0.6z"/>
			</g>
		</g>
		<g id="Group_156" transform="translate(7.189 0)">
			<g id="Group_155">
				<path id="Path_347" class="st0" d="M33.5,2.4h-4.2c-0.4,0-0.7,0.3-0.7,0.7v0.6h-2c-0.4,0-0.7,0.3-0.7,0.7v0.2
					c-0.9-0.1-1.8-0.4-2.6-0.9c-1.4-0.8-2.8-1.5-4.3-2.2l0,0c-1.5-0.6-3.2-0.6-4.6,0.1l-2.9,1L9.1,0.2c-0.3-0.3-0.7-0.3-1,0L0.2,8.1
					c-0.3,0.3-0.3,0.7,0,1c0,0,0,0,0,0l13.5,13.5c0.3,0.2,0.7,0.2,1,0l7.2-7.2c0.2,0,0.4,0,0.6,0c1.8-0.1,3.5-1.1,4.4-2.7h6.6
					c0.4,0,0.7-0.3,0.7-0.7v-9C34.2,2.7,33.9,2.4,33.5,2.4z M8.6,1.7l1.6,1.6C9.2,3.9,8,3.9,7,3.3L8.6,1.7z M3.3,10.2L1.7,8.6L3.3,7
					C3.9,8,3.9,9.2,3.3,10.2z M14.2,21.1l-1.6-1.6c1-0.6,2.2-0.6,3.2,0L14.2,21.1z M16.9,18.5c-1.6-1.1-3.7-1.1-5.3,0l-7.2-7.2
					c1.1-1.6,1.1-3.7,0-5.3L6,4.4c1.6,1.1,3.7,1.1,5.3,0l1.5,1.5c-0.9,0.1-1.7,0.7-2.1,1.5C8.5,7.8,7,10,7.4,12.2
					c0.4,2.2,2.5,3.6,4.7,3.2c1.5-0.3,2.8-1.4,3.2-2.9l2.4,0.8c-0.3,1.3,0,2.6,0.8,3.6L16.9,18.5z M12.5,11.5L12.5,11.5L14,12
					c-0.3,1.4-1.7,2.3-3.1,2c-1.4-0.3-2.3-1.7-2-3.1C9,10,9.6,9.3,10.4,9C10.6,10.2,11.4,11.1,12.5,11.5z M19.5,15.8
					c-0.3-0.4-0.4-1-0.5-1.5c0.4,0.3,0.8,0.5,1.3,0.7L19.5,15.8z M25.9,11.8c-0.7,1.3-2,2.1-3.4,2.2c-0.2,0-0.5,0-0.7-0.1l0,0
					c-1-0.1-2-0.6-2.6-1.4c0,0-0.1-0.1-0.1-0.1c-0.1-0.2-0.2-0.3-0.4-0.3L13,10.2c-0.8-0.2-1.3-1-1.2-1.9l0,0l0,0
					c0.2-0.7,1-1.2,1.7-1l6.4,2c0.4,0.1,0.8-0.1,0.9-0.5c0.1-0.4-0.1-0.8-0.5-0.9l-5.1-1.6l0,0l0,0l-2.6-2.6l2.3-0.8l0,0h0l0,0
					c1.1-0.5,2.4-0.5,3.5-0.1c1.4,0.6,2.8,1.3,4.1,2.1c1,0.7,2.1,1.1,3.3,1.1L25.9,11.8z M28.6,11.4h-1.3V5.1h1.3L28.6,11.4z
					 M32.8,11.4H30V3.8h2.8V11.4z"/>
			</g>
		</g>
	</g>
	<g id="Group_3919" transform="translate(1308.685 13959)">
		
			<image style="overflow:visible;enable-background:new    ;" width="435" height="434" id="Rectangle_638" xlink:href="B3D71AF5.png"  transform="matrix(0.1746 0 0 0.1746 6.8642 8.112)">
		</image>
		
			<linearGradient id="Ellipse_8562_1_" gradientUnits="userSpaceOnUse" x1="-453.7689" y1="1073.8572" x2="-453.0609" y2="1073.1492" gradientTransform="matrix(44.8376 -44.8376 -44.8376 -44.8376 68508.2812 27848.1328)">
			<stop  offset="0" style="stop-color:#FFFFFF"/>
			<stop  offset="0.998" style="stop-color:#F5F6F7"/>
		</linearGradient>
		<circle id="Ellipse_8562" class="st3" cx="44.8" cy="44.8" r="31.7"/>
	</g>
	<path id="Path_14638" class="st0" d="M1357.9,14015.5v-5.9h2.6l0.6-4.6h-3.2v-15.8h-6.2l-11,15.4v5h11.9v5.9H1357.9z
		 M1352.6,14004.9h-6.8c2.5-3.5,4.8-7,7-10.8c-0.1,1.6-0.1,3.2-0.1,6.1V14004.9z"/>
</g>
<g class="st4">
	<path d="M124.7,153.8h-1.1V149c0-0.6-0.2-1-0.6-1.4c-0.4-0.3-0.9-0.5-1.6-0.5c-0.7,0-1.3,0.2-1.7,0.6c-0.4,0.4-0.6,0.9-0.6,1.4
		c0,0.6,0.2,1.2,0.5,1.7v-1.1c0-0.3,0.1-0.6,0.4-0.8s0.5-0.4,0.9-0.4c0.3,0,0.6,0.1,0.8,0.4s0.4,0.5,0.4,0.8s-0.1,0.6-0.4,0.8
		s-0.5,0.4-0.8,0.4h-0.1v2.8h-1.1v-0.6c0-0.5-0.2-1.1-0.6-1.9s-0.6-1.5-0.6-2.1c0-0.8,0.3-1.4,0.9-2s1.3-0.8,2.3-0.8
		c1,0,1.8,0.2,2.4,0.7c0.6,0.5,0.9,1.1,0.9,1.9V153.8z M120.7,150.4c0.2,0,0.3-0.1,0.4-0.2c0.1-0.1,0.2-0.3,0.2-0.4
		c0-0.2-0.1-0.3-0.2-0.4s-0.3-0.2-0.4-0.2c-0.2,0-0.3,0.1-0.4,0.2s-0.2,0.3-0.2,0.4c0,0.2,0.1,0.3,0.2,0.4
		C120.4,150.3,120.5,150.4,120.7,150.4z"/>
	<path d="M131.5,153.8h-1.1v-0.2c-0.5-1.2-0.9-2.2-1.4-2.9c-0.4-0.7-0.8-1.1-1-1.1c-0.2,0-0.3,0.2-0.3,0.5v1.4h0.1
		c0.3,0,0.6,0.1,0.8,0.4s0.4,0.5,0.4,0.8s-0.1,0.6-0.4,0.8s-0.5,0.4-0.8,0.4s-0.6-0.1-0.8-0.4s-0.4-0.5-0.4-0.8V150
		c0-0.9,0.4-1.4,1.1-1.4c0.8,0,1.7,1.1,2.6,3.3v-3.1c0-0.5-0.2-1-0.5-1.3s-0.8-0.4-1.3-0.4c-0.8,0-1.5,0.3-2,1l-0.6-0.5
		c0.7-0.9,1.5-1.3,2.6-1.3c0.8,0,1.5,0.2,2.1,0.7s0.8,1.1,0.8,1.8V153.8z M127.8,153.2c0.2,0,0.3-0.1,0.4-0.2
		c0.1-0.1,0.2-0.3,0.2-0.4s-0.1-0.3-0.2-0.4c-0.1-0.1-0.3-0.2-0.4-0.2s-0.3,0.1-0.4,0.2c-0.1,0.1-0.2,0.3-0.2,0.4s0.1,0.3,0.2,0.4
		C127.5,153.2,127.7,153.2,127.8,153.2z"/>
	<path d="M131.5,145.5H126c0.4-1.4,1.3-2.2,2.7-2.2S131.1,144.1,131.5,145.5z M130.6,145c-0.3-0.7-0.9-1.1-1.8-1.1s-1.5,0.4-1.8,1.1
		H130.6z"/>
	<path d="M139.2,153.8H138V149c0-0.6-0.2-1-0.6-1.4s-0.9-0.5-1.5-0.5c-0.9,0-1.5,0.3-1.9,0.9c0.3,0.4,0.8,0.7,1.6,0.8v0.4
		c-0.3,0-0.5,0.1-0.7,0.3s-0.3,0.4-0.3,0.7v3.6h-1.1v-3.6c0-0.5,0.2-0.9,0.6-1.1c-0.6-0.2-1-0.5-1.2-1c0.6-1.1,1.6-1.7,3.1-1.7
		c0.9,0,1.7,0.2,2.3,0.7s0.9,1.1,0.9,1.9V153.8z"/>
	<path d="M146.5,153.8h-1.1v-0.3c-0.3-0.6-0.7-1.4-1.4-2.4c-0.7-1-1.2-1.5-1.4-1.5c-0.2,0-0.3,0.2-0.3,0.5v1.4h0.1
		c0.3,0,0.6,0.1,0.8,0.4s0.4,0.5,0.4,0.8s-0.1,0.6-0.4,0.8s-0.5,0.4-0.8,0.4s-0.6-0.1-0.8-0.4s-0.4-0.5-0.4-0.8V150
		c0-0.9,0.4-1.4,1.1-1.4c0.3,0,0.6,0.1,0.9,0.3s0.7,0.8,1.3,1.6s0.9,1.3,1,1.5v-3.2c0-0.3-0.1-0.5-0.2-0.8c-0.5,0.2-1,0.3-1.5,0.3
		v-0.3c0.4-0.1,0.7-0.2,1.1-0.5c-0.4-0.3-0.9-0.5-1.5-0.5c-0.4,0-0.9,0.1-1.3,0.3c-0.4,0.2-0.8,0.4-1,0.7l-0.6-0.5
		c0.3-0.4,0.7-0.7,1.3-1s1.1-0.4,1.6-0.4c0.8,0,1.5,0.2,2.1,0.6c0.3-0.3,0.5-0.6,0.6-0.9l0.8,0.5c-0.2,0.4-0.5,0.7-0.8,0.9
		c0.3,0.4,0.4,0.8,0.4,1.3V153.8z M142.2,153.2c0.2,0,0.3-0.1,0.4-0.2c0.1-0.1,0.2-0.3,0.2-0.4s-0.1-0.3-0.2-0.4
		c-0.1-0.1-0.3-0.2-0.4-0.2s-0.3,0.1-0.4,0.2c-0.1,0.1-0.2,0.3-0.2,0.4s0.1,0.3,0.2,0.4C141.9,153.2,142.1,153.2,142.2,153.2z"/>
	<path d="M147.2,142.9c-0.1,0.8-0.5,1.5-1.1,1.9c-0.6,0.4-1.4,0.7-2.3,0.7c-0.6,0-1-0.1-1.4-0.4s-0.5-0.6-0.5-1
		c0-0.3,0.1-0.6,0.4-0.8s0.5-0.4,0.8-0.4s0.6,0.1,0.8,0.4s0.4,0.5,0.4,0.8c0,0.3-0.1,0.5-0.3,0.8c0.6,0,1.1-0.2,1.5-0.5
		s0.7-0.8,0.7-1.4H147.2z M143.2,144.7c0.2,0,0.3-0.1,0.4-0.2c0.1-0.1,0.2-0.3,0.2-0.4s-0.1-0.3-0.2-0.4c-0.1-0.1-0.3-0.2-0.4-0.2
		s-0.3,0.1-0.4,0.2c-0.1,0.1-0.2,0.3-0.2,0.4s0.1,0.3,0.2,0.4C142.9,144.7,143,144.7,143.2,144.7z"/>
	<path d="M146.2,145.5h-0.6v-2.3h0.6V145.5z"/>
	<path d="M152.4,153.8h-1.1c-0.7-1.1-1.4-1.9-2-2.4s-1.3-0.8-2-0.8V150c0.7,0,1.4,0.2,2,0.6c0.6,0.4,1.3,1.1,2,2.1v-3.9h-0.1
		c-0.3,0-0.6-0.1-0.8-0.4s-0.4-0.5-0.4-0.8s0.1-0.6,0.4-0.8s0.5-0.4,0.8-0.4c0.3,0,0.6,0.1,0.8,0.4s0.4,0.5,0.4,0.8V153.8z
		 M151.2,148.2c0.2,0,0.3-0.1,0.4-0.2s0.2-0.3,0.2-0.4c0-0.2-0.1-0.3-0.2-0.4c-0.1-0.1-0.3-0.2-0.4-0.2c-0.2,0-0.3,0.1-0.4,0.2
		c-0.1,0.1-0.2,0.3-0.2,0.4c0,0.2,0.1,0.3,0.2,0.4S151,148.2,151.2,148.2z"/>
	<path d="M160.6,152.3c0,0.4-0.2,0.8-0.5,1.1c-0.3,0.3-0.7,0.4-1.1,0.4h-3.2V153h0.7v-3.1c0-0.3,0.1-0.5,0.4-0.8
		c0.2-0.3,0.4-0.6,0.4-0.9c0-0.4-0.2-0.8-0.5-1l-0.9,0.5l-0.9-0.5c-0.3,0.2-0.5,0.4-0.6,0.8c0.2-0.1,0.3-0.1,0.4-0.1
		c0.3,0,0.6,0.1,0.8,0.4s0.4,0.5,0.4,0.8s-0.1,0.6-0.4,0.8s-0.5,0.4-0.8,0.4c-0.4,0-0.6-0.1-0.9-0.4s-0.4-0.6-0.4-1.1
		c0-1,0.5-1.8,1.5-2.4l0.8,0.5l0.9-0.5c1,0.3,1.5,0.9,1.5,1.8c0,0.3-0.1,0.7-0.3,1s-0.3,0.5-0.3,0.7v3.1h1.1c0.5,0,0.7-0.2,0.7-0.6
		v-3.7c0-0.6-0.3-0.9-0.9-0.9v-0.4c0.8-0.1,1.2-0.7,1.3-1.5h1.2c-0.1,0.8-0.5,1.3-1.2,1.6c0.4,0.2,0.7,0.6,0.7,1.2V152.3z
		 M154.7,149.7c0.2,0,0.3-0.1,0.4-0.2c0.1-0.1,0.2-0.3,0.2-0.4s-0.1-0.3-0.2-0.4c-0.1-0.1-0.3-0.2-0.4-0.2c-0.2,0-0.3,0.1-0.4,0.2
		c-0.1,0.1-0.2,0.3-0.2,0.4s0.1,0.3,0.2,0.4C154.4,149.6,154.6,149.7,154.7,149.7z"/>
	<path d="M160.6,145.5h-5.5c0.4-1.4,1.3-2.2,2.7-2.2c0.2,0,0.4,0,0.6,0.1v-0.5h0.6v0.6c0.4,0.2,0.7,0.4,1,0.8v-1.4h0.6V145.5z
		 M159.7,145c-0.3-0.7-0.9-1.1-1.8-1.1s-1.5,0.4-1.8,1.1H159.7z"/>
	<path d="M161.3,142.9c0,0.8-0.3,1.4-0.9,1.9s-1.3,0.7-2.3,0.7c-0.3,0-0.6,0-0.9-0.1V145c0.4,0,0.8-0.1,1-0.4
		c-0.2,0-0.4-0.1-0.6-0.3c-0.2-0.2-0.3-0.4-0.3-0.6s0.1-0.4,0.3-0.6c0.2-0.2,0.4-0.3,0.6-0.3s0.4,0.1,0.6,0.3
		c0.2,0.2,0.3,0.4,0.3,0.6c0,0.5-0.2,0.9-0.7,1.2c0.6,0,1.2-0.2,1.6-0.6s0.7-0.9,0.7-1.5H161.3z M158.2,144.2c0.1,0,0.2,0,0.3-0.1
		s0.1-0.2,0.1-0.3c0-0.1,0-0.2-0.1-0.3s-0.2-0.1-0.3-0.1c-0.1,0-0.2,0-0.3,0.1s-0.1,0.2-0.1,0.3c0,0.1,0,0.2,0.1,0.3
		S158.1,144.2,158.2,144.2z"/>
	<path d="M167.9,152.3c0,0.4-0.2,0.8-0.5,1.1c-0.3,0.3-0.7,0.4-1.1,0.4h-1.8c-0.4,0-0.8-0.1-1.1-0.4c-0.3-0.3-0.5-0.6-0.5-1.1v-2.6
		c0-0.3,0.1-0.6,0.4-0.8s0.5-0.4,0.8-0.4c0.3,0,0.6,0.1,0.8,0.4s0.4,0.5,0.4,0.8s-0.1,0.6-0.4,0.8s-0.5,0.4-0.8,0.4h-0.1v1.5
		c0,0.4,0.2,0.6,0.7,0.6h1.2c0.5,0,0.7-0.2,0.7-0.6v-3.5c0-0.5-0.2-0.9-0.6-1.3s-0.9-0.5-1.5-0.5c-0.4,0-0.9,0.1-1.3,0.3
		c-0.4,0.2-0.8,0.4-1,0.7l-0.6-0.5c0.3-0.4,0.7-0.7,1.3-1s1.1-0.4,1.6-0.4c0.9,0,1.6,0.2,2.2,0.7c0.6,0.5,0.9,1.1,0.9,1.8V152.3z
		 M164.2,150.3c0.2,0,0.3-0.1,0.4-0.2c0.1-0.1,0.2-0.3,0.2-0.4s-0.1-0.3-0.2-0.4c-0.1-0.1-0.3-0.2-0.4-0.2c-0.2,0-0.3,0.1-0.4,0.2
		c-0.1,0.1-0.2,0.3-0.2,0.4s0.1,0.3,0.2,0.4C163.9,150.3,164,150.3,164.2,150.3z"/>
	<path d="M175.8,153.8h-1.1v-4.5c0-1.1-0.2-1.7-0.7-2l-1.5,0.8l-1.5-0.8c-0.6,0.4-0.9,1.1-0.9,1.9c0,0.5,0.2,1.1,0.5,1.6
		c0.4,0.7,0.7,1.2,0.8,1.5c0.1-0.2,0.3-0.4,0.6-0.7s0.4-0.5,0.5-0.6h0c-0.3,0-0.6-0.1-0.9-0.4s-0.4-0.5-0.4-0.8s0.1-0.6,0.4-0.8
		s0.5-0.4,0.9-0.4c0.3,0,0.6,0.1,0.8,0.4s0.4,0.5,0.4,0.8c0,0.3-0.1,0.6-0.2,0.9c-0.1,0.3-0.4,0.7-0.9,1.2s-0.7,0.9-0.7,1.2v0.6
		h-1.1v-0.6c0-0.5-0.2-1.1-0.6-1.9s-0.6-1.5-0.6-2.1c0-1.2,0.6-2.1,1.7-2.8l1.5,0.8l1.5-0.8c1.3,0.5,1.9,1.4,1.9,2.9V153.8z
		 M172.4,150.4c0.2,0,0.3-0.1,0.4-0.2c0.1-0.1,0.2-0.3,0.2-0.4c0-0.2-0.1-0.3-0.2-0.4s-0.3-0.2-0.4-0.2c-0.2,0-0.3,0.1-0.4,0.2
		s-0.2,0.3-0.2,0.4c0,0.2,0.1,0.3,0.2,0.4C172,150.3,172.2,150.4,172.4,150.4z"/>
	<path d="M183.1,152.3c0,0.4-0.2,0.8-0.5,1.1c-0.3,0.3-0.7,0.4-1.1,0.4h-1.8c-0.4,0-0.8-0.1-1.1-0.4c-0.3-0.3-0.5-0.6-0.5-1.1v-2.6
		c0-0.3,0.1-0.6,0.4-0.8s0.5-0.4,0.8-0.4c0.3,0,0.6,0.1,0.8,0.4s0.4,0.5,0.4,0.8s-0.1,0.6-0.4,0.8s-0.5,0.4-0.8,0.4h-0.1v1.5
		c0,0.4,0.2,0.6,0.7,0.6h1.2c0.5,0,0.7-0.2,0.7-0.6v-3.5c0-0.5-0.2-0.9-0.6-1.3c-0.4-0.3-0.9-0.5-1.5-0.5c-0.4,0-0.9,0.1-1.3,0.3
		c-0.4,0.2-0.8,0.4-1,0.7l-0.6-0.5c0.3-0.4,0.7-0.7,1.3-1s1.1-0.4,1.6-0.4c0.9,0,1.6,0.2,2.2,0.7c0.6,0.5,0.9,1.1,0.9,1.8V152.3z
		 M179.4,150.3c0.2,0,0.3-0.1,0.4-0.2c0.1-0.1,0.2-0.3,0.2-0.4s-0.1-0.3-0.2-0.4c-0.1-0.1-0.3-0.2-0.4-0.2c-0.2,0-0.3,0.1-0.4,0.2
		c-0.1,0.1-0.2,0.3-0.2,0.4s0.1,0.3,0.2,0.4C179.1,150.3,179.2,150.3,179.4,150.3z"/>
	<path d="M191,150.9c0.8,0.3,1.2,0.8,1.2,1.6c0,0.4-0.1,0.7-0.3,1c-0.2,0.2-0.5,0.4-0.8,0.4c-0.4,0-0.7-0.1-0.9-0.3
		s-0.3-0.6-0.3-1.1v-0.9c-1.1,0.2-2.2,1-3,2.2h-1.1v-5h-0.1c-0.3,0-0.6-0.1-0.8-0.4c-0.2-0.2-0.4-0.5-0.4-0.8s0.1-0.6,0.4-0.8
		c0.2-0.2,0.5-0.4,0.8-0.4s0.6,0.1,0.8,0.4c0.2,0.2,0.4,0.5,0.4,0.8v5.2c0.8-1,1.8-1.6,3-1.9v-4.4h1.1V150.9z M185.6,148.2
		c0.2,0,0.3-0.1,0.4-0.2s0.2-0.3,0.2-0.4c0-0.2-0.1-0.3-0.2-0.4c-0.1-0.1-0.3-0.2-0.4-0.2c-0.2,0-0.3,0.1-0.4,0.2
		c-0.1,0.1-0.2,0.3-0.2,0.4c0,0.2,0.1,0.3,0.2,0.4S185.5,148.2,185.6,148.2z M191.6,152.5c0-0.2-0.1-0.4-0.2-0.6
		c-0.1-0.2-0.3-0.3-0.5-0.4v1.2c0,0.2,0,0.3,0,0.4c0,0.1,0.1,0.1,0.2,0.1C191.5,153.2,191.6,153,191.6,152.5z"/>
	<path d="M199.7,150.9c0.8,0.3,1.2,0.8,1.2,1.6c0,0.4-0.1,0.7-0.3,1c-0.2,0.2-0.5,0.4-0.8,0.4c-0.4,0-0.7-0.1-0.9-0.3
		s-0.3-0.6-0.3-1.1v-0.9c-1.1,0.2-2.2,1-3,2.2h-1.1v-5h-0.1c-0.3,0-0.6-0.1-0.8-0.4c-0.2-0.2-0.4-0.5-0.4-0.8s0.1-0.6,0.4-0.8
		c0.2-0.2,0.5-0.4,0.8-0.4s0.6,0.1,0.8,0.4c0.2,0.2,0.4,0.5,0.4,0.8v5.2c0.8-1,1.8-1.6,3-1.9v-4.4h1.1V150.9z M194.3,148.2
		c0.2,0,0.3-0.1,0.4-0.2s0.2-0.3,0.2-0.4c0-0.2-0.1-0.3-0.2-0.4c-0.1-0.1-0.3-0.2-0.4-0.2c-0.2,0-0.3,0.1-0.4,0.2
		c-0.1,0.1-0.2,0.3-0.2,0.4c0,0.2,0.1,0.3,0.2,0.4S194.1,148.2,194.3,148.2z M200.3,152.5c0-0.2-0.1-0.4-0.2-0.6
		c-0.1-0.2-0.3-0.3-0.5-0.4v1.2c0,0.2,0,0.3,0,0.4c0,0.1,0.1,0.1,0.2,0.1C200.2,153.2,200.3,153,200.3,152.5z"/>
	<path d="M200.5,145.5H195c0.4-1.4,1.3-2.2,2.7-2.2c0.9,0,1.6,0.3,2.2,1v-1.4h0.6V145.5z M199.6,145c-0.3-0.7-0.9-1.1-1.8-1.1
		c-0.9,0-1.5,0.4-1.8,1.1H199.6z"/>
	<path d="M201.2,142.9c0,0.8-0.3,1.4-0.9,1.9s-1.3,0.7-2.3,0.7c-0.3,0-0.6,0-0.9-0.1V145c0.4,0,0.8-0.1,1-0.4
		c-0.2,0-0.4-0.1-0.6-0.3c-0.2-0.2-0.3-0.4-0.3-0.6s0.1-0.4,0.3-0.6c0.2-0.2,0.4-0.3,0.6-0.3c0.2,0,0.4,0.1,0.6,0.3
		c0.2,0.2,0.3,0.4,0.3,0.6c0,0.5-0.2,0.9-0.7,1.2c0.6,0,1.2-0.2,1.6-0.6c0.5-0.4,0.7-0.9,0.7-1.5H201.2z M198.1,144.2
		c0.1,0,0.2,0,0.3-0.1c0.1-0.1,0.1-0.2,0.1-0.3c0-0.1,0-0.2-0.1-0.3c-0.1-0.1-0.2-0.1-0.3-0.1c-0.1,0-0.2,0-0.3,0.1
		c-0.1,0.1-0.1,0.2-0.1,0.3c0,0.1,0,0.2,0.1,0.3C197.9,144.2,198,144.2,198.1,144.2z"/>
	<path d="M203.3,151.4L203.3,151.4c0.4,0,0.7,0.1,0.9,0.4s0.4,0.5,0.4,0.8s-0.1,0.6-0.4,0.8s-0.5,0.4-0.9,0.4
		c-0.3,0-0.6-0.1-0.8-0.4s-0.4-0.5-0.4-0.8v-6.1h1.1V151.4z M203.4,153.2c0.2,0,0.3-0.1,0.4-0.2c0.1-0.1,0.2-0.3,0.2-0.4
		s-0.1-0.3-0.2-0.4c-0.1-0.1-0.3-0.2-0.4-0.2c-0.2,0-0.3,0.1-0.4,0.2c-0.1,0.1-0.2,0.3-0.2,0.4s0.1,0.3,0.2,0.4
		C203.1,153.2,203.2,153.2,203.4,153.2z M207.3,151.4L207.3,151.4c0.4,0,0.7,0.1,0.9,0.4c0.2,0.2,0.4,0.5,0.4,0.8s-0.1,0.6-0.4,0.8
		c-0.2,0.2-0.5,0.4-0.8,0.4s-0.6-0.1-0.8-0.4c-0.2-0.2-0.4-0.5-0.4-0.8v-6.1h1.1V151.4z M207.4,153.2c0.2,0,0.3-0.1,0.4-0.2
		c0.1-0.1,0.2-0.3,0.2-0.4s-0.1-0.3-0.2-0.4c-0.1-0.1-0.3-0.2-0.4-0.2c-0.2,0-0.3,0.1-0.4,0.2c-0.1,0.1-0.2,0.3-0.2,0.4
		s0.1,0.3,0.2,0.4C207.1,153.2,207.2,153.2,207.4,153.2z"/>
	<path d="M215.2,153.8h-1.1v-0.2c-0.5-1.2-0.9-2.2-1.4-2.9c-0.4-0.7-0.8-1.1-1-1.1c-0.2,0-0.3,0.2-0.3,0.5v1.4h0.1
		c0.3,0,0.6,0.1,0.8,0.4c0.2,0.2,0.4,0.5,0.4,0.8s-0.1,0.6-0.4,0.8c-0.2,0.2-0.5,0.4-0.8,0.4s-0.6-0.1-0.8-0.4
		c-0.2-0.2-0.4-0.5-0.4-0.8V150c0-0.9,0.4-1.4,1.1-1.4c0.8,0,1.7,1.1,2.6,3.3v-3.1c0-0.5-0.2-1-0.5-1.3s-0.8-0.4-1.3-0.4
		c-0.8,0-1.5,0.3-2,1l-0.6-0.5c0.7-0.9,1.5-1.3,2.6-1.3c0.8,0,1.5,0.2,2.1,0.7s0.8,1.1,0.8,1.8V153.8z M211.6,153.2
		c0.2,0,0.3-0.1,0.4-0.2c0.1-0.1,0.2-0.3,0.2-0.4s-0.1-0.3-0.2-0.4c-0.1-0.1-0.3-0.2-0.4-0.2c-0.2,0-0.3,0.1-0.4,0.2
		c-0.1,0.1-0.2,0.3-0.2,0.4s0.1,0.3,0.2,0.4C211.3,153.2,211.4,153.2,211.6,153.2z"/>
	<path d="M221.8,146.6c-0.1,0.8-0.5,1.5-1.1,2c-0.6,0.5-1.4,0.7-2.3,0.7c-0.6,0-1-0.1-1.4-0.4c-0.3-0.3-0.5-0.6-0.5-1
		c0-0.3,0.1-0.6,0.4-0.8c0.2-0.2,0.5-0.4,0.8-0.4s0.6,0.1,0.8,0.4c0.2,0.2,0.4,0.5,0.4,0.8c0,0.3-0.1,0.6-0.3,0.8
		c0.6,0,1.1-0.2,1.5-0.5c0.4-0.4,0.7-0.8,0.7-1.5H221.8z M221.8,151.1c-0.1,0.8-0.5,1.5-1.1,1.9c-0.6,0.5-1.4,0.7-2.3,0.7
		c-0.6,0-1-0.1-1.4-0.4c-0.3-0.3-0.5-0.6-0.5-1c0-0.3,0.1-0.6,0.4-0.8c0.2-0.2,0.5-0.4,0.8-0.4s0.6,0.1,0.8,0.4
		c0.2,0.2,0.4,0.5,0.4,0.8c0,0.3-0.1,0.6-0.3,0.8c0.6,0,1.1-0.2,1.5-0.5c0.4-0.4,0.7-0.8,0.7-1.5H221.8z M217.7,148.4
		c0.2,0,0.3-0.1,0.4-0.2s0.2-0.3,0.2-0.4c0-0.2-0.1-0.3-0.2-0.4s-0.3-0.2-0.4-0.2c-0.2,0-0.3,0.1-0.4,0.2s-0.2,0.3-0.2,0.4
		c0,0.2,0.1,0.3,0.2,0.4S217.5,148.4,217.7,148.4z M217.7,152.9c0.2,0,0.3-0.1,0.4-0.2c0.1-0.1,0.2-0.3,0.2-0.4s-0.1-0.3-0.2-0.4
		c-0.1-0.1-0.3-0.2-0.4-0.2c-0.2,0-0.3,0.1-0.4,0.2c-0.1,0.1-0.2,0.3-0.2,0.4s0.1,0.3,0.2,0.4C217.4,152.9,217.5,152.9,217.7,152.9z
		"/>
	<path d="M224.4,151.4L224.4,151.4c0.4,0,0.7,0.1,0.9,0.4s0.4,0.5,0.4,0.8s-0.1,0.6-0.4,0.8s-0.5,0.4-0.9,0.4
		c-0.3,0-0.6-0.1-0.8-0.4s-0.4-0.5-0.4-0.8v-6.1h1.1V151.4z M224.5,153.2c0.2,0,0.3-0.1,0.4-0.2c0.1-0.1,0.2-0.3,0.2-0.4
		s-0.1-0.3-0.2-0.4c-0.1-0.1-0.3-0.2-0.4-0.2c-0.2,0-0.3,0.1-0.4,0.2c-0.1,0.1-0.2,0.3-0.2,0.4s0.1,0.3,0.2,0.4
		C224.2,153.2,224.3,153.2,224.5,153.2z"/>
	<path d="M234.7,153.8h-1.1c0-0.5-0.3-1.3-1-2.5c-0.7-1.1-1-2.1-1.1-2.8c-0.1,0.7-0.5,1.7-1.1,2.8c-0.7,1.1-1,2-1,2.5h-1.1v-5H228
		c-0.3,0-0.6-0.1-0.8-0.4c-0.2-0.2-0.4-0.5-0.4-0.8s0.1-0.6,0.4-0.8c0.2-0.2,0.5-0.4,0.8-0.4s0.6,0.1,0.8,0.4
		c0.2,0.2,0.4,0.5,0.4,0.8v4c0.1-0.3,0.4-0.7,0.7-1.3c0.7-1.2,1-2.4,1-3.7h0.8c0,1.3,0.3,2.6,1,3.7c0.4,0.6,0.6,1,0.7,1.3v-5h1.1
		V153.8z M228,148.2c0.2,0,0.3-0.1,0.4-0.2s0.2-0.3,0.2-0.4c0-0.2-0.1-0.3-0.2-0.4c-0.1-0.1-0.3-0.2-0.4-0.2c-0.2,0-0.3,0.1-0.4,0.2
		c-0.1,0.1-0.2,0.3-0.2,0.4c0,0.2,0.1,0.3,0.2,0.4S227.9,148.2,228,148.2z"/>
	<path d="M241.4,153.8h-1.1v-0.2c-0.5-1.2-0.9-2.2-1.4-2.9c-0.4-0.7-0.8-1.1-1-1.1c-0.2,0-0.3,0.2-0.3,0.5v1.4h0.1
		c0.3,0,0.6,0.1,0.8,0.4c0.2,0.2,0.4,0.5,0.4,0.8s-0.1,0.6-0.4,0.8c-0.2,0.2-0.5,0.4-0.8,0.4s-0.6-0.1-0.8-0.4
		c-0.2-0.2-0.4-0.5-0.4-0.8V150c0-0.9,0.4-1.4,1.1-1.4c0.8,0,1.7,1.1,2.6,3.3v-3.1c0-0.5-0.2-1-0.5-1.3s-0.8-0.4-1.3-0.4
		c-0.8,0-1.5,0.3-2,1l-0.6-0.5c0.7-0.9,1.5-1.3,2.6-1.3c0.8,0,1.5,0.2,2.1,0.7s0.8,1.1,0.8,1.8V153.8z M237.8,153.2
		c0.2,0,0.3-0.1,0.4-0.2c0.1-0.1,0.2-0.3,0.2-0.4s-0.1-0.3-0.2-0.4c-0.1-0.1-0.3-0.2-0.4-0.2c-0.2,0-0.3,0.1-0.4,0.2
		c-0.1,0.1-0.2,0.3-0.2,0.4s0.1,0.3,0.2,0.4C237.4,153.2,237.6,153.2,237.8,153.2z"/>
	<path d="M241.4,145.5H236c0.4-1.4,1.3-2.2,2.7-2.2C240.1,143.3,241,144.1,241.4,145.5z M240.5,145c-0.3-0.7-0.9-1.1-1.8-1.1
		c-0.9,0-1.5,0.4-1.8,1.1H240.5z"/>
	<path d="M142.2,170.6H141v-4.7c0-0.6-0.2-1-0.6-1.4c-0.4-0.3-0.9-0.5-1.6-0.5c-0.7,0-1.3,0.2-1.7,0.6c-0.4,0.4-0.6,0.9-0.6,1.4
		c0,0.6,0.2,1.1,0.6,1.8s0.6,1.1,0.8,1.3c0.1-0.2,0.3-0.4,0.6-0.7s0.4-0.5,0.5-0.6h0c-0.3,0-0.6-0.1-0.9-0.4s-0.4-0.5-0.4-0.8
		s0.1-0.6,0.4-0.8s0.5-0.4,0.9-0.4c0.3,0,0.6,0.1,0.8,0.4s0.4,0.5,0.4,0.8c0,0.3-0.1,0.6-0.2,0.9c-0.1,0.3-0.4,0.7-0.9,1.2
		s-0.7,0.9-0.7,1.2v0.6h-1.1v-0.6c0-0.5-0.2-1.1-0.6-1.9s-0.6-1.5-0.6-2.1c0-0.8,0.3-1.4,0.9-2s1.3-0.8,2.3-0.8c1,0,1.8,0.2,2.4,0.7
		c0.6,0.5,0.9,1.1,0.9,1.9V170.6z M138.7,167.2c0.2,0,0.3-0.1,0.4-0.2c0.1-0.1,0.2-0.3,0.2-0.4c0-0.2-0.1-0.3-0.2-0.4
		s-0.3-0.2-0.4-0.2c-0.2,0-0.3,0.1-0.4,0.2s-0.2,0.3-0.2,0.4c0,0.2,0.1,0.3,0.2,0.4C138.4,167.1,138.5,167.2,138.7,167.2z"/>
	<path d="M145,168.2L145,168.2c0.4,0,0.7,0.1,0.9,0.4s0.4,0.5,0.4,0.8s-0.1,0.6-0.4,0.8s-0.5,0.4-0.9,0.4c-0.3,0-0.6-0.1-0.8-0.4
		s-0.4-0.5-0.4-0.8v-6.1h1.1V168.2z M145.1,170c0.2,0,0.3-0.1,0.4-0.2c0.1-0.1,0.2-0.3,0.2-0.4s-0.1-0.3-0.2-0.4
		c-0.1-0.1-0.3-0.2-0.4-0.2c-0.2,0-0.3,0.1-0.4,0.2c-0.1,0.1-0.2,0.3-0.2,0.4s0.1,0.3,0.2,0.4C144.8,170,144.9,170,145.1,170z"/>
	<path d="M155.3,170.6h-1.1c0-0.5-0.3-1.3-1-2.5c-0.7-1.1-1-2.1-1.1-2.8c-0.1,0.7-0.5,1.7-1.1,2.8c-0.7,1.1-1,2-1,2.5h-1.1v-5h-0.1
		c-0.3,0-0.6-0.1-0.8-0.4s-0.4-0.5-0.4-0.8s0.1-0.6,0.4-0.8s0.5-0.4,0.8-0.4s0.6,0.1,0.8,0.4s0.4,0.5,0.4,0.8v4
		c0.1-0.3,0.4-0.7,0.7-1.3c0.7-1.2,1-2.4,1-3.7h0.8c0,1.3,0.3,2.6,1,3.7c0.4,0.6,0.6,1,0.7,1.3v-5h1.1V170.6z M148.7,165
		c0.2,0,0.3-0.1,0.4-0.2s0.2-0.3,0.2-0.4c0-0.2-0.1-0.3-0.2-0.4c-0.1-0.1-0.3-0.2-0.4-0.2s-0.3,0.1-0.4,0.2
		c-0.1,0.1-0.2,0.3-0.2,0.4c0,0.2,0.1,0.3,0.2,0.4S148.5,165,148.7,165z"/>
	<path d="M162.1,170.6h-1.1v-0.2c-0.5-1.2-0.9-2.2-1.4-2.9c-0.4-0.7-0.8-1.1-1-1.1c-0.2,0-0.3,0.2-0.3,0.5v1.4h0.1
		c0.3,0,0.6,0.1,0.8,0.4s0.4,0.5,0.4,0.8s-0.1,0.6-0.4,0.8s-0.5,0.4-0.8,0.4s-0.6-0.1-0.8-0.4s-0.4-0.5-0.4-0.8v-2.6
		c0-0.9,0.4-1.4,1.1-1.4c0.8,0,1.7,1.1,2.6,3.3v-3.1c0-0.5-0.2-1-0.5-1.3s-0.8-0.4-1.3-0.4c-0.8,0-1.5,0.3-2,1l-0.6-0.5
		c0.7-0.9,1.5-1.3,2.6-1.3c0.8,0,1.5,0.2,2.1,0.7s0.8,1.1,0.8,1.8V170.6z M158.4,170c0.2,0,0.3-0.1,0.4-0.2c0.1-0.1,0.2-0.3,0.2-0.4
		s-0.1-0.3-0.2-0.4c-0.1-0.1-0.3-0.2-0.4-0.2s-0.3,0.1-0.4,0.2c-0.1,0.1-0.2,0.3-0.2,0.4s0.1,0.3,0.2,0.4
		C158.1,170,158.2,170,158.4,170z"/>
	<path d="M162,162.3h-5.5c0.4-1.4,1.3-2.2,2.7-2.2S161.6,160.9,162,162.3z M161.1,161.8c-0.3-0.7-0.9-1.1-1.8-1.1s-1.5,0.4-1.8,1.1
		H161.1z"/>
	<path d="M169.9,167.7c0.8,0.3,1.2,0.8,1.2,1.6c0,0.4-0.1,0.7-0.3,1s-0.5,0.4-0.8,0.4c-0.4,0-0.7-0.1-0.9-0.3s-0.3-0.6-0.3-1.1v-0.9
		c-1.1,0.2-2.2,1-3,2.2h-1.1v-5h-0.1c-0.3,0-0.6-0.1-0.8-0.4s-0.4-0.5-0.4-0.8s0.1-0.6,0.4-0.8s0.5-0.4,0.8-0.4s0.6,0.1,0.8,0.4
		s0.4,0.5,0.4,0.8v5.2c0.8-1,1.8-1.6,3-1.9v-4.4h1.1V167.7z M164.6,165c0.2,0,0.3-0.1,0.4-0.2s0.2-0.3,0.2-0.4
		c0-0.2-0.1-0.3-0.2-0.4c-0.1-0.1-0.3-0.2-0.4-0.2s-0.3,0.1-0.4,0.2c-0.1,0.1-0.2,0.3-0.2,0.4c0,0.2,0.1,0.3,0.2,0.4
		S164.4,165,164.6,165z M170.6,169.3c0-0.2-0.1-0.4-0.2-0.6c-0.1-0.2-0.3-0.3-0.5-0.4v1.2c0,0.2,0,0.3,0,0.4c0,0.1,0.1,0.1,0.2,0.1
		C170.4,170,170.6,169.8,170.6,169.3z"/>
	<path d="M176.4,168.2L176.4,168.2c0.4,0,0.7,0.1,0.9,0.4s0.4,0.5,0.4,0.8s-0.1,0.6-0.4,0.8s-0.5,0.4-0.8,0.4s-0.6-0.1-0.8-0.4
		s-0.4-0.5-0.4-0.8V159c-0.5,0.9-1,1.3-1.5,1.3c-0.8,0-1.6-0.9-2.2-2.7h0.8c0.5,1.3,1,1.9,1.4,1.9c0.4,0,0.9-0.6,1.6-1.9h1.1V168.2z
		 M176.4,170c0.2,0,0.3-0.1,0.4-0.2c0.1-0.1,0.2-0.3,0.2-0.4s-0.1-0.3-0.2-0.4c-0.1-0.1-0.3-0.2-0.4-0.2s-0.3,0.1-0.4,0.2
		c-0.1,0.1-0.2,0.3-0.2,0.4s0.1,0.3,0.2,0.4C176.1,170,176.3,170,176.4,170z"/>
	<path d="M185.7,169.1c0,0.4-0.2,0.8-0.5,1.1c-0.3,0.3-0.7,0.4-1.1,0.4h-4.7v-0.8h0.7v-4.2H180c-0.3,0-0.6-0.1-0.8-0.4
		c-0.2-0.2-0.4-0.5-0.4-0.8s0.1-0.6,0.4-0.8c0.2-0.2,0.5-0.4,0.8-0.4s0.6,0.1,0.8,0.4c0.2,0.2,0.4,0.5,0.4,0.8v5.4h2.6
		c0.5,0,0.7-0.2,0.7-0.6v-9.6h1.1V169.1z M180,165c0.2,0,0.3-0.1,0.4-0.2s0.2-0.3,0.2-0.4c0-0.2-0.1-0.3-0.2-0.4
		c-0.1-0.1-0.3-0.2-0.4-0.2c-0.2,0-0.3,0.1-0.4,0.2c-0.1,0.1-0.2,0.3-0.2,0.4c0,0.2,0.1,0.3,0.2,0.4S179.8,165,180,165z"/>
	<path d="M193.3,170.6h-1.1v-4.7c0-0.6-0.2-1-0.6-1.4s-0.9-0.5-1.5-0.5c-0.9,0-1.5,0.3-1.9,0.9c0.3,0.4,0.8,0.7,1.6,0.8v0.4
		c-0.3,0-0.5,0.1-0.7,0.3c-0.2,0.2-0.3,0.4-0.3,0.7v3.6h-1.1V167c0-0.5,0.2-0.9,0.6-1.1c-0.6-0.2-1-0.5-1.2-1
		c0.6-1.1,1.6-1.7,3.1-1.7c0.9,0,1.7,0.2,2.3,0.7c0.6,0.5,0.9,1.1,0.9,1.9V170.6z"/>
	<path d="M194.1,159.7c-0.1,0.8-0.5,1.5-1.1,1.9c-0.6,0.4-1.4,0.7-2.3,0.7c-0.6,0-1-0.1-1.4-0.4c-0.3-0.3-0.5-0.6-0.5-1
		c0-0.3,0.1-0.6,0.4-0.8c0.2-0.2,0.5-0.4,0.8-0.4s0.6,0.1,0.8,0.4c0.2,0.2,0.4,0.5,0.4,0.8c0,0.3-0.1,0.5-0.3,0.8
		c0.6,0,1.1-0.2,1.5-0.5c0.4-0.4,0.7-0.8,0.7-1.4H194.1z M190,161.5c0.2,0,0.3-0.1,0.4-0.2c0.1-0.1,0.2-0.3,0.2-0.4
		s-0.1-0.3-0.2-0.4c-0.1-0.1-0.3-0.2-0.4-0.2c-0.2,0-0.3,0.1-0.4,0.2c-0.1,0.1-0.2,0.3-0.2,0.4s0.1,0.3,0.2,0.4
		C189.7,161.5,189.9,161.5,190,161.5z"/>
	<path d="M201.5,169.1c0,0.4-0.2,0.8-0.5,1.1c-0.3,0.3-0.7,0.4-1.1,0.4h-4.7v-0.8h0.7v-4.2h-0.1c-0.3,0-0.6-0.1-0.8-0.4
		c-0.2-0.2-0.4-0.5-0.4-0.8s0.1-0.6,0.4-0.8c0.2-0.2,0.5-0.4,0.8-0.4s0.6,0.1,0.8,0.4c0.2,0.2,0.4,0.5,0.4,0.8v5.4h2.6
		c0.5,0,0.7-0.2,0.7-0.6v-5.8h1.1V169.1z M195.8,165c0.2,0,0.3-0.1,0.4-0.2s0.2-0.3,0.2-0.4c0-0.2-0.1-0.3-0.2-0.4
		c-0.1-0.1-0.3-0.2-0.4-0.2c-0.2,0-0.3,0.1-0.4,0.2c-0.1,0.1-0.2,0.3-0.2,0.4c0,0.2,0.1,0.3,0.2,0.4S195.7,165,195.8,165z"/>
	<path d="M209.4,169.1c0,0.4-0.2,0.8-0.5,1.1c-0.3,0.3-0.7,0.4-1.1,0.4h-3.2v-0.8h0.7v-3.1c0-0.3,0.1-0.5,0.4-0.8
		c0.2-0.3,0.4-0.6,0.4-0.9c0-0.3-0.1-0.6-0.4-0.9c-0.3-0.2-0.6-0.3-0.9-0.3c-0.2,0-0.4,0-0.6,0.1c0.6,0.2,0.9,0.6,0.9,1.2
		c0,0.3-0.1,0.6-0.4,0.8c-0.2,0.2-0.5,0.4-0.8,0.4s-0.6-0.1-0.8-0.4c-0.2-0.2-0.4-0.5-0.4-0.8c0-0.5,0.2-0.9,0.6-1.3
		c0.4-0.4,0.9-0.6,1.5-0.6c0.7,0,1.3,0.2,1.7,0.5c0.4,0.3,0.6,0.8,0.6,1.3c0,0.3-0.1,0.7-0.3,1c-0.2,0.3-0.3,0.5-0.3,0.7v3.1h1.1
		c0.5,0,0.7-0.2,0.7-0.6v-3.7c0-0.6-0.3-0.9-0.8-0.9v-0.4c0.8-0.1,1.2-0.7,1.3-1.5h1.2c-0.1,0.8-0.5,1.3-1.2,1.6
		c0.4,0.2,0.7,0.6,0.7,1.2V169.1z M203.8,165.6c0.2,0,0.3-0.1,0.4-0.2c0.1-0.1,0.2-0.3,0.2-0.4s-0.1-0.3-0.2-0.4
		c-0.1-0.1-0.3-0.2-0.4-0.2c-0.2,0-0.3,0.1-0.4,0.2c-0.1,0.1-0.2,0.3-0.2,0.4s0.1,0.3,0.2,0.4C203.5,165.6,203.6,165.6,203.8,165.6z
		"/>
	<path d="M209.4,162.3h-5.5c0.4-1.4,1.3-2.2,2.7-2.2c0.9,0,1.6,0.3,2.2,1v-1.4h0.6V162.3z M208.5,161.8c-0.3-0.7-0.9-1.1-1.8-1.1
		c-0.9,0-1.5,0.4-1.8,1.1H208.5z"/>
	<path d="M216.1,169.4c0,0.3-0.1,0.6-0.4,0.8s-0.5,0.4-0.8,0.4c-0.3,0-0.6-0.1-0.9-0.4s-0.4-0.5-0.4-0.8s0.1-0.6,0.4-0.8
		s0.5-0.4,0.9-0.4h0.1v-2.5c0-0.5-0.2-1-0.5-1.3s-0.8-0.4-1.3-0.4c-0.8,0-1.5,0.3-2,1l-0.6-0.5c0.7-0.9,1.5-1.3,2.6-1.3
		c0.8,0,1.5,0.2,2.1,0.7s0.8,1.1,0.8,1.8V169.4z M214.9,170c0.2,0,0.3-0.1,0.4-0.2c0.1-0.1,0.2-0.3,0.2-0.4s-0.1-0.3-0.2-0.4
		c-0.1-0.1-0.3-0.2-0.4-0.2c-0.2,0-0.3,0.1-0.4,0.2c-0.1,0.1-0.2,0.3-0.2,0.4s0.1,0.3,0.2,0.4C214.6,170,214.8,170,214.9,170z"/>
	<path d="M216.1,162.3h-5.5c0.4-1.4,1.3-2.2,2.7-2.2C214.8,160.1,215.7,160.9,216.1,162.3z M215.2,161.8c-0.3-0.7-0.9-1.1-1.8-1.1
		c-0.9,0-1.5,0.4-1.8,1.1H215.2z"/>
	<path d="M224,170.6h-1.1v-4.5c0-1.1-0.2-1.7-0.7-2l-1.5,0.8l-1.5-0.8c-0.6,0.4-0.9,1.1-0.9,1.9c0,0.5,0.2,1.1,0.5,1.6
		c0.4,0.7,0.7,1.2,0.8,1.5c0.1-0.2,0.3-0.4,0.6-0.7s0.4-0.5,0.5-0.6h0c-0.3,0-0.6-0.1-0.9-0.4s-0.4-0.5-0.4-0.8s0.1-0.6,0.4-0.8
		s0.5-0.4,0.9-0.4c0.3,0,0.6,0.1,0.8,0.4s0.4,0.5,0.4,0.8c0,0.3-0.1,0.6-0.2,0.9c-0.1,0.3-0.4,0.7-0.9,1.2c-0.5,0.5-0.7,0.9-0.7,1.2
		v0.6h-1.1v-0.6c0-0.5-0.2-1.1-0.6-1.9c-0.4-0.8-0.6-1.5-0.6-2.1c0-1.2,0.6-2.1,1.7-2.8l1.5,0.8l1.5-0.8c1.3,0.5,1.9,1.4,1.9,2.9
		V170.6z M220.6,167.2c0.2,0,0.3-0.1,0.4-0.2c0.1-0.1,0.2-0.3,0.2-0.4c0-0.2-0.1-0.3-0.2-0.4c-0.1-0.1-0.3-0.2-0.4-0.2
		c-0.2,0-0.3,0.1-0.4,0.2s-0.2,0.3-0.2,0.4c0,0.2,0.1,0.3,0.2,0.4C220.3,167.1,220.4,167.2,220.6,167.2z"/>
	<path d="M152.6,185L152.6,185c0.4,0,0.7,0.1,0.9,0.4s0.4,0.5,0.4,0.8s-0.1,0.6-0.4,0.8s-0.5,0.4-0.8,0.4s-0.6-0.1-0.8-0.4
		s-0.4-0.5-0.4-0.8v-9.6c0-1-0.4-1.5-1.3-1.5c-0.4,0-0.7,0.1-0.9,0.4c0,0,0.1,0,0.2,0c0.3,0,0.6,0.1,0.8,0.4
		c0.2,0.2,0.4,0.5,0.4,0.8c0,0.3-0.1,0.6-0.4,0.9c-0.2,0.2-0.5,0.4-0.8,0.4c-0.4,0-0.6-0.1-0.9-0.4c-0.2-0.3-0.4-0.6-0.4-1.1
		c0-0.4,0.2-0.9,0.6-1.3s0.9-0.6,1.6-0.6c0.7,0,1.2,0.2,1.6,0.6c0.4,0.4,0.6,0.9,0.6,1.5V185z M149.4,177.3c0.2,0,0.3-0.1,0.4-0.2
		c0.1-0.1,0.2-0.3,0.2-0.4c0-0.2-0.1-0.3-0.2-0.4s-0.3-0.2-0.4-0.2s-0.3,0.1-0.4,0.2s-0.2,0.3-0.2,0.4c0,0.2,0.1,0.3,0.2,0.4
		C149.1,177.2,149.3,177.3,149.4,177.3z M152.6,186.8c0.2,0,0.3-0.1,0.4-0.2c0.1-0.1,0.2-0.3,0.2-0.4s-0.1-0.3-0.2-0.4
		c-0.1-0.1-0.3-0.2-0.4-0.2s-0.3,0.1-0.4,0.2c-0.1,0.1-0.2,0.3-0.2,0.4s0.1,0.3,0.2,0.4C152.3,186.8,152.5,186.8,152.6,186.8z"/>
	<path d="M162.2,187.4h-1.1v-4c0-0.3,0-0.6-0.1-0.6c-1.3,1-2.2,1.9-2.7,2.6c-0.5,0.7-0.8,1.4-0.8,2.1h-1.1v-5h-0.1
		c-0.3,0-0.6-0.1-0.8-0.4s-0.4-0.5-0.4-0.8s0.1-0.6,0.4-0.8s0.5-0.4,0.8-0.4s0.6,0.1,0.8,0.4s0.4,0.5,0.4,0.8v4.2
		c0.3-0.8,1.4-1.8,3.1-3.1c-0.5-0.3-0.8-0.7-0.8-1.1c0-0.3,0.1-0.6,0.4-0.8s0.5-0.4,0.8-0.4s0.6,0.1,0.8,0.4s0.4,0.5,0.4,0.8
		c0,0.4-0.2,0.8-0.5,1.1c0.4,0.2,0.6,0.6,0.6,1.1V187.4z M156.2,181.8c0.2,0,0.3-0.1,0.4-0.2s0.2-0.3,0.2-0.4c0-0.2-0.1-0.3-0.2-0.4
		c-0.1-0.1-0.3-0.2-0.4-0.2s-0.3,0.1-0.4,0.2c-0.1,0.1-0.2,0.3-0.2,0.4c0,0.2,0.1,0.3,0.2,0.4S156,181.8,156.2,181.8z M161,181.9
		c0.3-0.2,0.5-0.5,0.5-0.8c0-0.2-0.1-0.3-0.2-0.4c-0.1-0.1-0.3-0.2-0.4-0.2s-0.3,0.1-0.4,0.2c-0.1,0.1-0.2,0.3-0.2,0.4
		C160.3,181.5,160.5,181.7,161,181.9z"/>
	<path d="M170.4,187.4h-1.1c-0.8-1.5-1.9-2.4-3.3-2.5v1.2c0,0.9-0.5,1.4-1.4,1.4c-0.4,0-0.7-0.1-0.9-0.4s-0.4-0.6-0.4-1
		c0-0.4,0.1-0.8,0.4-1.2c0.3-0.3,0.6-0.6,1.1-0.7v-1.9h-0.1c-0.3,0-0.6-0.1-0.8-0.4s-0.4-0.5-0.4-0.8s0.1-0.6,0.4-0.8
		s0.5-0.4,0.8-0.4s0.6,0.1,0.8,0.4s0.4,0.5,0.4,0.8v3.1c1.3,0.1,2.4,0.8,3.3,1.9v-6h1.1V187.4z M164.8,186.2v-1.3
		c-0.3,0.1-0.5,0.2-0.6,0.5s-0.2,0.5-0.2,0.8c0,0.2,0,0.4,0.1,0.5c0.1,0.1,0.2,0.2,0.4,0.2C164.6,186.8,164.8,186.6,164.8,186.2z
		 M164.7,181.8c0.2,0,0.3-0.1,0.4-0.2s0.2-0.3,0.2-0.4c0-0.2-0.1-0.3-0.2-0.4c-0.1-0.1-0.3-0.2-0.4-0.2s-0.3,0.1-0.4,0.2
		c-0.1,0.1-0.2,0.3-0.2,0.4c0,0.2,0.1,0.3,0.2,0.4S164.5,181.8,164.7,181.8z"/>
	<path d="M170.1,179.1h-0.6v-2.3h0.6V179.1z"/>
	<path d="M178.4,187.4h-1.1v-6.1c0-0.3-0.1-0.4-0.3-0.4c-0.1,0-0.2,0.1-0.3,0.2s-0.3,0.4-0.5,0.7s-0.4,0.8-0.6,1.3
		c-0.2,0.5-0.5,1.3-0.9,2.3c-0.4,1-0.6,1.6-0.6,1.8v0.2h-1.1v-5h-0.1c-0.3,0-0.6-0.1-0.8-0.4s-0.4-0.5-0.4-0.8s0.1-0.6,0.4-0.8
		s0.5-0.4,0.8-0.4s0.6,0.1,0.8,0.4s0.4,0.5,0.4,0.8v3.6c0.5-1.4,1-2.5,1.6-3.4c0.5-0.9,1.1-1.4,1.7-1.4c0.7,0,1.1,0.5,1.1,1.4V187.4
		z M172.9,181.8c0.2,0,0.3-0.1,0.4-0.2s0.2-0.3,0.2-0.4c0-0.2-0.1-0.3-0.2-0.4c-0.1-0.1-0.3-0.2-0.4-0.2s-0.3,0.1-0.4,0.2
		c-0.1,0.1-0.2,0.3-0.2,0.4c0,0.2,0.1,0.3,0.2,0.4S172.7,181.8,172.9,181.8z"/>
	<path d="M178.4,179.1H173c0.4-1.4,1.3-2.2,2.7-2.2c0.9,0,1.6,0.3,2.2,1v-1.4h0.6V179.1z M177.5,178.6c-0.3-0.7-0.9-1.1-1.8-1.1
		s-1.5,0.4-1.8,1.1H177.5z"/>
	<path d="M178.1,179.1h-0.6v-2.3h0.6V179.1z"/>
	<path d="M186.3,187.4h-1.1v-4.7c0-0.6-0.2-1-0.6-1.4c-0.4-0.3-0.9-0.5-1.6-0.5c-0.7,0-1.3,0.2-1.7,0.6c-0.4,0.4-0.6,0.9-0.6,1.4
		c0,0.6,0.2,1.1,0.6,1.8s0.6,1.1,0.8,1.3c0.1-0.2,0.3-0.4,0.6-0.7s0.4-0.5,0.5-0.6h0c-0.3,0-0.6-0.1-0.9-0.4s-0.4-0.5-0.4-0.8
		s0.1-0.6,0.4-0.8s0.5-0.4,0.9-0.4c0.3,0,0.6,0.1,0.8,0.4s0.4,0.5,0.4,0.8c0,0.3-0.1,0.6-0.2,0.9c-0.1,0.3-0.4,0.7-0.9,1.2
		c-0.5,0.5-0.7,0.9-0.7,1.2v0.6h-1.1v-0.6c0-0.5-0.2-1.1-0.6-1.9c-0.4-0.8-0.6-1.5-0.6-2.1c0-0.8,0.3-1.4,0.9-2
		c0.6-0.5,1.3-0.8,2.3-0.8c1,0,1.8,0.2,2.4,0.7c0.6,0.5,0.9,1.1,0.9,1.9V187.4z M182.9,184c0.2,0,0.3-0.1,0.4-0.2
		c0.1-0.1,0.2-0.3,0.2-0.4c0-0.2-0.1-0.3-0.2-0.4c-0.1-0.1-0.3-0.2-0.4-0.2c-0.2,0-0.3,0.1-0.4,0.2s-0.2,0.3-0.2,0.4
		c0,0.2,0.1,0.3,0.2,0.4C182.5,183.9,182.7,184,182.9,184z"/>
	<path d="M186.3,179.1h-5.5c0.4-1.4,1.3-2.2,2.7-2.2c0.9,0,1.6,0.3,2.2,1v-1.4h0.6V179.1z M185.4,178.6c-0.3-0.7-0.9-1.1-1.8-1.1
		c-0.9,0-1.5,0.4-1.8,1.1H185.4z"/>
	<path d="M193.9,187.4h-1.1v-4.7c0-0.6-0.2-1-0.6-1.4s-0.9-0.5-1.5-0.5c-0.9,0-1.5,0.3-1.9,0.9c0.3,0.4,0.8,0.7,1.6,0.8v0.4
		c-0.3,0-0.5,0.1-0.7,0.3c-0.2,0.2-0.3,0.4-0.3,0.7v3.6h-1.1v-3.6c0-0.5,0.2-0.9,0.6-1.1c-0.6-0.2-1-0.5-1.2-1
		c0.6-1.1,1.6-1.7,3.1-1.7c0.9,0,1.7,0.2,2.3,0.7c0.6,0.5,0.9,1.1,0.9,1.9V187.4z"/>
	<path d="M200.7,186.2c0,0.3-0.1,0.6-0.4,0.8s-0.5,0.4-0.8,0.4c-0.3,0-0.6-0.1-0.9-0.4s-0.4-0.5-0.4-0.8s0.1-0.6,0.4-0.8
		s0.5-0.4,0.9-0.4h0.1v-2.5c0-0.5-0.2-1-0.5-1.3s-0.8-0.4-1.3-0.4c-0.8,0-1.5,0.3-2,1l-0.6-0.5c0.7-0.9,1.5-1.3,2.6-1.3
		c0.8,0,1.5,0.2,2.1,0.7s0.8,1.1,0.8,1.8V186.2z M199.5,186.8c0.2,0,0.3-0.1,0.4-0.2c0.1-0.1,0.2-0.3,0.2-0.4s-0.1-0.3-0.2-0.4
		c-0.1-0.1-0.3-0.2-0.4-0.2c-0.2,0-0.3,0.1-0.4,0.2c-0.1,0.1-0.2,0.3-0.2,0.4s0.1,0.3,0.2,0.4C199.2,186.8,199.3,186.8,199.5,186.8z
		"/>
	<path d="M200.4,179.1h-0.6v-2.3h0.6V179.1z"/>
	<path d="M206.6,187.4h-1.1v-4.9c0-1.1-0.5-1.7-1.5-1.7c-0.7,0-1.2,0.3-1.7,1l-0.6-0.5c0.7-0.9,1.4-1.3,2.3-1.3
		c0.8,0,1.4,0.2,1.9,0.7c0.5,0.4,0.7,1.1,0.7,1.8V187.4z"/>
	<path d="M210,179.5l-0.3,5.4h-0.9l-0.3-5.4v-2.2h1.4V179.5z M210,187.4h-1.4V186h1.4V187.4z"/>
</g>
</svg>
