<svg xmlns="http://www.w3.org/2000/svg" width="36.882" height="36.378" viewBox="0 0 36.882 36.378">
  <g id="kebab-icon" transform="translate(0)">
    <g id="Group_787" data-name="Group 787" transform="translate(5.859 19.941)">
      <g id="Group_786" data-name="Group 786">
        <path id="Path_8268" data-name="Path 8268" d="M82.406,323.971a.624.624,0,1,0,0,.881A.626.626,0,0,0,82.406,323.971Z" transform="translate(-81.339 -323.788)" fill="#fff"/>
      </g>
    </g>
    <g id="Group_789" data-name="Group 789" transform="translate(5.504 23.816)">
      <g id="Group_788" data-name="Group 788" transform="translate(0 0)">
        <path id="Path_8269" data-name="Path 8269" d="M77.478,377.772a.624.624,0,1,0,0,.881A.627.627,0,0,0,77.478,377.772Z" transform="translate(-76.411 -377.59)" fill="#fff"/>
      </g>
    </g>
    <g id="Group_791" data-name="Group 791" transform="translate(10.454 21.701)">
      <g id="Group_790" data-name="Group 790">
        <path id="Path_8270" data-name="Path 8270" d="M146.193,348.4a.624.624,0,1,0,0,.881A.627.627,0,0,0,146.193,348.4Z" transform="translate(-145.126 -348.219)" fill="#fff"/>
      </g>
    </g>
    <g id="Group_793" data-name="Group 793" transform="translate(3.443 21.644)">
      <g id="Group_792" data-name="Group 792" transform="translate(0 0)">
        <path id="Path_8271" data-name="Path 8271" d="M48.863,347.623a.624.624,0,1,0,0,.881A.626.626,0,0,0,48.863,347.623Z" transform="translate(-47.796 -347.44)" fill="#fff"/>
      </g>
    </g>
    <g id="Group_795" data-name="Group 795" transform="translate(6.981 14.597)">
      <g id="Group_794" data-name="Group 794">
        <path id="Path_8272" data-name="Path 8272" d="M97.974,249.787a.624.624,0,1,0,0,.881A.627.627,0,0,0,97.974,249.787Z" transform="translate(-96.907 -249.605)" fill="#fff"/>
      </g>
    </g>
    <g id="Group_797" data-name="Group 797" transform="translate(12.872 16.943)">
      <g id="Group_796" data-name="Group 796">
        <path id="Path_8273" data-name="Path 8273" d="M179.752,282.362a.624.624,0,1,0,0,.881A.626.626,0,0,0,179.752,282.362Z" transform="translate(-178.684 -282.18)" fill="#fff"/>
      </g>
    </g>
    <g id="Group_799" data-name="Group 799" transform="translate(11.695 12.246)">
      <g id="Group_798" data-name="Group 798">
        <path id="Path_8274" data-name="Path 8274" d="M163.419,217.157a.624.624,0,1,0,0,.881A.626.626,0,0,0,163.419,217.157Z" transform="translate(-162.352 -216.975)" fill="#fff"/>
      </g>
    </g>
    <g id="Group_801" data-name="Group 801" transform="translate(19.355 11.656)">
      <g id="Group_800" data-name="Group 800">
        <path id="Path_8275" data-name="Path 8275" d="M269.75,208.966a.624.624,0,1,0,0,.881A.627.627,0,0,0,269.75,208.966Z" transform="translate(-268.683 -208.784)" fill="#fff"/>
      </g>
    </g>
    <g id="Group_803" data-name="Group 803" transform="translate(0 0)">
      <g id="Group_802" data-name="Group 802" transform="translate(0 0)">
        <path id="Path_8276" data-name="Path 8276" d="M36.609,14.574a2.182,2.182,0,0,0-.278-.919,12.427,12.427,0,0,0-.737-1.678l.615-.613a2.2,2.2,0,0,0,0-3.115,2.207,2.207,0,0,0-2.153-.56,2.291,2.291,0,0,0-.6-1,2.1,2.1,0,0,0-1.721-.653l-.216.029a2.2,2.2,0,0,0-3.733-1.92l-.485.484a8.809,8.809,0,0,0-3.678-.54A5.222,5.222,0,0,0,20.349,5.54L1.488,24.337A5.34,5.34,0,0,0,0,28.225c0,2.725,1.546,5.893,4.135,8.473A7.293,7.293,0,0,0,9.3,38.827q.357,0,.714-.035c-.007.016-.013.033-.018.051a.54.54,0,0,0,.361.673,7.911,7.911,0,0,0,2.276.36,4.464,4.464,0,0,0,3.237-1.2L32.693,21.911a5.061,5.061,0,0,0,2.7-1.372,5.377,5.377,0,0,0,1.487-4.034A8.607,8.607,0,0,0,36.609,14.574ZM34.047,8.863a1.128,1.128,0,0,1,1.4.152,1.122,1.122,0,0,1,0,1.584l-.951.948a3.024,3.024,0,0,0-.643-.947l-.031-.029Zm-5.279,6.081,1.583-.21a.938.938,0,0,1,.843.584.6.6,0,0,1,.053.309l-.2,1.5a.54.54,0,0,0,.464.607.553.553,0,0,0,.072,0,.54.54,0,0,0,.535-.469l.2-1.5a1.581,1.581,0,0,0-.018-.511l1.316-1.311a1.126,1.126,0,0,1,1.735.175c.069.2.13.408.184.61,0,0,0,0,0,.007a1.11,1.11,0,0,1-.327.792l-3.539,3.527a6.171,6.171,0,0,1-2.3-.412.537.537,0,0,0,.117-.173A3.422,3.422,0,0,0,28.768,14.944Zm2.138-7.688.026-.027L31.88,7.1a1.175,1.175,0,0,1,1.158,1.154l-.032.242h0l-.19,1.425a3.042,3.042,0,0,0-.811-.2A.54.54,0,0,0,31.9,10.8a1.951,1.951,0,0,1,1.759,1.831c0,.013,0,.026,0,.039a2.17,2.17,0,0,0-.806.508l-1.087,1.083a1.9,1.9,0,0,0-1.491-.608,10.738,10.738,0,0,0,.235-1.422c.04-.408.061-.83.061-1.252,0-.02,0-.04,0-.06V10.89a12.312,12.312,0,0,0-.144-1.818,9.72,9.72,0,0,0-.236-1.1ZM28.552,4.906a1.13,1.13,0,0,1,1.592,0,1.129,1.129,0,0,1,0,1.584l-.366.364a2.286,2.286,0,0,0-1.678-1.5ZM27.066,7.382c.274-.588.613-.953.884-.953h0c.3,0,.767.48,1.116,1.553a8.2,8.2,0,0,1,.293,1.257,11.235,11.235,0,0,1,.131,1.658v.086c0,.387-.019.772-.056,1.145a9.106,9.106,0,0,1-.317,1.679L27.675,14l.873-.87a2.2,2.2,0,0,0,0-3.114,2.206,2.206,0,0,0-2.037-.589A7.308,7.308,0,0,1,27.066,7.382ZM22.659,9.606a1.117,1.117,0,0,1,.13-.108,1.136,1.136,0,0,1,1.462.108,1.124,1.124,0,0,1,.109,1.455,1.109,1.109,0,0,1-.109.129.54.54,0,1,0,.763.765l.055-.057.015-.017.039-.045h0l.007-.006a.547.547,0,0,0,.06-.051l1-1,.023-.02.025-.022a1.128,1.128,0,0,1,1.544.042,1.122,1.122,0,0,1,0,1.584L26.448,13.7q-.157-.019-.317-.023l-.035,0h-.043l-.125,0h-.02l-.05,0h0l-.06,0-.072.007h-.016l-.051.005h0c-.047.006-.093.013-.139.021h-.01l-.047.008a.54.54,0,1,0,.2,1.062l.037-.006h0l.09-.014h0l.043,0,.083-.007h0l.037,0h.119a2.276,2.276,0,0,1,.442.05,2.56,2.56,0,0,1,.669.249,2.809,2.809,0,0,1,.653.486,2.371,2.371,0,0,1,.648,2.521.539.539,0,0,0-.041.2q-.147-.072-.294-.149a1.481,1.481,0,0,0-1.487.065,7.253,7.253,0,0,0-1.583-2.355,11.24,11.24,0,0,1-3.178-5.459ZM21.9,8.841l-.045.045A2.19,2.19,0,0,1,22.4,7.669a.537.537,0,0,0,.182.007l3-.4a.533.533,0,0,1,.2.015.779.779,0,0,1,.131.047,9.245,9.245,0,0,0-.49,2.069,2.163,2.163,0,0,0-.41-.569,2.224,2.224,0,0,0-2.864-.214A2.193,2.193,0,0,0,21.9,8.841ZM9.3,37.747a6.217,6.217,0,0,1-4.4-1.814c-2.39-2.382-3.817-5.263-3.817-7.708A4.286,4.286,0,0,1,2.251,25.1l18.861-18.8c1.185-1.181,3.14-1.471,5.333-.824l-.718.716a1.54,1.54,0,0,0-.287.01l-2.1.278a.54.54,0,0,0-.859-.276l-.763.613a.544.544,0,0,0-.043.038,3.509,3.509,0,0,0-.941,2.557c0,2.212,1.375,4.956,3.589,7.162a6.2,6.2,0,0,1,0,8.776L13.709,35.929A6.226,6.226,0,0,1,9.3,37.747ZM34.631,19.774a4.738,4.738,0,0,1-4.188,1.079.54.54,0,0,0-.166,1.068c.268.042.532.068.791.083L15.108,37.911a4.154,4.154,0,0,1-4,.691,7.278,7.278,0,0,0,3.362-1.906L25.081,26.121a7.231,7.231,0,0,0,2.14-5.157,7.343,7.343,0,0,0-.183-1.632.541.541,0,0,0,.075-.106.4.4,0,0,1,.538-.165c.2.1.4.2.6.294a7.983,7.983,0,0,0,3.243.786q.2,0,.392-.015H31.9a.544.544,0,0,0,.121-.014,3.324,3.324,0,0,0,2.044-.894.539.539,0,0,0-.155-.873L35.8,16.468c0,.02,0,.039,0,.059A4.326,4.326,0,0,1,34.631,19.774Z" transform="translate(0 -3.499)" fill="#fff"/>
      </g>
    </g>
  </g>
</svg>
