<?xml version="1.0" encoding="utf-8"?>
<!-- Generator: Adobe Illustrator 25.1.0, SVG Export Plug-In . SVG Version: 6.00 Build 0)  -->
<svg version="1.1" id="Слой_1" xmlns="http://www.w3.org/2000/svg" xmlns:xlink="http://www.w3.org/1999/xlink" x="0px" y="0px"
	 viewBox="0 0 192.9 233.2" style="enable-background:new 0 0 192.9 233.2;" xml:space="preserve">
<style type="text/css">
	.st0{fill:#4A5101;}
	.st1{fill:#343901;}
	.st2{fill:#F4F5F5;}
	.st3{fill:url(#Ellipse_8562_1_);stroke:#4A5101;stroke-width:2;}
	.st4{enable-background:new    ;}
</style>
<g id="Group_4007" transform="translate(-60.099 -17813.867)">
	<path id="Path_14560" class="st0" d="M150.2,17868.5v-11.9c0-3.9,3.2-7.1,7.1-7.1c3.9,0,7.1,3.2,7.1,7.1v11.9
		c0,3.9-3.2,7.1-7.1,7.1C153.3,17875.6,150.2,17872.4,150.2,17868.5z"/>
	<g id="Group_3842" transform="translate(253 17813.867) rotate(90)">
		<path id="Path_13930" class="st0" d="M205.2,28C167.8-9.3,107.1-9.3,69.7,28.1C59.1,38.7,51.2,51.7,46.5,65.9
			c-0.3,0.8-1,1.4-1.9,1.4H28.2c-3.9,0-7.1,3-7.3,6.8c-0.1,3.9,2.9,7.2,6.8,7.3c0.1,0,0.2,0,0.3,0h23.5c3.6,0,6.7-2.7,7.1-6.3
			C70,31.6,114.5,5.5,158,16.9s69.6,55.9,58.2,99.4s-55.9,69.6-99.4,58.2c-28.4-7.5-50.7-29.6-58.1-58.1c-0.2-3.7-3.3-6.7-7.1-6.7
			H20.3c-3.9,0-7.1,3-7.3,6.8c-0.1,3.9,2.9,7.2,6.8,7.3c0.1,0,0.2,0,0.3,0h24.4c0.9,0,1.6,0.6,1.9,1.4
			c16.4,50.3,70.4,77.8,120.7,61.5s77.8-70.4,61.5-120.7C223.9,51.8,215.9,38.7,205.2,28z"/>
		
			<ellipse id="Ellipse_8274" transform="matrix(2.535182e-06 1 -1 2.535182e-06 81.446 67.2638)" class="st1" cx="7.1" cy="74.4" rx="7.1" ry="7.1"/>
	</g>
	<g id="Group_3846" transform="translate(239.245 17869.598) rotate(90)">
		<path id="Path_13932" class="st2" d="M81.9,0C36.7,0,0,36.7,0,81.9c0,21.7,8.6,42.6,24,57.9c32.1,31.9,83.9,31.8,115.9-0.3
			c31.8-32,31.8-83.6,0-115.5C124.5,8.6,103.7-0.1,81.9,0z"/>
	</g>
	<g id="payment-method-icon" transform="translate(141.323 17904.252)">
		<g id="Group_150" transform="translate(8.342 20.961)">
			<g id="Group_149" transform="translate(0 0)">
				<path id="Path_344" class="st0" d="M1.1,0.4C1.1,0.4,1.1,0.4,1.1,0.4C1,0.3,1,0.3,1,0.2c0-0.1-0.1-0.1-0.2-0.2c0,0-0.1,0-0.1,0
					c0,0-0.1,0-0.1,0C0.6,0,0.5,0,0.4,0c0,0-0.1,0-0.1,0c0,0-0.1,0-0.1,0c-0.1,0-0.1,0.1-0.2,0.2c0,0,0,0.1-0.1,0.1c0,0,0,0.1,0,0.1
					c0,0.1,0,0.1,0,0.2c0,0,0,0.1,0,0.1c0,0,0,0.1,0.1,0.1C0.1,0.9,0.2,1,0.2,1c0,0,0.1,0,0.1,0c0,0,0.1,0,0.1,0c0.1,0,0.1,0,0.2,0
					c0,0,0.1,0,0.1,0c0,0,0.1,0,0.1,0C0.9,1,1,0.9,1,0.8c0,0,0-0.1,0-0.1c0,0,0-0.1,0-0.1C1.1,0.6,1.1,0.5,1.1,0.4L1.1,0.4z"/>
			</g>
		</g>
		<g id="Group_152" transform="translate(0 16.924)">
			<g id="Group_151">
				<path id="Path_345" class="st0" d="M25.1,4.6L25.1,4.6c-0.5-1.2-1.8-1.7-3-1.2c0,0-0.1,0-0.1,0l-3.8,1.1C18,3.8,17.4,3.3,16.7,3
					l0,0l-4.2-1.4C11.6,0.6,10.4,0,9,0C7.6,0.1,6.3,0.9,5.6,2H0.5C0.2,2,0,2.3,0,2.6c0,0,0,0,0,0v6.9C0,9.8,0.2,10,0.5,10
					c0,0,0,0,0,0h3.2c0.3,0,0.5-0.2,0.5-0.5V9h1.5c0.3,0,0.5-0.2,0.5-0.5c0,0,0,0,0,0V8.3c0.7,0,1.4,0.3,2,0.7
					c1.1,0.6,2.2,1.2,3.3,1.7l0,0c0.6,0.2,1.2,0.3,1.8,0.3c0.6,0,1.2-0.1,1.8-0.4l8.4-3l0,0C24.9,7.2,25.6,5.9,25.1,4.6z M3.2,8.9
					H1.1V3.1h2.2V8.9z M5.3,7.9h-1V3.1h1V7.9z M23.3,6.6l-8.4,3l0,0l0,0C14,10,13,10,12.1,9.7C11,9.2,10,8.7,8.9,8.1
					C8.2,7.6,7.3,7.3,6.4,7.2V2.8c0.5-1,1.5-1.6,2.6-1.7c1-0.1,2,0.4,2.7,1.3c0.1,0.1,0.2,0.2,0.3,0.2L16.3,4c0.6,0.2,1,0.8,0.9,1.5
					c-0.2,0.6-0.7,0.9-1.3,0.7L11,4.7c-0.3-0.1-0.6,0.1-0.7,0.4c-0.1,0.3,0.1,0.6,0.4,0.7l4.9,1.6h0c0.5,0.2,1.1,0.1,1.6-0.2
					c0.5-0.3,0.9-0.7,1-1.3c0,0,0-0.1,0-0.1l4.1-1.1c0.6-0.2,1.4-0.3,1.7,0.5C24.5,6,23.5,6.5,23.3,6.6L23.3,6.6z"/>
			</g>
		</g>
		<g id="Group_154" transform="translate(18.527 6.743)">
			<g id="Group_153" transform="translate(0 0)">
				<path id="Path_346" class="st0" d="M1.1,0.4C1.1,0.4,1.1,0.4,1.1,0.4C1,0.3,1,0.3,1,0.2c0-0.1-0.1-0.1-0.2-0.2
					c0,0-0.1,0-0.1-0.1c0,0-0.1,0-0.1,0C0.6,0,0.5,0,0.4,0c0,0-0.1,0-0.1,0c0,0-0.1,0-0.1,0.1c-0.1,0-0.1,0.1-0.2,0.2
					c0,0,0,0.1,0,0.1c0,0,0,0.1,0,0.1c0,0.1,0,0.1,0,0.2c0,0,0,0.1,0,0.1c0,0,0,0.1,0,0.1C0.1,0.9,0.2,1,0.2,1c0,0,0.1,0,0.1,0
					c0,0,0.1,0,0.1,0c0,0,0.1,0,0.1,0c0,0,0.1,0,0.1,0c0,0,0.1,0,0.1,0c0,0,0.1,0,0.1,0C0.9,1,1,0.9,1,0.8c0,0,0-0.1,0-0.1
					c0,0,0-0.1,0-0.1C1.1,0.6,1.1,0.5,1.1,0.4L1.1,0.4z"/>
			</g>
		</g>
		<g id="Group_156" transform="translate(5.529 0)">
			<g id="Group_155" transform="translate(0)">
				<path id="Path_347" class="st0" d="M25.8,1.9h-3.2c-0.3,0-0.5,0.2-0.5,0.5c0,0,0,0,0,0v0.5h-1.5c-0.3,0-0.5,0.2-0.5,0.5v0.2
					c-0.7,0-1.4-0.3-2-0.7c-1.1-0.6-2.2-1.2-3.3-1.7l0,0c-1.1-0.5-2.4-0.4-3.6,0.1L8.9,2L7,0.2c-0.2-0.2-0.6-0.2-0.8,0L0.2,6.2
					c-0.2,0.2-0.2,0.6,0,0.8c0,0,0,0,0,0l10.4,10.4c0.2,0.2,0.6,0.2,0.8,0l5.6-5.6c0.1,0,0.3,0,0.4,0c1.4-0.1,2.7-0.9,3.4-2h5.1
					c0.3,0,0.5-0.2,0.5-0.5l0,0V2.4C26.3,2.1,26.1,1.9,25.8,1.9C25.8,1.9,25.8,1.9,25.8,1.9z M6.6,1.3l1.2,1.2C7.1,3,6.1,3,5.4,2.6
					L6.6,1.3z M2.6,7.9L1.3,6.6l1.2-1.2C3,6.1,3,7.1,2.6,7.9z M10.9,16.2L9.7,15c0.8-0.5,1.7-0.5,2.5,0L10.9,16.2z M13,14.2
					c-1.2-0.9-2.8-0.9-4.1,0L3.4,8.7c0.9-1.2,0.9-2.9,0-4.1l1.2-1.2c1.2,0.9,2.9,0.9,4.1,0l1.2,1.2C9.1,4.6,8.5,5.1,8.2,5.7
					C6.5,6,5.4,7.7,5.7,9.4C6,11,7.7,12.2,9.4,11.8c1.2-0.2,2.1-1.1,2.4-2.3l1.8,0.6c-0.2,1,0,2,0.6,2.8L13,14.2z M9.7,8.8L9.7,8.8
					l1.1,0.4c-0.2,1.1-1.3,1.8-2.4,1.5S6.6,9.4,6.8,8.3C7,7.7,7.4,7.2,8,6.9C8.2,7.8,8.8,8.6,9.7,8.8z M15,12.2
					c-0.2-0.3-0.3-0.7-0.3-1.1c0.3,0.2,0.6,0.4,1,0.5L15,12.2z M19.9,9.1c-0.5,1-1.5,1.6-2.6,1.7c-0.2,0-0.4,0-0.6,0l0,0
					c-0.8-0.1-1.5-0.5-2-1.1c0,0-0.1-0.1-0.1-0.1c-0.1-0.1-0.2-0.2-0.3-0.2L10,7.8C9.4,7.7,9,7,9.1,6.4l0,0c0.2-0.6,0.7-0.9,1.3-0.7
					l4.9,1.5c0.3,0.1,0.6-0.1,0.7-0.4c0.1-0.3-0.1-0.6-0.4-0.7l0,0l-3.9-1.2l0,0l0,0l-2-2l1.7-0.6l0,0h0l0,0c0.9-0.4,1.8-0.4,2.7,0
					c1.1,0.5,2.1,1,3.2,1.6c0.8,0.5,1.6,0.8,2.5,0.9V9.1z M22,8.7h-1V4h1V8.7z M25.2,8.7h-2.2V2.9h2.2V8.7z"/>
			</g>
		</g>
	</g>
	<g id="Group_3924" transform="translate(61.513 17849.498)">
		
			<image style="overflow:visible;enable-background:new    ;" width="435" height="434" id="Rectangle_638" xlink:href="498437B3.png"  transform="matrix(0.1465 0 0 0.1465 5.7593 6.808)">
		</image>
		
			<linearGradient id="Ellipse_8562_1_" gradientUnits="userSpaceOnUse" x1="-449.5699" y1="1025.1464" x2="-448.8618" y2="1024.4384" gradientTransform="matrix(37.6251 -37.6251 -37.6251 -37.6251 55497.4414 21693.7773)">
			<stop  offset="0" style="stop-color:#FFFFFF"/>
			<stop  offset="0.998" style="stop-color:#F5F6F7"/>
		</linearGradient>
		<circle id="Ellipse_8562" class="st3" cx="37.6" cy="37.6" r="26.6"/>
	</g>
	<path id="Path_14644" class="st0" d="M103.9,17899.1v-5.9h2.6l0.6-4.6h-3.2v-15.8h-6.2l-11,15.4v5h11.9v5.9H103.9z M98.5,17888.5
		h-6.8c2.5-3.5,4.8-7,7-10.8c-0.1,1.6-0.1,3.2-0.1,6.1V17888.5z"/>
</g>
<g class="st4">
	<path d="M42.3,160.2h-1.1v-4.7c0-0.6-0.2-1-0.6-1.4c-0.4-0.3-0.9-0.5-1.6-0.5c-0.7,0-1.3,0.2-1.7,0.6c-0.4,0.4-0.6,0.9-0.6,1.4
		c0,0.6,0.2,1.2,0.5,1.7v-1.1c0-0.3,0.1-0.6,0.4-0.8s0.5-0.4,0.9-0.4c0.3,0,0.6,0.1,0.8,0.4s0.4,0.5,0.4,0.8s-0.1,0.6-0.4,0.8
		s-0.5,0.4-0.8,0.4h-0.1v2.8h-1.1v-0.6c0-0.5-0.2-1.1-0.6-1.9s-0.6-1.5-0.6-2.1c0-0.8,0.3-1.4,0.9-2s1.3-0.8,2.3-0.8
		c1,0,1.8,0.2,2.4,0.7c0.6,0.5,0.9,1.1,0.9,1.9V160.2z M38.3,156.8c0.2,0,0.3-0.1,0.4-0.2c0.1-0.1,0.2-0.3,0.2-0.4
		c0-0.2-0.1-0.3-0.2-0.4s-0.3-0.2-0.4-0.2c-0.2,0-0.3,0.1-0.4,0.2s-0.2,0.3-0.2,0.4c0,0.2,0.1,0.3,0.2,0.4
		C38,156.7,38.2,156.8,38.3,156.8z"/>
	<path d="M49.1,160.2H48V160c-0.5-1.2-0.9-2.2-1.4-2.9c-0.4-0.7-0.8-1.1-1-1.1c-0.2,0-0.3,0.2-0.3,0.5v1.4h0.1
		c0.3,0,0.6,0.1,0.8,0.4s0.4,0.5,0.4,0.8s-0.1,0.6-0.4,0.8s-0.5,0.4-0.8,0.4s-0.6-0.1-0.8-0.4s-0.4-0.5-0.4-0.8v-2.6
		c0-0.9,0.4-1.4,1.1-1.4c0.8,0,1.7,1.1,2.6,3.3v-3.1c0-0.5-0.2-1-0.5-1.3s-0.8-0.4-1.3-0.4c-0.8,0-1.5,0.3-2,1l-0.6-0.5
		c0.7-0.9,1.5-1.3,2.6-1.3c0.8,0,1.5,0.2,2.1,0.7s0.8,1.1,0.8,1.8V160.2z M45.4,159.6c0.2,0,0.3-0.1,0.4-0.2
		c0.1-0.1,0.2-0.3,0.2-0.4s-0.1-0.3-0.2-0.4c-0.1-0.1-0.3-0.2-0.4-0.2s-0.3,0.1-0.4,0.2c-0.1,0.1-0.2,0.3-0.2,0.4s0.1,0.3,0.2,0.4
		C45.1,159.6,45.3,159.6,45.4,159.6z"/>
	<path d="M49.1,151.9h-5.5c0.4-1.4,1.3-2.2,2.7-2.2S48.7,150.5,49.1,151.9z M48.2,151.4c-0.3-0.7-0.9-1.1-1.8-1.1s-1.5,0.4-1.8,1.1
		H48.2z"/>
	<path d="M56.8,160.2h-1.1v-4.7c0-0.6-0.2-1-0.6-1.4s-0.9-0.5-1.5-0.5c-0.9,0-1.5,0.3-1.9,0.9c0.3,0.4,0.8,0.7,1.6,0.8v0.4
		c-0.3,0-0.5,0.1-0.7,0.3s-0.3,0.4-0.3,0.7v3.6h-1.1v-3.6c0-0.5,0.2-0.9,0.6-1.1c-0.6-0.2-1-0.5-1.2-1c0.6-1.1,1.6-1.7,3.1-1.7
		c0.9,0,1.7,0.2,2.3,0.7s0.9,1.1,0.9,1.9V160.2z"/>
	<path d="M64.1,160.2h-1.1v-0.3c-0.3-0.6-0.7-1.4-1.4-2.4c-0.7-1-1.2-1.5-1.4-1.5c-0.2,0-0.3,0.2-0.3,0.5v1.4h0.1
		c0.3,0,0.6,0.1,0.8,0.4s0.4,0.5,0.4,0.8s-0.1,0.6-0.4,0.8s-0.5,0.4-0.8,0.4s-0.6-0.1-0.8-0.4s-0.4-0.5-0.4-0.8v-2.6
		c0-0.9,0.4-1.4,1.1-1.4c0.3,0,0.6,0.1,0.9,0.3s0.7,0.8,1.3,1.6s0.9,1.3,1,1.5v-3.2c0-0.3-0.1-0.5-0.2-0.8c-0.5,0.2-1,0.3-1.5,0.3
		v-0.3c0.4-0.1,0.7-0.2,1.1-0.5c-0.4-0.3-0.9-0.5-1.5-0.5c-0.4,0-0.9,0.1-1.3,0.3c-0.4,0.2-0.8,0.4-1,0.7l-0.6-0.5
		c0.3-0.4,0.7-0.7,1.3-1s1.1-0.4,1.6-0.4c0.8,0,1.5,0.2,2.1,0.6c0.3-0.3,0.5-0.6,0.6-0.9l0.8,0.5c-0.2,0.4-0.5,0.7-0.8,0.9
		c0.3,0.4,0.4,0.8,0.4,1.3V160.2z M59.9,159.6c0.2,0,0.3-0.1,0.4-0.2c0.1-0.1,0.2-0.3,0.2-0.4s-0.1-0.3-0.2-0.4
		c-0.1-0.1-0.3-0.2-0.4-0.2s-0.3,0.1-0.4,0.2c-0.1,0.1-0.2,0.3-0.2,0.4s0.1,0.3,0.2,0.4C59.5,159.6,59.7,159.6,59.9,159.6z"/>
	<path d="M64.8,149.3c-0.1,0.8-0.5,1.5-1.1,1.9c-0.6,0.4-1.4,0.7-2.3,0.7c-0.6,0-1-0.1-1.4-0.4s-0.5-0.6-0.5-1
		c0-0.3,0.1-0.6,0.4-0.8s0.5-0.4,0.8-0.4s0.6,0.1,0.8,0.4s0.4,0.5,0.4,0.8c0,0.3-0.1,0.5-0.3,0.8c0.6,0,1.1-0.2,1.5-0.5
		s0.7-0.8,0.7-1.4H64.8z M60.8,151.1c0.2,0,0.3-0.1,0.4-0.2c0.1-0.1,0.2-0.3,0.2-0.4s-0.1-0.3-0.2-0.4c-0.1-0.1-0.3-0.2-0.4-0.2
		s-0.3,0.1-0.4,0.2c-0.1,0.1-0.2,0.3-0.2,0.4s0.1,0.3,0.2,0.4C60.5,151.1,60.6,151.1,60.8,151.1z"/>
	<path d="M63.8,151.9h-0.6v-2.3h0.6V151.9z"/>
	<path d="M70,160.2h-1.1c-0.7-1.1-1.4-1.9-2-2.4s-1.3-0.8-2-0.8v-0.6c0.7,0,1.4,0.2,2,0.6c0.6,0.4,1.3,1.1,2,2.1v-3.9h-0.1
		c-0.3,0-0.6-0.1-0.8-0.4s-0.4-0.5-0.4-0.8s0.1-0.6,0.4-0.8s0.5-0.4,0.8-0.4c0.3,0,0.6,0.1,0.8,0.4s0.4,0.5,0.4,0.8V160.2z
		 M68.8,154.6c0.2,0,0.3-0.1,0.4-0.2s0.2-0.3,0.2-0.4c0-0.2-0.1-0.3-0.2-0.4c-0.1-0.1-0.3-0.2-0.4-0.2c-0.2,0-0.3,0.1-0.4,0.2
		c-0.1,0.1-0.2,0.3-0.2,0.4c0,0.2,0.1,0.3,0.2,0.4S68.7,154.6,68.8,154.6z"/>
	<path d="M78.2,158.7c0,0.4-0.2,0.8-0.5,1.1c-0.3,0.3-0.7,0.4-1.1,0.4h-3.2v-0.8h0.7v-3.1c0-0.3,0.1-0.5,0.4-0.8
		c0.2-0.3,0.4-0.6,0.4-0.9c0-0.4-0.2-0.8-0.5-1l-0.9,0.5l-0.9-0.5c-0.3,0.2-0.5,0.4-0.6,0.8c0.2-0.1,0.3-0.1,0.4-0.1
		c0.3,0,0.6,0.1,0.8,0.4s0.4,0.5,0.4,0.8s-0.1,0.6-0.4,0.8s-0.5,0.4-0.8,0.4c-0.4,0-0.6-0.1-0.9-0.4s-0.4-0.6-0.4-1.1
		c0-1,0.5-1.8,1.5-2.4l0.8,0.5l0.9-0.5c1,0.3,1.5,0.9,1.5,1.8c0,0.3-0.1,0.7-0.3,1s-0.3,0.5-0.3,0.7v3.1h1.1c0.5,0,0.7-0.2,0.7-0.6
		V155c0-0.6-0.3-0.9-0.9-0.9v-0.4c0.8-0.1,1.2-0.7,1.3-1.5h1.2c-0.1,0.8-0.5,1.3-1.2,1.6c0.4,0.2,0.7,0.6,0.7,1.2V158.7z
		 M72.3,156.1c0.2,0,0.3-0.1,0.4-0.2c0.1-0.1,0.2-0.3,0.2-0.4s-0.1-0.3-0.2-0.4c-0.1-0.1-0.3-0.2-0.4-0.2c-0.2,0-0.3,0.1-0.4,0.2
		c-0.1,0.1-0.2,0.3-0.2,0.4s0.1,0.3,0.2,0.4C72,156,72.2,156.1,72.3,156.1z"/>
	<path d="M78.2,151.9h-5.5c0.4-1.4,1.3-2.2,2.7-2.2c0.2,0,0.4,0,0.6,0.1v-0.5h0.6v0.6c0.4,0.2,0.7,0.4,1,0.8v-1.4h0.6V151.9z
		 M77.3,151.4c-0.3-0.7-0.9-1.1-1.8-1.1s-1.5,0.4-1.8,1.1H77.3z"/>
	<path d="M79,149.3c0,0.8-0.3,1.4-0.9,1.9s-1.3,0.7-2.3,0.7c-0.3,0-0.6,0-0.9-0.1v-0.4c0.4,0,0.8-0.1,1-0.4c-0.2,0-0.4-0.1-0.6-0.3
		c-0.2-0.2-0.3-0.4-0.3-0.6s0.1-0.4,0.3-0.6c0.2-0.2,0.4-0.3,0.6-0.3s0.4,0.1,0.6,0.3c0.2,0.2,0.3,0.4,0.3,0.6
		c0,0.5-0.2,0.9-0.7,1.2c0.6,0,1.2-0.2,1.6-0.6s0.7-0.9,0.7-1.5H79z M75.8,150.6c0.1,0,0.2,0,0.3-0.1s0.1-0.2,0.1-0.3
		c0-0.1,0-0.2-0.1-0.3s-0.2-0.1-0.3-0.1c-0.1,0-0.2,0-0.3,0.1s-0.1,0.2-0.1,0.3c0,0.1,0,0.2,0.1,0.3S75.7,150.6,75.8,150.6z"/>
	<path d="M85.5,158.7c0,0.4-0.2,0.8-0.5,1.1c-0.3,0.3-0.7,0.4-1.1,0.4h-1.8c-0.4,0-0.8-0.1-1.1-0.4c-0.3-0.3-0.5-0.6-0.5-1.1v-2.6
		c0-0.3,0.1-0.6,0.4-0.8s0.5-0.4,0.8-0.4c0.3,0,0.6,0.1,0.8,0.4s0.4,0.5,0.4,0.8s-0.1,0.6-0.4,0.8s-0.5,0.4-0.8,0.4h-0.1v1.5
		c0,0.4,0.2,0.6,0.7,0.6h1.2c0.5,0,0.7-0.2,0.7-0.6v-3.5c0-0.5-0.2-0.9-0.6-1.3s-0.9-0.5-1.5-0.5c-0.4,0-0.9,0.1-1.3,0.3
		c-0.4,0.2-0.8,0.4-1,0.7l-0.6-0.5c0.3-0.4,0.7-0.7,1.3-1s1.1-0.4,1.6-0.4c0.9,0,1.6,0.2,2.2,0.7c0.6,0.5,0.9,1.1,0.9,1.8V158.7z
		 M81.8,156.7c0.2,0,0.3-0.1,0.4-0.2c0.1-0.1,0.2-0.3,0.2-0.4s-0.1-0.3-0.2-0.4c-0.1-0.1-0.3-0.2-0.4-0.2c-0.2,0-0.3,0.1-0.4,0.2
		c-0.1,0.1-0.2,0.3-0.2,0.4s0.1,0.3,0.2,0.4C81.5,156.7,81.6,156.7,81.8,156.7z"/>
	<path d="M93.4,160.2h-1.1v-4.5c0-1.1-0.2-1.7-0.7-2l-1.5,0.8l-1.5-0.8c-0.6,0.4-0.9,1.1-0.9,1.9c0,0.5,0.2,1.1,0.5,1.6
		c0.4,0.7,0.7,1.2,0.8,1.5c0.1-0.2,0.3-0.4,0.6-0.7s0.4-0.5,0.5-0.6h0c-0.3,0-0.6-0.1-0.9-0.4s-0.4-0.5-0.4-0.8s0.1-0.6,0.4-0.8
		s0.5-0.4,0.9-0.4c0.3,0,0.6,0.1,0.8,0.4s0.4,0.5,0.4,0.8c0,0.3-0.1,0.6-0.2,0.9c-0.1,0.3-0.4,0.7-0.9,1.2s-0.7,0.9-0.7,1.2v0.6
		h-1.1v-0.6c0-0.5-0.2-1.1-0.6-1.9s-0.6-1.5-0.6-2.1c0-1.2,0.6-2.1,1.7-2.8l1.5,0.8l1.5-0.8c1.3,0.5,1.9,1.4,1.9,2.9V160.2z
		 M90,156.8c0.2,0,0.3-0.1,0.4-0.2c0.1-0.1,0.2-0.3,0.2-0.4c0-0.2-0.1-0.3-0.2-0.4s-0.3-0.2-0.4-0.2c-0.2,0-0.3,0.1-0.4,0.2
		s-0.2,0.3-0.2,0.4c0,0.2,0.1,0.3,0.2,0.4C89.7,156.7,89.8,156.8,90,156.8z"/>
	<path d="M100.7,158.7c0,0.4-0.2,0.8-0.5,1.1c-0.3,0.3-0.7,0.4-1.1,0.4h-1.8c-0.4,0-0.8-0.1-1.1-0.4c-0.3-0.3-0.5-0.6-0.5-1.1v-2.6
		c0-0.3,0.1-0.6,0.4-0.8s0.5-0.4,0.8-0.4c0.3,0,0.6,0.1,0.8,0.4s0.4,0.5,0.4,0.8s-0.1,0.6-0.4,0.8s-0.5,0.4-0.8,0.4h-0.1v1.5
		c0,0.4,0.2,0.6,0.7,0.6h1.2c0.5,0,0.7-0.2,0.7-0.6v-3.5c0-0.5-0.2-0.9-0.6-1.3c-0.4-0.3-0.9-0.5-1.5-0.5c-0.4,0-0.9,0.1-1.3,0.3
		c-0.4,0.2-0.8,0.4-1,0.7l-0.6-0.5c0.3-0.4,0.7-0.7,1.3-1s1.1-0.4,1.6-0.4c0.9,0,1.6,0.2,2.2,0.7c0.6,0.5,0.9,1.1,0.9,1.8V158.7z
		 M97,156.7c0.2,0,0.3-0.1,0.4-0.2c0.1-0.1,0.2-0.3,0.2-0.4s-0.1-0.3-0.2-0.4c-0.1-0.1-0.3-0.2-0.4-0.2c-0.2,0-0.3,0.1-0.4,0.2
		c-0.1,0.1-0.2,0.3-0.2,0.4s0.1,0.3,0.2,0.4C96.7,156.7,96.8,156.7,97,156.7z"/>
	<path d="M108.6,157.3c0.8,0.3,1.2,0.8,1.2,1.6c0,0.4-0.1,0.7-0.3,1c-0.2,0.2-0.5,0.4-0.8,0.4c-0.4,0-0.7-0.1-0.9-0.3
		s-0.3-0.6-0.3-1.1V158c-1.1,0.2-2.2,1-3,2.2h-1.1v-5h-0.1c-0.3,0-0.6-0.1-0.8-0.4c-0.2-0.2-0.4-0.5-0.4-0.8s0.1-0.6,0.4-0.8
		c0.2-0.2,0.5-0.4,0.8-0.4s0.6,0.1,0.8,0.4c0.2,0.2,0.4,0.5,0.4,0.8v5.2c0.8-1,1.8-1.6,3-1.9V153h1.1V157.3z M103.2,154.6
		c0.2,0,0.3-0.1,0.4-0.2s0.2-0.3,0.2-0.4c0-0.2-0.1-0.3-0.2-0.4c-0.1-0.1-0.3-0.2-0.4-0.2c-0.2,0-0.3,0.1-0.4,0.2
		c-0.1,0.1-0.2,0.3-0.2,0.4c0,0.2,0.1,0.3,0.2,0.4S103.1,154.6,103.2,154.6z M109.2,158.9c0-0.2-0.1-0.4-0.2-0.6
		c-0.1-0.2-0.3-0.3-0.5-0.4v1.2c0,0.2,0,0.3,0,0.4c0,0.1,0.1,0.1,0.2,0.1C109.1,159.6,109.2,159.4,109.2,158.9z"/>
	<path d="M117.3,157.3c0.8,0.3,1.2,0.8,1.2,1.6c0,0.4-0.1,0.7-0.3,1c-0.2,0.2-0.5,0.4-0.8,0.4c-0.4,0-0.7-0.1-0.9-0.3
		s-0.3-0.6-0.3-1.1V158c-1.1,0.2-2.2,1-3,2.2H112v-5h-0.1c-0.3,0-0.6-0.1-0.8-0.4c-0.2-0.2-0.4-0.5-0.4-0.8s0.1-0.6,0.4-0.8
		c0.2-0.2,0.5-0.4,0.8-0.4s0.6,0.1,0.8,0.4c0.2,0.2,0.4,0.5,0.4,0.8v5.2c0.8-1,1.8-1.6,3-1.9V153h1.1V157.3z M111.9,154.6
		c0.2,0,0.3-0.1,0.4-0.2s0.2-0.3,0.2-0.4c0-0.2-0.1-0.3-0.2-0.4c-0.1-0.1-0.3-0.2-0.4-0.2c-0.2,0-0.3,0.1-0.4,0.2
		c-0.1,0.1-0.2,0.3-0.2,0.4c0,0.2,0.1,0.3,0.2,0.4S111.8,154.6,111.9,154.6z M117.9,158.9c0-0.2-0.1-0.4-0.2-0.6
		c-0.1-0.2-0.3-0.3-0.5-0.4v1.2c0,0.2,0,0.3,0,0.4c0,0.1,0.1,0.1,0.2,0.1C117.8,159.6,117.9,159.4,117.9,158.9z"/>
	<path d="M118.1,151.9h-5.5c0.4-1.4,1.3-2.2,2.7-2.2c0.9,0,1.6,0.3,2.2,1v-1.4h0.6V151.9z M117.2,151.4c-0.3-0.7-0.9-1.1-1.8-1.1
		c-0.9,0-1.5,0.4-1.8,1.1H117.2z"/>
	<path d="M118.9,149.3c0,0.8-0.3,1.4-0.9,1.9s-1.3,0.7-2.3,0.7c-0.3,0-0.6,0-0.9-0.1v-0.4c0.4,0,0.8-0.1,1-0.4
		c-0.2,0-0.4-0.1-0.6-0.3c-0.2-0.2-0.3-0.4-0.3-0.6s0.1-0.4,0.3-0.6c0.2-0.2,0.4-0.3,0.6-0.3c0.2,0,0.4,0.1,0.6,0.3
		c0.2,0.2,0.3,0.4,0.3,0.6c0,0.5-0.2,0.9-0.7,1.2c0.6,0,1.2-0.2,1.6-0.6c0.5-0.4,0.7-0.9,0.7-1.5H118.9z M115.7,150.6
		c0.1,0,0.2,0,0.3-0.1c0.1-0.1,0.1-0.2,0.1-0.3c0-0.1,0-0.2-0.1-0.3c-0.1-0.1-0.2-0.1-0.3-0.1c-0.1,0-0.2,0-0.3,0.1
		c-0.1,0.1-0.1,0.2-0.1,0.3c0,0.1,0,0.2,0.1,0.3C115.5,150.6,115.6,150.6,115.7,150.6z"/>
	<path d="M121,157.8L121,157.8c0.4,0,0.7,0.1,0.9,0.4s0.4,0.5,0.4,0.8s-0.1,0.6-0.4,0.8s-0.5,0.4-0.9,0.4c-0.3,0-0.6-0.1-0.8-0.4
		s-0.4-0.5-0.4-0.8V153h1.1V157.8z M121,159.6c0.2,0,0.3-0.1,0.4-0.2c0.1-0.1,0.2-0.3,0.2-0.4s-0.1-0.3-0.2-0.4
		c-0.1-0.1-0.3-0.2-0.4-0.2c-0.2,0-0.3,0.1-0.4,0.2c-0.1,0.1-0.2,0.3-0.2,0.4s0.1,0.3,0.2,0.4C120.7,159.6,120.8,159.6,121,159.6z
		 M124.9,157.8L124.9,157.8c0.4,0,0.7,0.1,0.9,0.4c0.2,0.2,0.4,0.5,0.4,0.8s-0.1,0.6-0.4,0.8c-0.2,0.2-0.5,0.4-0.8,0.4
		s-0.6-0.1-0.8-0.4c-0.2-0.2-0.4-0.5-0.4-0.8V153h1.1V157.8z M125,159.6c0.2,0,0.3-0.1,0.4-0.2c0.1-0.1,0.2-0.3,0.2-0.4
		s-0.1-0.3-0.2-0.4c-0.1-0.1-0.3-0.2-0.4-0.2c-0.2,0-0.3,0.1-0.4,0.2c-0.1,0.1-0.2,0.3-0.2,0.4s0.1,0.3,0.2,0.4
		C124.7,159.6,124.8,159.6,125,159.6z"/>
	<path d="M132.9,160.2h-1.1V160c-0.5-1.2-0.9-2.2-1.4-2.9c-0.4-0.7-0.8-1.1-1-1.1c-0.2,0-0.3,0.2-0.3,0.5v1.4h0.1
		c0.3,0,0.6,0.1,0.8,0.4c0.2,0.2,0.4,0.5,0.4,0.8s-0.1,0.6-0.4,0.8c-0.2,0.2-0.5,0.4-0.8,0.4s-0.6-0.1-0.8-0.4
		c-0.2-0.2-0.4-0.5-0.4-0.8v-2.6c0-0.9,0.4-1.4,1.1-1.4c0.8,0,1.7,1.1,2.6,3.3v-3.1c0-0.5-0.2-1-0.5-1.3s-0.8-0.4-1.3-0.4
		c-0.8,0-1.5,0.3-2,1l-0.6-0.5c0.7-0.9,1.5-1.3,2.6-1.3c0.8,0,1.5,0.2,2.1,0.7s0.8,1.1,0.8,1.8V160.2z M129.2,159.6
		c0.2,0,0.3-0.1,0.4-0.2c0.1-0.1,0.2-0.3,0.2-0.4s-0.1-0.3-0.2-0.4c-0.1-0.1-0.3-0.2-0.4-0.2c-0.2,0-0.3,0.1-0.4,0.2
		c-0.1,0.1-0.2,0.3-0.2,0.4s0.1,0.3,0.2,0.4C128.9,159.6,129,159.6,129.2,159.6z"/>
	<path d="M139.4,153c-0.1,0.8-0.5,1.5-1.1,2c-0.6,0.5-1.4,0.7-2.3,0.7c-0.6,0-1-0.1-1.4-0.4c-0.3-0.3-0.5-0.6-0.5-1
		c0-0.3,0.1-0.6,0.4-0.8c0.2-0.2,0.5-0.4,0.8-0.4s0.6,0.1,0.8,0.4c0.2,0.2,0.4,0.5,0.4,0.8c0,0.3-0.1,0.6-0.3,0.8
		c0.6,0,1.1-0.2,1.5-0.5c0.4-0.4,0.7-0.8,0.7-1.5H139.4z M139.4,157.5c-0.1,0.8-0.5,1.5-1.1,1.9c-0.6,0.5-1.4,0.7-2.3,0.7
		c-0.6,0-1-0.1-1.4-0.4c-0.3-0.3-0.5-0.6-0.5-1c0-0.3,0.1-0.6,0.4-0.8c0.2-0.2,0.5-0.4,0.8-0.4s0.6,0.1,0.8,0.4
		c0.2,0.2,0.4,0.5,0.4,0.8c0,0.3-0.1,0.6-0.3,0.8c0.6,0,1.1-0.2,1.5-0.5c0.4-0.4,0.7-0.8,0.7-1.5H139.4z M135.3,154.8
		c0.2,0,0.3-0.1,0.4-0.2s0.2-0.3,0.2-0.4c0-0.2-0.1-0.3-0.2-0.4s-0.3-0.2-0.4-0.2c-0.2,0-0.3,0.1-0.4,0.2s-0.2,0.3-0.2,0.4
		c0,0.2,0.1,0.3,0.2,0.4S135.2,154.8,135.3,154.8z M135.3,159.3c0.2,0,0.3-0.1,0.4-0.2c0.1-0.1,0.2-0.3,0.2-0.4s-0.1-0.3-0.2-0.4
		c-0.1-0.1-0.3-0.2-0.4-0.2c-0.2,0-0.3,0.1-0.4,0.2c-0.1,0.1-0.2,0.3-0.2,0.4s0.1,0.3,0.2,0.4C135,159.3,135.2,159.3,135.3,159.3z"
		/>
	<path d="M142,157.8L142,157.8c0.4,0,0.7,0.1,0.9,0.4s0.4,0.5,0.4,0.8s-0.1,0.6-0.4,0.8s-0.5,0.4-0.9,0.4c-0.3,0-0.6-0.1-0.8-0.4
		s-0.4-0.5-0.4-0.8V153h1.1V157.8z M142.1,159.6c0.2,0,0.3-0.1,0.4-0.2c0.1-0.1,0.2-0.3,0.2-0.4s-0.1-0.3-0.2-0.4
		c-0.1-0.1-0.3-0.2-0.4-0.2c-0.2,0-0.3,0.1-0.4,0.2c-0.1,0.1-0.2,0.3-0.2,0.4s0.1,0.3,0.2,0.4C141.8,159.6,141.9,159.6,142.1,159.6z
		"/>
	<path d="M152.3,160.2h-1.1c0-0.5-0.3-1.3-1-2.5c-0.7-1.1-1-2.1-1.1-2.8c-0.1,0.7-0.5,1.7-1.1,2.8c-0.7,1.1-1,2-1,2.5h-1.1v-5h-0.1
		c-0.3,0-0.6-0.1-0.8-0.4c-0.2-0.2-0.4-0.5-0.4-0.8s0.1-0.6,0.4-0.8c0.2-0.2,0.5-0.4,0.8-0.4s0.6,0.1,0.8,0.4
		c0.2,0.2,0.4,0.5,0.4,0.8v4c0.1-0.3,0.4-0.7,0.7-1.3c0.7-1.2,1-2.4,1-3.7h0.8c0,1.3,0.3,2.6,1,3.7c0.4,0.6,0.6,1,0.7,1.3v-5h1.1
		V160.2z M145.7,154.6c0.2,0,0.3-0.1,0.4-0.2s0.2-0.3,0.2-0.4c0-0.2-0.1-0.3-0.2-0.4c-0.1-0.1-0.3-0.2-0.4-0.2
		c-0.2,0-0.3,0.1-0.4,0.2c-0.1,0.1-0.2,0.3-0.2,0.4c0,0.2,0.1,0.3,0.2,0.4S145.5,154.6,145.7,154.6z"/>
	<path d="M159.1,160.2h-1.1V160c-0.5-1.2-0.9-2.2-1.4-2.9c-0.4-0.7-0.8-1.1-1-1.1c-0.2,0-0.3,0.2-0.3,0.5v1.4h0.1
		c0.3,0,0.6,0.1,0.8,0.4c0.2,0.2,0.4,0.5,0.4,0.8s-0.1,0.6-0.4,0.8c-0.2,0.2-0.5,0.4-0.8,0.4s-0.6-0.1-0.8-0.4
		c-0.2-0.2-0.4-0.5-0.4-0.8v-2.6c0-0.9,0.4-1.4,1.1-1.4c0.8,0,1.7,1.1,2.6,3.3v-3.1c0-0.5-0.2-1-0.5-1.3s-0.8-0.4-1.3-0.4
		c-0.8,0-1.5,0.3-2,1l-0.6-0.5c0.7-0.9,1.5-1.3,2.6-1.3c0.8,0,1.5,0.2,2.1,0.7s0.8,1.1,0.8,1.8V160.2z M155.4,159.6
		c0.2,0,0.3-0.1,0.4-0.2c0.1-0.1,0.2-0.3,0.2-0.4s-0.1-0.3-0.2-0.4c-0.1-0.1-0.3-0.2-0.4-0.2c-0.2,0-0.3,0.1-0.4,0.2
		c-0.1,0.1-0.2,0.3-0.2,0.4s0.1,0.3,0.2,0.4C155.1,159.6,155.2,159.6,155.4,159.6z"/>
	<path d="M159,151.9h-5.5c0.4-1.4,1.3-2.2,2.7-2.2C157.7,149.8,158.6,150.5,159,151.9z M158.1,151.4c-0.3-0.7-0.9-1.1-1.8-1.1
		c-0.9,0-1.5,0.4-1.8,1.1H158.1z"/>
	<path d="M59.8,177h-1.1v-4.7c0-0.6-0.2-1-0.6-1.4c-0.4-0.3-0.9-0.5-1.6-0.5c-0.7,0-1.3,0.2-1.7,0.6c-0.4,0.4-0.6,0.9-0.6,1.4
		c0,0.6,0.2,1.1,0.6,1.8s0.6,1.1,0.8,1.3c0.1-0.2,0.3-0.4,0.6-0.7s0.4-0.5,0.5-0.6h0c-0.3,0-0.6-0.1-0.9-0.4s-0.4-0.5-0.4-0.8
		s0.1-0.6,0.4-0.8s0.5-0.4,0.9-0.4c0.3,0,0.6,0.1,0.8,0.4s0.4,0.5,0.4,0.8c0,0.3-0.1,0.6-0.2,0.9c-0.1,0.3-0.4,0.7-0.9,1.2
		s-0.7,0.9-0.7,1.2v0.6h-1.1v-0.6c0-0.5-0.2-1.1-0.6-1.9s-0.6-1.5-0.6-2.1c0-0.8,0.3-1.4,0.9-2s1.3-0.8,2.3-0.8c1,0,1.8,0.2,2.4,0.7
		c0.6,0.5,0.9,1.1,0.9,1.9V177z M56.3,173.6c0.2,0,0.3-0.1,0.4-0.2c0.1-0.1,0.2-0.3,0.2-0.4c0-0.2-0.1-0.3-0.2-0.4s-0.3-0.2-0.4-0.2
		c-0.2,0-0.3,0.1-0.4,0.2s-0.2,0.3-0.2,0.4c0,0.2,0.1,0.3,0.2,0.4C56,173.5,56.2,173.6,56.3,173.6z"/>
	<path d="M62.6,174.6L62.6,174.6c0.4,0,0.7,0.1,0.9,0.4s0.4,0.5,0.4,0.8s-0.1,0.6-0.4,0.8S63,177,62.7,177c-0.3,0-0.6-0.1-0.8-0.4
		s-0.4-0.5-0.4-0.8v-6.1h1.1V174.6z M62.7,176.4c0.2,0,0.3-0.1,0.4-0.2c0.1-0.1,0.2-0.3,0.2-0.4s-0.1-0.3-0.2-0.4
		c-0.1-0.1-0.3-0.2-0.4-0.2c-0.2,0-0.3,0.1-0.4,0.2c-0.1,0.1-0.2,0.3-0.2,0.4s0.1,0.3,0.2,0.4C62.4,176.4,62.5,176.4,62.7,176.4z"/>
	<path d="M72.9,177h-1.1c0-0.5-0.3-1.3-1-2.5c-0.7-1.1-1-2.1-1.1-2.8c-0.1,0.7-0.5,1.7-1.1,2.8c-0.7,1.1-1,2-1,2.5h-1.1v-5h-0.1
		c-0.3,0-0.6-0.1-0.8-0.4s-0.4-0.5-0.4-0.8s0.1-0.6,0.4-0.8s0.5-0.4,0.8-0.4s0.6,0.1,0.8,0.4s0.4,0.5,0.4,0.8v4
		c0.1-0.3,0.4-0.7,0.7-1.3c0.7-1.2,1-2.4,1-3.7H70c0,1.3,0.3,2.6,1,3.7c0.4,0.6,0.6,1,0.7,1.3v-5h1.1V177z M66.3,171.4
		c0.2,0,0.3-0.1,0.4-0.2s0.2-0.3,0.2-0.4c0-0.2-0.1-0.3-0.2-0.4c-0.1-0.1-0.3-0.2-0.4-0.2s-0.3,0.1-0.4,0.2
		c-0.1,0.1-0.2,0.3-0.2,0.4c0,0.2,0.1,0.3,0.2,0.4S66.1,171.4,66.3,171.4z"/>
	<path d="M79.7,177h-1.1v-0.2c-0.5-1.2-0.9-2.2-1.4-2.9c-0.4-0.7-0.8-1.1-1-1.1c-0.2,0-0.3,0.2-0.3,0.5v1.4H76
		c0.3,0,0.6,0.1,0.8,0.4s0.4,0.5,0.4,0.8s-0.1,0.6-0.4,0.8S76.3,177,76,177s-0.6-0.1-0.8-0.4s-0.4-0.5-0.4-0.8v-2.6
		c0-0.9,0.4-1.4,1.1-1.4c0.8,0,1.7,1.1,2.6,3.3v-3.1c0-0.5-0.2-1-0.5-1.3s-0.8-0.4-1.3-0.4c-0.8,0-1.5,0.3-2,1l-0.6-0.5
		c0.7-0.9,1.5-1.3,2.6-1.3c0.8,0,1.5,0.2,2.1,0.7s0.8,1.1,0.8,1.8V177z M76,176.4c0.2,0,0.3-0.1,0.4-0.2c0.1-0.1,0.2-0.3,0.2-0.4
		s-0.1-0.3-0.2-0.4c-0.1-0.1-0.3-0.2-0.4-0.2s-0.3,0.1-0.4,0.2c-0.1,0.1-0.2,0.3-0.2,0.4s0.1,0.3,0.2,0.4
		C75.7,176.4,75.8,176.4,76,176.4z"/>
	<path d="M79.7,168.7h-5.5c0.4-1.4,1.3-2.2,2.7-2.2S79.3,167.3,79.7,168.7z M78.7,168.2c-0.3-0.7-0.9-1.1-1.8-1.1s-1.5,0.4-1.8,1.1
		H78.7z"/>
	<path d="M87.5,174.1c0.8,0.3,1.2,0.8,1.2,1.6c0,0.4-0.1,0.7-0.3,1s-0.5,0.4-0.8,0.4c-0.4,0-0.7-0.1-0.9-0.3s-0.3-0.6-0.3-1.1v-0.9
		c-1.1,0.2-2.2,1-3,2.2h-1.1v-5h-0.1c-0.3,0-0.6-0.1-0.8-0.4s-0.4-0.5-0.4-0.8s0.1-0.6,0.4-0.8s0.5-0.4,0.8-0.4s0.6,0.1,0.8,0.4
		s0.4,0.5,0.4,0.8v5.2c0.8-1,1.8-1.6,3-1.9v-4.4h1.1V174.1z M82.2,171.4c0.2,0,0.3-0.1,0.4-0.2s0.2-0.3,0.2-0.4
		c0-0.2-0.1-0.3-0.2-0.4c-0.1-0.1-0.3-0.2-0.4-0.2s-0.3,0.1-0.4,0.2c-0.1,0.1-0.2,0.3-0.2,0.4c0,0.2,0.1,0.3,0.2,0.4
		S82,171.4,82.2,171.4z M88.2,175.7c0-0.2-0.1-0.4-0.2-0.6c-0.1-0.2-0.3-0.3-0.5-0.4v1.2c0,0.2,0,0.3,0,0.4c0,0.1,0.1,0.1,0.2,0.1
		C88,176.4,88.2,176.2,88.2,175.7z"/>
	<path d="M94,174.6L94,174.6c0.4,0,0.7,0.1,0.9,0.4s0.4,0.5,0.4,0.8s-0.1,0.6-0.4,0.8S94.4,177,94,177s-0.6-0.1-0.8-0.4
		s-0.4-0.5-0.4-0.8v-10.4c-0.5,0.9-1,1.3-1.5,1.3c-0.8,0-1.6-0.9-2.2-2.7h0.8c0.5,1.3,1,1.9,1.4,1.9c0.4,0,0.9-0.6,1.6-1.9H94V174.6
		z M94,176.4c0.2,0,0.3-0.1,0.4-0.2c0.1-0.1,0.2-0.3,0.2-0.4s-0.1-0.3-0.2-0.4c-0.1-0.1-0.3-0.2-0.4-0.2s-0.3,0.1-0.4,0.2
		c-0.1,0.1-0.2,0.3-0.2,0.4s0.1,0.3,0.2,0.4C93.7,176.4,93.9,176.4,94,176.4z"/>
	<path d="M103.3,175.5c0,0.4-0.2,0.8-0.5,1.1c-0.3,0.3-0.7,0.4-1.1,0.4H97v-0.8h0.7V172h-0.1c-0.3,0-0.6-0.1-0.8-0.4
		c-0.2-0.2-0.4-0.5-0.4-0.8s0.1-0.6,0.4-0.8c0.2-0.2,0.5-0.4,0.8-0.4s0.6,0.1,0.8,0.4c0.2,0.2,0.4,0.5,0.4,0.8v5.4h2.6
		c0.5,0,0.7-0.2,0.7-0.6v-9.6h1.1V175.5z M97.6,171.4c0.2,0,0.3-0.1,0.4-0.2s0.2-0.3,0.2-0.4c0-0.2-0.1-0.3-0.2-0.4
		c-0.1-0.1-0.3-0.2-0.4-0.2c-0.2,0-0.3,0.1-0.4,0.2c-0.1,0.1-0.2,0.3-0.2,0.4c0,0.2,0.1,0.3,0.2,0.4S97.5,171.4,97.6,171.4z"/>
	<path d="M110.9,177h-1.1v-4.7c0-0.6-0.2-1-0.6-1.4s-0.9-0.5-1.5-0.5c-0.9,0-1.5,0.3-1.9,0.9c0.3,0.4,0.8,0.7,1.6,0.8v0.4
		c-0.3,0-0.5,0.1-0.7,0.3c-0.2,0.2-0.3,0.4-0.3,0.7v3.6h-1.1v-3.6c0-0.5,0.2-0.9,0.6-1.1c-0.6-0.2-1-0.5-1.2-1
		c0.6-1.1,1.6-1.7,3.1-1.7c0.9,0,1.7,0.2,2.3,0.7c0.6,0.5,0.9,1.1,0.9,1.9V177z"/>
	<path d="M111.7,166.1c-0.1,0.8-0.5,1.5-1.1,1.9c-0.6,0.4-1.4,0.7-2.3,0.7c-0.6,0-1-0.1-1.4-0.4c-0.3-0.3-0.5-0.6-0.5-1
		c0-0.3,0.1-0.6,0.4-0.8c0.2-0.2,0.5-0.4,0.8-0.4s0.6,0.1,0.8,0.4c0.2,0.2,0.4,0.5,0.4,0.8c0,0.3-0.1,0.5-0.3,0.8
		c0.6,0,1.1-0.2,1.5-0.5c0.4-0.4,0.7-0.8,0.7-1.4H111.7z M107.6,167.9c0.2,0,0.3-0.1,0.4-0.2c0.1-0.1,0.2-0.3,0.2-0.4
		s-0.1-0.3-0.2-0.4c-0.1-0.1-0.3-0.2-0.4-0.2c-0.2,0-0.3,0.1-0.4,0.2c-0.1,0.1-0.2,0.3-0.2,0.4s0.1,0.3,0.2,0.4
		C107.3,167.9,107.5,167.9,107.6,167.9z"/>
	<path d="M119.1,175.5c0,0.4-0.2,0.8-0.5,1.1c-0.3,0.3-0.7,0.4-1.1,0.4h-4.7v-0.8h0.7V172h-0.1c-0.3,0-0.6-0.1-0.8-0.4
		c-0.2-0.2-0.4-0.5-0.4-0.8s0.1-0.6,0.4-0.8c0.2-0.2,0.5-0.4,0.8-0.4s0.6,0.1,0.8,0.4c0.2,0.2,0.4,0.5,0.4,0.8v5.4h2.6
		c0.5,0,0.7-0.2,0.7-0.6v-5.8h1.1V175.5z M113.4,171.4c0.2,0,0.3-0.1,0.4-0.2s0.2-0.3,0.2-0.4c0-0.2-0.1-0.3-0.2-0.4
		c-0.1-0.1-0.3-0.2-0.4-0.2c-0.2,0-0.3,0.1-0.4,0.2c-0.1,0.1-0.2,0.3-0.2,0.4c0,0.2,0.1,0.3,0.2,0.4S113.3,171.4,113.4,171.4z"/>
	<path d="M127,175.5c0,0.4-0.2,0.8-0.5,1.1c-0.3,0.3-0.7,0.4-1.1,0.4h-3.2v-0.8h0.7v-3.1c0-0.3,0.1-0.5,0.4-0.8
		c0.2-0.3,0.4-0.6,0.4-0.9c0-0.3-0.1-0.6-0.4-0.9c-0.3-0.2-0.6-0.3-0.9-0.3c-0.2,0-0.4,0-0.6,0.1c0.6,0.2,0.9,0.6,0.9,1.2
		c0,0.3-0.1,0.6-0.4,0.8c-0.2,0.2-0.5,0.4-0.8,0.4s-0.6-0.1-0.8-0.4c-0.2-0.2-0.4-0.5-0.4-0.8c0-0.5,0.2-0.9,0.6-1.3
		c0.4-0.4,0.9-0.6,1.5-0.6c0.7,0,1.3,0.2,1.7,0.5c0.4,0.3,0.6,0.8,0.6,1.3c0,0.3-0.1,0.7-0.3,1c-0.2,0.3-0.3,0.5-0.3,0.7v3.1h1.1
		c0.5,0,0.7-0.2,0.7-0.6v-3.7c0-0.6-0.3-0.9-0.8-0.9v-0.4c0.8-0.1,1.2-0.7,1.3-1.5h1.2c-0.1,0.8-0.5,1.3-1.2,1.6
		c0.4,0.2,0.7,0.6,0.7,1.2V175.5z M121.4,172.1c0.2,0,0.3-0.1,0.4-0.2c0.1-0.1,0.2-0.3,0.2-0.4s-0.1-0.3-0.2-0.4
		c-0.1-0.1-0.3-0.2-0.4-0.2c-0.2,0-0.3,0.1-0.4,0.2c-0.1,0.1-0.2,0.3-0.2,0.4s0.1,0.3,0.2,0.4C121.1,172,121.2,172.1,121.4,172.1z"
		/>
	<path d="M127,168.7h-5.5c0.4-1.4,1.3-2.2,2.7-2.2c0.9,0,1.6,0.3,2.2,1v-1.4h0.6V168.7z M126.1,168.2c-0.3-0.7-0.9-1.1-1.8-1.1
		c-0.9,0-1.5,0.4-1.8,1.1H126.1z"/>
	<path d="M133.8,175.8c0,0.3-0.1,0.6-0.4,0.8s-0.5,0.4-0.8,0.4c-0.3,0-0.6-0.1-0.9-0.4s-0.4-0.5-0.4-0.8s0.1-0.6,0.4-0.8
		s0.5-0.4,0.9-0.4h0.1v-2.5c0-0.5-0.2-1-0.5-1.3s-0.8-0.4-1.3-0.4c-0.8,0-1.5,0.3-2,1l-0.6-0.5c0.7-0.9,1.5-1.3,2.6-1.3
		c0.8,0,1.5,0.2,2.1,0.7s0.8,1.1,0.8,1.8V175.8z M132.6,176.4c0.2,0,0.3-0.1,0.4-0.2c0.1-0.1,0.2-0.3,0.2-0.4s-0.1-0.3-0.2-0.4
		c-0.1-0.1-0.3-0.2-0.4-0.2c-0.2,0-0.3,0.1-0.4,0.2c-0.1,0.1-0.2,0.3-0.2,0.4s0.1,0.3,0.2,0.4C132.2,176.4,132.4,176.4,132.6,176.4z
		"/>
	<path d="M133.8,168.7h-5.5c0.4-1.4,1.3-2.2,2.7-2.2C132.4,166.6,133.3,167.3,133.8,168.7z M132.8,168.2c-0.3-0.7-0.9-1.1-1.8-1.1
		c-0.9,0-1.5,0.4-1.8,1.1H132.8z"/>
	<path d="M141.6,177h-1.1v-4.5c0-1.1-0.2-1.7-0.7-2l-1.5,0.8l-1.5-0.8c-0.6,0.4-0.9,1.1-0.9,1.9c0,0.5,0.2,1.1,0.5,1.6
		c0.4,0.7,0.7,1.2,0.8,1.5c0.1-0.2,0.3-0.4,0.6-0.7s0.4-0.5,0.5-0.6h0c-0.3,0-0.6-0.1-0.9-0.4s-0.4-0.5-0.4-0.8s0.1-0.6,0.4-0.8
		s0.5-0.4,0.9-0.4c0.3,0,0.6,0.1,0.8,0.4s0.4,0.5,0.4,0.8c0,0.3-0.1,0.6-0.2,0.9c-0.1,0.3-0.4,0.7-0.9,1.2c-0.5,0.5-0.7,0.9-0.7,1.2
		v0.6h-1.1v-0.6c0-0.5-0.2-1.1-0.6-1.9c-0.4-0.8-0.6-1.5-0.6-2.1c0-1.2,0.6-2.1,1.7-2.8l1.5,0.8l1.5-0.8c1.3,0.5,1.9,1.4,1.9,2.9
		V177z M138.2,173.6c0.2,0,0.3-0.1,0.4-0.2c0.1-0.1,0.2-0.3,0.2-0.4c0-0.2-0.1-0.3-0.2-0.4c-0.1-0.1-0.3-0.2-0.4-0.2
		c-0.2,0-0.3,0.1-0.4,0.2s-0.2,0.3-0.2,0.4c0,0.2,0.1,0.3,0.2,0.4C137.9,173.5,138,173.6,138.2,173.6z"/>
	<path d="M70.2,191.4L70.2,191.4c0.4,0,0.7,0.1,0.9,0.4s0.4,0.5,0.4,0.8s-0.1,0.6-0.4,0.8s-0.5,0.4-0.8,0.4s-0.6-0.1-0.8-0.4
		S69,193,69,192.6V183c0-1-0.4-1.5-1.3-1.5c-0.4,0-0.7,0.1-0.9,0.4c0,0,0.1,0,0.2,0c0.3,0,0.6,0.1,0.8,0.4c0.2,0.2,0.4,0.5,0.4,0.8
		c0,0.3-0.1,0.6-0.4,0.9c-0.2,0.2-0.5,0.4-0.8,0.4c-0.4,0-0.6-0.1-0.9-0.4c-0.2-0.3-0.4-0.6-0.4-1.1c0-0.4,0.2-0.9,0.6-1.3
		s0.9-0.6,1.6-0.6c0.7,0,1.2,0.2,1.6,0.6c0.4,0.4,0.6,0.9,0.6,1.5V191.4z M67.1,183.7c0.2,0,0.3-0.1,0.4-0.2
		c0.1-0.1,0.2-0.3,0.2-0.4c0-0.2-0.1-0.3-0.2-0.4s-0.3-0.2-0.4-0.2s-0.3,0.1-0.4,0.2s-0.2,0.3-0.2,0.4c0,0.2,0.1,0.3,0.2,0.4
		C66.7,183.7,66.9,183.7,67.1,183.7z M70.2,193.2c0.2,0,0.3-0.1,0.4-0.2c0.1-0.1,0.2-0.3,0.2-0.4s-0.1-0.3-0.2-0.4
		c-0.1-0.1-0.3-0.2-0.4-0.2s-0.3,0.1-0.4,0.2c-0.1,0.1-0.2,0.3-0.2,0.4s0.1,0.3,0.2,0.4C69.9,193.2,70.1,193.2,70.2,193.2z"/>
	<path d="M79.8,193.8h-1.1v-4c0-0.3,0-0.6-0.1-0.6c-1.3,1-2.2,1.9-2.7,2.6c-0.5,0.7-0.8,1.4-0.8,2.1h-1.1v-5h-0.1
		c-0.3,0-0.6-0.1-0.8-0.4s-0.4-0.5-0.4-0.8s0.1-0.6,0.4-0.8s0.5-0.4,0.8-0.4s0.6,0.1,0.8,0.4s0.4,0.5,0.4,0.8v4.2
		c0.3-0.8,1.4-1.8,3.1-3.1c-0.5-0.3-0.8-0.7-0.8-1.1c0-0.3,0.1-0.6,0.4-0.8s0.5-0.4,0.8-0.4s0.6,0.1,0.8,0.4s0.4,0.5,0.4,0.8
		c0,0.4-0.2,0.8-0.5,1.1c0.4,0.2,0.6,0.6,0.6,1.1V193.8z M73.8,188.2c0.2,0,0.3-0.1,0.4-0.2s0.2-0.3,0.2-0.4c0-0.2-0.1-0.3-0.2-0.4
		c-0.1-0.1-0.3-0.2-0.4-0.2s-0.3,0.1-0.4,0.2c-0.1,0.1-0.2,0.3-0.2,0.4c0,0.2,0.1,0.3,0.2,0.4S73.6,188.2,73.8,188.2z M78.6,188.3
		c0.3-0.2,0.5-0.5,0.5-0.8c0-0.2-0.1-0.3-0.2-0.4c-0.1-0.1-0.3-0.2-0.4-0.2s-0.3,0.1-0.4,0.2c-0.1,0.1-0.2,0.3-0.2,0.4
		C77.9,187.9,78.1,188.1,78.6,188.3z"/>
	<path d="M88,193.8h-1.1c-0.8-1.5-1.9-2.4-3.3-2.5v1.2c0,0.9-0.5,1.4-1.4,1.4c-0.4,0-0.7-0.1-0.9-0.4s-0.4-0.6-0.4-1
		c0-0.4,0.1-0.8,0.4-1.2c0.3-0.3,0.6-0.6,1.1-0.7v-1.9h-0.1c-0.3,0-0.6-0.1-0.8-0.4s-0.4-0.5-0.4-0.8s0.1-0.6,0.4-0.8
		s0.5-0.4,0.8-0.4s0.6,0.1,0.8,0.4s0.4,0.5,0.4,0.8v3.1c1.3,0.1,2.4,0.8,3.3,1.9v-6H88V193.8z M82.4,192.6v-1.3
		c-0.3,0.1-0.5,0.2-0.6,0.5s-0.2,0.5-0.2,0.8c0,0.2,0,0.4,0.1,0.5c0.1,0.1,0.2,0.2,0.4,0.2C82.2,193.2,82.4,193,82.4,192.6z
		 M82.3,188.2c0.2,0,0.3-0.1,0.4-0.2s0.2-0.3,0.2-0.4c0-0.2-0.1-0.3-0.2-0.4c-0.1-0.1-0.3-0.2-0.4-0.2s-0.3,0.1-0.4,0.2
		c-0.1,0.1-0.2,0.3-0.2,0.4c0,0.2,0.1,0.3,0.2,0.4S82.1,188.2,82.3,188.2z"/>
	<path d="M87.7,185.5h-0.6v-2.3h0.6V185.5z"/>
	<path d="M96,193.8h-1.1v-6.1c0-0.3-0.1-0.4-0.3-0.4c-0.1,0-0.2,0.1-0.3,0.2s-0.3,0.4-0.5,0.7s-0.4,0.8-0.6,1.3
		c-0.2,0.5-0.5,1.3-0.9,2.3c-0.4,1-0.6,1.6-0.6,1.8v0.2h-1.1v-5h-0.1c-0.3,0-0.6-0.1-0.8-0.4s-0.4-0.5-0.4-0.8s0.1-0.6,0.4-0.8
		s0.5-0.4,0.8-0.4s0.6,0.1,0.8,0.4s0.4,0.5,0.4,0.8v3.6c0.5-1.4,1-2.5,1.6-3.4c0.5-0.9,1.1-1.4,1.7-1.4c0.7,0,1.1,0.5,1.1,1.4V193.8
		z M90.5,188.2c0.2,0,0.3-0.1,0.4-0.2s0.2-0.3,0.2-0.4c0-0.2-0.1-0.3-0.2-0.4c-0.1-0.1-0.3-0.2-0.4-0.2s-0.3,0.1-0.4,0.2
		c-0.1,0.1-0.2,0.3-0.2,0.4c0,0.2,0.1,0.3,0.2,0.4S90.3,188.2,90.5,188.2z"/>
	<path d="M96,185.5h-5.5c0.4-1.4,1.3-2.2,2.7-2.2c0.9,0,1.6,0.3,2.2,1v-1.4H96V185.5z M95.1,185c-0.3-0.7-0.9-1.1-1.8-1.1
		s-1.5,0.4-1.8,1.1H95.1z"/>
	<path d="M95.8,185.5h-0.6v-2.3h0.6V185.5z"/>
	<path d="M103.9,193.8h-1.1v-4.7c0-0.6-0.2-1-0.6-1.4c-0.4-0.3-0.9-0.5-1.6-0.5c-0.7,0-1.3,0.2-1.7,0.6c-0.4,0.4-0.6,0.9-0.6,1.4
		c0,0.6,0.2,1.1,0.6,1.8s0.6,1.1,0.8,1.3c0.1-0.2,0.3-0.4,0.6-0.7s0.4-0.5,0.5-0.6h0c-0.3,0-0.6-0.1-0.9-0.4s-0.4-0.5-0.4-0.8
		s0.1-0.6,0.4-0.8s0.5-0.4,0.9-0.4c0.3,0,0.6,0.1,0.8,0.4s0.4,0.5,0.4,0.8c0,0.3-0.1,0.6-0.2,0.9c-0.1,0.3-0.4,0.7-0.9,1.2
		c-0.5,0.5-0.7,0.9-0.7,1.2v0.6h-1.1v-0.6c0-0.5-0.2-1.1-0.6-1.9c-0.4-0.8-0.6-1.5-0.6-2.1c0-0.8,0.3-1.4,0.9-2
		c0.6-0.5,1.3-0.8,2.3-0.8c1,0,1.8,0.2,2.4,0.7c0.6,0.5,0.9,1.1,0.9,1.9V193.8z M100.5,190.4c0.2,0,0.3-0.1,0.4-0.2
		c0.1-0.1,0.2-0.3,0.2-0.4c0-0.2-0.1-0.3-0.2-0.4c-0.1-0.1-0.3-0.2-0.4-0.2c-0.2,0-0.3,0.1-0.4,0.2s-0.2,0.3-0.2,0.4
		c0,0.2,0.1,0.3,0.2,0.4C100.2,190.3,100.3,190.4,100.5,190.4z"/>
	<path d="M103.9,185.5h-5.5c0.4-1.4,1.3-2.2,2.7-2.2c0.9,0,1.6,0.3,2.2,1v-1.4h0.6V185.5z M103,185c-0.3-0.7-0.9-1.1-1.8-1.1
		c-0.9,0-1.5,0.4-1.8,1.1H103z"/>
	<path d="M111.6,193.8h-1.1v-4.7c0-0.6-0.2-1-0.6-1.4s-0.9-0.5-1.5-0.5c-0.9,0-1.5,0.3-1.9,0.9c0.3,0.4,0.8,0.7,1.6,0.8v0.4
		c-0.3,0-0.5,0.1-0.7,0.3c-0.2,0.2-0.3,0.4-0.3,0.7v3.6h-1.1v-3.6c0-0.5,0.2-0.9,0.6-1.1c-0.6-0.2-1-0.5-1.2-1
		c0.6-1.1,1.6-1.7,3.1-1.7c0.9,0,1.7,0.2,2.3,0.7c0.6,0.5,0.9,1.1,0.9,1.9V193.8z"/>
	<path d="M118.3,192.6c0,0.3-0.1,0.6-0.4,0.8s-0.5,0.4-0.8,0.4c-0.3,0-0.6-0.1-0.9-0.4s-0.4-0.5-0.4-0.8s0.1-0.6,0.4-0.8
		s0.5-0.4,0.9-0.4h0.1v-2.5c0-0.5-0.2-1-0.5-1.3s-0.8-0.4-1.3-0.4c-0.8,0-1.5,0.3-2,1l-0.6-0.5c0.7-0.9,1.5-1.3,2.6-1.3
		c0.8,0,1.5,0.2,2.1,0.7s0.8,1.1,0.8,1.8V192.6z M117.1,193.2c0.2,0,0.3-0.1,0.4-0.2c0.1-0.1,0.2-0.3,0.2-0.4s-0.1-0.3-0.2-0.4
		c-0.1-0.1-0.3-0.2-0.4-0.2c-0.2,0-0.3,0.1-0.4,0.2c-0.1,0.1-0.2,0.3-0.2,0.4s0.1,0.3,0.2,0.4C116.8,193.2,117,193.2,117.1,193.2z"
		/>
	<path d="M118,185.5h-0.6v-2.3h0.6V185.5z"/>
	<path d="M124.2,193.8h-1.1v-4.9c0-1.1-0.5-1.7-1.5-1.7c-0.7,0-1.2,0.3-1.7,1l-0.6-0.5c0.7-0.9,1.4-1.3,2.3-1.3
		c0.8,0,1.4,0.2,1.9,0.7c0.5,0.4,0.7,1.1,0.7,1.8V193.8z"/>
	<path d="M127.6,185.9l-0.3,5.4h-0.9l-0.3-5.4v-2.2h1.4V185.9z M127.6,193.8h-1.4v-1.4h1.4V193.8z"/>
</g>
</svg>
