<?xml version="1.0" encoding="utf-8"?>
<!-- Generator: Adobe Illustrator 25.1.0, SVG Export Plug-In . SVG Version: 6.00 Build 0)  -->
<svg version="1.1" id="Слой_1" xmlns="http://www.w3.org/2000/svg" xmlns:xlink="http://www.w3.org/1999/xlink" x="0px" y="0px"
	 viewBox="0 0 303.8 256.4" style="enable-background:new 0 0 303.8 256.4;" xml:space="preserve">
<style type="text/css">
	.st0{fill:#A7AEB0;}
	.st1{fill:#F4F5F5;}
	.st2{fill:url(#Ellipse_8562_1_);stroke:#A7AEB0;stroke-width:2;}
	.st3{enable-background:new    ;}
</style>
<g id="step-1" transform="translate(-367.679 -13957.586)">
	<ellipse id="Ellipse_7508" class="st0" cx="639.9" cy="14117.1" rx="9.2" ry="9.2"/>
	<path id="Path_13618" class="st0" d="M662,14080.2h-35.3c-2.3,0-4.3-1.7-4.5-4.1c0-0.1,0-0.2,0-0.3c-0.3-2.4,1.5-4.6,3.9-4.9
		c0.2,0,0.3,0,0.5,0l0,0c5,0,9.2-3.9,9.4-8.9c0.2-5.1-3.8-9.4-8.9-9.6c-0.1,0-0.2,0-0.3,0h-6.1c-2,0-3.7-1.3-4.3-3.1
		c-22.1-65.2-92.8-100.2-158-78.1c-65.2,22.1-100.2,92.8-78.1,158c22.1,65.2,92.8,100.2,158,78.1c46-15.6,78.8-56.4,84-104.7
		c0.2-2.3,2.2-4.1,4.5-4.1h35.5c5.1,0,9.2-4.1,9.2-9.2c0-0.1,0-0.2,0-0.3C671.2,14084,667.1,14080.1,662,14080.2z M573.5,14164.4
		c-41.4,41.4-108.6,41.4-150,0c-41.4-41.4-41.4-108.6,0-150s108.6-41.4,150,0c19.9,19.9,31.1,46.9,31.1,75
		C604.6,14117.6,593.4,14144.6,573.5,14164.4z"/>
	<g id="Group_3833" transform="translate(391.951 13982.938)">
		<path id="Path_13624" class="st1" d="M106.5,0C165.3,0,213,47.7,213,106.5S165.4,213,106.5,213S0,165.3,0,106.5
			c0-28.3,11.2-55.3,31.2-75.3C51.1,11.2,78.3-0.1,106.5,0z"/>
	</g>
	<g id="forms-icon" transform="translate(484.656 14028.843)">
		<path id="Path_317" class="st0" d="M27.3,8.9l-8.5-8.6C18.6,0.1,18.3,0,18.1,0H3.2C1.4,0,0,1.4,0,3.2v30.2c0,1.8,1.4,3.2,3.2,3.2
			h21.2c1.8,0,3.2-1.4,3.2-3.2V9.7C27.6,9.4,27.5,9.1,27.3,8.9z M19.1,3.7L24,8.6h-3.8c-0.6,0-1.1-0.5-1.1-1.1L19.1,3.7z M24.4,34.5
			H3.2c-0.6,0-1.1-0.5-1.1-1.1V3.2c0-0.6,0.5-1.1,1.1-1.1H17v5.4c0,1.8,1.4,3.2,3.2,3.2h5.3v22.7C25.5,34,25,34.5,24.4,34.5
			L24.4,34.5z"/>
		<path id="Path_318" class="st0" d="M20.2,17.3H9.6c-0.6,0-1.1,0.4-1.1,1s0.4,1.1,1,1.1c0,0,0,0,0.1,0h10.6c0.6,0,1.1-0.4,1.1-1
			S20.8,17.3,20.2,17.3C20.2,17.3,20.2,17.3,20.2,17.3z"/>
		<path id="Path_319" class="st0" d="M20.2,21.6H9.6c-0.6,0-1.1,0.4-1.1,1s0.4,1.1,1,1.1c0,0,0,0,0.1,0h10.6c0.6,0,1.1-0.4,1.1-1
			S20.8,21.6,20.2,21.6C20.2,21.6,20.2,21.6,20.2,21.6z"/>
		<path id="Path_320" class="st0" d="M20.2,25.9H9.6c-0.6,0-1.1,0.4-1.1,1s0.4,1.1,1,1.1c0,0,0,0,0.1,0h10.6c0.6,0,1.1-0.4,1.1-1
			S20.8,25.9,20.2,25.9C20.2,25.9,20.2,25.9,20.2,25.9z"/>
		<ellipse id="Ellipse_61" class="st0" cx="4.9" cy="18.2" rx="1" ry="0.5"/>
		<ellipse id="Ellipse_62" class="st0" cx="4.9" cy="22.8" rx="1" ry="1"/>
		<ellipse id="Ellipse_63" class="st0" cx="4.9" cy="26.8" rx="1" ry="1"/>
	</g>
	<g id="Group_3915" transform="translate(369.093 13959)">
		
			<image style="overflow:visible;enable-background:new    ;" width="435" height="434" id="Rectangle_638" xlink:href="4AB270C4.png"  transform="matrix(0.1746 0 0 0.1746 6.8632 8.112)">
		</image>
		
			<linearGradient id="Ellipse_8562_1_" gradientUnits="userSpaceOnUse" x1="-393.2188" y1="1073.8572" x2="-392.5107" y2="1073.1492" gradientTransform="matrix(44.8376 -44.8376 -44.8376 -44.8376 65793.3516 30563.0566)">
			<stop  offset="0" style="stop-color:#FFFFFF"/>
			<stop  offset="0.998" style="stop-color:#F5F6F7"/>
		</linearGradient>
		<circle id="Ellipse_8562" class="st2" cx="44.8" cy="44.8" r="31.7"/>
	</g>
	<path id="Path_14632" class="st0" d="M416.9,14016.1v-26.4h-4.1c-1.7,1.8-4,3.1-6.5,3.6v4.3c1.6-0.2,3.2-0.6,4.8-1.2v19.7H416.9z"
		/>
</g>
<g class="st3">
	<path d="M87.2,150.8L87.2,150.8c0.4,0,0.7,0.1,0.9,0.4s0.4,0.5,0.4,0.8s-0.1,0.6-0.4,0.8s-0.5,0.4-0.8,0.4s-0.6-0.1-0.8-0.4
		s-0.4-0.5-0.4-0.8v-10.4c-0.5,0.9-1,1.3-1.5,1.3c-0.8,0-1.6-0.9-2.2-2.7h0.8c0.5,1.3,1,1.9,1.4,1.9c0.4,0,0.9-0.6,1.6-1.9h1.1
		V150.8z M87.3,152.6c0.2,0,0.3-0.1,0.4-0.2c0.1-0.1,0.2-0.3,0.2-0.4s-0.1-0.3-0.2-0.4c-0.1-0.1-0.3-0.2-0.4-0.2s-0.3,0.1-0.4,0.2
		c-0.1,0.1-0.2,0.3-0.2,0.4s0.1,0.3,0.2,0.4C87,152.5,87.1,152.6,87.3,152.6z"/>
	<path d="M96.5,151.7c0,0.4-0.2,0.8-0.5,1.1c-0.3,0.3-0.7,0.4-1.1,0.4h-4.7v-0.8h0.7v-4.2h-0.1c-0.3,0-0.6-0.1-0.8-0.4
		s-0.4-0.5-0.4-0.8s0.1-0.6,0.4-0.8s0.5-0.4,0.8-0.4s0.6,0.1,0.8,0.4s0.4,0.5,0.4,0.8v5.4h2.6c0.5,0,0.7-0.2,0.7-0.6v-9.6h1.1V151.7
		z M90.9,147.5c0.2,0,0.3-0.1,0.4-0.2s0.2-0.3,0.2-0.4c0-0.2-0.1-0.3-0.2-0.4c-0.1-0.1-0.3-0.2-0.4-0.2s-0.3,0.1-0.4,0.2
		c-0.1,0.1-0.2,0.3-0.2,0.4c0,0.2,0.1,0.3,0.2,0.4S90.7,147.5,90.9,147.5z"/>
	<path d="M104.6,153.2h-1.1v-6.1c0-0.3-0.1-0.4-0.3-0.4c-0.1,0-0.2,0.1-0.3,0.2s-0.3,0.4-0.5,0.7s-0.4,0.8-0.6,1.3
		c-0.2,0.5-0.5,1.3-0.9,2.3c-0.4,1-0.6,1.6-0.6,1.8v0.2h-1.1v-5H99c-0.3,0-0.6-0.1-0.8-0.4s-0.4-0.5-0.4-0.8s0.1-0.6,0.4-0.8
		s0.5-0.4,0.8-0.4s0.6,0.1,0.8,0.4s0.4,0.5,0.4,0.8v3.6c0.5-1.4,1-2.5,1.6-3.4c0.5-0.9,1.1-1.4,1.7-1.4c0.7,0,1.1,0.5,1.1,1.4V153.2
		z M99,147.5c0.2,0,0.3-0.1,0.4-0.2s0.2-0.3,0.2-0.4c0-0.2-0.1-0.3-0.2-0.4c-0.1-0.1-0.3-0.2-0.4-0.2s-0.3,0.1-0.4,0.2
		c-0.1,0.1-0.2,0.3-0.2,0.4c0,0.2,0.1,0.3,0.2,0.4S98.9,147.5,99,147.5z"/>
	<path d="M104.6,144.9h-5.5c0.4-1.4,1.3-2.2,2.7-2.2c0.9,0,1.6,0.3,2.2,1v-1.4h0.6V144.9z M103.7,144.3c-0.3-0.7-0.9-1.1-1.8-1.1
		s-1.5,0.4-1.8,1.1H103.7z"/>
	<path d="M104.3,144.9h-0.6v-2.3h0.6V144.9z"/>
	<path d="M107.4,150.8L107.4,150.8c0.4,0,0.7,0.1,0.9,0.4s0.4,0.5,0.4,0.8s-0.1,0.6-0.4,0.8s-0.5,0.4-0.9,0.4
		c-0.3,0-0.6-0.1-0.8-0.4s-0.4-0.5-0.4-0.8v-6.1h1.1V150.8z M107.5,152.6c0.2,0,0.3-0.1,0.4-0.2c0.1-0.1,0.2-0.3,0.2-0.4
		s-0.1-0.3-0.2-0.4c-0.1-0.1-0.3-0.2-0.4-0.2c-0.2,0-0.3,0.1-0.4,0.2c-0.1,0.1-0.2,0.3-0.2,0.4s0.1,0.3,0.2,0.4
		C107.2,152.5,107.3,152.6,107.5,152.6z M111.4,150.8L111.4,150.8c0.4,0,0.7,0.1,0.9,0.4s0.4,0.5,0.4,0.8s-0.1,0.6-0.4,0.8
		s-0.5,0.4-0.8,0.4s-0.6-0.1-0.8-0.4s-0.4-0.5-0.4-0.8v-6.1h1.1V150.8z M111.5,152.6c0.2,0,0.3-0.1,0.4-0.2c0.1-0.1,0.2-0.3,0.2-0.4
		s-0.1-0.3-0.2-0.4c-0.1-0.1-0.3-0.2-0.4-0.2s-0.3,0.1-0.4,0.2c-0.1,0.1-0.2,0.3-0.2,0.4s0.1,0.3,0.2,0.4
		C111.2,152.5,111.3,152.6,111.5,152.6z"/>
	<path d="M120.7,151.7c0,0.4-0.2,0.8-0.5,1.1c-0.3,0.3-0.7,0.4-1.1,0.4h-4.7v-0.8h0.7v-4.2h-0.1c-0.3,0-0.6-0.1-0.8-0.4
		s-0.4-0.5-0.4-0.8s0.1-0.6,0.4-0.8s0.5-0.4,0.8-0.4s0.6,0.1,0.8,0.4s0.4,0.5,0.4,0.8v5.4h2.6c0.5,0,0.7-0.2,0.7-0.6v-5.8h1.1V151.7
		z M115.1,147.5c0.2,0,0.3-0.1,0.4-0.2s0.2-0.3,0.2-0.4c0-0.2-0.1-0.3-0.2-0.4c-0.1-0.1-0.3-0.2-0.4-0.2s-0.3,0.1-0.4,0.2
		c-0.1,0.1-0.2,0.3-0.2,0.4c0,0.2,0.1,0.3,0.2,0.4S114.9,147.5,115.1,147.5z"/>
	<path d="M128.9,151.7c0,0.4-0.2,0.8-0.5,1.1c-0.3,0.3-0.7,0.4-1.1,0.4h-4.7v-0.8h0.7v-4.2h-0.1c-0.3,0-0.6-0.1-0.8-0.4
		s-0.4-0.5-0.4-0.8s0.1-0.6,0.4-0.8s0.5-0.4,0.8-0.4s0.6,0.1,0.8,0.4s0.4,0.5,0.4,0.8v5.4h2.6c0.5,0,0.7-0.2,0.7-0.6v-5.8h1.1V151.7
		z M123.2,147.5c0.2,0,0.3-0.1,0.4-0.2s0.2-0.3,0.2-0.4c0-0.2-0.1-0.3-0.2-0.4c-0.1-0.1-0.3-0.2-0.4-0.2s-0.3,0.1-0.4,0.2
		c-0.1,0.1-0.2,0.3-0.2,0.4c0,0.2,0.1,0.3,0.2,0.4S123.1,147.5,123.2,147.5z"/>
	<path d="M138,153.2h-1.1c0-0.5-0.3-1.3-1-2.5c-0.7-1.1-1-2.1-1.1-2.8c-0.1,0.7-0.5,1.7-1.1,2.8c-0.7,1.1-1,2-1,2.5h-1.1v-5h-0.1
		c-0.3,0-0.6-0.1-0.8-0.4c-0.2-0.2-0.4-0.5-0.4-0.8s0.1-0.6,0.4-0.8c0.2-0.2,0.5-0.4,0.8-0.4s0.6,0.1,0.8,0.4
		c0.2,0.2,0.4,0.5,0.4,0.8v4c0.1-0.3,0.4-0.7,0.7-1.3c0.7-1.2,1-2.4,1-3.7h0.8c0,1.3,0.3,2.6,1,3.7c0.4,0.6,0.6,1,0.7,1.3v-8.8h1.1
		V153.2z M131.4,147.5c0.2,0,0.3-0.1,0.4-0.2s0.2-0.3,0.2-0.4c0-0.2-0.1-0.3-0.2-0.4c-0.1-0.1-0.3-0.2-0.4-0.2
		c-0.2,0-0.3,0.1-0.4,0.2c-0.1,0.1-0.2,0.3-0.2,0.4c0,0.2,0.1,0.3,0.2,0.4S131.2,147.5,131.4,147.5z"/>
	<path d="M145.4,151.7c0,0.4-0.2,0.8-0.5,1.1c-0.3,0.3-0.7,0.4-1.1,0.4H142c-0.4,0-0.8-0.1-1.1-0.4c-0.3-0.3-0.5-0.6-0.5-1.1v-2.6
		c0-0.3,0.1-0.6,0.4-0.8c0.2-0.2,0.5-0.4,0.8-0.4c0.3,0,0.6,0.1,0.8,0.4s0.4,0.5,0.4,0.8s-0.1,0.6-0.4,0.8s-0.5,0.4-0.8,0.4h-0.1
		v1.5c0,0.4,0.2,0.6,0.7,0.6h1.2c0.5,0,0.7-0.2,0.7-0.6v-3.5c0-0.5-0.2-0.9-0.6-1.3c-0.4-0.3-0.9-0.5-1.5-0.5
		c-0.4,0-0.9,0.1-1.3,0.3c-0.4,0.2-0.8,0.4-1,0.7l-0.6-0.5c0.3-0.4,0.7-0.7,1.3-1c0.5-0.2,1.1-0.4,1.6-0.4c0.9,0,1.6,0.2,2.2,0.7
		c0.6,0.5,0.9,1.1,0.9,1.8V151.7z M141.6,149.7c0.2,0,0.3-0.1,0.4-0.2c0.1-0.1,0.2-0.3,0.2-0.4s-0.1-0.3-0.2-0.4
		c-0.1-0.1-0.3-0.2-0.4-0.2c-0.2,0-0.3,0.1-0.4,0.2c-0.1,0.1-0.2,0.3-0.2,0.4s0.1,0.3,0.2,0.4C141.3,149.6,141.4,149.7,141.6,149.7z
		"/>
	<path d="M152.6,146.3c-0.3,0.4-0.7,0.6-1.2,0.6c-0.2,0-0.5-0.1-1-0.2s-0.8-0.2-1-0.2c-0.6,0-1,0.2-1.3,0.7c0.3,0,0.6-0.1,0.9-0.1
		c1,0,1.8,0.2,2.3,0.6c0.5,0.4,0.8,1,0.8,1.7v2.6c0,0.3-0.1,0.6-0.4,0.8s-0.5,0.4-0.8,0.4c-0.3,0-0.6-0.1-0.9-0.4s-0.4-0.5-0.4-0.8
		s0.1-0.6,0.4-0.8s0.5-0.4,0.9-0.4h0.1v-1.2c0-0.7-0.2-1.1-0.5-1.3c-0.4-0.2-0.9-0.3-1.8-0.3c-0.6,0-1.1,0.1-1.6,0.2
		c0-0.7,0.3-1.3,0.7-1.7c0.4-0.4,0.9-0.6,1.6-0.6c0.3,0,0.7,0.1,1.2,0.2c0.5,0.1,0.7,0.2,0.8,0.2c0.3,0,0.5-0.1,0.7-0.4L152.6,146.3
		z M150.9,152.6c0.2,0,0.3-0.1,0.4-0.2c0.1-0.1,0.2-0.3,0.2-0.4s-0.1-0.3-0.2-0.4c-0.1-0.1-0.3-0.2-0.4-0.2c-0.2,0-0.3,0.1-0.4,0.2
		c-0.1,0.1-0.2,0.3-0.2,0.4s0.1,0.3,0.2,0.4C150.6,152.5,150.8,152.6,150.9,152.6z"/>
	<path d="M153.3,141.9c0,0.2-0.1,0.4-0.2,0.6c-0.2,0.2-0.5,0.3-0.9,0.4c-0.4,0.1-0.7,0.3-0.8,0.4c0.2,0,0.4,0.1,0.6,0.2
		s0.2,0.4,0.2,0.6c0,0.2-0.1,0.4-0.2,0.6c-0.2,0.2-0.4,0.2-0.6,0.2c-0.2,0-0.4-0.1-0.6-0.3c-0.2-0.2-0.3-0.4-0.3-0.7
		c0-0.7,0.4-1.1,1.3-1.4c0.4-0.1,0.7-0.2,0.8-0.3c0.1-0.1,0.2-0.2,0.2-0.3H153.3z M151.3,144.5c0.1,0,0.2,0,0.3-0.1
		c0.1-0.1,0.1-0.2,0.1-0.3s0-0.2-0.1-0.3c-0.1-0.1-0.2-0.1-0.3-0.1c-0.1,0-0.2,0-0.3,0.1s-0.1,0.2-0.1,0.3s0,0.2,0.1,0.3
		C151.1,144.4,151.2,144.5,151.3,144.5z"/>
	<path d="M160.3,153.2h-1.1c-0.8-1.5-1.9-2.4-3.3-2.5v1.2c0,0.9-0.5,1.4-1.4,1.4c-0.4,0-0.7-0.1-0.9-0.4c-0.2-0.2-0.4-0.6-0.4-1
		c0-0.4,0.1-0.8,0.4-1.2c0.3-0.3,0.6-0.6,1.1-0.7v-1.9h-0.1c-0.3,0-0.6-0.1-0.8-0.4c-0.2-0.2-0.4-0.5-0.4-0.8s0.1-0.6,0.4-0.8
		c0.2-0.2,0.5-0.4,0.8-0.4s0.6,0.1,0.8,0.4c0.2,0.2,0.4,0.5,0.4,0.8v3.1c1.3,0.1,2.4,0.8,3.3,1.9v-6h1.1V153.2z M154.7,151.9v-1.3
		c-0.3,0.1-0.5,0.2-0.6,0.5c-0.2,0.2-0.2,0.5-0.2,0.8c0,0.2,0,0.4,0.1,0.5c0.1,0.1,0.2,0.2,0.4,0.2
		C154.6,152.6,154.7,152.4,154.7,151.9z M154.6,147.5c0.2,0,0.3-0.1,0.4-0.2s0.2-0.3,0.2-0.4c0-0.2-0.1-0.3-0.2-0.4
		c-0.1-0.1-0.3-0.2-0.4-0.2c-0.2,0-0.3,0.1-0.4,0.2c-0.1,0.1-0.2,0.3-0.2,0.4c0,0.2,0.1,0.3,0.2,0.4S154.5,147.5,154.6,147.5z"/>
	<path d="M168.4,153.2h-1.1v-6.1c0-0.3-0.1-0.4-0.3-0.4c-0.1,0-0.2,0.1-0.3,0.2c-0.1,0.2-0.3,0.4-0.5,0.7c-0.2,0.3-0.4,0.8-0.6,1.3
		c-0.2,0.5-0.5,1.3-0.9,2.3c-0.4,1-0.6,1.6-0.6,1.8v0.2h-1.1v-5h-0.1c-0.3,0-0.6-0.1-0.8-0.4c-0.2-0.2-0.4-0.5-0.4-0.8
		s0.1-0.6,0.4-0.8c0.2-0.2,0.5-0.4,0.8-0.4s0.6,0.1,0.8,0.4c0.2,0.2,0.4,0.5,0.4,0.8v3.6c0.5-1.4,1-2.5,1.6-3.4
		c0.5-0.9,1.1-1.4,1.7-1.4c0.7,0,1.1,0.5,1.1,1.4V153.2z M162.8,147.5c0.2,0,0.3-0.1,0.4-0.2s0.2-0.3,0.2-0.4c0-0.2-0.1-0.3-0.2-0.4
		c-0.1-0.1-0.3-0.2-0.4-0.2c-0.2,0-0.3,0.1-0.4,0.2c-0.1,0.1-0.2,0.3-0.2,0.4c0,0.2,0.1,0.3,0.2,0.4S162.7,147.5,162.8,147.5z"/>
	<path d="M168.4,144.9h-5.5c0.4-1.4,1.3-2.2,2.7-2.2c0.9,0,1.6,0.3,2.2,1v-1.4h0.6V144.9z M167.5,144.3c-0.3-0.7-0.9-1.1-1.8-1.1
		c-0.9,0-1.5,0.4-1.8,1.1H167.5z"/>
	<path d="M168.1,144.9h-0.6v-2.3h0.6V144.9z"/>
	<path d="M176.2,153.2h-1.1v-4.7c0-0.6-0.2-1-0.6-1.4c-0.4-0.3-0.9-0.5-1.6-0.5c-0.7,0-1.3,0.2-1.7,0.6c-0.4,0.4-0.6,0.9-0.6,1.4
		c0,0.6,0.2,1.1,0.6,1.8s0.6,1.1,0.8,1.3c0.1-0.2,0.3-0.4,0.6-0.7s0.4-0.5,0.5-0.6h0c-0.3,0-0.6-0.1-0.9-0.4s-0.4-0.5-0.4-0.8
		s0.1-0.6,0.4-0.8s0.5-0.4,0.9-0.4c0.3,0,0.6,0.1,0.8,0.4s0.4,0.5,0.4,0.8c0,0.3-0.1,0.6-0.2,0.9c-0.1,0.3-0.4,0.7-0.9,1.2
		c-0.5,0.5-0.7,0.9-0.7,1.2v0.6H171v-0.6c0-0.5-0.2-1.1-0.6-1.9c-0.4-0.8-0.6-1.5-0.6-2.1c0-0.8,0.3-1.4,0.9-2
		c0.6-0.5,1.3-0.8,2.3-0.8c1,0,1.8,0.2,2.4,0.7c0.6,0.5,0.9,1.1,0.9,1.9V153.2z M172.8,149.7c0.2,0,0.3-0.1,0.4-0.2
		c0.1-0.1,0.2-0.3,0.2-0.4c0-0.2-0.1-0.3-0.2-0.4c-0.1-0.1-0.3-0.2-0.4-0.2c-0.2,0-0.3,0.1-0.4,0.2s-0.2,0.3-0.2,0.4
		c0,0.2,0.1,0.3,0.2,0.4C172.5,149.7,172.6,149.7,172.8,149.7z"/>
	<path d="M177,142.3c0,0.8-0.3,1.4-0.9,1.9s-1.3,0.7-2.3,0.7c-0.3,0-0.6,0-0.9-0.1v-0.4c0.4,0,0.8-0.1,1-0.4c-0.2,0-0.4-0.1-0.6-0.3
		c-0.2-0.2-0.3-0.4-0.3-0.6s0.1-0.4,0.3-0.6c0.2-0.2,0.4-0.3,0.6-0.3c0.2,0,0.4,0.1,0.6,0.3c0.2,0.2,0.3,0.4,0.3,0.6
		c0,0.5-0.2,0.9-0.7,1.2c0.6,0,1.2-0.2,1.6-0.6c0.5-0.4,0.7-0.9,0.7-1.5H177z M173.9,143.6c0.1,0,0.2,0,0.3-0.1
		c0.1-0.1,0.1-0.2,0.1-0.3c0-0.1,0-0.2-0.1-0.3c-0.1-0.1-0.2-0.1-0.3-0.1c-0.1,0-0.2,0-0.3,0.1c-0.1,0.1-0.1,0.2-0.1,0.3
		c0,0.1,0,0.2,0.1,0.3C173.7,143.5,173.8,143.6,173.9,143.6z"/>
	<path d="M96.1,170H95V165c0-1.1-0.5-1.7-1.5-1.7c-0.7,0-1.2,0.3-1.7,1l-0.6-0.5c0.7-0.9,1.4-1.3,2.3-1.3c0.8,0,1.4,0.2,1.9,0.7
		s0.7,1.1,0.7,1.8V170z"/>
	<path d="M104,167.1c0.8,0.3,1.2,0.8,1.2,1.6c0,0.4-0.1,0.7-0.3,1s-0.5,0.4-0.8,0.4c-0.4,0-0.7-0.1-0.9-0.3s-0.3-0.6-0.3-1.1v-0.9
		c-1.1,0.2-2.2,1-3,2.2h-1.1v-5h-0.1c-0.3,0-0.6-0.1-0.8-0.4s-0.4-0.5-0.4-0.8s0.1-0.6,0.4-0.8s0.5-0.4,0.8-0.4s0.6,0.1,0.8,0.4
		s0.4,0.5,0.4,0.8v5.2c0.8-1,1.8-1.6,3-1.9v-4.4h1.1V167.1z M98.6,164.3c0.2,0,0.3-0.1,0.4-0.2s0.2-0.3,0.2-0.4
		c0-0.2-0.1-0.3-0.2-0.4c-0.1-0.1-0.3-0.2-0.4-0.2s-0.3,0.1-0.4,0.2c-0.1,0.1-0.2,0.3-0.2,0.4c0,0.2,0.1,0.3,0.2,0.4
		S98.4,164.3,98.6,164.3z M104.6,168.6c0-0.2-0.1-0.4-0.2-0.6c-0.1-0.2-0.3-0.3-0.5-0.4v1.2c0,0.2,0,0.3,0,0.4
		c0,0.1,0.1,0.1,0.2,0.1C104.5,169.4,104.6,169.1,104.6,168.6z"/>
	<path d="M111.6,170h-1.1v-0.2c-0.5-1.2-0.9-2.2-1.4-2.9c-0.4-0.7-0.8-1.1-1-1.1c-0.2,0-0.3,0.2-0.3,0.5v1.4h0.1
		c0.3,0,0.6,0.1,0.8,0.4s0.4,0.5,0.4,0.8s-0.1,0.6-0.4,0.8s-0.5,0.4-0.8,0.4s-0.6-0.1-0.8-0.4s-0.4-0.5-0.4-0.8v-2.6
		c0-0.9,0.4-1.4,1.1-1.4c0.8,0,1.7,1.1,2.6,3.3V165c0-0.5-0.2-1-0.5-1.3s-0.8-0.4-1.3-0.4c-0.8,0-1.5,0.3-2,1l-0.6-0.5
		c0.7-0.9,1.5-1.3,2.6-1.3c0.8,0,1.5,0.2,2.1,0.7s0.8,1.1,0.8,1.8V170z M107.9,169.4c0.2,0,0.3-0.1,0.4-0.2c0.1-0.1,0.2-0.3,0.2-0.4
		s-0.1-0.3-0.2-0.4c-0.1-0.1-0.3-0.2-0.4-0.2s-0.3,0.1-0.4,0.2c-0.1,0.1-0.2,0.3-0.2,0.4s0.1,0.3,0.2,0.4
		C107.6,169.3,107.7,169.4,107.9,169.4z"/>
	<path d="M111.3,161.7h-0.6v-2.3h0.6V161.7z"/>
	<path d="M117.5,170h-1.1V165c0-1.1-0.5-1.7-1.5-1.7c-0.7,0-1.2,0.3-1.7,1l-0.6-0.5c0.7-0.9,1.4-1.3,2.3-1.3c0.8,0,1.4,0.2,1.9,0.7
		s0.7,1.1,0.7,1.8V170z"/>
	<path d="M123.4,170h-1.1c-0.7-1.1-1.4-1.9-2-2.4s-1.3-0.8-2-0.8v-0.6c0.7,0,1.4,0.2,2,0.6c0.6,0.4,1.3,1.1,2,2.1v-3.9h-0.1
		c-0.3,0-0.6-0.1-0.8-0.4s-0.4-0.5-0.4-0.8s0.1-0.6,0.4-0.8s0.5-0.4,0.8-0.4c0.3,0,0.6,0.1,0.8,0.4s0.4,0.5,0.4,0.8V170z
		 M122.2,164.3c0.2,0,0.3-0.1,0.4-0.2s0.2-0.3,0.2-0.4c0-0.2-0.1-0.3-0.2-0.4c-0.1-0.1-0.3-0.2-0.4-0.2c-0.2,0-0.3,0.1-0.4,0.2
		c-0.1,0.1-0.2,0.3-0.2,0.4c0,0.2,0.1,0.3,0.2,0.4S122,164.3,122.2,164.3z"/>
	<path d="M131.2,168.5c0,0.4-0.2,0.8-0.5,1.1c-0.3,0.3-0.7,0.4-1.1,0.4h-3.2v-0.8h0.7V166c0-0.3,0.1-0.5,0.4-0.8
		c0.2-0.3,0.4-0.6,0.4-0.9c0-0.3-0.1-0.6-0.4-0.9s-0.6-0.3-0.9-0.3c-0.2,0-0.4,0-0.6,0.1c0.6,0.2,0.9,0.6,0.9,1.2
		c0,0.3-0.1,0.6-0.4,0.8s-0.5,0.4-0.8,0.4s-0.6-0.1-0.8-0.4s-0.4-0.5-0.4-0.8c0-0.5,0.2-0.9,0.6-1.3s0.9-0.6,1.5-0.6
		c0.7,0,1.3,0.2,1.7,0.5s0.6,0.8,0.6,1.3c0,0.3-0.1,0.7-0.3,1s-0.3,0.5-0.3,0.7v3.1h1.1c0.5,0,0.7-0.2,0.7-0.6v-5.8h1.1V168.5z
		 M125.6,165c0.2,0,0.3-0.1,0.4-0.2c0.1-0.1,0.2-0.3,0.2-0.4s-0.1-0.3-0.2-0.4c-0.1-0.1-0.3-0.2-0.4-0.2s-0.3,0.1-0.4,0.2
		c-0.1,0.1-0.2,0.3-0.2,0.4s0.1,0.3,0.2,0.4C125.3,165,125.5,165,125.6,165z"/>
	<path d="M138.6,168.5c0,0.4-0.2,0.8-0.5,1.1c-0.3,0.3-0.7,0.4-1.1,0.4h-1.8c-0.4,0-0.8-0.1-1.1-0.4c-0.3-0.3-0.5-0.6-0.5-1.1v-2.6
		c0-0.3,0.1-0.6,0.4-0.8c0.2-0.2,0.5-0.4,0.8-0.4c0.3,0,0.6,0.1,0.8,0.4s0.4,0.5,0.4,0.8s-0.1,0.6-0.4,0.8s-0.5,0.4-0.8,0.4h-0.1
		v1.5c0,0.4,0.2,0.6,0.7,0.6h1.2c0.5,0,0.7-0.2,0.7-0.6V165c0-0.5-0.2-0.9-0.6-1.3c-0.4-0.3-0.9-0.5-1.5-0.5c-0.4,0-0.9,0.1-1.3,0.3
		c-0.4,0.2-0.8,0.4-1,0.7l-0.6-0.5c0.3-0.4,0.7-0.7,1.3-1c0.5-0.2,1.1-0.4,1.6-0.4c0.9,0,1.6,0.2,2.2,0.7c0.6,0.5,0.9,1.1,0.9,1.8
		V168.5z M134.8,166.5c0.2,0,0.3-0.1,0.4-0.2c0.1-0.1,0.2-0.3,0.2-0.4s-0.1-0.3-0.2-0.4c-0.1-0.1-0.3-0.2-0.4-0.2
		c-0.2,0-0.3,0.1-0.4,0.2c-0.1,0.1-0.2,0.3-0.2,0.4s0.1,0.3,0.2,0.4C134.5,166.4,134.7,166.5,134.8,166.5z"/>
	<path d="M144.5,170h-1.1c-0.7-1.1-1.4-1.9-2-2.4c-0.6-0.5-1.3-0.8-2-0.8v-0.6c0.7,0,1.4,0.2,2,0.6c0.6,0.4,1.3,1.1,2,2.1v-3.9h-0.1
		c-0.3,0-0.6-0.1-0.8-0.4c-0.2-0.2-0.4-0.5-0.4-0.8s0.1-0.6,0.4-0.8c0.2-0.2,0.5-0.4,0.8-0.4c0.3,0,0.6,0.1,0.8,0.4s0.4,0.5,0.4,0.8
		V170z M143.3,164.3c0.2,0,0.3-0.1,0.4-0.2c0.1-0.1,0.2-0.3,0.2-0.4c0-0.2-0.1-0.3-0.2-0.4c-0.1-0.1-0.3-0.2-0.4-0.2
		c-0.2,0-0.3,0.1-0.4,0.2c-0.1,0.1-0.2,0.3-0.2,0.4c0,0.2,0.1,0.3,0.2,0.4S143.1,164.3,143.3,164.3z"/>
	<path d="M153,170h-1.1v-4c0-0.3,0-0.6-0.1-0.6c-1.3,1-2.2,1.9-2.7,2.6c-0.5,0.7-0.8,1.4-0.8,2.1h-1.1v-5H147
		c-0.3,0-0.6-0.1-0.8-0.4c-0.2-0.2-0.4-0.5-0.4-0.8s0.1-0.6,0.4-0.8c0.2-0.2,0.5-0.4,0.8-0.4s0.6,0.1,0.8,0.4
		c0.2,0.2,0.4,0.5,0.4,0.8v4.2c0.3-0.8,1.4-1.8,3.1-3.1c-0.5-0.3-0.8-0.7-0.8-1.1c0-0.3,0.1-0.6,0.4-0.8c0.2-0.2,0.5-0.4,0.8-0.4
		s0.6,0.1,0.8,0.4c0.2,0.2,0.4,0.5,0.4,0.8c0,0.4-0.2,0.8-0.5,1.1c0.4,0.2,0.6,0.6,0.6,1.1V170z M147,164.3c0.2,0,0.3-0.1,0.4-0.2
		s0.2-0.3,0.2-0.4c0-0.2-0.1-0.3-0.2-0.4c-0.1-0.1-0.3-0.2-0.4-0.2c-0.2,0-0.3,0.1-0.4,0.2c-0.1,0.1-0.2,0.3-0.2,0.4
		c0,0.2,0.1,0.3,0.2,0.4S146.9,164.3,147,164.3z M151.8,164.5c0.3-0.2,0.5-0.5,0.5-0.8c0-0.2-0.1-0.3-0.2-0.4
		c-0.1-0.1-0.3-0.2-0.4-0.2c-0.2,0-0.3,0.1-0.4,0.2c-0.1,0.1-0.2,0.3-0.2,0.4C151.1,164,151.3,164.3,151.8,164.5z"/>
	<path d="M160.9,167.1c0.8,0.3,1.2,0.8,1.2,1.6c0,0.4-0.1,0.7-0.3,1c-0.2,0.2-0.5,0.4-0.8,0.4c-0.4,0-0.7-0.1-0.9-0.3
		s-0.3-0.6-0.3-1.1v-0.9c-1.1,0.2-2.2,1-3,2.2h-1.1v-5h-0.1c-0.3,0-0.6-0.1-0.8-0.4c-0.2-0.2-0.4-0.5-0.4-0.8s0.1-0.6,0.4-0.8
		c0.2-0.2,0.5-0.4,0.8-0.4s0.6,0.1,0.8,0.4c0.2,0.2,0.4,0.5,0.4,0.8v5.2c0.8-1,1.8-1.6,3-1.9v-4.4h1.1V167.1z M155.5,164.3
		c0.2,0,0.3-0.1,0.4-0.2s0.2-0.3,0.2-0.4c0-0.2-0.1-0.3-0.2-0.4c-0.1-0.1-0.3-0.2-0.4-0.2c-0.2,0-0.3,0.1-0.4,0.2
		c-0.1,0.1-0.2,0.3-0.2,0.4c0,0.2,0.1,0.3,0.2,0.4S155.4,164.3,155.5,164.3z M161.5,168.6c0-0.2-0.1-0.4-0.2-0.6
		c-0.1-0.2-0.3-0.3-0.5-0.4v1.2c0,0.2,0,0.3,0,0.4c0,0.1,0.1,0.1,0.2,0.1C161.4,169.4,161.5,169.1,161.5,168.6z"/>
	<path d="M162.5,159.1c0,0.8-0.3,1.4-0.9,1.9s-1.3,0.7-2.3,0.7c-0.3,0-0.6,0-0.9-0.1v-0.4c0.4,0,0.8-0.1,1-0.4
		c-0.2,0-0.4-0.1-0.6-0.3c-0.2-0.2-0.3-0.4-0.3-0.6s0.1-0.4,0.3-0.6c0.2-0.2,0.4-0.3,0.6-0.3c0.2,0,0.4,0.1,0.6,0.3
		c0.2,0.2,0.3,0.4,0.3,0.6c0,0.5-0.2,0.9-0.7,1.2c0.6,0,1.2-0.2,1.6-0.6c0.5-0.4,0.7-0.9,0.7-1.5H162.5z M159.3,160.4
		c0.1,0,0.2,0,0.3-0.1c0.1-0.1,0.1-0.2,0.1-0.3c0-0.1,0-0.2-0.1-0.3c-0.1-0.1-0.2-0.1-0.3-0.1c-0.1,0-0.2,0-0.3,0.1
		c-0.1,0.1-0.1,0.2-0.1,0.3c0,0.1,0,0.2,0.1,0.3C159.1,160.3,159.2,160.4,159.3,160.4z"/>
	<path d="M167.6,170h-1.1V165c0-1.1-0.5-1.7-1.5-1.7c-0.7,0-1.2,0.3-1.7,1l-0.6-0.5c0.7-0.9,1.4-1.3,2.3-1.3c0.8,0,1.4,0.2,1.9,0.7
		c0.5,0.4,0.7,1.1,0.7,1.8V170z"/>
</g>
</svg>
