<?xml version="1.0" encoding="utf-8"?>
<!-- Generator: Adobe Illustrator 25.1.0, SVG Export Plug-In . SVG Version: 6.00 Build 0)  -->
<svg version="1.1" id="Слой_1" xmlns="http://www.w3.org/2000/svg" xmlns:xlink="http://www.w3.org/1999/xlink" x="0px" y="0px"
	 viewBox="0 0 193.6 256.4" style="enable-background:new 0 0 193.6 256.4;" xml:space="preserve">
<style type="text/css">
	.st0{fill:#0C3651;}
	.st1{fill:#F4F5F5;}
	.st2{fill:url(#Ellipse_8562_1_);stroke:#0C3651;stroke-width:2;}
	.st3{enable-background:new    ;}
</style>
<g id="Group_4008" transform="translate(-59.374 -17585.789)">
	<g id="Group_3911" transform="translate(19270.777 17594.447) rotate(90)">
		<g id="Group_3887" transform="translate(-8.659 19017.777)">
			<path id="Path_13617" class="st0" d="M249.1,88.4h-26.9c-1.5,0-2.7-1.1-2.9-2.6c-5.5-52.5-52.5-90.7-105-85.3
				C77.1,4.4,45.5,29.7,33.6,65.2c-0.4,1.2-1.5,2-2.7,2H7.2c-3.9,0-7,3-7.2,6.8c-0.1,3.9,2.9,7.2,6.8,7.3c0.1,0,0.2,0,0.3,0h31.3
				c3.6,0,6.7-2.7,7-6.3c11.4-43.5,55.8-69.5,99.3-58.1c43.5,11.4,69.5,55.8,58.1,99.3s-55.8,69.5-99.3,58.1
				c-28.4-7.4-50.6-29.6-58.1-58c-0.2-3.7-3.3-6.6-7.1-6.6H15.1c-3.9,0-7,3-7.2,6.8c-0.1,3.9,2.9,7.2,6.8,7.3c0.1,0,0.2,0,0.3,0
				h15.9c1.2,0,2.3,0.8,2.7,2c16.7,50.1,70.9,77.2,121.1,60.5c28.6-9.5,51-31.9,60.5-60.5c0.4-1.2,1.5-2,2.7-2h4.2
				c3.9,0,7-3,7.2-6.8c0.1-3.9-2.9-7.2-6.8-7.3c-0.1,0-0.2,0-0.3,0l0,0c-1.6,0-2.9-1.3-2.9-2.9c0-0.1,0-0.2,0-0.3
				c0-0.4,0.1-0.9,0.1-1.3c0.1-1.5,1.4-2.6,2.9-2.6h27.1c3.9,0,7.1-3.2,7.1-7.1c0-0.1,0-0.2,0-0.3C256.2,91.4,253,88.4,249.1,88.4z"
				/>
		</g>
		<g id="Group_3888" transform="translate(33.947 19031.514)">
			<path id="Path_13623" class="st1" d="M81.8,0C36.6,0,0,36.6,0,81.8c0,45.2,36.6,81.8,81.8,81.8c45.2,0,81.8-36.6,81.8-81.8
				c0-21.7-8.6-42.5-24-57.8C124.3,8.6,103.5-0.1,81.8,0z"/>
		</g>
		<g id="packaging-icon" transform="translate(69.435 19130.168) rotate(-91)">
			<g id="Group_158" transform="translate(0)">
				<g id="Group_157" transform="translate(0)">
					<path id="Path_348" class="st0" d="M27.9,14.5l-4-2.3l4-2.3c0.2-0.1,0.3-0.4,0.2-0.6c0-0.1-0.1-0.1-0.2-0.2L19,3.9
						c-0.1-0.1-0.3-0.1-0.5,0l-0.9,0.5c-0.2,0.1-0.3,0.4-0.2,0.6c0.1,0.2,0.4,0.3,0.6,0.2l0,0l0.7-0.4l8,4.6L23,11.6l-5.7-3.3
						l0.4-0.6c0.1-0.2,0.1-0.5-0.1-0.7C17.5,7.1,17.4,7,17.3,7l-1.4,0c0-3.9-3.1-7-7-7L4.2,0C4,0,3.7,0.2,3.7,0.5
						c0,0.3,0.2,0.5,0.5,0.5l4.7,0C12.3,0.9,15,3.7,15,7v0.5C15,7.8,15.2,8,15.5,8l1,0l-2.4,3.4L11.7,8h1c0.3,0,0.5-0.2,0.5-0.5
						l0-0.9c0-1.6-1.3-2.8-2.8-2.8L8,3.7C7.7,3.7,7.5,4,7.5,4.2c0,0.3,0.2,0.5,0.5,0.5l0,0l2.3,0c1,0,1.9,0.8,1.9,1.9V7l-1.4,0
						c-0.3,0-0.5,0.2-0.5,0.5c0,0.1,0,0.2,0.1,0.3l0.4,0.6l-5.7,3.3L1.4,9.5L7.3,6c0.2-0.1,0.3-0.4,0.2-0.6C7.4,5.2,7.1,5.1,6.9,5.2
						l0,0L0.2,9.1C0,9.2-0.1,9.5,0.1,9.7c0,0.1,0.1,0.1,0.2,0.2l4,2.3l-4,2.3c-0.2,0.1-0.3,0.4-0.2,0.6c0,0.1,0.1,0.1,0.2,0.2
						l4.5,2.6l0,4.6c0,0.2,0.1,0.3,0.2,0.4l8.9,5.2c0,0,0,0,0,0l0,0c0.1,0,0.2,0,0.3,0l0,0c0,0,0,0,0,0l8.9-5.2
						c0.1-0.1,0.2-0.2,0.2-0.4l0-4.6l4.5-2.6c0.2-0.1,0.3-0.4,0.2-0.6C28,14.6,27.9,14.5,27.9,14.5L27.9,14.5z M1.4,14.9l3.7-2.2
						l8,4.6l-3.7,2.2L1.4,14.9z M13.6,26.8l-8-4.6l0-3.8l3.5,2c0.1,0.1,0.3,0.1,0.5,0l4-2.3L13.6,26.8z M14.1,16.8l-8-4.6l5.3-3
						l2.3,3.3c0.1,0.2,0.4,0.3,0.7,0.1c0,0,0.1-0.1,0.1-0.1l2.3-3.3l5.3,3L14.1,16.8z M22.5,22.2l-8,4.6l0-8.7l4,2.3
						c0.1,0.1,0.3,0.1,0.5,0l3.5-2L22.5,22.2z M18.7,19.5L15,17.3l8-4.6l3.7,2.2L18.7,19.5z"/>
				</g>
			</g>
			<g id="Group_160" transform="translate(4.684 3.748)">
				<g id="Group_159">
					<path id="Path_349" class="st0" d="M1.4,0L0.5,0C0.2,0,0,0.2,0,0.5s0.2,0.5,0.5,0.5l0.9,0c0.3,0,0.5-0.2,0.5-0.5
						C1.9,0.2,1.7,0,1.4,0z"/>
				</g>
			</g>
			<g id="Group_162" transform="translate(0.936)">
				<g id="Group_161">
					<path id="Path_350" class="st0" d="M1.4,0L0.5,0C0.2,0,0,0.2,0,0.5s0.2,0.5,0.5,0.5l0.9,0c0.3,0,0.5-0.2,0.5-0.5S1.7,0,1.4,0
						L1.4,0z"/>
				</g>
			</g>
			<g id="Group_164" transform="translate(2.81 1.874)">
				<g id="Group_163">
					<path id="Path_351" class="st0" d="M4.2,0L0.5,0C0.2,0,0,0.2,0,0.5c0,0.3,0.2,0.5,0.5,0.5l3.7,0c0.3,0,0.5-0.2,0.5-0.5
						C4.7,0.2,4.5,0,4.2,0z"/>
				</g>
			</g>
			<g id="Group_166" transform="translate(20.613 20.145)">
				<g id="Group_165">
					<path id="Path_352" class="st0" d="M0.5,0C0.2,0,0,0.2,0,0.5l0,0.9c0,0.3,0.2,0.5,0.5,0.4c0.2,0,0.4-0.2,0.4-0.4l0-0.9
						C0.9,0.2,0.7,0,0.5,0z"/>
				</g>
			</g>
			<g id="Group_168" transform="translate(18.739 21.082)">
				<g id="Group_167">
					<path id="Path_353" class="st0" d="M0.5,0C0.2,0,0,0.2,0,0.5c0,0,0,0,0,0l0,0.9c0,0.3,0.2,0.5,0.5,0.4c0.2,0,0.4-0.2,0.4-0.4
						l0-0.9C0.9,0.2,0.7,0,0.5,0L0.5,0z"/>
				</g>
			</g>
		</g>
	</g>
	<g id="Group_3923" transform="translate(60.788 17613.336)">
		
			<image style="overflow:visible;enable-background:new    ;" width="435" height="434" id="Rectangle_638" xlink:href="8B906576.png"  transform="matrix(0.1465 0 0 0.1465 5.7593 6.808)">
		</image>
		
			<linearGradient id="Ellipse_8562_1_" gradientUnits="userSpaceOnUse" x1="-448.437" y1="1044.3898" x2="-447.729" y2="1043.6818" gradientTransform="matrix(37.6251 -37.6251 -37.6251 -37.6251 56178.8516 22460.4395)">
			<stop  offset="0" style="stop-color:#FFFFFF"/>
			<stop  offset="0.998" style="stop-color:#F5F6F7"/>
		</linearGradient>
		<circle id="Ellipse_8562" class="st2" cx="37.6" cy="37.6" r="26.6"/>
	</g>
	<path id="Path_14642" class="st0" d="M93.7,17644.4c0.3-1.3,0.9-2.8,3.6-2.8c2.3,0,3.4,1.2,3.4,3c0,2.2-1.1,3.1-3.7,3.1h-2.1v4.4
		h2.4c3,0,4.3,1.5,4.3,3.9c0.2,2-1.3,3.8-3.3,4c-0.2,0-0.4,0-0.7,0c-2.1,0.2-4-1.2-4.3-3.3h-5.6c0.2,3.5,2.6,7.7,9.7,7.7
		c7.6,0,9.8-4.5,9.8-8.3c0.2-2.8-1.6-5.4-4.3-6.3v-0.1c2.1-0.9,3.4-3.1,3.3-5.4c0-3.7-2.7-7.2-8.8-7.2c-6.6,0-8.9,4-9.2,7.2H93.7z"
		/>
</g>
<g class="st3">
	<path d="M40.8,144L40.8,144c0.4,0,0.7,0.1,0.9,0.4s0.4,0.5,0.4,0.8s-0.1,0.6-0.4,0.8s-0.5,0.4-0.8,0.4s-0.6-0.1-0.8-0.4
		s-0.4-0.5-0.4-0.8v-7.9c0-0.6-0.1-1.1-0.4-1.4s-0.6-0.4-1.1-0.4c-0.4,0-0.8,0.1-1.2,0.2c0.1-0.7,0.3-1.2,0.7-1.6s0.9-0.6,1.5-0.6
		c0.3,0,0.7,0.1,1.2,0.2c0.5,0.1,0.7,0.2,0.8,0.2c0.3,0,0.5-0.1,0.7-0.4l0.6,0.6c-0.3,0.4-0.7,0.6-1.2,0.6c-0.2,0-0.5-0.1-1-0.2
		s-0.8-0.2-1-0.2c-0.6,0-1,0.2-1.3,0.7c0.3,0,0.5-0.1,0.7-0.1c0.7,0,1.3,0.2,1.7,0.6c0.4,0.4,0.6,0.9,0.6,1.7V144z M40.9,145.8
		c0.2,0,0.3-0.1,0.4-0.2c0.1-0.1,0.2-0.3,0.2-0.4s-0.1-0.3-0.2-0.4c-0.1-0.1-0.3-0.2-0.4-0.2s-0.3,0.1-0.4,0.2
		c-0.1,0.1-0.2,0.3-0.2,0.4s0.1,0.3,0.2,0.4C40.6,145.7,40.7,145.8,40.9,145.8z"/>
	<path d="M50.1,144.9c0,0.4-0.2,0.8-0.5,1.1c-0.3,0.3-0.7,0.4-1.1,0.4h-4.7v-0.8h0.7v-4.2h-0.1c-0.3,0-0.6-0.1-0.8-0.4
		s-0.4-0.5-0.4-0.8s0.1-0.6,0.4-0.8s0.5-0.4,0.8-0.4s0.6,0.1,0.8,0.4s0.4,0.5,0.4,0.8v5.4h2.6c0.5,0,0.7-0.2,0.7-0.6v-9.6h1.1V144.9
		z M44.4,140.7c0.2,0,0.3-0.1,0.4-0.2s0.2-0.3,0.2-0.4c0-0.2-0.1-0.3-0.2-0.4c-0.1-0.1-0.3-0.2-0.4-0.2s-0.3,0.1-0.4,0.2
		c-0.1,0.1-0.2,0.3-0.2,0.4c0,0.2,0.1,0.3,0.2,0.4S44.3,140.7,44.4,140.7z"/>
	<path d="M57.4,139.5c-0.3,0.4-0.7,0.6-1.2,0.6c-0.2,0-0.5-0.1-1-0.2s-0.8-0.2-1-0.2c-0.6,0-1,0.2-1.3,0.7c0.3,0,0.6-0.1,0.9-0.1
		c1,0,1.8,0.2,2.3,0.6s0.8,1,0.8,1.7v2.6c0,0.3-0.1,0.6-0.4,0.8s-0.5,0.4-0.8,0.4c-0.3,0-0.6-0.1-0.9-0.4s-0.4-0.5-0.4-0.8
		s0.1-0.6,0.4-0.8s0.5-0.4,0.9-0.4h0.1v-1.2c0-0.7-0.2-1.1-0.5-1.3s-0.9-0.3-1.8-0.3c-0.6,0-1.1,0.1-1.6,0.2c0-0.7,0.3-1.3,0.7-1.7
		c0.4-0.4,0.9-0.6,1.6-0.6c0.3,0,0.7,0.1,1.2,0.2c0.5,0.1,0.7,0.2,0.8,0.2c0.3,0,0.5-0.1,0.7-0.4L57.4,139.5z M55.7,145.8
		c0.2,0,0.3-0.1,0.4-0.2c0.1-0.1,0.2-0.3,0.2-0.4s-0.1-0.3-0.2-0.4c-0.1-0.1-0.3-0.2-0.4-0.2c-0.2,0-0.3,0.1-0.4,0.2
		c-0.1,0.1-0.2,0.3-0.2,0.4s0.1,0.3,0.2,0.4C55.4,145.7,55.5,145.8,55.7,145.8z"/>
	<path d="M64.8,146.4h-1.1v-4.7c0-0.6-0.2-1-0.6-1.4c-0.4-0.3-0.9-0.5-1.6-0.5c-0.7,0-1.3,0.2-1.7,0.6c-0.4,0.4-0.6,0.9-0.6,1.4
		c0,0.6,0.2,1.1,0.6,1.8s0.6,1.1,0.8,1.3c0.1-0.2,0.3-0.4,0.6-0.7s0.4-0.5,0.5-0.6h0c-0.3,0-0.6-0.1-0.9-0.4s-0.4-0.5-0.4-0.8
		s0.1-0.6,0.4-0.8s0.5-0.4,0.9-0.4c0.3,0,0.6,0.1,0.8,0.4s0.4,0.5,0.4,0.8c0,0.3-0.1,0.6-0.2,0.9c-0.1,0.3-0.4,0.7-0.9,1.2
		s-0.7,0.9-0.7,1.2v0.6h-1.1v-0.6c0-0.5-0.2-1.1-0.6-1.9s-0.6-1.5-0.6-2.1c0-0.8,0.3-1.4,0.9-2s1.3-0.8,2.3-0.8c1,0,1.8,0.2,2.4,0.7
		c0.6,0.5,0.9,1.1,0.9,1.9V146.4z M61.3,142.9c0.2,0,0.3-0.1,0.4-0.2c0.1-0.1,0.2-0.3,0.2-0.4c0-0.2-0.1-0.3-0.2-0.4
		s-0.3-0.2-0.4-0.2c-0.2,0-0.3,0.1-0.4,0.2s-0.2,0.3-0.2,0.4c0,0.2,0.1,0.3,0.2,0.4C61,142.9,61.1,142.9,61.3,142.9z"/>
	<path d="M72.6,146.4h-1.1v-4.5c0-1.1-0.2-1.7-0.7-2l-1.5,0.8l-1.5-0.8c-0.6,0.4-0.9,1.1-0.9,1.9c0,0.5,0.2,1.1,0.5,1.6
		c0.4,0.7,0.7,1.2,0.8,1.5c0.1-0.2,0.3-0.4,0.6-0.7s0.4-0.5,0.5-0.6h0c-0.3,0-0.6-0.1-0.9-0.4s-0.4-0.5-0.4-0.8s0.1-0.6,0.4-0.8
		s0.5-0.4,0.9-0.4c0.3,0,0.6,0.1,0.8,0.4s0.4,0.5,0.4,0.8c0,0.3-0.1,0.6-0.2,0.9c-0.1,0.3-0.4,0.7-0.9,1.2s-0.7,0.9-0.7,1.2v0.6
		h-1.1v-0.6c0-0.5-0.2-1.1-0.6-1.9s-0.6-1.5-0.6-2.1c0-1.2,0.6-2.1,1.7-2.8l1.5,0.8l1.5-0.8c1.3,0.5,1.9,1.4,1.9,2.9V146.4z
		 M69.2,142.9c0.2,0,0.3-0.1,0.4-0.2c0.1-0.1,0.2-0.3,0.2-0.4c0-0.2-0.1-0.3-0.2-0.4s-0.3-0.2-0.4-0.2c-0.2,0-0.3,0.1-0.4,0.2
		s-0.2,0.3-0.2,0.4c0,0.2,0.1,0.3,0.2,0.4C68.9,142.9,69,142.9,69.2,142.9z"/>
	<path d="M79.9,139.5c-0.3,0.4-0.7,0.6-1.2,0.6c-0.2,0-0.5-0.1-1-0.2s-0.8-0.2-1-0.2c-0.6,0-1,0.2-1.3,0.7c0.3,0,0.6-0.1,0.9-0.1
		c1,0,1.8,0.2,2.3,0.6s0.8,1,0.8,1.7v2.6c0,0.3-0.1,0.6-0.4,0.8s-0.5,0.4-0.8,0.4c-0.3,0-0.6-0.1-0.9-0.4s-0.4-0.5-0.4-0.8
		s0.1-0.6,0.4-0.8s0.5-0.4,0.9-0.4h0.1v-1.2c0-0.7-0.2-1.1-0.5-1.3s-0.9-0.3-1.8-0.3c-0.6,0-1.1,0.1-1.6,0.2c0-0.7,0.3-1.3,0.7-1.7
		c0.4-0.4,0.9-0.6,1.6-0.6c0.3,0,0.7,0.1,1.2,0.2c0.5,0.1,0.7,0.2,0.8,0.2c0.3,0,0.5-0.1,0.7-0.4L79.9,139.5z M78.2,145.8
		c0.2,0,0.3-0.1,0.4-0.2c0.1-0.1,0.2-0.3,0.2-0.4s-0.1-0.3-0.2-0.4c-0.1-0.1-0.3-0.2-0.4-0.2c-0.2,0-0.3,0.1-0.4,0.2
		c-0.1,0.1-0.2,0.3-0.2,0.4s0.1,0.3,0.2,0.4C77.9,145.7,78,145.8,78.2,145.8z"/>
	<path d="M86.2,145.2c0,0.3-0.1,0.6-0.4,0.8s-0.5,0.4-0.8,0.4c-0.3,0-0.6-0.1-0.9-0.4s-0.4-0.5-0.4-0.8s0.1-0.6,0.4-0.8
		s0.5-0.4,0.9-0.4H85v-2.5c0-0.5-0.2-1-0.5-1.3s-0.8-0.4-1.3-0.4c-0.8,0-1.5,0.3-2,1l-0.6-0.5c0.7-0.9,1.5-1.3,2.6-1.3
		c0.8,0,1.5,0.2,2.1,0.7s0.8,1.1,0.8,1.8V145.2z M85,145.8c0.2,0,0.3-0.1,0.4-0.2c0.1-0.1,0.2-0.3,0.2-0.4s-0.1-0.3-0.2-0.4
		c-0.1-0.1-0.3-0.2-0.4-0.2c-0.2,0-0.3,0.1-0.4,0.2c-0.1,0.1-0.2,0.3-0.2,0.4s0.1,0.3,0.2,0.4C84.7,145.7,84.8,145.8,85,145.8z"/>
	<path d="M93,145.1c0,0.4-0.2,0.7-0.5,0.9s-0.7,0.4-1.2,0.4c-0.5,0-0.9-0.1-1.2-0.4s-0.5-0.6-0.5-0.9v-1.4h-0.1
		c-0.3,0-0.6-0.1-0.8-0.4s-0.4-0.5-0.4-0.8s0.1-0.6,0.4-0.8s0.5-0.4,0.8-0.4s0.6,0.1,0.8,0.4s0.4,0.5,0.4,0.8v2.6
		c0,0.1,0.1,0.3,0.2,0.4c0.1,0.1,0.2,0.2,0.4,0.2s0.3-0.1,0.4-0.2c0.1-0.1,0.2-0.2,0.2-0.4v-3.6c0-0.5-0.2-1-0.5-1.3
		s-0.8-0.4-1.3-0.4c-0.8,0-1.5,0.3-2,1l-0.6-0.5c0.7-0.9,1.5-1.3,2.6-1.3c0.8,0,1.5,0.2,2.1,0.7s0.8,1.1,0.8,1.8V145.1z M89.5,143.1
		c0.2,0,0.3-0.1,0.4-0.2s0.2-0.3,0.2-0.4c0-0.2-0.1-0.3-0.2-0.4c-0.1-0.1-0.3-0.2-0.4-0.2s-0.3,0.1-0.4,0.2
		c-0.1,0.1-0.2,0.3-0.2,0.4c0,0.2,0.1,0.3,0.2,0.4S89.4,143.1,89.5,143.1z"/>
	<path d="M100.3,146.4h-1.1V146c-0.3-0.6-0.7-1.4-1.4-2.4c-0.7-1-1.2-1.5-1.4-1.5c-0.2,0-0.3,0.2-0.3,0.5v1.4H96
		c0.3,0,0.6,0.1,0.8,0.4s0.4,0.5,0.4,0.8s-0.1,0.6-0.4,0.8s-0.5,0.4-0.8,0.4s-0.6-0.1-0.8-0.4s-0.4-0.5-0.4-0.8v-2.6
		c0-0.9,0.4-1.4,1.1-1.4c0.3,0,0.6,0.1,0.9,0.3s0.7,0.8,1.3,1.6c0.6,0.8,0.9,1.3,1,1.5v-3.2c0-0.3-0.1-0.5-0.2-0.8
		c-0.5,0.2-1,0.3-1.5,0.3v-0.3c0.4-0.1,0.7-0.2,1.1-0.5c-0.4-0.3-0.9-0.5-1.5-0.5c-0.4,0-0.9,0.1-1.3,0.3c-0.4,0.2-0.8,0.4-1,0.7
		l-0.6-0.5c0.3-0.4,0.7-0.7,1.3-1s1.1-0.4,1.6-0.4c0.8,0,1.5,0.2,2.1,0.6c0.3-0.3,0.5-0.6,0.6-0.9l0.8,0.5c-0.2,0.4-0.5,0.7-0.8,0.9
		c0.3,0.4,0.4,0.8,0.4,1.3V146.4z M96,145.8c0.2,0,0.3-0.1,0.4-0.2c0.1-0.1,0.2-0.3,0.2-0.4s-0.1-0.3-0.2-0.4
		c-0.1-0.1-0.3-0.2-0.4-0.2s-0.3,0.1-0.4,0.2c-0.1,0.1-0.2,0.3-0.2,0.4s0.1,0.3,0.2,0.4C95.7,145.7,95.9,145.8,96,145.8z"/>
	<path d="M107.6,144.9c0,0.4-0.2,0.8-0.5,1.1c-0.3,0.3-0.7,0.4-1.1,0.4h-1.8c-0.4,0-0.8-0.1-1.1-0.4c-0.3-0.3-0.5-0.6-0.5-1.1v-2.6
		c0-0.3,0.1-0.6,0.4-0.8c0.2-0.2,0.5-0.4,0.8-0.4c0.3,0,0.6,0.1,0.8,0.4s0.4,0.5,0.4,0.8s-0.1,0.6-0.4,0.8s-0.5,0.4-0.8,0.4h-0.1
		v1.5c0,0.4,0.2,0.6,0.7,0.6h1.2c0.5,0,0.7-0.2,0.7-0.6v-3.5c0-0.5-0.2-0.9-0.6-1.3c-0.4-0.3-0.9-0.5-1.5-0.5
		c-0.4,0-0.9,0.1-1.3,0.3c-0.4,0.2-0.8,0.4-1,0.7l-0.6-0.5c0.3-0.4,0.7-0.7,1.3-1c0.5-0.2,1.1-0.4,1.6-0.4c0.9,0,1.6,0.2,2.2,0.7
		c0.6,0.5,0.9,1.1,0.9,1.8V144.9z M103.9,142.9c0.2,0,0.3-0.1,0.4-0.2c0.1-0.1,0.2-0.3,0.2-0.4s-0.1-0.3-0.2-0.4
		c-0.1-0.1-0.3-0.2-0.4-0.2c-0.2,0-0.3,0.1-0.4,0.2c-0.1,0.1-0.2,0.3-0.2,0.4s0.1,0.3,0.2,0.4C103.5,142.8,103.7,142.9,103.9,142.9z
		"/>
	<path d="M115.8,144.9c0,0.4-0.2,0.8-0.5,1.1c-0.3,0.3-0.7,0.4-1.1,0.4h-4.7v-0.8h0.7v-4.2h-0.1c-0.3,0-0.6-0.1-0.8-0.4
		c-0.2-0.2-0.4-0.5-0.4-0.8s0.1-0.6,0.4-0.8c0.2-0.2,0.5-0.4,0.8-0.4s0.6,0.1,0.8,0.4c0.2,0.2,0.4,0.5,0.4,0.8v5.4h2.6
		c0.5,0,0.7-0.2,0.7-0.6v-5.8h1.1V144.9z M110.1,140.7c0.2,0,0.3-0.1,0.4-0.2s0.2-0.3,0.2-0.4c0-0.2-0.1-0.3-0.2-0.4
		c-0.1-0.1-0.3-0.2-0.4-0.2c-0.2,0-0.3,0.1-0.4,0.2c-0.1,0.1-0.2,0.3-0.2,0.4c0,0.2,0.1,0.3,0.2,0.4S110,140.7,110.1,140.7z"/>
	<path d="M120.5,144L120.5,144c0.4,0,0.7,0.1,0.9,0.4c0.2,0.2,0.4,0.5,0.4,0.8s-0.1,0.6-0.4,0.8c-0.2,0.2-0.5,0.4-0.8,0.4
		s-0.6-0.1-0.8-0.4c-0.2-0.2-0.4-0.5-0.4-0.8v-9.6c0-1-0.4-1.5-1.3-1.5c-0.4,0-0.7,0.1-0.9,0.4c0,0,0.1,0,0.2,0
		c0.3,0,0.6,0.1,0.8,0.4c0.2,0.2,0.4,0.5,0.4,0.8c0,0.3-0.1,0.6-0.4,0.9c-0.2,0.2-0.5,0.4-0.8,0.4c-0.4,0-0.6-0.1-0.9-0.4
		c-0.2-0.3-0.4-0.6-0.4-1.1c0-0.4,0.2-0.9,0.6-1.3c0.4-0.4,0.9-0.6,1.6-0.6c0.7,0,1.2,0.2,1.6,0.6c0.4,0.4,0.6,0.9,0.6,1.5V144z
		 M117.4,136.3c0.2,0,0.3-0.1,0.4-0.2c0.1-0.1,0.2-0.3,0.2-0.4c0-0.2-0.1-0.3-0.2-0.4s-0.3-0.2-0.4-0.2c-0.2,0-0.3,0.1-0.4,0.2
		s-0.2,0.3-0.2,0.4c0,0.2,0.1,0.3,0.2,0.4C117.1,136.2,117.3,136.3,117.4,136.3z M120.6,145.8c0.2,0,0.3-0.1,0.4-0.2
		c0.1-0.1,0.2-0.3,0.2-0.4s-0.1-0.3-0.2-0.4c-0.1-0.1-0.3-0.2-0.4-0.2c-0.2,0-0.3,0.1-0.4,0.2c-0.1,0.1-0.2,0.3-0.2,0.4
		s0.1,0.3,0.2,0.4C120.3,145.7,120.4,145.8,120.6,145.8z"/>
	<path d="M130.2,146.4H129v-4c0-0.3,0-0.6-0.1-0.6c-1.3,1-2.2,1.9-2.7,2.6c-0.5,0.7-0.8,1.4-0.8,2.1h-1.1v-5h-0.1
		c-0.3,0-0.6-0.1-0.8-0.4c-0.2-0.2-0.4-0.5-0.4-0.8s0.1-0.6,0.4-0.8c0.2-0.2,0.5-0.4,0.8-0.4s0.6,0.1,0.8,0.4
		c0.2,0.2,0.4,0.5,0.4,0.8v4.2c0.3-0.8,1.4-1.8,3.1-3.1c-0.5-0.3-0.8-0.7-0.8-1.1c0-0.3,0.1-0.6,0.4-0.8c0.2-0.2,0.5-0.4,0.8-0.4
		s0.6,0.1,0.8,0.4c0.2,0.2,0.4,0.5,0.4,0.8c0,0.4-0.2,0.8-0.5,1.1c0.4,0.2,0.6,0.6,0.6,1.1V146.4z M124.2,140.7
		c0.2,0,0.3-0.1,0.4-0.2s0.2-0.3,0.2-0.4c0-0.2-0.1-0.3-0.2-0.4c-0.1-0.1-0.3-0.2-0.4-0.2c-0.2,0-0.3,0.1-0.4,0.2
		c-0.1,0.1-0.2,0.3-0.2,0.4c0,0.2,0.1,0.3,0.2,0.4S124,140.7,124.2,140.7z M129,140.9c0.3-0.2,0.5-0.5,0.5-0.8
		c0-0.2-0.1-0.3-0.2-0.4c-0.1-0.1-0.3-0.2-0.4-0.2c-0.2,0-0.3,0.1-0.4,0.2c-0.1,0.1-0.2,0.3-0.2,0.4
		C128.3,140.4,128.5,140.7,129,140.9z"/>
	<path d="M130.9,135.5c0,0.8-0.3,1.4-0.9,1.9s-1.3,0.7-2.3,0.7c-0.3,0-0.6,0-0.9-0.1v-0.4c0.4,0,0.8-0.1,1-0.4
		c-0.2,0-0.4-0.1-0.6-0.3c-0.2-0.2-0.3-0.4-0.3-0.6s0.1-0.4,0.3-0.6c0.2-0.2,0.4-0.3,0.6-0.3c0.2,0,0.4,0.1,0.6,0.3
		c0.2,0.2,0.3,0.4,0.3,0.6c0,0.5-0.2,0.9-0.7,1.2c0.6,0,1.2-0.2,1.6-0.6c0.5-0.4,0.7-0.9,0.7-1.5H130.9z M127.8,136.8
		c0.1,0,0.2,0,0.3-0.1c0.1-0.1,0.1-0.2,0.1-0.3c0-0.1,0-0.2-0.1-0.3c-0.1-0.1-0.2-0.1-0.3-0.1c-0.1,0-0.2,0-0.3,0.1
		c-0.1,0.1-0.1,0.2-0.1,0.3c0,0.1,0,0.2,0.1,0.3C127.6,136.7,127.7,136.8,127.8,136.8z"/>
	<path d="M133,144L133,144c0.4,0,0.7,0.1,0.9,0.4s0.4,0.5,0.4,0.8s-0.1,0.6-0.4,0.8s-0.5,0.4-0.9,0.4c-0.3,0-0.6-0.1-0.8-0.4
		s-0.4-0.5-0.4-0.8v-6.1h1.1V144z M133.1,145.8c0.2,0,0.3-0.1,0.4-0.2c0.1-0.1,0.2-0.3,0.2-0.4s-0.1-0.3-0.2-0.4
		c-0.1-0.1-0.3-0.2-0.4-0.2c-0.2,0-0.3,0.1-0.4,0.2c-0.1,0.1-0.2,0.3-0.2,0.4s0.1,0.3,0.2,0.4C132.8,145.7,132.9,145.8,133.1,145.8z
		 M137,144L137,144c0.4,0,0.7,0.1,0.9,0.4c0.2,0.2,0.4,0.5,0.4,0.8s-0.1,0.6-0.4,0.8c-0.2,0.2-0.5,0.4-0.8,0.4s-0.6-0.1-0.8-0.4
		c-0.2-0.2-0.4-0.5-0.4-0.8v-6.1h1.1V144z M137.1,145.8c0.2,0,0.3-0.1,0.4-0.2c0.1-0.1,0.2-0.3,0.2-0.4s-0.1-0.3-0.2-0.4
		c-0.1-0.1-0.3-0.2-0.4-0.2c-0.2,0-0.3,0.1-0.4,0.2c-0.1,0.1-0.2,0.3-0.2,0.4s0.1,0.3,0.2,0.4C136.8,145.7,136.9,145.8,137.1,145.8z
		"/>
	<path d="M146,143.5c0.8,0.3,1.2,0.8,1.2,1.6c0,0.4-0.1,0.7-0.3,1c-0.2,0.2-0.5,0.4-0.8,0.4c-0.4,0-0.7-0.1-0.9-0.3
		s-0.3-0.6-0.3-1.1v-0.9c-1.1,0.2-2.2,1-3,2.2h-1.1v-5h-0.1c-0.3,0-0.6-0.1-0.8-0.4c-0.2-0.2-0.4-0.5-0.4-0.8s0.1-0.6,0.4-0.8
		c0.2-0.2,0.5-0.4,0.8-0.4s0.6,0.1,0.8,0.4c0.2,0.2,0.4,0.5,0.4,0.8v5.2c0.8-1,1.8-1.6,3-1.9v-4.4h1.1V143.5z M140.7,140.7
		c0.2,0,0.3-0.1,0.4-0.2s0.2-0.3,0.2-0.4c0-0.2-0.1-0.3-0.2-0.4c-0.1-0.1-0.3-0.2-0.4-0.2c-0.2,0-0.3,0.1-0.4,0.2
		c-0.1,0.1-0.2,0.3-0.2,0.4c0,0.2,0.1,0.3,0.2,0.4S140.5,140.7,140.7,140.7z M146.7,145c0-0.2-0.1-0.4-0.2-0.6
		c-0.1-0.2-0.3-0.3-0.5-0.4v1.2c0,0.2,0,0.3,0,0.4c0,0.1,0.1,0.1,0.2,0.1C146.5,145.8,146.7,145.5,146.7,145z"/>
	<path d="M146.5,138.1H146v-2.3h0.6V138.1z"/>
	<path d="M151.6,144L151.6,144c0.4,0,0.7,0.1,0.9,0.4c0.2,0.2,0.4,0.5,0.4,0.8s-0.1,0.6-0.4,0.8c-0.2,0.2-0.5,0.4-0.8,0.4
		s-0.6-0.1-0.8-0.4c-0.2-0.2-0.4-0.5-0.4-0.8v-9.6c0-1-0.4-1.5-1.3-1.5c-0.4,0-0.7,0.1-0.9,0.4c0,0,0.1,0,0.2,0
		c0.3,0,0.6,0.1,0.8,0.4c0.2,0.2,0.4,0.5,0.4,0.8c0,0.3-0.1,0.6-0.4,0.9c-0.2,0.2-0.5,0.4-0.8,0.4c-0.4,0-0.6-0.1-0.9-0.4
		c-0.2-0.3-0.4-0.6-0.4-1.1c0-0.4,0.2-0.9,0.6-1.3c0.4-0.4,0.9-0.6,1.6-0.6c0.7,0,1.2,0.2,1.6,0.6c0.4,0.4,0.6,0.9,0.6,1.5V144z
		 M148.5,136.3c0.2,0,0.3-0.1,0.4-0.2c0.1-0.1,0.2-0.3,0.2-0.4c0-0.2-0.1-0.3-0.2-0.4s-0.3-0.2-0.4-0.2c-0.2,0-0.3,0.1-0.4,0.2
		s-0.2,0.3-0.2,0.4c0,0.2,0.1,0.3,0.2,0.4C148.1,136.2,148.3,136.3,148.5,136.3z M151.6,145.8c0.2,0,0.3-0.1,0.4-0.2
		c0.1-0.1,0.2-0.3,0.2-0.4s-0.1-0.3-0.2-0.4c-0.1-0.1-0.3-0.2-0.4-0.2c-0.2,0-0.3,0.1-0.4,0.2c-0.1,0.1-0.2,0.3-0.2,0.4
		s0.1,0.3,0.2,0.4C151.3,145.7,151.5,145.8,151.6,145.8z"/>
	<path d="M159.5,145.1c0,0.4-0.2,0.7-0.5,0.9c-0.3,0.3-0.7,0.4-1.2,0.4c-0.5,0-0.9-0.1-1.2-0.4c-0.3-0.3-0.5-0.6-0.5-0.9v-1.4h-0.1
		c-0.3,0-0.6-0.1-0.8-0.4c-0.2-0.2-0.4-0.5-0.4-0.8s0.1-0.6,0.4-0.8c0.2-0.2,0.5-0.4,0.8-0.4s0.6,0.1,0.8,0.4
		c0.2,0.2,0.4,0.5,0.4,0.8v2.6c0,0.1,0.1,0.3,0.2,0.4c0.1,0.1,0.2,0.2,0.4,0.2c0.1,0,0.3-0.1,0.4-0.2c0.1-0.1,0.2-0.2,0.2-0.4v-3.6
		c0-0.5-0.2-1-0.5-1.3s-0.8-0.4-1.3-0.4c-0.8,0-1.5,0.3-2,1l-0.6-0.5c0.7-0.9,1.5-1.3,2.6-1.3c0.8,0,1.5,0.2,2.1,0.7
		s0.8,1.1,0.8,1.8V145.1z M156.1,143.1c0.2,0,0.3-0.1,0.4-0.2s0.2-0.3,0.2-0.4c0-0.2-0.1-0.3-0.2-0.4c-0.1-0.1-0.3-0.2-0.4-0.2
		c-0.2,0-0.3,0.1-0.4,0.2c-0.1,0.1-0.2,0.3-0.2,0.4c0,0.2,0.1,0.3,0.2,0.4S155.9,143.1,156.1,143.1z"/>
	<path d="M39.4,162c0,0.3-0.1,0.6-0.4,0.8s-0.5,0.4-0.8,0.4c-0.3,0-0.6-0.1-0.9-0.4S37,162.3,37,162s0.1-0.6,0.4-0.8
		s0.5-0.4,0.9-0.4h0.1v-2.5c0-0.5-0.2-1-0.5-1.3s-0.8-0.4-1.3-0.4c-0.8,0-1.5,0.3-2,1l-0.6-0.5c0.7-0.9,1.5-1.3,2.6-1.3
		c0.8,0,1.5,0.2,2.1,0.7s0.8,1.1,0.8,1.8V162z M38.2,162.6c0.2,0,0.3-0.1,0.4-0.2c0.1-0.1,0.2-0.3,0.2-0.4s-0.1-0.3-0.2-0.4
		c-0.1-0.1-0.3-0.2-0.4-0.2c-0.2,0-0.3,0.1-0.4,0.2c-0.1,0.1-0.2,0.3-0.2,0.4s0.1,0.3,0.2,0.4C37.9,162.5,38.1,162.6,38.2,162.6z"/>
	<path d="M39.2,154.9h-0.6v-2.3h0.6V154.9z"/>
	<path d="M45.3,163.2h-1.1v-4.9c0-1.1-0.5-1.7-1.5-1.7c-0.7,0-1.2,0.3-1.7,1l-0.6-0.5c0.7-0.9,1.4-1.3,2.3-1.3
		c0.8,0,1.4,0.2,1.9,0.7s0.7,1.1,0.7,1.8V163.2z"/>
	<path d="M53.2,161.7c0,0.4-0.2,0.8-0.5,1.1c-0.3,0.3-0.7,0.4-1.1,0.4h-3.2v-0.8H49v-3.1c0-0.3,0.1-0.5,0.4-0.8
		c0.2-0.3,0.4-0.6,0.4-0.9c0-0.3-0.1-0.6-0.4-0.9s-0.6-0.3-0.9-0.3c-0.2,0-0.4,0-0.6,0.1c0.6,0.2,0.9,0.6,0.9,1.2
		c0,0.3-0.1,0.6-0.4,0.8s-0.5,0.4-0.8,0.4s-0.6-0.1-0.8-0.4s-0.4-0.5-0.4-0.8c0-0.5,0.2-0.9,0.6-1.3s0.9-0.6,1.5-0.6
		c0.7,0,1.3,0.2,1.7,0.5s0.6,0.8,0.6,1.3c0,0.3-0.1,0.7-0.3,1s-0.3,0.5-0.3,0.7v3.1h1.1c0.5,0,0.7-0.2,0.7-0.6v-5.8h1.1V161.7z
		 M47.6,158.2c0.2,0,0.3-0.1,0.4-0.2c0.1-0.1,0.2-0.3,0.2-0.4s-0.1-0.3-0.2-0.4c-0.1-0.1-0.3-0.2-0.4-0.2s-0.3,0.1-0.4,0.2
		c-0.1,0.1-0.2,0.3-0.2,0.4s0.1,0.3,0.2,0.4C47.3,158.2,47.4,158.2,47.6,158.2z"/>
	<path d="M53.9,152.3c0,0.8-0.3,1.4-0.9,1.9s-1.3,0.7-2.3,0.7c-0.3,0-0.6,0-0.9-0.1v-0.4c0.4,0,0.8-0.1,1-0.4
		c-0.2,0-0.4-0.1-0.6-0.3c-0.2-0.2-0.3-0.4-0.3-0.6s0.1-0.4,0.3-0.6c0.2-0.2,0.4-0.3,0.6-0.3s0.4,0.1,0.6,0.3
		c0.2,0.2,0.3,0.4,0.3,0.6c0,0.5-0.2,0.9-0.7,1.2c0.6,0,1.2-0.2,1.6-0.6s0.7-0.9,0.7-1.5H53.9z M50.8,153.6c0.1,0,0.2,0,0.3-0.1
		s0.1-0.2,0.1-0.3c0-0.1,0-0.2-0.1-0.3s-0.2-0.1-0.3-0.1c-0.1,0-0.2,0-0.3,0.1s-0.1,0.2-0.1,0.3c0,0.1,0,0.2,0.1,0.3
		S50.7,153.6,50.8,153.6z"/>
	<path d="M60.5,161.7c0,0.4-0.2,0.8-0.5,1.1c-0.3,0.3-0.7,0.4-1.1,0.4h-1.8c-0.4,0-0.8-0.1-1.1-0.4c-0.3-0.3-0.5-0.6-0.5-1.1v-2.6
		c0-0.3,0.1-0.6,0.4-0.8s0.5-0.4,0.8-0.4c0.3,0,0.6,0.1,0.8,0.4s0.4,0.5,0.4,0.8s-0.1,0.6-0.4,0.8s-0.5,0.4-0.8,0.4h-0.1v1.5
		c0,0.4,0.2,0.6,0.7,0.6h1.2c0.5,0,0.7-0.2,0.7-0.6v-3.5c0-0.5-0.2-0.9-0.6-1.3s-0.9-0.5-1.5-0.5c-0.4,0-0.9,0.1-1.3,0.3
		c-0.4,0.2-0.8,0.4-1,0.7l-0.6-0.5c0.3-0.4,0.7-0.7,1.3-1s1.1-0.4,1.6-0.4c0.9,0,1.6,0.2,2.2,0.7c0.6,0.5,0.9,1.1,0.9,1.8V161.7z
		 M56.8,159.7c0.2,0,0.3-0.1,0.4-0.2c0.1-0.1,0.2-0.3,0.2-0.4s-0.1-0.3-0.2-0.4c-0.1-0.1-0.3-0.2-0.4-0.2c-0.2,0-0.3,0.1-0.4,0.2
		c-0.1,0.1-0.2,0.3-0.2,0.4s0.1,0.3,0.2,0.4C56.5,159.6,56.6,159.7,56.8,159.7z"/>
	<path d="M68.7,163.2h-1.1c-0.8-1.5-1.9-2.4-3.3-2.5v1.2c0,0.9-0.5,1.4-1.4,1.4c-0.4,0-0.7-0.1-0.9-0.4s-0.4-0.6-0.4-1
		c0-0.4,0.1-0.8,0.4-1.2c0.3-0.3,0.6-0.6,1.1-0.7v-1.9H63c-0.3,0-0.6-0.1-0.8-0.4s-0.4-0.5-0.4-0.8s0.1-0.6,0.4-0.8s0.5-0.4,0.8-0.4
		s0.6,0.1,0.8,0.4s0.4,0.5,0.4,0.8v3.1c1.3,0.1,2.4,0.8,3.3,1.9v-6h1.1V163.2z M63.1,161.9v-1.3c-0.3,0.1-0.5,0.2-0.6,0.5
		s-0.2,0.5-0.2,0.8c0,0.2,0,0.4,0.1,0.5c0.1,0.1,0.2,0.2,0.4,0.2C63,162.6,63.1,162.4,63.1,161.9z M63,157.5c0.2,0,0.3-0.1,0.4-0.2
		s0.2-0.3,0.2-0.4c0-0.2-0.1-0.3-0.2-0.4c-0.1-0.1-0.3-0.2-0.4-0.2s-0.3,0.1-0.4,0.2c-0.1,0.1-0.2,0.3-0.2,0.4
		c0,0.2,0.1,0.3,0.2,0.4S62.9,157.5,63,157.5z"/>
	<path d="M68.7,165.2c0,0.6-0.3,0.9-1,0.9h-1.1v-0.7c-0.2,0-0.3-0.1-0.4-0.2c-0.1-0.1-0.2-0.2-0.2-0.4c0-0.2,0.1-0.3,0.2-0.4
		s0.2-0.2,0.4-0.2c0.2,0,0.4,0.1,0.5,0.2s0.2,0.3,0.2,0.5v0.7h0.5c0.3,0,0.4-0.2,0.4-0.5v-0.9h0.6V165.2z M66.5,165.1
		c0.2,0,0.3-0.1,0.3-0.3s-0.1-0.3-0.3-0.3s-0.3,0.1-0.3,0.3S66.3,165.1,66.5,165.1z"/>
	<path d="M75.5,163.2h-1.1V163c-0.5-1.2-0.9-2.2-1.4-2.9c-0.4-0.7-0.8-1.1-1-1.1c-0.2,0-0.3,0.2-0.3,0.5v1.4h0.1
		c0.3,0,0.6,0.1,0.8,0.4s0.4,0.5,0.4,0.8s-0.1,0.6-0.4,0.8s-0.5,0.4-0.8,0.4s-0.6-0.1-0.8-0.4s-0.4-0.5-0.4-0.8v-2.6
		c0-0.9,0.4-1.4,1.1-1.4c0.8,0,1.7,1.1,2.6,3.3v-3.1c0-0.5-0.2-1-0.5-1.3s-0.8-0.4-1.3-0.4c-0.8,0-1.5,0.3-2,1l-0.6-0.5
		c0.7-0.9,1.5-1.3,2.6-1.3c0.8,0,1.5,0.2,2.1,0.7s0.8,1.1,0.8,1.8V163.2z M71.8,162.6c0.2,0,0.3-0.1,0.4-0.2
		c0.1-0.1,0.2-0.3,0.2-0.4s-0.1-0.3-0.2-0.4c-0.1-0.1-0.3-0.2-0.4-0.2s-0.3,0.1-0.4,0.2c-0.1,0.1-0.2,0.3-0.2,0.4s0.1,0.3,0.2,0.4
		C71.5,162.5,71.6,162.6,71.8,162.6z"/>
	<path d="M83.5,163.2h-1.1v-6.1c0-0.3-0.1-0.4-0.3-0.4c-0.1,0-0.2,0.1-0.3,0.2s-0.3,0.4-0.5,0.7s-0.4,0.8-0.6,1.3
		c-0.2,0.5-0.5,1.3-0.9,2.3c-0.4,1-0.6,1.6-0.6,1.8v0.2H78v-5H78c-0.3,0-0.6-0.1-0.8-0.4s-0.4-0.5-0.4-0.8s0.1-0.6,0.4-0.8
		s0.5-0.4,0.8-0.4s0.6,0.1,0.8,0.4s0.4,0.5,0.4,0.8v3.6c0.5-1.4,1-2.5,1.6-3.4c0.5-0.9,1.1-1.4,1.7-1.4c0.7,0,1.1,0.5,1.1,1.4V163.2
		z M78,157.5c0.2,0,0.3-0.1,0.4-0.2s0.2-0.3,0.2-0.4c0-0.2-0.1-0.3-0.2-0.4c-0.1-0.1-0.3-0.2-0.4-0.2s-0.3,0.1-0.4,0.2
		c-0.1,0.1-0.2,0.3-0.2,0.4c0,0.2,0.1,0.3,0.2,0.4S77.8,157.5,78,157.5z"/>
	<path d="M83.5,154.9h-5.5c0.4-1.4,1.3-2.2,2.7-2.2c0.9,0,1.6,0.3,2.2,1v-1.4h0.6V154.9z M82.6,154.3c-0.3-0.7-0.9-1.1-1.8-1.1
		s-1.5,0.4-1.8,1.1H82.6z"/>
	<path d="M83.2,154.9h-0.6v-2.3h0.6V154.9z"/>
	<path d="M91.4,163.2h-1.1v-4.7c0-0.6-0.2-1-0.6-1.4c-0.4-0.3-0.9-0.5-1.6-0.5c-0.7,0-1.3,0.2-1.7,0.6c-0.4,0.4-0.6,0.9-0.6,1.4
		c0,0.6,0.2,1.2,0.5,1.7v-1.1c0-0.3,0.1-0.6,0.4-0.8s0.5-0.4,0.9-0.4c0.3,0,0.6,0.1,0.8,0.4s0.4,0.5,0.4,0.8s-0.1,0.6-0.4,0.8
		s-0.5,0.4-0.8,0.4h-0.1v2.8h-1.1v-0.6c0-0.5-0.2-1.1-0.6-1.9s-0.6-1.5-0.6-2.1c0-0.8,0.3-1.4,0.9-2s1.3-0.8,2.3-0.8
		c1,0,1.8,0.2,2.4,0.7c0.6,0.5,0.9,1.1,0.9,1.9V163.2z M87.4,159.7c0.2,0,0.3-0.1,0.4-0.2c0.1-0.1,0.2-0.3,0.2-0.4
		c0-0.2-0.1-0.3-0.2-0.4s-0.3-0.2-0.4-0.2c-0.2,0-0.3,0.1-0.4,0.2s-0.2,0.3-0.2,0.4c0,0.2,0.1,0.3,0.2,0.4
		C87.1,159.7,87.2,159.7,87.4,159.7z"/>
	<path d="M91.4,166.1h-0.6v-0.7c-0.2,0-0.3-0.1-0.4-0.2c-0.1-0.1-0.2-0.2-0.2-0.4c0-0.2,0.1-0.3,0.2-0.4s0.2-0.2,0.4-0.2
		c0.2,0,0.4,0.1,0.5,0.2s0.2,0.3,0.2,0.5V166.1z M90.8,165.1c0.2,0,0.3-0.1,0.3-0.3s-0.1-0.3-0.3-0.3s-0.3,0.1-0.3,0.3
		S90.6,165.1,90.8,165.1z"/>
	<path d="M98.3,163.2h-1.1v-4.7c0-0.6-0.1-1.1-0.4-1.4s-0.7-0.5-1.2-0.5c-0.8,0-1.3,0.3-1.6,0.9c0.3,0.4,0.8,0.7,1.6,0.8v0.4
		c-0.3,0-0.5,0.1-0.7,0.3s-0.3,0.4-0.3,0.7v1.2h0.1c0.3,0,0.6,0.1,0.9,0.4s0.4,0.5,0.4,0.8s-0.1,0.6-0.4,0.8s-0.5,0.4-0.9,0.4
		c-0.3,0-0.6-0.1-0.8-0.4s-0.4-0.5-0.4-0.8v-2.4c0-0.5,0.2-0.9,0.6-1.1c-0.6-0.2-1-0.5-1.2-1c0.6-1.1,1.5-1.7,2.8-1.7
		c0.8,0,1.5,0.2,2,0.7s0.8,1.1,0.8,1.9v3.3c0.5-0.9,1.1-1.4,1.9-1.6v-4.1h1.1v4.1c0.4,0.1,0.8,0.4,1.1,0.7c0.3,0.4,0.4,0.7,0.4,1.1
		c0,0.4-0.1,0.7-0.3,1s-0.5,0.4-0.9,0.4c-0.9,0-1.4-0.5-1.4-1.4v-1.1c-0.3,0.1-0.6,0.3-1,0.8C98.8,162,98.5,162.5,98.3,163.2z
		 M94.6,162.6c0.2,0,0.3-0.1,0.4-0.2c0.1-0.1,0.2-0.3,0.2-0.4s-0.1-0.3-0.2-0.4c-0.1-0.1-0.3-0.2-0.4-0.2c-0.2,0-0.3,0.1-0.4,0.2
		c-0.1,0.1-0.2,0.3-0.2,0.4s0.1,0.3,0.2,0.4C94.3,162.5,94.5,162.6,94.6,162.6z M102.2,161.8c0-0.2-0.1-0.5-0.2-0.7
		c-0.2-0.2-0.4-0.4-0.6-0.5v1.3c0,0.4,0.1,0.6,0.4,0.6C102,162.6,102.2,162.3,102.2,161.8z"/>
	<path d="M110.4,161.7c0,0.4-0.2,0.8-0.5,1.1c-0.3,0.3-0.7,0.4-1.1,0.4h-4.7v-0.8h0.7v-4.2h-0.1c-0.3,0-0.6-0.1-0.8-0.4
		c-0.2-0.2-0.4-0.5-0.4-0.8s0.1-0.6,0.4-0.8c0.2-0.2,0.5-0.4,0.8-0.4s0.6,0.1,0.8,0.4c0.2,0.2,0.4,0.5,0.4,0.8v5.4h2.6
		c0.5,0,0.7-0.2,0.7-0.6v-9.6h1.1V161.7z M104.8,157.5c0.2,0,0.3-0.1,0.4-0.2s0.2-0.3,0.2-0.4c0-0.2-0.1-0.3-0.2-0.4
		c-0.1-0.1-0.3-0.2-0.4-0.2c-0.2,0-0.3,0.1-0.4,0.2c-0.1,0.1-0.2,0.3-0.2,0.4c0,0.2,0.1,0.3,0.2,0.4S104.6,157.5,104.8,157.5z"/>
	<path d="M111.2,152.3c0,0.8-0.3,1.4-0.9,1.9s-1.3,0.7-2.3,0.7c-0.3,0-0.6,0-0.9-0.1v-0.4c0.4,0,0.8-0.1,1-0.4
		c-0.2,0-0.4-0.1-0.6-0.3c-0.2-0.2-0.3-0.4-0.3-0.6s0.1-0.4,0.3-0.6c0.2-0.2,0.4-0.3,0.6-0.3c0.2,0,0.4,0.1,0.6,0.3
		c0.2,0.2,0.3,0.4,0.3,0.6c0,0.5-0.2,0.9-0.7,1.2c0.6,0,1.2-0.2,1.6-0.6c0.5-0.4,0.7-0.9,0.7-1.5H111.2z M108.1,153.6
		c0.1,0,0.2,0,0.3-0.1c0.1-0.1,0.1-0.2,0.1-0.3c0-0.1,0-0.2-0.1-0.3c-0.1-0.1-0.2-0.1-0.3-0.1c-0.1,0-0.2,0-0.3,0.1
		c-0.1,0.1-0.1,0.2-0.1,0.3c0,0.1,0,0.2,0.1,0.3C107.9,153.5,108,153.6,108.1,153.6z"/>
	<path d="M117.8,161.7c0,0.4-0.2,0.8-0.5,1.1c-0.3,0.3-0.7,0.4-1.1,0.4h-1.8c-0.4,0-0.8-0.1-1.1-0.4c-0.3-0.3-0.5-0.6-0.5-1.1v-2.6
		c0-0.3,0.1-0.6,0.4-0.8c0.2-0.2,0.5-0.4,0.8-0.4c0.3,0,0.6,0.1,0.8,0.4s0.4,0.5,0.4,0.8s-0.1,0.6-0.4,0.8s-0.5,0.4-0.8,0.4h-0.1
		v1.5c0,0.4,0.2,0.6,0.7,0.6h1.2c0.5,0,0.7-0.2,0.7-0.6v-3.5c0-0.5-0.2-0.9-0.6-1.3c-0.4-0.3-0.9-0.5-1.5-0.5
		c-0.4,0-0.9,0.1-1.3,0.3c-0.4,0.2-0.8,0.4-1,0.7l-0.6-0.5c0.3-0.4,0.7-0.7,1.3-1c0.5-0.2,1.1-0.4,1.6-0.4c0.9,0,1.6,0.2,2.2,0.7
		c0.6,0.5,0.9,1.1,0.9,1.8V161.7z M114,159.7c0.2,0,0.3-0.1,0.4-0.2c0.1-0.1,0.2-0.3,0.2-0.4s-0.1-0.3-0.2-0.4
		c-0.1-0.1-0.3-0.2-0.4-0.2c-0.2,0-0.3,0.1-0.4,0.2c-0.1,0.1-0.2,0.3-0.2,0.4s0.1,0.3,0.2,0.4C113.7,159.6,113.8,159.7,114,159.7z"
		/>
	<path d="M125.6,160.3c0.8,0.3,1.2,0.8,1.2,1.6c0,0.4-0.1,0.7-0.3,1c-0.2,0.2-0.5,0.4-0.8,0.4c-0.4,0-0.7-0.1-0.9-0.3
		s-0.3-0.6-0.3-1.1v-0.9c-1.1,0.2-2.2,1-3,2.2h-1.1v-5h-0.1c-0.3,0-0.6-0.1-0.8-0.4c-0.2-0.2-0.4-0.5-0.4-0.8s0.1-0.6,0.4-0.8
		c0.2-0.2,0.5-0.4,0.8-0.4s0.6,0.1,0.8,0.4c0.2,0.2,0.4,0.5,0.4,0.8v5.2c0.8-1,1.8-1.6,3-1.9v-4.4h1.1V160.3z M120.3,157.5
		c0.2,0,0.3-0.1,0.4-0.2s0.2-0.3,0.2-0.4c0-0.2-0.1-0.3-0.2-0.4c-0.1-0.1-0.3-0.2-0.4-0.2c-0.2,0-0.3,0.1-0.4,0.2
		c-0.1,0.1-0.2,0.3-0.2,0.4c0,0.2,0.1,0.3,0.2,0.4S120.1,157.5,120.3,157.5z M126.3,161.8c0-0.2-0.1-0.4-0.2-0.6
		c-0.1-0.2-0.3-0.3-0.5-0.4v1.2c0,0.2,0,0.3,0,0.4c0,0.1,0.1,0.1,0.2,0.1C126.1,162.6,126.3,162.3,126.3,161.8z"/>
	<path d="M134.1,163.2H133v-4.7c0-0.6-0.2-1-0.6-1.4s-0.9-0.5-1.5-0.5c-0.9,0-1.5,0.3-1.9,0.9c0.3,0.4,0.8,0.7,1.6,0.8v0.4
		c-0.3,0-0.5,0.1-0.7,0.3c-0.2,0.2-0.3,0.4-0.3,0.7v1.2h0.1c0.3,0,0.6,0.1,0.9,0.4s0.4,0.5,0.4,0.8s-0.1,0.6-0.4,0.8
		s-0.5,0.4-0.9,0.4c-0.3,0-0.6-0.1-0.8-0.4s-0.4-0.5-0.4-0.8v-2.4c0-0.5,0.2-0.9,0.6-1.1c-0.6-0.2-1-0.5-1.2-1
		c0.6-1.1,1.6-1.7,3.1-1.7c0.9,0,1.7,0.2,2.3,0.7c0.6,0.5,0.9,1.1,0.9,1.9V163.2z M129.7,162.6c0.2,0,0.3-0.1,0.4-0.2
		c0.1-0.1,0.2-0.3,0.2-0.4s-0.1-0.3-0.2-0.4c-0.1-0.1-0.3-0.2-0.4-0.2c-0.2,0-0.3,0.1-0.4,0.2c-0.1,0.1-0.2,0.3-0.2,0.4
		s0.1,0.3,0.2,0.4C129.4,162.5,129.5,162.6,129.7,162.6z"/>
	<path d="M134.1,165.2c0,0.6-0.3,0.9-1,0.9h-1.1v-0.7c-0.2,0-0.3-0.1-0.4-0.2c-0.1-0.1-0.2-0.2-0.2-0.4c0-0.2,0.1-0.3,0.2-0.4
		s0.2-0.2,0.4-0.2c0.2,0,0.4,0.1,0.5,0.2s0.2,0.3,0.2,0.5v0.7h0.5c0.3,0,0.4-0.2,0.4-0.5v-0.9h0.6V165.2z M131.9,165.1
		c0.2,0,0.3-0.1,0.3-0.3s-0.1-0.3-0.3-0.3c-0.2,0-0.3,0.1-0.3,0.3S131.7,165.1,131.9,165.1z"/>
	<path d="M141.7,163.2h-1.1v-4.7c0-0.6-0.2-1-0.6-1.4s-0.9-0.5-1.5-0.5c-0.9,0-1.5,0.3-1.9,0.9c0.3,0.4,0.8,0.7,1.6,0.8v0.4
		c-0.3,0-0.5,0.1-0.7,0.3c-0.2,0.2-0.3,0.4-0.3,0.7v3.6h-1.1v-3.6c0-0.5,0.2-0.9,0.6-1.1c-0.6-0.2-1-0.5-1.2-1
		c0.6-1.1,1.6-1.7,3.1-1.7c0.9,0,1.7,0.2,2.3,0.7c0.6,0.5,0.9,1.1,0.9,1.9V163.2z"/>
	<path d="M149.6,163.2h-1.1v-4.5c0-1.1-0.2-1.7-0.7-2l-1.5,0.8l-1.5-0.8c-0.6,0.4-0.9,1.1-0.9,1.9c0,0.5,0.2,1.1,0.5,1.6
		c0.4,0.7,0.7,1.2,0.8,1.5c0.1-0.2,0.3-0.4,0.6-0.7s0.4-0.5,0.5-0.6h0c-0.3,0-0.6-0.1-0.9-0.4s-0.4-0.5-0.4-0.8s0.1-0.6,0.4-0.8
		s0.5-0.4,0.9-0.4c0.3,0,0.6,0.1,0.8,0.4s0.4,0.5,0.4,0.8c0,0.3-0.1,0.6-0.2,0.9c-0.1,0.3-0.4,0.7-0.9,1.2c-0.5,0.5-0.7,0.9-0.7,1.2
		v0.6h-1.1v-0.6c0-0.5-0.2-1.1-0.6-1.9c-0.4-0.8-0.6-1.5-0.6-2.1c0-1.2,0.6-2.1,1.7-2.8l1.5,0.8l1.5-0.8c1.3,0.5,1.9,1.4,1.9,2.9
		V163.2z M146.2,159.7c0.2,0,0.3-0.1,0.4-0.2c0.1-0.1,0.2-0.3,0.2-0.4c0-0.2-0.1-0.3-0.2-0.4c-0.1-0.1-0.3-0.2-0.4-0.2
		c-0.2,0-0.3,0.1-0.4,0.2s-0.2,0.3-0.2,0.4c0,0.2,0.1,0.3,0.2,0.4C145.9,159.7,146,159.7,146.2,159.7z"/>
	<path d="M150.4,152.3c0,0.8-0.3,1.4-0.9,1.9s-1.3,0.7-2.3,0.7c-0.3,0-0.6,0-0.9-0.1v-0.4c0.4,0,0.8-0.1,1-0.4
		c-0.2,0-0.4-0.1-0.6-0.3c-0.2-0.2-0.3-0.4-0.3-0.6s0.1-0.4,0.3-0.6c0.2-0.2,0.4-0.3,0.6-0.3c0.2,0,0.4,0.1,0.6,0.3
		c0.2,0.2,0.3,0.4,0.3,0.6c0,0.5-0.2,0.9-0.7,1.2c0.6,0,1.2-0.2,1.6-0.6c0.5-0.4,0.7-0.9,0.7-1.5H150.4z M147.3,153.6
		c0.1,0,0.2,0,0.3-0.1c0.1-0.1,0.1-0.2,0.1-0.3c0-0.1,0-0.2-0.1-0.3c-0.1-0.1-0.2-0.1-0.3-0.1c-0.1,0-0.2,0-0.3,0.1
		c-0.1,0.1-0.1,0.2-0.1,0.3c0,0.1,0,0.2,0.1,0.3C147,153.5,147.1,153.6,147.3,153.6z"/>
	<path d="M156.9,161.7c0,0.4-0.2,0.8-0.5,1.1c-0.3,0.3-0.7,0.4-1.1,0.4h-1.8c-0.4,0-0.8-0.1-1.1-0.4c-0.3-0.3-0.5-0.6-0.5-1.1v-2.6
		c0-0.3,0.1-0.6,0.4-0.8c0.2-0.2,0.5-0.4,0.8-0.4c0.3,0,0.6,0.1,0.8,0.4s0.4,0.5,0.4,0.8s-0.1,0.6-0.4,0.8s-0.5,0.4-0.8,0.4h-0.1
		v1.5c0,0.4,0.2,0.6,0.7,0.6h1.2c0.5,0,0.7-0.2,0.7-0.6v-3.5c0-0.5-0.2-0.9-0.6-1.3c-0.4-0.3-0.9-0.5-1.5-0.5
		c-0.4,0-0.9,0.1-1.3,0.3c-0.4,0.2-0.8,0.4-1,0.7l-0.6-0.5c0.3-0.4,0.7-0.7,1.3-1c0.5-0.2,1.1-0.4,1.6-0.4c0.9,0,1.6,0.2,2.2,0.7
		c0.6,0.5,0.9,1.1,0.9,1.8V161.7z M153.2,159.7c0.2,0,0.3-0.1,0.4-0.2c0.1-0.1,0.2-0.3,0.2-0.4s-0.1-0.3-0.2-0.4
		c-0.1-0.1-0.3-0.2-0.4-0.2c-0.2,0-0.3,0.1-0.4,0.2c-0.1,0.1-0.2,0.3-0.2,0.4s0.1,0.3,0.2,0.4C152.9,159.6,153,159.7,153.2,159.7z"
		/>
	<path d="M162.9,163.2h-1.1c-0.7-1.1-1.4-1.9-2-2.4c-0.6-0.5-1.3-0.8-2-0.8v-0.6c0.7,0,1.4,0.2,2,0.6c0.6,0.4,1.3,1.1,2,2.1v-3.9
		h-0.1c-0.3,0-0.6-0.1-0.8-0.4c-0.2-0.2-0.4-0.5-0.4-0.8s0.1-0.6,0.4-0.8c0.2-0.2,0.5-0.4,0.8-0.4c0.3,0,0.6,0.1,0.8,0.4
		s0.4,0.5,0.4,0.8V163.2z M161.7,157.5c0.2,0,0.3-0.1,0.4-0.2c0.1-0.1,0.2-0.3,0.2-0.4c0-0.2-0.1-0.3-0.2-0.4
		c-0.1-0.1-0.3-0.2-0.4-0.2c-0.2,0-0.3,0.1-0.4,0.2c-0.1,0.1-0.2,0.3-0.2,0.4c0,0.2,0.1,0.3,0.2,0.4S161.5,157.5,161.7,157.5z"/>
</g>
</svg>
