<?xml version="1.0" encoding="utf-8"?>
<!-- Generator: Adobe Illustrator 25.1.0, SVG Export Plug-In . SVG Version: 6.00 Build 0)  -->
<svg version="1.1" id="Слой_1" xmlns="http://www.w3.org/2000/svg" xmlns:xlink="http://www.w3.org/1999/xlink" x="0px" y="0px"
	 viewBox="0 0 194 231.6" style="enable-background:new 0 0 194 231.6;" xml:space="preserve">
<style type="text/css">
	.st0{fill:#A7AEB0;}
	.st1{fill:#F4F5F5;}
	.st2{fill:url(#Ellipse_8562_1_);stroke:#A7AEB0;stroke-width:2;}
	.st3{enable-background:new    ;}
</style>
<g id="Group_4010" transform="translate(-59.374 -17147.588)">
	<g id="Group_3909" transform="translate(51.152 -1408.432)">
		<g id="Group_3908" transform="translate(-46.004 18545.475)">
			<path id="Path_13618" class="st0" d="M159.4,234.9v-27.2c0-1.8,1.3-3.3,3.1-3.5c0.1,0,0.1,0,0.2,0c1.9-0.2,3.6,1.1,3.8,3
				c0,0.1,0,0.2,0,0.4l0,0c0,3.9,3,7.1,6.9,7.3c3.9,0.1,7.2-2.9,7.4-6.8c0-0.1,0-0.2,0-0.3V203c0-1.5,1-2.9,2.4-3.3
				c50.2-17.1,77.1-71.6,60-121.9c-4.7-13.9-12.6-26.6-23-37c-37.5-37.5-98.3-37.5-135.8,0s-37.5,98.3,0,135.8
				c15.5,15.6,35.8,25.3,57.6,27.6c1.8,0.2,3.2,1.7,3.2,3.5V235c0,3.9,3.2,7.1,7.1,7.1c0.1,0,0.2,0,0.3,0
				C156.4,241.9,159.4,238.7,159.4,234.9z M94.4,166.5c-32-31.9-32.1-83.7-0.2-115.7s83.7-32.1,115.7-0.2c0.1,0.1,0.1,0.1,0.2,0.2
				c31.9,32,31.8,83.8-0.2,115.7C177.9,198.4,126.3,198.4,94.4,166.5z"/>
			<g id="Group_3833" transform="translate(234.333 26.567) rotate(90)">
				<path id="Path_13624" class="st1" d="M82.1,0c45.4,0,82.1,36.8,82.1,82.1c0,21.8-8.7,42.7-24.1,58.1
					c-32.1,32.1-84.1,32.1-116.2,0S-8,56.1,24.1,24.1C39.4,8.6,60.3-0.1,82.1,0z"/>
			</g>
		</g>
		<g id="forms-icon" transform="translate(95.157 18607.266)">
			<path id="Path_317" class="st0" d="M21.1,6.9l-6.6-6.6C14.4,0.1,14.1,0,13.9,0H2.5C1.1,0,0,1.1,0,2.5v23.3c0,1.4,1.1,2.5,2.5,2.5
				h16.4c1.4,0,2.5-1.1,2.5-2.5V7.4C21.3,7.2,21.2,7,21.1,6.9z M14.7,2.8l3.8,3.8h-2.9c-0.5,0-0.8-0.4-0.8-0.8V2.8z M18.8,26.6H2.5
				c-0.5,0-0.8-0.4-0.8-0.8V2.5C1.6,2,2,1.7,2.5,1.7h10.7v4.1c0,1.4,1.1,2.5,2.5,2.5h4.1v17.5C19.7,26.2,19.3,26.6,18.8,26.6
				C18.8,26.6,18.8,26.6,18.8,26.6L18.8,26.6z"/>
			<path id="Path_318" class="st0" d="M15.6,13.4H7.4c-0.5,0-0.8,0.3-0.8,0.8c0,0.5,0.3,0.8,0.8,0.8c0,0,0,0,0.1,0h8.2
				c0.5,0,0.8-0.4,0.8-0.8C16.3,13.7,16,13.4,15.6,13.4z"/>
			<path id="Path_319" class="st0" d="M15.6,16.7H7.4c-0.5,0-0.8,0.3-0.8,0.8c0,0.5,0.3,0.8,0.8,0.8c0,0,0,0,0.1,0h8.2
				c0.5,0,0.8-0.4,0.8-0.8C16.3,17,16,16.7,15.6,16.7z"/>
			<path id="Path_320" class="st0" d="M15.6,20H7.4c-0.5,0-0.8,0.4-0.8,0.8c0,0.4,0.4,0.8,0.8,0.8h8.2c0.5,0,0.8-0.4,0.8-0.8
				C16.3,20.3,16,20,15.6,20z"/>
			<ellipse id="Ellipse_61" class="st0" cx="3.7" cy="14.1" rx="0.8" ry="0.4"/>
			<circle id="Ellipse_62" class="st0" cx="3.7" cy="17.6" r="0.8"/>
			<circle id="Ellipse_63" class="st0" cx="3.7" cy="20.6" r="0.8"/>
		</g>
	</g>
	<g id="Group_3915" transform="translate(60.788 17149.002)">
		
			<image style="overflow:visible;enable-background:new    ;" width="435" height="434" id="Rectangle_638" xlink:href="B3D5A7E0.png"  transform="matrix(0.1465 0 0 0.1465 5.7593 6.808)">
		</image>
		
			<linearGradient id="Ellipse_8562_1_" gradientUnits="userSpaceOnUse" x1="-448.5964" y1="1058.3632" x2="-447.8884" y2="1057.6552" gradientTransform="matrix(37.6251 -37.6251 -37.6251 -37.6251 56710.6016 22980.1895)">
			<stop  offset="0" style="stop-color:#FFFFFF"/>
			<stop  offset="0.998" style="stop-color:#F5F6F7"/>
		</linearGradient>
		<circle id="Ellipse_8562" class="st2" cx="37.6" cy="37.6" r="26.6"/>
	</g>
	<path id="Path_14640" class="st0" d="M100.9,17199.6v-26.4h-4.1c-1.7,1.8-4,3.1-6.5,3.6v4.3c1.6-0.2,3.2-0.6,4.8-1.2v19.7H100.9z"
		/>
</g>
<g class="st3">
	<path d="M56.2,119.2L56.2,119.2c0.4,0,0.7,0.1,0.9,0.4s0.4,0.5,0.4,0.8s-0.1,0.6-0.4,0.8s-0.5,0.4-0.8,0.4s-0.6-0.1-0.8-0.4
		s-0.4-0.5-0.4-0.8V110c-0.5,0.9-1,1.3-1.5,1.3c-0.8,0-1.6-0.9-2.2-2.7h0.8c0.5,1.3,1,1.9,1.4,1.9c0.4,0,0.9-0.6,1.6-1.9h1.1V119.2z
		 M56.3,121c0.2,0,0.3-0.1,0.4-0.2c0.1-0.1,0.2-0.3,0.2-0.4s-0.1-0.3-0.2-0.4c-0.1-0.1-0.3-0.2-0.4-0.2s-0.3,0.1-0.4,0.2
		c-0.1,0.1-0.2,0.3-0.2,0.4s0.1,0.3,0.2,0.4C56,120.9,56.1,121,56.3,121z"/>
	<path d="M65.5,120c0,0.4-0.2,0.8-0.5,1.1c-0.3,0.3-0.7,0.4-1.1,0.4h-4.7v-0.8h0.7v-4.2h-0.1c-0.3,0-0.6-0.1-0.8-0.4
		s-0.4-0.5-0.4-0.8s0.1-0.6,0.4-0.8s0.5-0.4,0.8-0.4s0.6,0.1,0.8,0.4s0.4,0.5,0.4,0.8v5.4h2.6c0.5,0,0.7-0.2,0.7-0.6v-9.6h1.1V120z
		 M59.9,115.9c0.2,0,0.3-0.1,0.4-0.2s0.2-0.3,0.2-0.4c0-0.2-0.1-0.3-0.2-0.4c-0.1-0.1-0.3-0.2-0.4-0.2s-0.3,0.1-0.4,0.2
		c-0.1,0.1-0.2,0.3-0.2,0.4c0,0.2,0.1,0.3,0.2,0.4S59.7,115.9,59.9,115.9z"/>
	<path d="M73.6,121.5h-1.1v-6.1c0-0.3-0.1-0.4-0.3-0.4c-0.1,0-0.2,0.1-0.3,0.2s-0.3,0.4-0.5,0.7s-0.4,0.8-0.6,1.3
		c-0.2,0.5-0.5,1.3-0.9,2.3c-0.4,1-0.6,1.6-0.6,1.8v0.2h-1.1v-5H68c-0.3,0-0.6-0.1-0.8-0.4s-0.4-0.5-0.4-0.8s0.1-0.6,0.4-0.8
		s0.5-0.4,0.8-0.4s0.6,0.1,0.8,0.4s0.4,0.5,0.4,0.8v3.6c0.5-1.4,1-2.5,1.6-3.4c0.5-0.9,1.1-1.4,1.7-1.4c0.7,0,1.1,0.5,1.1,1.4V121.5
		z M68,115.9c0.2,0,0.3-0.1,0.4-0.2s0.2-0.3,0.2-0.4c0-0.2-0.1-0.3-0.2-0.4c-0.1-0.1-0.3-0.2-0.4-0.2s-0.3,0.1-0.4,0.2
		c-0.1,0.1-0.2,0.3-0.2,0.4c0,0.2,0.1,0.3,0.2,0.4S67.9,115.9,68,115.9z"/>
	<path d="M73.6,113.3h-5.5c0.4-1.4,1.3-2.2,2.7-2.2c0.9,0,1.6,0.3,2.2,1v-1.4h0.6V113.3z M72.7,112.7c-0.3-0.7-0.9-1.1-1.8-1.1
		s-1.5,0.4-1.8,1.1H72.7z"/>
	<path d="M73.3,113.3h-0.6V111h0.6V113.3z"/>
	<path d="M76.4,119.2L76.4,119.2c0.4,0,0.7,0.1,0.9,0.4s0.4,0.5,0.4,0.8s-0.1,0.6-0.4,0.8s-0.5,0.4-0.9,0.4c-0.3,0-0.6-0.1-0.8-0.4
		s-0.4-0.5-0.4-0.8v-6.1h1.1V119.2z M76.5,121c0.2,0,0.3-0.1,0.4-0.2c0.1-0.1,0.2-0.3,0.2-0.4s-0.1-0.3-0.2-0.4
		c-0.1-0.1-0.3-0.2-0.4-0.2c-0.2,0-0.3,0.1-0.4,0.2c-0.1,0.1-0.2,0.3-0.2,0.4s0.1,0.3,0.2,0.4C76.2,120.9,76.3,121,76.5,121z
		 M80.4,119.2L80.4,119.2c0.4,0,0.7,0.1,0.9,0.4s0.4,0.5,0.4,0.8s-0.1,0.6-0.4,0.8s-0.5,0.4-0.8,0.4s-0.6-0.1-0.8-0.4
		s-0.4-0.5-0.4-0.8v-6.1h1.1V119.2z M80.5,121c0.2,0,0.3-0.1,0.4-0.2c0.1-0.1,0.2-0.3,0.2-0.4s-0.1-0.3-0.2-0.4
		c-0.1-0.1-0.3-0.2-0.4-0.2s-0.3,0.1-0.4,0.2c-0.1,0.1-0.2,0.3-0.2,0.4s0.1,0.3,0.2,0.4C80.2,120.9,80.3,121,80.5,121z"/>
	<path d="M89.7,120c0,0.4-0.2,0.8-0.5,1.1c-0.3,0.3-0.7,0.4-1.1,0.4h-4.7v-0.8h0.7v-4.2h-0.1c-0.3,0-0.6-0.1-0.8-0.4
		s-0.4-0.5-0.4-0.8s0.1-0.6,0.4-0.8s0.5-0.4,0.8-0.4s0.6,0.1,0.8,0.4s0.4,0.5,0.4,0.8v5.4h2.6c0.5,0,0.7-0.2,0.7-0.6v-5.8h1.1V120z
		 M84.1,115.9c0.2,0,0.3-0.1,0.4-0.2s0.2-0.3,0.2-0.4c0-0.2-0.1-0.3-0.2-0.4c-0.1-0.1-0.3-0.2-0.4-0.2s-0.3,0.1-0.4,0.2
		c-0.1,0.1-0.2,0.3-0.2,0.4c0,0.2,0.1,0.3,0.2,0.4S83.9,115.9,84.1,115.9z"/>
	<path d="M97.9,120c0,0.4-0.2,0.8-0.5,1.1c-0.3,0.3-0.7,0.4-1.1,0.4h-4.7v-0.8h0.7v-4.2h-0.1c-0.3,0-0.6-0.1-0.8-0.4
		s-0.4-0.5-0.4-0.8s0.1-0.6,0.4-0.8s0.5-0.4,0.8-0.4s0.6,0.1,0.8,0.4s0.4,0.5,0.4,0.8v5.4H96c0.5,0,0.7-0.2,0.7-0.6v-5.8h1.1V120z
		 M92.2,115.9c0.2,0,0.3-0.1,0.4-0.2s0.2-0.3,0.2-0.4c0-0.2-0.1-0.3-0.2-0.4c-0.1-0.1-0.3-0.2-0.4-0.2s-0.3,0.1-0.4,0.2
		c-0.1,0.1-0.2,0.3-0.2,0.4c0,0.2,0.1,0.3,0.2,0.4S92.1,115.9,92.2,115.9z"/>
	<path d="M107,121.5h-1.1c0-0.5-0.3-1.3-1-2.5c-0.7-1.1-1-2.1-1.1-2.8c-0.1,0.7-0.5,1.7-1.1,2.8c-0.7,1.1-1,2-1,2.5h-1.1v-5h-0.1
		c-0.3,0-0.6-0.1-0.8-0.4c-0.2-0.2-0.4-0.5-0.4-0.8s0.1-0.6,0.4-0.8c0.2-0.2,0.5-0.4,0.8-0.4s0.6,0.1,0.8,0.4
		c0.2,0.2,0.4,0.5,0.4,0.8v4c0.1-0.3,0.4-0.7,0.7-1.3c0.7-1.2,1-2.4,1-3.7h0.8c0,1.3,0.3,2.6,1,3.7c0.4,0.6,0.6,1,0.7,1.3v-8.8h1.1
		V121.5z M100.4,115.9c0.2,0,0.3-0.1,0.4-0.2s0.2-0.3,0.2-0.4c0-0.2-0.1-0.3-0.2-0.4c-0.1-0.1-0.3-0.2-0.4-0.2
		c-0.2,0-0.3,0.1-0.4,0.2c-0.1,0.1-0.2,0.3-0.2,0.4c0,0.2,0.1,0.3,0.2,0.4S100.2,115.9,100.4,115.9z"/>
	<path d="M114.4,120c0,0.4-0.2,0.8-0.5,1.1c-0.3,0.3-0.7,0.4-1.1,0.4H111c-0.4,0-0.8-0.1-1.1-0.4c-0.3-0.3-0.5-0.6-0.5-1.1v-2.6
		c0-0.3,0.1-0.6,0.4-0.8c0.2-0.2,0.5-0.4,0.8-0.4c0.3,0,0.6,0.1,0.8,0.4s0.4,0.5,0.4,0.8s-0.1,0.6-0.4,0.8s-0.5,0.4-0.8,0.4h-0.1
		v1.5c0,0.4,0.2,0.6,0.7,0.6h1.2c0.5,0,0.7-0.2,0.7-0.6v-3.5c0-0.5-0.2-0.9-0.6-1.3c-0.4-0.3-0.9-0.5-1.5-0.5
		c-0.4,0-0.9,0.1-1.3,0.3c-0.4,0.2-0.8,0.4-1,0.7l-0.6-0.5c0.3-0.4,0.7-0.7,1.3-1c0.5-0.2,1.1-0.4,1.6-0.4c0.9,0,1.6,0.2,2.2,0.7
		c0.6,0.5,0.9,1.1,0.9,1.8V120z M110.6,118.1c0.2,0,0.3-0.1,0.4-0.2c0.1-0.1,0.2-0.3,0.2-0.4s-0.1-0.3-0.2-0.4
		c-0.1-0.1-0.3-0.2-0.4-0.2c-0.2,0-0.3,0.1-0.4,0.2c-0.1,0.1-0.2,0.3-0.2,0.4s0.1,0.3,0.2,0.4C110.3,118,110.4,118.1,110.6,118.1z"
		/>
	<path d="M121.6,114.7c-0.3,0.4-0.7,0.6-1.2,0.6c-0.2,0-0.5-0.1-1-0.2s-0.8-0.2-1-0.2c-0.6,0-1,0.2-1.3,0.7c0.3,0,0.6-0.1,0.9-0.1
		c1,0,1.8,0.2,2.3,0.6c0.5,0.4,0.8,1,0.8,1.7v2.6c0,0.3-0.1,0.6-0.4,0.8s-0.5,0.4-0.8,0.4c-0.3,0-0.6-0.1-0.9-0.4s-0.4-0.5-0.4-0.8
		s0.1-0.6,0.4-0.8s0.5-0.4,0.9-0.4h0.1v-1.2c0-0.7-0.2-1.1-0.5-1.3c-0.4-0.2-0.9-0.3-1.8-0.3c-0.6,0-1.1,0.1-1.6,0.2
		c0-0.7,0.3-1.3,0.7-1.7c0.4-0.4,0.9-0.6,1.6-0.6c0.3,0,0.7,0.1,1.2,0.2c0.5,0.1,0.7,0.2,0.8,0.2c0.3,0,0.5-0.1,0.7-0.4L121.6,114.7
		z M119.9,121c0.2,0,0.3-0.1,0.4-0.2c0.1-0.1,0.2-0.3,0.2-0.4s-0.1-0.3-0.2-0.4c-0.1-0.1-0.3-0.2-0.4-0.2c-0.2,0-0.3,0.1-0.4,0.2
		c-0.1,0.1-0.2,0.3-0.2,0.4s0.1,0.3,0.2,0.4C119.6,120.9,119.8,121,119.9,121z"/>
	<path d="M122.3,110.2c0,0.2-0.1,0.4-0.2,0.6c-0.2,0.2-0.5,0.3-0.9,0.4c-0.4,0.1-0.7,0.3-0.8,0.4c0.2,0,0.4,0.1,0.6,0.2
		s0.2,0.4,0.2,0.6c0,0.2-0.1,0.4-0.2,0.6c-0.2,0.2-0.4,0.2-0.6,0.2c-0.2,0-0.4-0.1-0.6-0.3c-0.2-0.2-0.3-0.4-0.3-0.7
		c0-0.7,0.4-1.1,1.3-1.4c0.4-0.1,0.7-0.2,0.8-0.3c0.1-0.1,0.2-0.2,0.2-0.3H122.3z M120.3,112.8c0.1,0,0.2,0,0.3-0.1
		c0.1-0.1,0.1-0.2,0.1-0.3s0-0.2-0.1-0.3c-0.1-0.1-0.2-0.1-0.3-0.1c-0.1,0-0.2,0-0.3,0.1s-0.1,0.2-0.1,0.3s0,0.2,0.1,0.3
		C120.1,112.8,120.2,112.8,120.3,112.8z"/>
	<path d="M129.3,121.5h-1.1c-0.8-1.5-1.9-2.4-3.3-2.5v1.2c0,0.9-0.5,1.4-1.4,1.4c-0.4,0-0.7-0.1-0.9-0.4c-0.2-0.2-0.4-0.6-0.4-1
		c0-0.4,0.1-0.8,0.4-1.2c0.3-0.3,0.6-0.6,1.1-0.7v-1.9h-0.1c-0.3,0-0.6-0.1-0.8-0.4c-0.2-0.2-0.4-0.5-0.4-0.8s0.1-0.6,0.4-0.8
		c0.2-0.2,0.5-0.4,0.8-0.4s0.6,0.1,0.8,0.4c0.2,0.2,0.4,0.5,0.4,0.8v3.1c1.3,0.1,2.4,0.8,3.3,1.9v-6h1.1V121.5z M123.7,120.3V119
		c-0.3,0.1-0.5,0.2-0.6,0.5c-0.2,0.2-0.2,0.5-0.2,0.8c0,0.2,0,0.4,0.1,0.5c0.1,0.1,0.2,0.2,0.4,0.2
		C123.6,121,123.7,120.8,123.7,120.3z M123.7,115.9c0.2,0,0.3-0.1,0.4-0.2s0.2-0.3,0.2-0.4c0-0.2-0.1-0.3-0.2-0.4
		c-0.1-0.1-0.3-0.2-0.4-0.2c-0.2,0-0.3,0.1-0.4,0.2c-0.1,0.1-0.2,0.3-0.2,0.4c0,0.2,0.1,0.3,0.2,0.4S123.5,115.9,123.7,115.9z"/>
	<path d="M137.4,121.5h-1.1v-6.1c0-0.3-0.1-0.4-0.3-0.4c-0.1,0-0.2,0.1-0.3,0.2c-0.1,0.2-0.3,0.4-0.5,0.7c-0.2,0.3-0.4,0.8-0.6,1.3
		c-0.2,0.5-0.5,1.3-0.9,2.3c-0.4,1-0.6,1.6-0.6,1.8v0.2h-1.1v-5h-0.1c-0.3,0-0.6-0.1-0.8-0.4c-0.2-0.2-0.4-0.5-0.4-0.8
		s0.1-0.6,0.4-0.8c0.2-0.2,0.5-0.4,0.8-0.4s0.6,0.1,0.8,0.4c0.2,0.2,0.4,0.5,0.4,0.8v3.6c0.5-1.4,1-2.5,1.6-3.4
		c0.5-0.9,1.1-1.4,1.7-1.4c0.7,0,1.1,0.5,1.1,1.4V121.5z M131.8,115.9c0.2,0,0.3-0.1,0.4-0.2s0.2-0.3,0.2-0.4c0-0.2-0.1-0.3-0.2-0.4
		c-0.1-0.1-0.3-0.2-0.4-0.2c-0.2,0-0.3,0.1-0.4,0.2c-0.1,0.1-0.2,0.3-0.2,0.4c0,0.2,0.1,0.3,0.2,0.4S131.7,115.9,131.8,115.9z"/>
	<path d="M137.4,113.3h-5.5c0.4-1.4,1.3-2.2,2.7-2.2c0.9,0,1.6,0.3,2.2,1v-1.4h0.6V113.3z M136.5,112.7c-0.3-0.7-0.9-1.1-1.8-1.1
		c-0.9,0-1.5,0.4-1.8,1.1H136.5z"/>
	<path d="M137.1,113.3h-0.6V111h0.6V113.3z"/>
	<path d="M145.2,121.5h-1.1v-4.7c0-0.6-0.2-1-0.6-1.4c-0.4-0.3-0.9-0.5-1.6-0.5c-0.7,0-1.3,0.2-1.7,0.6c-0.4,0.4-0.6,0.9-0.6,1.4
		c0,0.6,0.2,1.1,0.6,1.8s0.6,1.1,0.8,1.3c0.1-0.2,0.3-0.4,0.6-0.7s0.4-0.5,0.5-0.6h0c-0.3,0-0.6-0.1-0.9-0.4s-0.4-0.5-0.4-0.8
		s0.1-0.6,0.4-0.8s0.5-0.4,0.9-0.4c0.3,0,0.6,0.1,0.8,0.4s0.4,0.5,0.4,0.8c0,0.3-0.1,0.6-0.2,0.9c-0.1,0.3-0.4,0.7-0.9,1.2
		c-0.5,0.5-0.7,0.9-0.7,1.2v0.6H140v-0.6c0-0.5-0.2-1.1-0.6-1.9c-0.4-0.8-0.6-1.5-0.6-2.1c0-0.8,0.3-1.4,0.9-2
		c0.6-0.5,1.3-0.8,2.3-0.8c1,0,1.8,0.2,2.4,0.7c0.6,0.5,0.9,1.1,0.9,1.9V121.5z M141.8,118.1c0.2,0,0.3-0.1,0.4-0.2
		c0.1-0.1,0.2-0.3,0.2-0.4c0-0.2-0.1-0.3-0.2-0.4c-0.1-0.1-0.3-0.2-0.4-0.2c-0.2,0-0.3,0.1-0.4,0.2s-0.2,0.3-0.2,0.4
		c0,0.2,0.1,0.3,0.2,0.4C141.5,118.1,141.6,118.1,141.8,118.1z"/>
	<path d="M146,110.7c0,0.8-0.3,1.4-0.9,1.9s-1.3,0.7-2.3,0.7c-0.3,0-0.6,0-0.9-0.1v-0.4c0.4,0,0.8-0.1,1-0.4c-0.2,0-0.4-0.1-0.6-0.3
		c-0.2-0.2-0.3-0.4-0.3-0.6s0.1-0.4,0.3-0.6c0.2-0.2,0.4-0.3,0.6-0.3c0.2,0,0.4,0.1,0.6,0.3c0.2,0.2,0.3,0.4,0.3,0.6
		c0,0.5-0.2,0.9-0.7,1.2c0.6,0,1.2-0.2,1.6-0.6c0.5-0.4,0.7-0.9,0.7-1.5H146z M142.9,112c0.1,0,0.2,0,0.3-0.1
		c0.1-0.1,0.1-0.2,0.1-0.3c0-0.1,0-0.2-0.1-0.3c-0.1-0.1-0.2-0.1-0.3-0.1c-0.1,0-0.2,0-0.3,0.1c-0.1,0.1-0.1,0.2-0.1,0.3
		c0,0.1,0,0.2,0.1,0.3C142.7,111.9,142.8,112,142.9,112z"/>
	<path d="M65.1,138.3H64v-4.9c0-1.1-0.5-1.7-1.5-1.7c-0.7,0-1.2,0.3-1.7,1l-0.6-0.5c0.7-0.9,1.4-1.3,2.3-1.3c0.8,0,1.4,0.2,1.9,0.7
		s0.7,1.1,0.7,1.8V138.3z"/>
	<path d="M73,135.5c0.8,0.3,1.2,0.8,1.2,1.6c0,0.4-0.1,0.7-0.3,1s-0.5,0.4-0.8,0.4c-0.4,0-0.7-0.1-0.9-0.3s-0.3-0.6-0.3-1.1v-0.9
		c-1.1,0.2-2.2,1-3,2.2h-1.1v-5h-0.1c-0.3,0-0.6-0.1-0.8-0.4s-0.4-0.5-0.4-0.8s0.1-0.6,0.4-0.8s0.5-0.4,0.8-0.4s0.6,0.1,0.8,0.4
		s0.4,0.5,0.4,0.8v5.2c0.8-1,1.8-1.6,3-1.9v-4.4H73V135.5z M67.6,132.7c0.2,0,0.3-0.1,0.4-0.2s0.2-0.3,0.2-0.4
		c0-0.2-0.1-0.3-0.2-0.4c-0.1-0.1-0.3-0.2-0.4-0.2s-0.3,0.1-0.4,0.2c-0.1,0.1-0.2,0.3-0.2,0.4c0,0.2,0.1,0.3,0.2,0.4
		S67.5,132.7,67.6,132.7z M73.6,137c0-0.2-0.1-0.4-0.2-0.6c-0.1-0.2-0.3-0.3-0.5-0.4v1.2c0,0.2,0,0.3,0,0.4c0,0.1,0.1,0.1,0.2,0.1
		C73.5,137.8,73.6,137.5,73.6,137z"/>
	<path d="M80.6,138.3h-1.1v-0.2c-0.5-1.2-0.9-2.2-1.4-2.9c-0.4-0.7-0.8-1.1-1-1.1c-0.2,0-0.3,0.2-0.3,0.5v1.4h0.1
		c0.3,0,0.6,0.1,0.8,0.4s0.4,0.5,0.4,0.8s-0.1,0.6-0.4,0.8s-0.5,0.4-0.8,0.4s-0.6-0.1-0.8-0.4s-0.4-0.5-0.4-0.8v-2.6
		c0-0.9,0.4-1.4,1.1-1.4c0.8,0,1.7,1.1,2.6,3.3v-3.1c0-0.5-0.2-1-0.5-1.3s-0.8-0.4-1.3-0.4c-0.8,0-1.5,0.3-2,1l-0.6-0.5
		c0.7-0.9,1.5-1.3,2.6-1.3c0.8,0,1.5,0.2,2.1,0.7s0.8,1.1,0.8,1.8V138.3z M76.9,137.8c0.2,0,0.3-0.1,0.4-0.2
		c0.1-0.1,0.2-0.3,0.2-0.4s-0.1-0.3-0.2-0.4c-0.1-0.1-0.3-0.2-0.4-0.2s-0.3,0.1-0.4,0.2c-0.1,0.1-0.2,0.3-0.2,0.4s0.1,0.3,0.2,0.4
		C76.6,137.7,76.7,137.8,76.9,137.8z"/>
	<path d="M80.3,130.1h-0.6v-2.3h0.6V130.1z"/>
	<path d="M86.5,138.3h-1.1v-4.9c0-1.1-0.5-1.7-1.5-1.7c-0.7,0-1.2,0.3-1.7,1l-0.6-0.5c0.7-0.9,1.4-1.3,2.3-1.3
		c0.8,0,1.4,0.2,1.9,0.7s0.7,1.1,0.7,1.8V138.3z"/>
	<path d="M92.4,138.3h-1.1c-0.7-1.1-1.4-1.9-2-2.4s-1.3-0.8-2-0.8v-0.6c0.7,0,1.4,0.2,2,0.6c0.6,0.4,1.3,1.1,2,2.1v-3.9h-0.1
		c-0.3,0-0.6-0.1-0.8-0.4s-0.4-0.5-0.4-0.8s0.1-0.6,0.4-0.8s0.5-0.4,0.8-0.4c0.3,0,0.6,0.1,0.8,0.4s0.4,0.5,0.4,0.8V138.3z
		 M91.2,132.7c0.2,0,0.3-0.1,0.4-0.2s0.2-0.3,0.2-0.4c0-0.2-0.1-0.3-0.2-0.4c-0.1-0.1-0.3-0.2-0.4-0.2c-0.2,0-0.3,0.1-0.4,0.2
		c-0.1,0.1-0.2,0.3-0.2,0.4c0,0.2,0.1,0.3,0.2,0.4S91,132.7,91.2,132.7z"/>
	<path d="M100.3,136.8c0,0.4-0.2,0.8-0.5,1.1c-0.3,0.3-0.7,0.4-1.1,0.4h-3.2v-0.8h0.7v-3.1c0-0.3,0.1-0.5,0.4-0.8
		c0.2-0.3,0.4-0.6,0.4-0.9c0-0.3-0.1-0.6-0.4-0.9s-0.6-0.3-0.9-0.3c-0.2,0-0.4,0-0.6,0.1c0.6,0.2,0.9,0.6,0.9,1.2
		c0,0.3-0.1,0.6-0.4,0.8S95,134,94.7,134s-0.6-0.1-0.8-0.4s-0.4-0.5-0.4-0.8c0-0.5,0.2-0.9,0.6-1.3s0.9-0.6,1.5-0.6
		c0.7,0,1.3,0.2,1.7,0.5s0.6,0.8,0.6,1.3c0,0.3-0.1,0.7-0.3,1s-0.3,0.5-0.3,0.7v3.1h1.1c0.5,0,0.7-0.2,0.7-0.6v-5.8h1.1V136.8z
		 M94.7,133.4c0.2,0,0.3-0.1,0.4-0.2c0.1-0.1,0.2-0.3,0.2-0.4s-0.1-0.3-0.2-0.4c-0.1-0.1-0.3-0.2-0.4-0.2s-0.3,0.1-0.4,0.2
		c-0.1,0.1-0.2,0.3-0.2,0.4s0.1,0.3,0.2,0.4C94.3,133.3,94.5,133.4,94.7,133.4z"/>
	<path d="M107.6,136.8c0,0.4-0.2,0.8-0.5,1.1c-0.3,0.3-0.7,0.4-1.1,0.4h-1.8c-0.4,0-0.8-0.1-1.1-0.4c-0.3-0.3-0.5-0.6-0.5-1.1v-2.6
		c0-0.3,0.1-0.6,0.4-0.8c0.2-0.2,0.5-0.4,0.8-0.4c0.3,0,0.6,0.1,0.8,0.4s0.4,0.5,0.4,0.8s-0.1,0.6-0.4,0.8s-0.5,0.4-0.8,0.4h-0.1
		v1.5c0,0.4,0.2,0.6,0.7,0.6h1.2c0.5,0,0.7-0.2,0.7-0.6v-3.5c0-0.5-0.2-0.9-0.6-1.3c-0.4-0.3-0.9-0.5-1.5-0.5
		c-0.4,0-0.9,0.1-1.3,0.3c-0.4,0.2-0.8,0.4-1,0.7l-0.6-0.5c0.3-0.4,0.7-0.7,1.3-1c0.5-0.2,1.1-0.4,1.6-0.4c0.9,0,1.6,0.2,2.2,0.7
		c0.6,0.5,0.9,1.1,0.9,1.8V136.8z M103.8,134.9c0.2,0,0.3-0.1,0.4-0.2c0.1-0.1,0.2-0.3,0.2-0.4s-0.1-0.3-0.2-0.4
		c-0.1-0.1-0.3-0.2-0.4-0.2c-0.2,0-0.3,0.1-0.4,0.2c-0.1,0.1-0.2,0.3-0.2,0.4s0.1,0.3,0.2,0.4C103.5,134.8,103.7,134.9,103.8,134.9z
		"/>
	<path d="M113.5,138.3h-1.1c-0.7-1.1-1.4-1.9-2-2.4c-0.6-0.5-1.3-0.8-2-0.8v-0.6c0.7,0,1.4,0.2,2,0.6c0.6,0.4,1.3,1.1,2,2.1v-3.9
		h-0.1c-0.3,0-0.6-0.1-0.8-0.4c-0.2-0.2-0.4-0.5-0.4-0.8s0.1-0.6,0.4-0.8c0.2-0.2,0.5-0.4,0.8-0.4c0.3,0,0.6,0.1,0.8,0.4
		s0.4,0.5,0.4,0.8V138.3z M112.3,132.7c0.2,0,0.3-0.1,0.4-0.2c0.1-0.1,0.2-0.3,0.2-0.4c0-0.2-0.1-0.3-0.2-0.4
		c-0.1-0.1-0.3-0.2-0.4-0.2c-0.2,0-0.3,0.1-0.4,0.2c-0.1,0.1-0.2,0.3-0.2,0.4c0,0.2,0.1,0.3,0.2,0.4S112.2,132.7,112.3,132.7z"/>
	<path d="M122,138.3h-1.1v-4c0-0.3,0-0.6-0.1-0.6c-1.3,1-2.2,1.9-2.7,2.6c-0.5,0.7-0.8,1.4-0.8,2.1h-1.1v-5H116
		c-0.3,0-0.6-0.1-0.8-0.4c-0.2-0.2-0.4-0.5-0.4-0.8s0.1-0.6,0.4-0.8c0.2-0.2,0.5-0.4,0.8-0.4s0.6,0.1,0.8,0.4
		c0.2,0.2,0.4,0.5,0.4,0.8v4.2c0.3-0.8,1.4-1.8,3.1-3.1c-0.5-0.3-0.8-0.7-0.8-1.1c0-0.3,0.1-0.6,0.4-0.8c0.2-0.2,0.5-0.4,0.8-0.4
		s0.6,0.1,0.8,0.4c0.2,0.2,0.4,0.5,0.4,0.8c0,0.4-0.2,0.8-0.5,1.1c0.4,0.2,0.6,0.6,0.6,1.1V138.3z M116,132.7c0.2,0,0.3-0.1,0.4-0.2
		s0.2-0.3,0.2-0.4c0-0.2-0.1-0.3-0.2-0.4c-0.1-0.1-0.3-0.2-0.4-0.2c-0.2,0-0.3,0.1-0.4,0.2c-0.1,0.1-0.2,0.3-0.2,0.4
		c0,0.2,0.1,0.3,0.2,0.4S115.9,132.7,116,132.7z M120.8,132.9c0.3-0.2,0.5-0.5,0.5-0.8c0-0.2-0.1-0.3-0.2-0.4
		c-0.1-0.1-0.3-0.2-0.4-0.2c-0.2,0-0.3,0.1-0.4,0.2c-0.1,0.1-0.2,0.3-0.2,0.4C120.1,132.4,120.4,132.7,120.8,132.9z"/>
	<path d="M129.9,135.5c0.8,0.3,1.2,0.8,1.2,1.6c0,0.4-0.1,0.7-0.3,1c-0.2,0.2-0.5,0.4-0.8,0.4c-0.4,0-0.7-0.1-0.9-0.3
		s-0.3-0.6-0.3-1.1v-0.9c-1.1,0.2-2.2,1-3,2.2h-1.1v-5h-0.1c-0.3,0-0.6-0.1-0.8-0.4c-0.2-0.2-0.4-0.5-0.4-0.8s0.1-0.6,0.4-0.8
		c0.2-0.2,0.5-0.4,0.8-0.4s0.6,0.1,0.8,0.4c0.2,0.2,0.4,0.5,0.4,0.8v5.2c0.8-1,1.8-1.6,3-1.9v-4.4h1.1V135.5z M124.5,132.7
		c0.2,0,0.3-0.1,0.4-0.2s0.2-0.3,0.2-0.4c0-0.2-0.1-0.3-0.2-0.4c-0.1-0.1-0.3-0.2-0.4-0.2c-0.2,0-0.3,0.1-0.4,0.2
		c-0.1,0.1-0.2,0.3-0.2,0.4c0,0.2,0.1,0.3,0.2,0.4S124.4,132.7,124.5,132.7z M130.5,137c0-0.2-0.1-0.4-0.2-0.6
		c-0.1-0.2-0.3-0.3-0.5-0.4v1.2c0,0.2,0,0.3,0,0.4c0,0.1,0.1,0.1,0.2,0.1C130.4,137.8,130.5,137.5,130.5,137z"/>
	<path d="M131.5,127.5c0,0.8-0.3,1.4-0.9,1.9s-1.3,0.7-2.3,0.7c-0.3,0-0.6,0-0.9-0.1v-0.4c0.4,0,0.8-0.1,1-0.4
		c-0.2,0-0.4-0.1-0.6-0.3c-0.2-0.2-0.3-0.4-0.3-0.6s0.1-0.4,0.3-0.6c0.2-0.2,0.4-0.3,0.6-0.3c0.2,0,0.4,0.1,0.6,0.3
		c0.2,0.2,0.3,0.4,0.3,0.6c0,0.5-0.2,0.9-0.7,1.2c0.6,0,1.2-0.2,1.6-0.6c0.5-0.4,0.7-0.9,0.7-1.5H131.5z M128.3,128.8
		c0.1,0,0.2,0,0.3-0.1c0.1-0.1,0.1-0.2,0.1-0.3c0-0.1,0-0.2-0.1-0.3c-0.1-0.1-0.2-0.1-0.3-0.1c-0.1,0-0.2,0-0.3,0.1
		c-0.1,0.1-0.1,0.2-0.1,0.3c0,0.1,0,0.2,0.1,0.3C128.1,128.7,128.2,128.8,128.3,128.8z"/>
	<path d="M136.6,138.3h-1.1v-4.9c0-1.1-0.5-1.7-1.5-1.7c-0.7,0-1.2,0.3-1.7,1l-0.6-0.5c0.7-0.9,1.4-1.3,2.3-1.3
		c0.8,0,1.4,0.2,1.9,0.7c0.5,0.4,0.7,1.1,0.7,1.8V138.3z"/>
</g>
</svg>
