<svg id="to-move-icon" xmlns="http://www.w3.org/2000/svg" width="31.766" height="38.431" viewBox="0 0 31.766 38.431">
  <path id="Path_14493" data-name="Path 14493" d="M246.766,335.452a.564.564,0,0,0-.133.786,9.955,9.955,0,0,1,1.845,5.8v2.012h-4.266v-2.661a.564.564,0,1,0-1.128,0v6.093h-6.734a.564.564,0,1,0,0,1.128h12.692a.564.564,0,0,0,.564-.564v-6.008a11.076,11.076,0,0,0-2.054-6.45A.564.564,0,0,0,246.766,335.452Zm1.712,12.027h-4.266v-2.3h4.266Z" transform="translate(-221.421 -310.176)" fill="#fff"/>
  <path id="Path_14494" data-name="Path 14494" d="M233.235,224.79h-2.794a.564.564,0,0,0,0,1.128h2.794a.564.564,0,1,0,0-1.128Z" transform="translate(-215.955 -207.917)" fill="#fff"/>
  <path id="Path_14495" data-name="Path 14495" d="M195.289,172.152h-1.4a.564.564,0,0,0,0,1.128h1.4a.564.564,0,0,0,0-1.128Z" transform="translate(-182.151 -159.23)" fill="#fff"/>
  <path id="Path_14496" data-name="Path 14496" d="M287.014,172.152h-1.395a.564.564,0,0,0,0,1.128h1.395a.564.564,0,1,0,0-1.128Z" transform="translate(-266.991 -159.23)" fill="#fff"/>
  <path id="Path_14497" data-name="Path 14497" d="M61.626,334.135a.564.564,0,0,0-.788.124,10.672,10.672,0,0,0-1.772,6.554.564.564,0,1,0,1.128,0,9.62,9.62,0,0,1,1.556-5.891A.564.564,0,0,0,61.626,334.135Z" transform="translate(-57.965 -308.955)" fill="#fff"/>
  <path id="Path_14498" data-name="Path 14498" d="M415.966,334.135a.564.564,0,0,0-.124.788,9.621,9.621,0,0,1,1.556,5.891.564.564,0,1,0,1.128,0,10.672,10.672,0,0,0-1.772-6.554A.564.564,0,0,0,415.966,334.135Z" transform="translate(-387.861 -308.955)" fill="#fff"/>
  <path id="Path_14499" data-name="Path 14499" d="M73.344,1.622H68.679a4.218,4.218,0,0,0-1.543-.536,6.534,6.534,0,0,0-3.3.385C63.305.859,62.019-.088,59.186.007a6.789,6.789,0,0,0-3.951,1.615H51.586a.564.564,0,0,0,0,1.128h2.349c-.159.15-.315.3-.466.442a7.165,7.165,0,0,1-2.391,1.8,4.926,4.926,0,0,1-2.059,0,.568.568,0,0,0-.695.54,13.411,13.411,0,0,0,1.929,7.043A2.778,2.778,0,0,0,52.894,17.3a7.691,7.691,0,0,0,2.276,3.629H47.219a1.694,1.694,0,0,1-1.692-1.692V4.443A1.694,1.694,0,0,1,47.219,2.75H49.33a.564.564,0,0,0,0-1.128H47.219a2.823,2.823,0,0,0-2.82,2.82v14.8a2.823,2.823,0,0,0,2.82,2.82h6.589a11.145,11.145,0,0,0-5.829,9.8v6.008a.564.564,0,0,0,.564.564h8.529a.564.564,0,0,0,0-1.128H54.5V31.21a.564.564,0,1,0-1.128,0v2.661H49.107V31.859a10.026,10.026,0,0,1,7.274-9.64,3.929,3.929,0,0,0,7.8,0,10.017,10.017,0,0,1,4.012,2.241.564.564,0,0,0,.761-.833,11.15,11.15,0,0,0-2.2-1.566h6.587a2.823,2.823,0,0,0,2.82-2.82V4.443a2.823,2.823,0,0,0-2.82-2.82ZM53.373,35v2.3H49.107V35ZM52.1,16.293a1.652,1.652,0,1,1,.5-3.225v2.143a7.71,7.71,0,0,0,.063.982A1.648,1.648,0,0,1,52.1,16.293Zm.5-4.585v.2A2.759,2.759,0,0,0,51.232,12a12.5,12.5,0,0,1-1.771-5.809,5.432,5.432,0,0,0,1.91-.115,7.6,7.6,0,0,0,2.877-2.068c1.379-1.316,2.942-2.807,4.976-2.875a5.807,5.807,0,0,1,3.206.616,1.831,1.831,0,0,1,.7.655.549.549,0,0,0,.807.263A5.086,5.086,0,0,1,66.985,2.2a3.938,3.938,0,0,1,2.767,2.115c1.17,2.06,1.19,4.909.077,7.9a2.763,2.763,0,0,0-1.869-.314v-.093a2.8,2.8,0,0,0-.893-2.059h0a26.669,26.669,0,0,1-3.315-4.131.94.94,0,0,0-1.476-.108,15.631,15.631,0,0,1-8.307,4.53,1.694,1.694,0,0,0-1.366,1.66Zm17.51,2.934A1.651,1.651,0,0,1,67.9,16.193a7.724,7.724,0,0,0,.063-.982V13.068a1.651,1.651,0,0,1,2.153,1.573Zm-9.832,9.911a2.806,2.806,0,0,1-2.728-2.165,7.666,7.666,0,0,0,5.455,0A2.806,2.806,0,0,1,60.282,24.552Zm0-2.791a6.558,6.558,0,0,1-6.55-6.55v-3.5a.564.564,0,0,1,.454-.553,16.845,16.845,0,0,0,8.763-4.7A26.891,26.891,0,0,0,66.3,10.585a1.674,1.674,0,0,1,.53,1.23v3.4a6.558,6.558,0,0,1-6.55,6.55Zm14.755-2.52a1.694,1.694,0,0,1-1.692,1.692H65.394A7.691,7.691,0,0,0,67.67,17.3a2.778,2.778,0,0,0,3.056-4.274c1.392-3.456,1.4-6.819.007-9.269a6.372,6.372,0,0,0-.709-1.012h3.321a1.694,1.694,0,0,1,1.692,1.692Z" transform="translate(-44.399 0)" fill="#fff"/>
  <path id="Path_14500" data-name="Path 14500" d="M213.852,372.776a3.722,3.722,0,1,0-3.723,3.723A3.727,3.727,0,0,0,213.852,372.776Zm-6.317,0a2.592,2.592,0,0,1,3.985-2.188l-3.579,3.579A2.579,2.579,0,0,1,207.535,372.776Zm4.783-1.391a2.592,2.592,0,0,1-3.579,3.579Z" transform="translate(-194.247 -341.352)" fill="#fff"/>
</svg>
