<svg id="focus" xmlns="http://www.w3.org/2000/svg" width="39.943" height="39.943" viewBox="0 0 39.943 39.943">
  <path id="Path_8254" data-name="Path 8254" d="M59.008,132.085l.375-.611-.375-.612a22.508,22.508,0,0,0-4.5-4.971,20.279,20.279,0,0,0-26.559,0,22.725,22.725,0,0,0-4.531,4.968l-.382.617.382.617a22.724,22.724,0,0,0,4.531,4.968,20.279,20.279,0,0,0,26.559,0A22.5,22.5,0,0,0,59.008,132.085Zm-6.056,3.224a17.933,17.933,0,0,1-23.445,0,22.082,22.082,0,0,1-3.665-3.832,22.084,22.084,0,0,1,3.665-3.833,17.933,17.933,0,0,1,23.445,0,21.8,21.8,0,0,1,3.638,3.835A21.8,21.8,0,0,1,52.951,135.309Zm0,0" transform="translate(-21.242 -111.503)" fill="#fff"/>
  <path id="Path_8255" data-name="Path 8255" d="M172.9,165.867a7.031,7.031,0,1,0,7.031,7.031A7.039,7.039,0,0,0,172.9,165.867Zm0,11.723a4.691,4.691,0,1,1,4.691-4.691A4.7,4.7,0,0,1,172.9,177.59Zm0,0" transform="translate(-152.927 -152.927)" fill="#fff"/>
  <path id="Path_8256" data-name="Path 8256" d="M2.34,2.34H7.226V0H0V7.138H2.34Zm0,0" fill="#fff"/>
  <path id="Path_8257" data-name="Path 8257" d="M419.375,0V2.34h4.886v4.8h2.34V0Zm0,0" transform="translate(-386.658)" fill="#fff"/>
  <path id="Path_8258" data-name="Path 8258" d="M2.34,420.5H0v7.138H7.226V425.3H2.34Zm0,0" transform="translate(0 -387.696)" fill="#fff"/>
  <path id="Path_8259" data-name="Path 8259" d="M424.261,425.3h-4.886v2.34H426.6V420.5h-2.34Zm0,0" transform="translate(-386.658 -387.696)" fill="#fff"/>
</svg>
