<svg xmlns="http://www.w3.org/2000/svg" width="59.944" height="31.967" viewBox="0 0 59.944 31.967">
  <g id="front-of-computers-icon" transform="translate(0)">
    <g id="Group_3868" data-name="Group 3868" transform="translate(0 0)">
      <path id="Path_14501" data-name="Path 14501" d="M191.276,127.474l0,0h-.006Z" transform="translate(-140.579 -107.676)" fill="#fff"/>
      <path id="Path_14502" data-name="Path 14502" d="M171.127,63.233a6.812,6.812,0,0,0,2.824-5.344,5.1,5.1,0,0,0-9.691-2.241,2.382,2.382,0,0,1,.537,1.5v4.208a6.259,6.259,0,0,0,1.765,1.88,10.252,10.252,0,0,0-1.765.637v3.611a2.394,2.394,0,0,1-2.393,2.393h-1.651l.954.954v.985a28.339,28.339,0,0,0,7.132.765l-2.587-2.587,2.18-5.272h-.023l-.847-.97a3.6,3.6,0,0,0,2.558,0l-.845.97h-.023l2.182,5.272-2.589,2.587c4.622,0,9.247-.755,9.247-2.279C178.094,67.723,175.129,64.25,171.127,63.233Z" transform="translate(-118.148 -52.781)" fill="#fff"/>
      <path id="Path_14503" data-name="Path 14503" d="M113.894,73.35a9.613,9.613,0,0,1-.644,3.357h6.2a1.624,1.624,0,0,0,1.622-1.621V64.752a1.626,1.626,0,0,0-1.622-1.623H103.933a1.627,1.627,0,0,0-1.623,1.623V65.9a8.171,8.171,0,0,1,11.584,7.45Z" transform="translate(-75.194 -60.386)" fill="#fff"/>
      <path id="Path_14504" data-name="Path 14504" d="M138.8,119.572a11.105,11.105,0,0,1-.86,1.325h6.228v-.658l-.66-.665H138.8Z" transform="translate(-101.38 -101.87)" fill="#fff"/>
      <path id="Path_14505" data-name="Path 14505" d="M115.082,173.386l0,0h0Z" transform="translate(-84.579 -141.419)" fill="#fff"/>
      <path id="Path_14506" data-name="Path 14506" d="M89.016,90.275a8.8,8.8,0,0,0,3.655-6.914,6.6,6.6,0,0,0-12.54-2.9,3.081,3.081,0,0,1,.7,1.938v5.442a8.1,8.1,0,0,0,2.281,2.434,12.953,12.953,0,0,0-2.281.826v4.667a3.1,3.1,0,0,1-3.1,3.1H75.6L76.83,100.1v1.275a36.722,36.722,0,0,0,9.228.991l-3.35-3.347,2.826-6.823H85.5l-1.1-1.255a4.675,4.675,0,0,0,3.31,0l-1.093,1.254H86.6l2.822,6.823-3.35,3.347c5.982,0,11.963-.98,11.963-2.949C98.029,96.085,94.193,91.589,89.016,90.275Z" transform="translate(-55.561 -70.4)" fill="#fff"/>
      <path id="Path_14507" data-name="Path 14507" d="M12.993,109.49V107.7h9.179a2.105,2.105,0,0,0,2.1-2.1V92.235a2.106,2.106,0,0,0-2.1-2.1H2.1a2.1,2.1,0,0,0-2.1,2.1V105.6a2.105,2.105,0,0,0,2.1,2.1h9.18v1.788H4.857L4,110.349v.856H20.272v-.856l-.856-.858Z" transform="translate(0 -80.235)" fill="#fff"/>
    </g>
  </g>
</svg>
